<svg width="333" height="686" viewBox="0 0 333 686" fill="none" xmlns="http://www.w3.org/2000/svg">
<ellipse cx="162.5" cy="645.5" rx="141.5" ry="40.5" fill="black" fill-opacity="0.2"/>
<ellipse cx="167.033" cy="632.72" rx="98.8467" ry="27.5" fill="#89526F"/>
<path d="M15.1465 282.221H318.919L265.88 633.221H68.1862L15.1465 282.221Z" fill="#89526F"/>
<path d="M76.6652 624.5C66.5394 602.5 27.9651 317.5 27.9651 317.5C53.5206 438 67.0216 607 117.168 624.5C161.067 639.82 218.908 641 250.25 633C238.195 641 219.487 645.6 185.155 648C150.824 650.4 86.7909 646.5 76.6652 624.5Z" fill="#AE7E96"/>
<ellipse cx="166.833" cy="281.5" rx="160.566" ry="42.5" fill="#703352" stroke="#E3D9D9" stroke-width="10"/>
<path d="M169.448 320.191C60.717 321.28 33.3934 292.213 29.2956 287.213C29.2956 287.213 13.815 271.713 3.79819 234.214C-6.21862 196.715 7.34965 165.721 21.8821 144.221C45.3047 109.568 92.2735 91.2208 92.2735 91.2208C106.639 52.8703 117.062 32.8998 142.948 15.8998C168.834 -1.10009 195.174 -5.10022 222.806 6.97614C215.393 22.5626 209.718 45.1066 216.766 56.0011C223.813 66.8955 275.139 95.221 291.266 115.92C307.394 136.62 315.106 160.069 302.341 205.8C302.341 205.8 317.946 213.029 322.979 230.857C328.013 248.684 320.966 265.174 320.966 265.174C304.858 293.5 278.178 319.102 169.448 320.191Z" fill="#703352"/>
</svg>
