<svg width="333" height="686" viewBox="0 0 333 686" fill="none" xmlns="http://www.w3.org/2000/svg">
<path fill-rule="evenodd" clip-rule="evenodd" d="M41.3157 268.322C42.0661 268.873 42.4339 269.414 43.1695 270.496C43.9051 271.577 44.2728 272.118 45.1213 274.64C45.9697 277.163 48.8882 283.329 50.7301 284.941C52.572 286.553 54.8022 282.714 56.6659 283.546C58.5187 284.768 60.4763 290.675 62.34 291.508C64.1928 292.73 66.423 288.891 68.4285 284.655C70.4448 280.03 72.6968 275.411 74.6259 273.905C76.555 272.398 78.6217 274.406 80.4636 276.018C82.3055 277.631 84.4049 278.47 86.3122 277.743C88.2304 276.626 90.4279 273.956 92.357 272.45C94.2861 270.943 95.2786 269.3 96.0586 268.792C96.8386 268.283 98.3691 268.326 98.3691 268.326L97.4263 268.3C96.4836 268.273 94.3624 268.214 92.4769 268.161C90.5914 268.109 88.8853 268.731 86.9998 268.678C85.1143 268.626 82.3853 268.231 80.4998 268.178C78.6143 268.126 75.8853 268.231 73.9998 268.178C72.1143 268.126 70.8853 268.231 68.9998 268.178C67.1143 268.126 63.8853 267.731 61.9998 267.678C60.1143 267.626 57.3853 267.231 55.4998 267.178C53.6143 267.126 53.117 267.061 51.2315 267.008C49.346 266.955 47.2248 266.896 45.3393 266.843C43.4538 266.79 41.3326 266.731 40.3899 266.705L39.4471 266.678C39.4471 266.678 40.5653 267.771 41.3157 268.322Z" fill="#D7B493" fill-opacity="0.8"/>
<path fill-rule="evenodd" clip-rule="evenodd" d="M180.005 262.89C179.406 263.125 179.109 263.353 178.515 263.809C177.922 264.265 177.625 264.493 176.923 265.552C176.222 266.61 173.841 269.203 172.368 269.887C170.894 270.571 169.185 268.98 167.704 269.339C166.227 269.86 164.607 272.339 163.127 272.698C161.65 273.219 159.94 271.628 158.413 269.87C156.882 267.95 155.165 266.033 153.663 265.415C152.161 264.797 150.505 265.648 149.032 266.332C147.558 267.016 145.892 267.379 144.397 267.086C142.898 266.631 141.199 265.528 139.697 264.91C138.195 264.292 137.433 263.611 136.825 263.403C136.216 263.196 135.008 263.222 135.008 263.222L135.752 263.206C136.496 263.189 138.17 263.152 139.658 263.119C141.145 263.086 142.819 263.049 144.307 263.016C145.794 262.983 147.468 262.946 148.956 262.913C150.444 262.88 152.117 262.843 153.605 262.81C155.093 262.778 156.766 262.74 158.254 262.708C159.742 262.675 161.416 262.638 162.903 262.605C164.391 262.572 166.065 262.535 167.553 262.502C169.04 262.469 170.714 262.432 172.202 262.399C173.69 262.366 175.363 262.329 176.851 262.296C178.339 262.263 182.62 261.74 183.364 261.724L183.5 261.678C183.5 261.678 180.604 262.655 180.005 262.89Z" fill="#D7B493" fill-opacity="0.8"/>
<path fill-rule="evenodd" clip-rule="evenodd" d="M279.546 233.421C279.153 234.028 279.022 234.558 278.761 235.618C278.499 236.678 278.368 237.208 278.36 239.528C278.351 241.848 277.745 247.667 276.839 249.379C275.933 251.09 273.505 248.178 272.404 249.223C271.401 250.6 271.016 257.696 268.325 258.196C265.634 258.696 263.997 255.988 261.634 252.696C259.173 249.07 259.423 245.042 257.74 244.085C256.056 243.128 255.085 245.22 254.179 246.931C253.273 248.642 252.01 249.733 250.521 249.443C248.935 248.82 248.683 249.136 247 248.178C245.317 247.221 244.704 246.479 244.047 246.178C243.389 245.878 242 246.678 242 246.678L245 245.678C245.647 245.49 245.205 245.555 246.5 245.178C247.795 244.801 246.705 245.055 248 244.678C249.295 244.301 250.705 243.832 252 243.455C253.295 243.078 256.705 241.055 258 240.678C259.295 240.301 260.205 239.055 261.5 238.678C262.795 238.301 265.205 236.055 266.5 235.678C267.795 235.301 268.205 235.055 269.5 234.678C270.795 234.301 271.076 234.412 272.371 234.035C273.666 233.658 275.122 233.234 276.417 232.857C277.712 232.48 279.169 232.055 279.816 231.867L280.464 231.678C280.464 231.678 279.94 232.815 279.546 233.421Z" fill="#D7B493" fill-opacity="0.8"/>
<path d="M17 256.558C21.0345 258.061 25.1111 258.558 29.2421 259.448C33.2822 260.318 37.0263 261.25 41.1356 261.752C43.0754 261.989 45.1089 261.83 47.063 261.83C49.7047 261.83 52.1887 262.26 54.8111 262.455C63.0708 263.069 71.3053 263.587 79.586 263.587C85.4519 263.587 91.37 263.804 97.2324 263.568C100.761 263.426 104.363 262.746 107.809 262.006C114.429 260.584 121.085 260.72 127.818 260.053C133.543 259.486 139.194 257.964 144.942 257.964C147.86 257.964 150.779 257.964 153.697 257.964C159.395 257.964 165.081 257.612 170.763 257.612C183.15 257.612 194.92 254.717 206.831 251.715C211.237 250.605 215.444 249.085 219.77 247.693C222.67 246.76 224.468 244.827 227.596 244.413C234.682 243.474 241.389 241.732 248.167 239.511C253.598 237.732 258.677 234.78 263.528 231.76C266.65 229.816 270.58 229.665 274.027 228.479C277.57 227.26 281.172 226.845 284.68 225.316C289.894 223.043 295.01 221.336 299.731 218.091C301.428 216.925 304.284 215.843 305 213.678" stroke="#D7B493" stroke-opacity="0.8" stroke-width="10" stroke-linecap="round"/>
<path fill-rule="evenodd" clip-rule="evenodd" d="M34.5002 140.179C35.0026 140.788 34.1399 141.752 34.5002 142.679C34.8604 143.605 36.3059 141.751 36.4098 143.597C36.5138 145.442 37.4848 150.262 38.6547 151.915C39.8247 153.569 42.6567 152.043 44.0357 153.23C45.3102 154.65 45.5288 158.961 46.9078 160.148C48.1823 161.568 51.0143 160.042 53.7523 158.193C56.5948 156.111 59.6358 154.118 61.6421 153.903C63.6483 153.689 64.9122 155.666 66.0822 157.319C67.2522 158.972 68.8297 160.249 70.6269 160.501C72.5286 160.52 75.0469 159.695 77.0532 159.48C79.0594 159.266 80.3036 158.627 81.0902 158.602C81.8768 158.576 83.1659 159.16 83.1659 159.16L82.3718 158.8C81.5778 158.441 79.7912 157.631 78.2031 156.912C76.615 156.193 73.864 154.623 72.2759 153.903C70.6878 153.184 69.0003 152.679 67.5 152.678C65.9997 152.678 62.5883 151.898 61.0002 151.179C59.4121 150.459 58.0883 150.898 56.5002 150.179C54.9121 149.459 52.5883 148.898 51.0002 148.179C49.4121 147.459 47.5878 146.898 45.9997 146.178C44.4116 145.459 43.5883 144.898 42.0002 144.179C40.4121 143.459 38.5883 141.898 37.0002 141.179C35.4121 140.459 35.7942 140.038 35.0002 139.679L33.4997 138.178C33.4997 138.178 33.9978 139.569 34.5002 140.179Z" fill="#D7B493" fill-opacity="0.8"/>
<path fill-rule="evenodd" clip-rule="evenodd" d="M158.69 177.247C158.086 177.454 157.758 177.707 157.101 178.212C156.445 178.717 156.116 178.969 155.207 180.262C154.297 181.555 151.468 184.604 149.955 185.258C148.442 185.912 147.301 183.476 145.865 183.693C144.39 184.128 142.281 187.16 140.845 187.376C139.371 187.811 138.23 185.376 137.297 182.75C136.403 179.905 135.339 177.033 134.135 175.937C132.932 174.842 131.21 175.687 129.697 176.341C128.183 176.995 126.578 177.183 125.297 176.525C124.054 175.648 122.797 173.869 121.593 172.774C120.39 171.678 119.874 170.631 119.375 170.245C118.877 169.858 117 169.179 117 169.179L119 169.679C119.679 169.789 119 169.679 120.5 170.179C122 170.679 124.642 171.458 126 171.679C127.359 171.899 127.642 171.958 129 172.179C130.359 172.399 131.642 172.958 133 173.179C134.359 173.399 136.642 173.958 138 174.179C139.359 174.399 141.642 174.958 143 175.179C144.359 175.399 145.642 175.458 147 175.679C148.359 175.899 150.142 175.958 151.5 176.179C152.859 176.399 155.743 176.248 157.101 176.468C158.46 176.689 158.868 176.358 159.547 176.468L160.226 176.579C160.226 176.579 159.294 177.039 158.69 177.247Z" fill="#D7B493" fill-opacity="0.8"/>
<path fill-rule="evenodd" clip-rule="evenodd" d="M199.112 177.64C198.542 177.927 198.251 178.222 197.668 178.811C197.086 179.4 196.795 179.695 196.069 181.099C195.343 182.503 192.952 185.906 191.542 186.759C190.131 187.612 188.67 185.353 187.277 185.762C185.875 186.393 184.196 189.682 182.802 190.091C181.4 190.722 179.94 188.464 178.66 185.988C177.39 183.29 175.947 180.588 174.606 179.665C173.265 178.743 171.674 179.813 170.263 180.666C168.852 181.518 167.287 181.923 165.928 181.444C164.579 180.743 163.092 179.151 161.751 178.228C160.41 177.306 160.046 176.994 159.5 176.678C158.953 176.362 159.211 176.462 159.211 176.462L160.132 176.462C160.82 176.48 166.624 176.143 168 176.178C166.624 176.143 169.376 176.213 168 176.178C169.376 176.213 170.624 176.143 172 176.178C173.376 176.213 173.624 176.143 175 176.178C176.376 176.213 177.67 176.189 179.046 176.224C180.422 176.259 181.654 176.023 183 176.178C184.345 176.333 186.269 176.408 187.645 176.443C189.021 176.478 190.569 176.517 191.945 176.552C193.32 176.587 194.868 176.626 196.244 176.661C197.62 176.696 199.168 176.735 199.856 176.753L200.544 176.77C200.544 176.77 199.682 177.352 199.112 177.64Z" fill="#D7B493" fill-opacity="0.8"/>
<path fill-rule="evenodd" clip-rule="evenodd" d="M271.552 176.627C272.151 176.875 272.503 177.182 273.207 177.796C273.911 178.41 274.263 178.717 275.35 180.3C276.436 181.883 279.633 185.606 281.16 186.391C282.688 187.176 283.292 184.153 284.666 184.399C286.116 184.914 289.729 189.605 292.132 188.802C294.536 188 294.597 185.452 294.971 182.195C295.27 178.669 293.194 176.019 294.107 174.649C295.019 173.278 296.776 174.296 298.304 175.081C299.831 175.866 301.357 176.076 302.424 175.245C303.413 174.143 304.248 171.928 305.161 170.557C306.074 169.187 306.357 167.886 306.748 167.401C307.138 166.916 308 165.679 308 165.679L307 166.679C306.39 166.825 306.22 167.386 305 167.679C303.78 167.971 302.22 168.886 301 169.179C299.78 169.471 298.72 169.886 297.5 170.179C296.28 170.471 294.72 170.886 293.5 171.179C292.28 171.471 289.72 172.386 288.5 172.679C287.28 172.971 285.72 173.386 284.5 173.679C283.28 173.971 282.72 173.886 281.5 174.179C280.28 174.471 276.22 174.386 275 174.679C273.78 174.971 275.033 174.618 273.813 174.91C272.593 175.203 272.611 175.032 272 175.178L268.5 175.678C268.5 175.678 270.952 176.38 271.552 176.627Z" fill="#D7B493" fill-opacity="0.8"/>
<path d="M303.981 162.709C300.356 164.412 296.636 165.112 292.889 166.207C289.223 167.278 285.834 168.396 282.085 169.103C280.315 169.436 278.438 169.379 276.642 169.477C274.215 169.609 271.955 170.163 269.556 170.488C261.999 171.515 254.461 172.444 246.851 172.858C241.461 173.151 236.034 173.664 230.634 173.721C227.384 173.755 224.037 173.257 220.831 172.69C214.67 171.601 208.561 172.07 202.337 171.741C196.5 172.178 192.282 171.164 187 171.451C184.319 171.597 183.182 171.032 180.5 171.178C175.265 171.463 167.963 171.167 162.742 171.451C151.359 172.071 140.385 169.768 129.278 167.366C125.168 166.478 121.22 165.171 117.169 163.997C114.453 163.21 112.696 161.37 109.799 161.113C103.236 160.53 96.9782 159.126 90.6294 157.248C85.5422 155.743 80.7147 153.049 76.0928 150.275C73.1179 148.49 69.4982 148.537 66.2669 147.525C62.9449 146.484 59.6124 146.251 56.305 144.899C51.3901 142.89 46.5969 141.442 42.0818 138.437C40.4588 137.357 37.7759 136.42 37.0004 134.294" stroke="#D7B493" stroke-opacity="0.8" stroke-width="10" stroke-linecap="round"/>
<path fill-rule="evenodd" clip-rule="evenodd" d="M187.733 79.2311C186.998 79.7501 186.63 80.2648 185.894 81.2942C185.157 82.3236 184.789 82.8383 183.903 85.253C183.016 87.6677 180.04 93.5573 178.228 95.0801C176.416 96.603 174.39 92.8727 172.58 93.6447C170.769 94.7922 168.721 100.447 166.911 101.219C165.099 102.367 163.074 98.6365 161.275 94.5281C159.477 90.0443 158.49 92.1783 153.99 92.1783C149.49 92.1783 151.804 84.5031 149.992 86.026C148.18 87.5489 146.143 88.3236 144.336 87.5939C142.53 86.4889 140.502 83.8848 138.697 82.4043C136.892 80.9239 135.988 79.3274 135.256 78.8256C134.523 78.3238 130.5 73.1783 130.5 73.1783C130.5 73.1783 133 74.1783 134 74.6783C135 75.1783 136.5 75.6783 137.5 76.1783C138.5 76.6783 141.5 77.6783 142.5 77.6783C143.5 77.6783 145.691 78.1995 147.5 78.1783C149.308 78.1571 153.191 78.6995 155 78.6783C156.808 78.6571 159.191 77.6995 161 77.6783C162.808 77.6571 165.157 77.9646 166.965 77.9434C168.774 77.9222 170.808 77.8983 172.617 77.8771C174.425 77.8559 174.5 77.6783 177 77.6783C179.5 77.6783 180.691 76.1995 182.5 76.1783C184.308 76.1571 186.829 75.1889 187.733 75.1783L191 74.1783C191 74.1783 188.469 78.7121 187.733 79.2311Z" fill="#D7B493" fill-opacity="0.8"/>
<path d="M111 60.7215C113.068 61.2314 114.75 62.7952 116.442 64.0136C117.398 64.7019 118.504 64.9727 119.599 65.362C120.669 65.7422 121.688 66.2729 122.765 66.6228C125.16 67.4007 127.641 68.0321 130.161 68.1376C131.384 68.1887 132.516 68.618 133.632 69.0919C135.564 69.9127 137.433 70.8817 139.38 71.6836C141.818 72.6881 144.453 72.8291 147.037 73.1808C150.942 73.7125 155.133 74.0465 158.968 72.9619C160.806 72.4421 163.071 72.8475 164.968 72.8569C167.182 72.8678 169.388 73.0145 171.605 73.0145C173.966 73.0145 176.22 72.8897 178.521 72.349C180.503 71.8834 182.445 71.2944 184.417 70.808C186.436 70.3102 188.428 69.9897 190.348 69.1269C193.161 67.8627 195.71 65.8123 198.267 64.1012C201.673 61.8212 205.091 59.6981 208.61 57.6045C209.399 57.1351 210.449 56.4156 211 55.6782" stroke="#D7B493" stroke-opacity="0.8" stroke-width="10" stroke-linecap="round"/>
</svg>
