<svg width="333" height="686" viewBox="0 0 333 686" fill="none" xmlns="http://www.w3.org/2000/svg">
<path fill-rule="evenodd" clip-rule="evenodd" d="M146.092 419.657C167.521 410.67 186.53 413.279 206.334 413.695C227.159 414.132 250.47 413.469 258.103 426.823C265.746 440.197 265.044 469.866 256.208 487.928C246.457 507.86 231.412 516.676 208.643 531.51C185.15 546.816 157.442 545.903 135.095 543.008C114.816 540.381 102.529 529.563 93.2469 516.561C83.015 502.229 69.2568 487.03 80.4621 466.483C91.6882 445.897 120.342 430.456 146.092 419.657Z" fill="#703352"/>
<path d="M96.1689 503.441C92.8651 503.441 90.112 502.339 87.9095 500.137C85.762 497.989 84.6883 495.484 84.6883 492.621C84.6883 489.702 85.3766 487.004 86.7532 484.527C88.1297 481.994 90.0845 479.654 92.6173 477.506C95.2053 475.359 98.5641 473.597 102.694 472.22C106.823 470.788 111.394 469.99 116.404 469.825C119.323 462.612 121.911 454.545 124.168 445.625C124.223 445.294 124.251 444.881 124.251 444.386C124.251 443.835 123.976 443.367 123.425 442.982V442.156C128.16 441.275 132.483 440.834 136.392 440.834L141.348 441.165C142.779 443.698 143.578 447.222 143.743 451.737C143.908 456.197 144.018 463.961 144.073 475.028C150.02 477.616 155.113 480.892 159.353 484.857C159.133 485.573 158.692 486.289 158.032 487.004C157.426 487.665 156.848 488.161 156.297 488.491L155.471 488.987C152.223 485.793 148.451 483.067 144.156 480.81C144.266 483.948 144.569 486.591 145.064 488.739C145.835 492.263 146.744 494.025 147.79 494.025C148.396 494.025 149.112 493.887 149.938 493.612L151.176 496.833C147.377 499.256 143.743 500.467 140.274 500.467C134.548 500.467 131.684 496.145 131.684 487.5V476.68C127.83 475.744 124.333 475.166 121.195 474.946C114.037 493.942 105.695 503.441 96.1689 503.441ZM114.34 474.863C108.117 475.359 102.942 477.534 98.8119 481.388C94.6822 485.242 92.6173 488.849 92.6173 492.208C92.6173 495.567 93.9113 497.246 96.4993 497.246C101.785 497.246 107.732 489.785 114.34 474.863ZM130.776 447.442C130.666 447.387 130.445 447.359 130.115 447.359C129.785 447.359 129.564 447.387 129.454 447.442C128.959 451.627 126.811 459.143 123.012 469.99C125.71 470.155 128.601 470.541 131.684 471.146C131.684 457.601 131.381 449.699 130.776 447.442ZM171.713 467.017C169.511 467.017 167.749 468.861 166.427 472.55C165.106 476.185 164.445 480.094 164.445 484.279C164.445 490.886 166.482 494.19 170.557 494.19C171.878 494.19 173.283 493.887 174.769 493.282C176.256 492.621 177.44 491.988 178.321 491.382L179.56 490.391L181.459 492.951C181.074 493.337 180.551 493.86 179.89 494.52C179.229 495.126 177.853 496.062 175.76 497.329C173.723 498.595 171.658 499.476 169.566 499.972C168.189 500.963 166.978 502.174 165.932 503.606C164.941 505.037 164.445 506.414 164.445 507.735C164.445 509.112 165.106 509.8 166.427 509.8C167.749 509.8 169.318 509.277 171.135 508.231L172.044 507.653L173.53 509.966C173.145 510.351 172.622 510.819 171.961 511.37C171.3 511.975 169.979 512.746 167.997 513.682C166.014 514.673 164.17 515.169 162.463 515.169C160.756 515.169 159.379 514.646 158.333 513.6C157.287 512.609 156.764 511.287 156.764 509.635C156.764 508.038 157.452 506.386 158.829 504.679C160.205 503.028 161.774 501.596 163.536 500.385C159.792 499.999 156.984 498.43 155.112 495.677C153.295 492.924 152.386 489.345 152.386 484.94C152.386 478.387 154.176 473.074 157.755 468.999C161.389 464.924 166.042 462.887 171.713 462.887C175.402 462.887 178.321 463.74 180.468 465.447C182.671 467.099 183.772 469.164 183.772 471.642C183.772 474.065 183.001 476.157 181.459 477.919C180.083 477.919 178.486 477.616 176.669 477.011C174.852 476.405 173.475 475.661 172.539 474.78L173.778 467.512C173.283 467.182 172.594 467.017 171.713 467.017ZM210.158 465.282C210.268 465.172 210.571 464.456 211.066 463.135C213.654 463.135 217.123 463.906 221.473 465.447C220.096 470.018 218.995 474.808 218.169 479.819C217.343 484.774 216.93 488.326 216.93 490.473C216.93 492.566 217.15 493.612 217.591 493.612C217.921 493.612 219.133 493.089 221.225 492.043L222.216 491.547L223.703 494.438C223.207 494.878 222.547 495.429 221.721 496.09C220.95 496.75 219.463 497.659 217.261 498.815C215.058 499.917 213.076 500.467 211.314 500.467C207.9 500.467 205.918 498.925 205.367 495.842C201.843 498.925 198.649 500.467 195.786 500.467C192.978 500.467 190.583 499.366 188.601 497.163C186.673 494.961 185.71 491.492 185.71 486.757C185.71 479.378 187.224 473.569 190.252 469.329C193.281 465.034 196.943 462.887 201.237 462.887C204.321 462.887 207.294 463.685 210.158 465.282ZM200.742 493.447C202.063 493.447 203.55 492.924 205.202 491.877C205.587 484.114 206.881 476.432 209.084 468.834C207.432 468.118 206.028 467.76 204.872 467.76C202.889 467.76 201.182 469.715 199.751 473.624C198.374 477.479 197.686 481.746 197.686 486.426C197.686 491.107 198.705 493.447 200.742 493.447ZM226.798 454.462C231.423 451.985 237.975 447.717 246.455 441.66C247.006 442.431 247.611 443.643 248.272 445.294C248.988 446.946 249.346 448.185 249.346 449.011C249.346 450.553 248.355 451.792 246.372 452.728C242.188 454.655 236.158 456.362 228.284 457.849L226.798 454.462ZM237.865 491.382C237.865 492.869 238.113 493.612 238.609 493.612C238.939 493.612 240.205 493.089 242.408 492.043L243.399 491.547L244.803 494.438C244.308 494.878 243.647 495.429 242.821 496.09C241.995 496.75 240.453 497.659 238.196 498.815C235.938 499.917 233.846 500.467 231.918 500.467C229.991 500.467 228.477 499.889 227.376 498.733C226.275 497.521 225.724 495.925 225.724 493.942C225.724 491.905 226.412 488.326 227.789 483.205C229.165 478.029 229.854 474.67 229.854 473.129C229.854 470.816 229.138 468.641 227.706 466.604L226.963 465.613L227.045 464.539C229.964 463.713 234.699 463.3 241.252 463.3C241.967 464.126 242.325 465.723 242.325 468.09C242.325 470.458 241.609 474.395 240.178 479.901C238.746 485.353 238.003 488.574 237.948 489.565C237.893 490.501 237.865 491.107 237.865 491.382Z" fill="#F7B90A"/>
<path d="M149.474 452.914C149.474 451.744 149.708 450.718 150.176 449.837C150.658 448.942 151.319 448.254 152.158 447.772C152.998 447.291 153.962 447.05 155.049 447.05C156.426 447.05 157.561 447.38 158.456 448.041C159.365 448.688 159.977 449.617 160.294 450.828H157.754C157.548 450.264 157.217 449.823 156.763 449.507C156.309 449.19 155.738 449.032 155.049 449.032C154.086 449.032 153.315 449.376 152.737 450.064C152.172 450.739 151.89 451.689 151.89 452.914C151.89 454.139 152.172 455.096 152.737 455.784C153.315 456.472 154.086 456.816 155.049 456.816C156.412 456.816 157.314 456.218 157.754 455.02H160.294C159.964 456.176 159.344 457.099 158.436 457.787C157.527 458.461 156.398 458.799 155.049 458.799C153.962 458.799 152.998 458.558 152.158 458.076C151.319 457.58 150.658 456.892 150.176 456.011C149.708 455.116 149.474 454.084 149.474 452.914ZM171.704 447.235V458.613H169.351V457.271C168.979 457.739 168.49 458.11 167.885 458.386C167.293 458.647 166.659 458.778 165.985 458.778C165.09 458.778 164.285 458.592 163.569 458.22C162.867 457.849 162.309 457.298 161.896 456.569C161.497 455.839 161.298 454.958 161.298 453.926V447.235H163.631V453.575C163.631 454.593 163.886 455.378 164.395 455.928C164.904 456.465 165.599 456.734 166.48 456.734C167.361 456.734 168.057 456.465 168.566 455.928C169.089 455.378 169.351 454.593 169.351 453.575V447.235H171.704ZM177.701 458.799C176.806 458.799 176.001 458.64 175.285 458.324C174.583 457.993 174.026 457.553 173.613 457.002C173.2 456.438 172.979 455.811 172.952 455.123H175.388C175.43 455.605 175.657 456.011 176.07 456.341C176.497 456.658 177.027 456.816 177.66 456.816C178.321 456.816 178.83 456.692 179.188 456.445C179.559 456.183 179.745 455.853 179.745 455.454C179.745 455.027 179.539 454.71 179.126 454.504C178.727 454.297 178.087 454.07 177.206 453.822C176.352 453.588 175.657 453.361 175.12 453.141C174.583 452.921 174.115 452.583 173.716 452.129C173.33 451.675 173.138 451.076 173.138 450.333C173.138 449.727 173.317 449.176 173.675 448.681C174.033 448.172 174.542 447.772 175.203 447.483C175.877 447.194 176.648 447.05 177.515 447.05C178.809 447.05 179.849 447.38 180.633 448.041C181.432 448.688 181.858 449.576 181.913 450.704H179.559C179.518 450.195 179.312 449.789 178.94 449.486C178.568 449.183 178.066 449.032 177.433 449.032C176.813 449.032 176.338 449.149 176.008 449.383C175.678 449.617 175.512 449.927 175.512 450.312C175.512 450.615 175.622 450.87 175.843 451.076C176.063 451.283 176.331 451.448 176.648 451.572C176.965 451.682 177.433 451.826 178.052 452.005C178.878 452.226 179.553 452.453 180.076 452.687C180.613 452.907 181.074 453.237 181.459 453.678C181.845 454.118 182.044 454.703 182.058 455.433C182.058 456.08 181.879 456.658 181.521 457.167C181.163 457.677 180.654 458.076 179.993 458.365C179.346 458.654 178.582 458.799 177.701 458.799ZM186.109 449.156V455.454C186.109 455.88 186.205 456.19 186.398 456.383C186.604 456.562 186.948 456.651 187.43 456.651H188.876V458.613H187.017C185.957 458.613 185.145 458.365 184.581 457.869C184.016 457.374 183.734 456.569 183.734 455.454V449.156H182.392V447.235H183.734V444.407H186.109V447.235H188.876V449.156H186.109ZM194.741 458.799C193.668 458.799 192.697 458.558 191.83 458.076C190.963 457.58 190.281 456.892 189.786 456.011C189.29 455.116 189.042 454.084 189.042 452.914C189.042 451.757 189.297 450.732 189.806 449.837C190.316 448.942 191.011 448.254 191.892 447.772C192.773 447.291 193.757 447.05 194.844 447.05C195.932 447.05 196.916 447.291 197.797 447.772C198.678 448.254 199.373 448.942 199.883 449.837C200.392 450.732 200.647 451.757 200.647 452.914C200.647 454.07 200.385 455.096 199.862 455.99C199.339 456.885 198.623 457.58 197.715 458.076C196.82 458.558 195.829 458.799 194.741 458.799ZM194.741 456.754C195.347 456.754 195.911 456.61 196.434 456.321C196.971 456.032 197.405 455.598 197.735 455.02C198.066 454.442 198.231 453.74 198.231 452.914C198.231 452.088 198.073 451.393 197.756 450.828C197.439 450.25 197.019 449.817 196.496 449.527C195.973 449.238 195.409 449.094 194.803 449.094C194.198 449.094 193.633 449.238 193.11 449.527C192.601 449.817 192.195 450.25 191.892 450.828C191.589 451.393 191.437 452.088 191.437 452.914C191.437 454.139 191.747 455.089 192.367 455.763C193 456.424 193.791 456.754 194.741 456.754ZM215.507 447.05C216.402 447.05 217.201 447.235 217.903 447.607C218.618 447.979 219.176 448.529 219.575 449.259C219.988 449.989 220.195 450.87 220.195 451.902V458.613H217.861V452.253C217.861 451.234 217.607 450.457 217.097 449.92C216.588 449.369 215.893 449.094 215.012 449.094C214.131 449.094 213.429 449.369 212.906 449.92C212.396 450.457 212.142 451.234 212.142 452.253V458.613H209.808V452.253C209.808 451.234 209.554 450.457 209.044 449.92C208.535 449.369 207.84 449.094 206.959 449.094C206.078 449.094 205.376 449.369 204.853 449.92C204.343 450.457 204.089 451.234 204.089 452.253V458.613H201.735V447.235H204.089V448.536C204.474 448.068 204.963 447.704 205.555 447.442C206.147 447.18 206.78 447.05 207.454 447.05C208.363 447.05 209.175 447.242 209.891 447.628C210.607 448.013 211.157 448.571 211.543 449.3C211.887 448.612 212.424 448.068 213.153 447.669C213.883 447.256 214.668 447.05 215.507 447.05Z" fill="white"/>
</svg>
