<svg width="48" height="48" viewBox="0 0 48 48" fill="none" xmlns="http://www.w3.org/2000/svg">
<circle cx="24" cy="24" r="24" fill="#642B48"/>
<path d="M12.7333 26.3965C13.0702 26.2021 13.4705 26.1493 13.8462 26.25C14.2219 26.3507 14.5423 26.5965 14.7368 26.9333C15.6376 28.4949 16.934 29.7915 18.4953 30.6926C20.0567 31.5938 21.8279 32.0677 23.6306 32.0667C25.4334 32.0677 27.2046 31.5938 28.7659 30.6926C30.3273 29.7915 31.6236 28.4949 32.5245 26.9333C32.6201 26.7652 32.748 26.6176 32.9009 26.4991C33.0537 26.3806 33.2285 26.2935 33.4152 26.2428C33.6019 26.1921 33.7967 26.1789 33.9885 26.2038C34.1803 26.2287 34.3653 26.2914 34.5328 26.3881C34.7003 26.4848 34.8471 26.6137 34.9646 26.7673C35.0821 26.921 35.168 27.0964 35.2174 27.2834C35.2669 27.4704 35.2788 27.6653 35.2526 27.8569C35.2264 28.0486 35.1626 28.2331 35.0648 28.4C33.9065 30.4074 32.2398 32.0743 30.2326 33.233C28.2253 34.3916 25.9483 35.001 23.6306 35C21.313 35.001 19.036 34.3916 17.0287 33.233C15.0214 32.0743 13.3548 30.4074 12.1965 28.4C12.002 28.0631 11.9493 27.6628 12.05 27.2871C12.1506 26.9114 12.3964 26.591 12.7333 26.3965ZM20.6973 17.4C20.6973 19.8288 19.3832 21.8 17.764 21.8C16.1448 21.8 14.8306 19.8288 14.8306 17.4C14.8306 14.9712 16.1448 13 17.764 13C19.3832 13 20.6973 14.9712 20.6973 17.4ZM32.4306 17.4C32.4306 19.8288 31.1165 21.8 29.4973 21.8C27.8781 21.8 26.564 19.8288 26.564 17.4C26.564 14.9712 27.8781 13 29.4973 13C31.1165 13 32.4306 14.9712 32.4306 17.4Z" fill="#DDDDDD"/>
</svg>
