<svg width="51" height="38" viewBox="0 0 51 38" fill="none" xmlns="http://www.w3.org/2000/svg">
<path d="M-2.97386e-08 6.33333C-2.18514e-08 4.65363 0.66726 3.04272 1.85499 1.85499C3.04272 0.66726 4.65363 2.18514e-08 6.33333 2.97386e-08L44.3333 2.0817e-07C46.013 2.16057e-07 47.6239 0.66726 48.8117 1.85499C49.9994 3.04272 50.6667 4.65363 50.6667 6.33333L50.6667 31.6667C50.6667 33.3464 49.9994 34.9573 48.8117 36.145C47.6239 37.3327 46.013 38 44.3333 38L6.33333 38C4.65363 38 3.04272 37.3327 1.85499 36.145C0.66726 34.9573 -1.5658e-07 33.3464 -1.48693e-07 31.6667L-2.97386e-08 6.33333ZM6.33333 3.16667C5.49348 3.16667 4.68803 3.5003 4.09416 4.09416C3.5003 4.68803 3.16667 5.49348 3.16667 6.33333L3.16667 9.5L47.5 9.5L47.5 6.33333C47.5 5.49348 47.1664 4.68803 46.5725 4.09416C45.9786 3.5003 45.1732 3.16667 44.3333 3.16667L6.33333 3.16667ZM47.5 15.8333L3.16667 15.8333L3.16667 31.6667C3.16667 32.5065 3.5003 33.312 4.09416 33.9058C4.68803 34.4997 5.49348 34.8333 6.33333 34.8333L44.3333 34.8333C45.1732 34.8333 45.9786 34.4997 46.5725 33.9058C47.1664 33.312 47.5 32.5065 47.5 31.6667L47.5 15.8333Z" fill="#DDDDDD"/>
</svg>
