<svg width="56" height="56" viewBox="0 0 56 56" fill="none" xmlns="http://www.w3.org/2000/svg">
<path d="M26.5124 31.9924C27.1031 31.4018 28.1203 31.4018 28.7109 31.9924L37.1328 40.4143C38.6859 41.9674 40.7531 42.8205 42.9406 42.8205H44.5921L33.9718 53.4408C30.6578 56.6674 25.2765 56.6674 21.9624 53.4408L11.2984 42.7877H12.3156C14.5031 42.7877 16.5703 41.9346 18.1234 40.3814L26.5124 31.9924ZM28.7109 23.9424C28.0109 24.5439 27.114 24.5549 26.5124 23.9424L18.1234 15.5533C16.5703 13.9018 14.5031 13.1471 12.3156 13.1471H11.2984L21.9515 2.48956C25.2765 -0.829529 30.6578 -0.829529 33.9718 2.48956L44.6031 13.1143H42.9406C40.7531 13.1143 38.6859 13.9674 37.1328 15.5205L28.7109 23.9424ZM12.3156 15.608C13.8249 15.608 15.214 16.2205 16.3734 17.2924L24.7624 25.6814C25.5499 26.3705 26.5781 26.8627 27.6171 26.8627C28.6453 26.8627 29.6734 26.3705 30.4609 25.6814L38.8828 17.2596C39.9546 16.1986 41.4312 15.5861 42.9406 15.5861H47.064L53.4406 21.9627C56.7546 25.2768 56.7546 30.658 53.4406 33.9721L47.064 40.3486H42.9406C41.4312 40.3486 39.9546 39.7361 38.8828 38.6643L30.4609 30.2424C28.9406 28.7221 26.2828 28.7221 24.7624 30.2533L16.3734 38.6314C15.214 39.7033 13.8249 40.3158 12.3156 40.3158H8.83526L2.48932 33.9721C-0.829773 30.658 -0.829773 25.2768 2.48932 21.9627L8.83526 15.608H12.3156Z" fill="#DDDDDD"/>
</svg>
