<svg width="69" height="72" viewBox="0 0 69 72" fill="none" xmlns="http://www.w3.org/2000/svg">
<rect x="23" y="29" width="5.51741" height="1.16156" rx="0.58078" fill="#4F260F"/>
<rect x="19.1292" y="69.3401" width="5.51741" height="1.16156" rx="0.58078" transform="rotate(16.2599 19.1292 69.3401)" fill="#4F260F"/>
<rect x="64.0244" y="55.2371" width="5.51741" height="1.16156" rx="0.58078" transform="rotate(28.8628 64.0244 55.2371)" fill="#4F260F"/>
<rect x="53.447" y="45.835" width="5.51741" height="1.16156" rx="0.58078" transform="rotate(28.8628 53.447 45.835)" fill="#4F260F"/>
<rect x="41.75" y="18.8042" width="5.51741" height="1.16156" rx="0.58078" transform="rotate(32.036 41.75 18.8042)" fill="#4F260F"/>
<rect x="43.8877" width="5.51741" height="1.16156" rx="0.58078" transform="rotate(85.2528 43.8877 0)" fill="#4F260F"/>
<rect x="13.1902" y="16.4714" width="5.51741" height="1.16156" rx="0.58078" transform="rotate(-139.417 13.1902 16.4714)" fill="#4F260F"/>
<rect x="12.761" y="58.1597" width="5.51741" height="1.16156" rx="0.58078" transform="rotate(-145.269 12.761 58.1597)" fill="#4F260F"/>
<rect x="39.4077" y="59.7576" width="5.51741" height="1.16156" rx="0.58078" transform="rotate(148.927 39.4077 59.7576)" fill="#4F260F"/>
<rect x="39.8901" y="37.6082" width="5.51741" height="1.16156" rx="0.58078" transform="rotate(72.3088 39.8901 37.6082)" fill="#4F260F"/>
<rect x="57.519" y="14.103" width="5.51741" height="1.16156" rx="0.58078" transform="rotate(72.3088 57.519 14.103)" fill="#4F260F"/>
<rect x="22.9746" y="44.6597" width="5.51741" height="1.16156" rx="0.58078" transform="rotate(33.7105 22.9746 44.6597)" fill="#4F260F"/>
<rect y="33.949" width="5.51741" height="1.16156" rx="0.58078" transform="rotate(-10.363 0 33.949)" fill="#4F260F"/>
<rect x="27.0308" y="5.89062" width="5.51741" height="1.16156" rx="0.58078" transform="rotate(-0.147527 27.0308 5.89062)" fill="#4F260F"/>
<rect x="50.5359" y="68.1792" width="5.51741" height="1.16156" rx="0.58078" transform="rotate(-0.147527 50.5359 68.1792)" fill="#4F260F"/>
<rect x="61.1133" y="32.9214" width="5.51741" height="1.16156" rx="0.58078" transform="rotate(-0.147527 61.1133 32.9214)" fill="#4F260F"/>
</svg>
