<svg width="188" height="132" viewBox="0 0 188 132" fill="none" xmlns="http://www.w3.org/2000/svg">
<path fill-rule="evenodd" clip-rule="evenodd" d="M70.0924 6.65699C91.5212 -2.32978 110.53 0.278761 130.334 0.694903C151.159 1.13249 174.47 0.469524 182.103 13.8233C189.746 27.1967 189.044 56.866 180.208 74.9277C170.457 94.86 155.412 103.677 132.643 118.51C109.15 133.816 81.4417 132.903 59.0949 130.008C38.816 127.381 26.529 116.563 17.2469 103.561C7.01501 89.2293 -6.74323 74.0303 4.46207 53.4828C15.6882 32.8972 44.3419 17.4562 70.0924 6.65699Z" fill="#703352"/>
<path d="M20.1688 90.4403C16.865 90.4403 14.1119 89.3391 11.9094 87.1366C9.76192 84.9891 8.6882 82.4838 8.6882 79.6205C8.6882 76.7022 9.37648 74.0041 10.753 71.5263C12.1296 68.9934 14.0843 66.6533 16.6172 64.5058C19.2052 62.3584 22.564 60.5964 26.6937 59.2198C30.8234 57.7882 35.3936 56.9898 40.4043 56.8246C43.3226 49.6114 45.9105 41.5447 48.1681 32.6246C48.2232 32.2942 48.2507 31.8812 48.2507 31.3857C48.2507 30.835 47.9754 30.367 47.4248 29.9816V29.1556C52.1601 28.2746 56.4826 27.8341 60.392 27.8341L65.3476 28.1645C66.7793 30.6974 67.5777 34.2214 67.7429 38.7365C67.908 43.1966 68.0182 50.9604 68.0732 62.028C74.02 64.616 79.1133 67.8922 83.3531 71.8567C83.1329 72.5725 82.6924 73.2883 82.0316 74.0041C81.4259 74.6649 80.8478 75.1605 80.2971 75.4908L79.4712 75.9864C76.2225 72.7928 72.4507 70.0672 68.1558 67.8096C68.266 70.9482 68.5688 73.5912 69.0644 75.7386C69.8352 79.2626 70.7438 81.0246 71.79 81.0246C72.3957 81.0246 73.1115 80.887 73.9374 80.6117L75.1763 83.8328C71.377 86.2556 67.7429 87.467 64.2739 87.467C58.5474 87.467 55.6841 83.1445 55.6841 74.4997V63.6799C51.8298 62.7438 48.3333 62.1657 45.1947 61.9454C38.0366 80.942 29.6946 90.4403 20.1688 90.4403ZM38.3394 61.8628C32.1173 62.3584 26.9415 64.5334 22.8118 68.3878C18.6821 72.2421 16.6172 75.8487 16.6172 79.2076C16.6172 82.5664 17.9112 84.2458 20.4991 84.2458C25.7851 84.2458 31.7319 76.7848 38.3394 61.8628ZM54.7756 34.4416C54.6655 34.3866 54.4452 34.3591 54.1149 34.3591C53.7845 34.3591 53.5642 34.3866 53.4541 34.4416C52.9585 38.6264 50.8111 46.1425 47.0118 56.9898C49.7099 57.155 52.6006 57.5404 55.6841 58.1461C55.6841 44.6007 55.3813 36.6992 54.7756 34.4416ZM95.7132 54.0164C93.5107 54.0164 91.7487 55.861 90.4272 59.5502C89.1056 63.1843 88.4449 67.0938 88.4449 71.2785C88.4449 77.8861 90.4822 81.1898 94.5568 81.1898C95.8784 81.1898 97.2824 80.887 98.7691 80.2813C100.256 79.6205 101.44 78.9873 102.321 78.3816L103.56 77.3905L105.459 79.9509C105.074 80.3363 104.551 80.8594 103.89 81.5202C103.229 82.1259 101.853 83.0619 99.7603 84.3284C97.7229 85.5948 95.6581 86.4758 93.5657 86.9714C92.1892 87.9625 90.9778 89.1739 89.9316 90.6055C88.9405 92.0372 88.4449 93.4137 88.4449 94.7352C88.4449 96.1118 89.1056 96.8001 90.4272 96.8001C91.7487 96.8001 93.3179 96.277 95.135 95.2308L96.0435 94.6526L97.5302 96.9653C97.1448 97.3507 96.6217 97.8187 95.9609 98.3694C95.3002 98.975 93.9787 99.7459 91.9964 100.682C90.0142 101.673 88.1696 102.169 86.4626 102.169C84.7557 102.169 83.3791 101.646 82.3329 100.599C81.2868 99.6083 80.7637 98.2868 80.7637 96.6349C80.7637 95.0381 81.4519 93.3862 82.8285 91.6792C84.2051 90.0274 85.7744 88.5957 87.5364 87.3844C83.7921 86.9989 80.9839 85.4296 79.1118 82.6765C77.2947 79.9234 76.3862 76.3443 76.3862 71.9393C76.3862 65.3868 78.1757 60.0733 81.7548 55.9987C85.3889 51.924 90.0417 49.8867 95.7132 49.8867C99.4024 49.8867 102.321 50.7402 104.468 52.4471C106.671 54.099 107.772 56.1639 107.772 58.6417C107.772 61.0644 107.001 63.1568 105.459 64.9188C104.083 64.9188 102.486 64.616 100.669 64.0103C98.8517 63.4046 97.4752 62.6612 96.5391 61.7802L97.778 54.512C97.2824 54.1816 96.5942 54.0164 95.7132 54.0164ZM134.157 52.2819C134.268 52.1718 134.57 51.456 135.066 50.1345C137.654 50.1345 141.123 50.9054 145.473 52.4471C144.096 57.0173 142.995 61.8078 142.169 66.8185C141.343 71.7741 140.93 75.3256 140.93 77.4731C140.93 79.5655 141.15 80.6117 141.591 80.6117C141.921 80.6117 143.133 80.0886 145.225 79.0424L146.216 78.5468L147.703 81.4376C147.207 81.8781 146.547 82.4287 145.721 83.0895C144.95 83.7502 143.463 84.6588 141.26 85.8151C139.058 86.9163 137.076 87.467 135.314 87.467C131.9 87.467 129.918 85.9252 129.367 82.8417C125.843 85.9252 122.649 87.467 119.786 87.467C116.978 87.467 114.583 86.3657 112.6 84.1632C110.673 81.9607 109.71 78.4917 109.71 73.7564C109.71 66.378 111.224 60.5689 114.252 56.329C117.281 52.0342 120.942 49.8867 125.237 49.8867C128.321 49.8867 131.294 50.6851 134.157 52.2819ZM124.742 80.4465C126.063 80.4465 127.55 79.9234 129.202 78.8772C129.587 71.1134 130.881 63.4321 133.084 55.8335C131.432 55.1177 130.028 54.7598 128.871 54.7598C126.889 54.7598 125.182 56.7145 123.751 60.6239C122.374 64.4783 121.686 68.7457 121.686 73.426C121.686 78.1063 122.704 80.4465 124.742 80.4465ZM150.798 41.4621C155.423 38.9843 161.975 34.717 170.455 28.6601C171.005 29.4309 171.611 30.6423 172.272 32.2942C172.988 33.9461 173.346 35.185 173.346 36.0109C173.346 37.5527 172.355 38.7916 170.372 39.7277C166.188 41.6549 160.158 43.3618 152.284 44.8485L150.798 41.4621ZM161.865 78.3816C161.865 79.8683 162.113 80.6117 162.608 80.6117C162.939 80.6117 164.205 80.0886 166.408 79.0424L167.399 78.5468L168.803 81.4376C168.307 81.8781 167.647 82.4287 166.821 83.0895C165.995 83.7502 164.453 84.6588 162.195 85.8151C159.938 86.9163 157.846 87.467 155.918 87.467C153.991 87.467 152.477 86.8888 151.376 85.7325C150.274 84.5211 149.724 82.9243 149.724 80.942C149.724 78.9047 150.412 75.3256 151.789 70.2048C153.165 65.0289 153.853 61.6701 153.853 60.1284C153.853 57.8157 153.138 55.6408 151.706 53.6034L150.963 52.6123L151.045 51.5386C153.964 50.7127 158.699 50.2997 165.251 50.2997C165.967 51.1256 166.325 52.7224 166.325 55.0901C166.325 57.4578 165.609 61.3948 164.178 66.9011C162.746 72.3523 162.003 75.5734 161.948 76.5646C161.893 77.5006 161.865 78.1063 161.865 78.3816Z" fill="#F7B90A"/>
<path d="M73.474 39.9136C73.474 38.7435 73.708 37.718 74.1761 36.837C74.6579 35.9422 75.3186 35.254 76.1583 34.7722C76.998 34.2904 77.9616 34.0495 79.0491 34.0495C80.4257 34.0495 81.5613 34.3798 82.4561 35.0406C83.3646 35.6876 83.9772 36.6168 84.2938 37.8281H81.7541C81.5476 37.2637 81.2172 36.8232 80.7629 36.5066C80.3087 36.19 79.7374 36.0317 79.0491 36.0317C78.0855 36.0317 77.3146 36.3759 76.7365 37.0641C76.1721 37.7387 75.8899 38.6885 75.8899 39.9136C75.8899 41.1388 76.1721 42.0955 76.7365 42.7838C77.3146 43.4721 78.0855 43.8162 79.0491 43.8162C80.4119 43.8162 81.3135 43.2174 81.7541 42.0198H84.2938C83.9634 43.1761 83.344 44.0984 82.4355 44.7867C81.5269 45.4612 80.3981 45.7984 79.0491 45.7984C77.9616 45.7984 76.998 45.5575 76.1583 45.0757C75.3186 44.5802 74.6579 43.8919 74.1761 43.0109C73.708 42.1161 73.474 41.0837 73.474 39.9136ZM95.7044 34.2353V45.6126H93.3504V44.2705C92.9788 44.7385 92.4901 45.1102 91.8844 45.3855C91.2925 45.647 90.6592 45.7778 89.9847 45.7778C89.09 45.7778 88.2847 45.592 87.5689 45.2203C86.8668 44.8486 86.3093 44.298 85.8963 43.5684C85.4971 42.8388 85.2975 41.9578 85.2975 40.9254V34.2353H87.6308V40.5744C87.6308 41.593 87.8855 42.3777 88.3948 42.9283C88.9041 43.4652 89.5993 43.7336 90.4803 43.7336C91.3613 43.7336 92.0565 43.4652 92.5658 42.9283C93.0889 42.3777 93.3504 41.593 93.3504 40.5744V34.2353H95.7044ZM101.701 45.7984C100.806 45.7984 100.001 45.6401 99.2851 45.3235C98.583 44.9932 98.0255 44.5527 97.6126 44.002C97.1996 43.4376 96.9793 42.8113 96.9518 42.123H99.3883C99.4296 42.6048 99.6568 43.0109 100.07 43.3413C100.496 43.6579 101.026 43.8162 101.66 43.8162C102.32 43.8162 102.83 43.6923 103.188 43.4445C103.559 43.183 103.745 42.8526 103.745 42.4534C103.745 42.0267 103.539 41.71 103.126 41.5036C102.727 41.2971 102.086 41.0699 101.205 40.8222C100.352 40.5881 99.6568 40.361 99.1199 40.1408C98.583 39.9205 98.115 39.5833 97.7158 39.129C97.3304 38.6747 97.1377 38.0759 97.1377 37.3326C97.1377 36.7269 97.3166 36.1763 97.6745 35.6807C98.0324 35.1714 98.5418 34.7722 99.2025 34.4831C99.877 34.194 100.648 34.0495 101.515 34.0495C102.809 34.0495 103.848 34.3798 104.633 35.0406C105.431 35.6876 105.858 36.5755 105.913 37.7042H103.559C103.518 37.1949 103.312 36.7888 102.94 36.486C102.568 36.1831 102.066 36.0317 101.433 36.0317C100.813 36.0317 100.338 36.1487 100.008 36.3827C99.6774 36.6168 99.5122 36.9265 99.5122 37.3119C99.5122 37.6148 99.6224 37.8694 99.8426 38.0759C100.063 38.2824 100.331 38.4476 100.648 38.5715C100.965 38.6816 101.433 38.8261 102.052 39.0051C102.878 39.2253 103.552 39.4525 104.076 39.6865C104.612 39.9067 105.074 40.2371 105.459 40.6776C105.844 41.1181 106.044 41.7032 106.058 42.4327C106.058 43.0797 105.879 43.6579 105.521 44.1672C105.163 44.6765 104.654 45.0757 103.993 45.3648C103.346 45.6539 102.582 45.7984 101.701 45.7984ZM110.109 36.1556V42.4534C110.109 42.8801 110.205 43.1899 110.398 43.3826C110.604 43.5615 110.948 43.651 111.43 43.651H112.876V45.6126H111.017C109.957 45.6126 109.145 45.3648 108.581 44.8693C108.016 44.3737 107.734 43.5684 107.734 42.4534V36.1556H106.392V34.2353H107.734V31.4065H110.109V34.2353H112.876V36.1556H110.109ZM118.741 45.7984C117.667 45.7984 116.697 45.5575 115.83 45.0757C114.962 44.5802 114.281 43.8919 113.785 43.0109C113.29 42.1161 113.042 41.0837 113.042 39.9136C113.042 38.7573 113.297 37.7318 113.806 36.837C114.315 35.9422 115.011 35.254 115.892 34.7722C116.773 34.2904 117.757 34.0495 118.844 34.0495C119.932 34.0495 120.916 34.2904 121.797 34.7722C122.678 35.254 123.373 35.9422 123.883 36.837C124.392 37.7318 124.647 38.7573 124.647 39.9136C124.647 41.0699 124.385 42.0955 123.862 42.9903C123.339 43.885 122.623 44.5802 121.715 45.0757C120.82 45.5575 119.829 45.7984 118.741 45.7984ZM118.741 43.7542C119.347 43.7542 119.911 43.6097 120.434 43.3206C120.971 43.0315 121.405 42.5979 121.735 42.0198C122.066 41.4416 122.231 40.7396 122.231 39.9136C122.231 39.0877 122.072 38.3925 121.756 37.8281C121.439 37.25 121.019 36.8164 120.496 36.5273C119.973 36.2382 119.409 36.0937 118.803 36.0937C118.197 36.0937 117.633 36.2382 117.11 36.5273C116.601 36.8164 116.194 37.25 115.892 37.8281C115.589 38.3925 115.437 39.0877 115.437 39.9136C115.437 41.1388 115.747 42.0886 116.367 42.7631C117 43.4239 117.791 43.7542 118.741 43.7542ZM139.507 34.0495C140.402 34.0495 141.2 34.2353 141.902 34.607C142.618 34.9786 143.176 35.5293 143.575 36.2588C143.988 36.9884 144.194 37.8694 144.194 38.9019V45.6126H141.861V39.2529C141.861 38.2342 141.606 37.4565 141.097 36.9196C140.588 36.369 139.893 36.0937 139.012 36.0937C138.131 36.0937 137.429 36.369 136.906 36.9196C136.396 37.4565 136.142 38.2342 136.142 39.2529V45.6126H133.808V39.2529C133.808 38.2342 133.554 37.4565 133.044 36.9196C132.535 36.369 131.84 36.0937 130.959 36.0937C130.078 36.0937 129.376 36.369 128.853 36.9196C128.343 37.4565 128.089 38.2342 128.089 39.2529V45.6126H125.735V34.2353H128.089V35.5361C128.474 35.0681 128.963 34.7033 129.555 34.4418C130.147 34.1802 130.78 34.0495 131.454 34.0495C132.363 34.0495 133.175 34.2422 133.891 34.6276C134.607 35.0131 135.157 35.5706 135.543 36.3001C135.887 35.6119 136.424 35.0681 137.153 34.6689C137.883 34.2559 138.668 34.0495 139.507 34.0495Z" fill="#DDDDDD"/>
</svg>
