<svg width="333" height="686" viewBox="0 0 333 686" fill="none" xmlns="http://www.w3.org/2000/svg">
<g clip-path="url(#clip0_203_299)">
<ellipse cx="162.5" cy="645.5" rx="141.5" ry="40.5" fill="black" fill-opacity="0.2"/>
<ellipse cx="167.032" cy="632.72" rx="98.8467" ry="27.5" fill="#89526F"/>
<path d="M15.146 282.221H318.919L265.879 633.221H68.1857L15.146 282.221Z" fill="#89526F"/>
<path d="M76.6649 624.5C66.5392 602.5 27.9648 317.5 27.9648 317.5C53.5203 438 67.0213 607 117.168 624.5C161.067 639.82 218.908 641 250.249 633C238.195 641 219.486 645.6 185.155 648C150.824 650.4 86.7907 646.5 76.6649 624.5Z" fill="#AE7E96"/>
<ellipse cx="166.832" cy="281.5" rx="160.566" ry="42.5" fill="#703352" stroke="#E3D9D9" stroke-width="10"/>
<path d="M169.447 320.191C60.7168 321.28 33.3931 292.213 29.2953 287.213C29.2953 287.213 13.8148 271.713 3.79795 234.214C-6.21887 196.715 7.34941 165.721 21.8819 144.221C45.3045 109.568 92.2733 91.2208 92.2733 91.2208C106.639 52.8703 117.062 32.8998 142.948 15.8998C168.834 -1.10009 195.174 -5.10022 222.806 6.97614C215.393 22.5626 209.718 45.1066 216.765 56.0011C223.813 66.8955 275.138 95.221 291.266 115.92C307.394 136.62 315.105 160.069 302.341 205.8C302.341 205.8 317.945 213.029 322.979 230.857C328.013 248.684 320.966 265.174 320.966 265.174C304.858 293.5 278.178 319.102 169.447 320.191Z" fill="#703352"/>
<path d="M71.0145 549.773C70.4227 550.724 70.7275 551.976 71.6903 552.549L75.3878 554.748C76.3422 555.315 77.5763 554.997 78.1367 554.038L80.4009 550.165C81.0651 549.029 80.4699 547.572 79.2001 547.226L74.9932 546.08C74.1403 545.847 73.2361 546.202 72.7692 546.953L71.0145 549.773Z" fill="#D82B2B"/>
<path d="M96.6293 542.491C97.3314 543.364 98.6135 543.49 99.4722 542.771L101.087 541.418C101.938 540.705 102.045 539.435 101.326 538.589L99.9695 536.995C99.1167 535.992 97.5449 536.072 96.7987 537.156L95.5863 538.918C95.0851 539.646 95.1213 540.617 95.6753 541.305L96.6293 542.491Z" fill="#D82B2B"/>
<path d="M149.993 560.957C150.716 560.101 150.594 558.819 149.724 558.113L146.382 555.405C145.519 554.706 144.252 554.843 143.559 555.711L140.761 559.218C139.94 560.246 140.319 561.774 141.526 562.299L145.524 564.039C146.334 564.392 147.28 564.171 147.85 563.496L149.993 560.957Z" fill="#D82B2B"/>
<path d="M168.839 536.854C169.478 537.774 169.237 539.039 168.304 539.66L166.773 540.678C165.848 541.294 164.6 541.038 163.992 540.109L163.005 538.602C162.284 537.501 162.805 536.015 164.056 535.606L165.83 535.024C166.67 534.749 167.591 535.058 168.095 535.784L168.839 536.854Z" fill="#D82B2B"/>
<path d="M209.867 522.438C209.209 521.532 207.935 521.343 207.041 522.019L200.688 526.83C199.802 527.5 199.632 528.764 200.309 529.644L205.482 536.37C206.285 537.413 207.858 537.41 208.657 536.364L213.557 529.948C214.093 529.246 214.105 528.275 213.586 527.559L209.867 522.438Z" fill="#D82B2B"/>
<path d="M246.784 541.643C247.423 542.563 247.182 543.828 246.249 544.449L242.668 546.832C241.744 547.447 240.495 547.192 239.887 546.263L237.429 542.509C236.709 541.408 237.229 539.923 238.48 539.513L242.624 538.155C243.464 537.88 244.385 538.189 244.889 538.915L246.784 541.643Z" fill="#D82B2B"/>
<path d="M255.798 510.458C255.159 509.538 255.4 508.273 256.333 507.652L265.201 501.751C266.126 501.136 267.374 501.392 267.983 502.321L274.232 511.867C274.953 512.968 274.432 514.453 273.181 514.863L262.929 518.222C262.089 518.497 261.168 518.188 260.664 517.462L255.798 510.458Z" fill="#D82B2B"/>
<path d="M131.973 522.307C131.334 521.387 131.575 520.122 132.508 519.501L138.977 515.196C139.901 514.581 141.15 514.837 141.758 515.766L146.286 522.683C147.007 523.784 146.486 525.269 145.236 525.679L137.756 528.13C136.916 528.405 135.995 528.097 135.49 527.371L131.973 522.307Z" fill="#D82B2B"/>
<path d="M43.5577 401.714C42.9418 400.729 43.304 399.542 44.3519 399.11L49.7431 396.887C50.7415 396.476 51.9861 396.909 52.5417 397.861L54.9932 402.064C55.6592 403.205 55.0289 404.526 53.7158 404.74L47.7226 405.717C46.8292 405.863 45.8859 405.437 45.4073 404.671L43.5577 401.714Z" fill="#D82B2B"/>
<path d="M74.0049 410.583C74.8255 409.864 76.2162 409.857 77.0982 410.567L79.1995 412.261C80.0838 412.973 80.1152 414.132 79.2693 414.834L77.0143 416.707C76.0143 417.538 74.3081 417.327 73.5782 416.283L72.091 414.156C71.6034 413.459 71.7142 412.592 72.364 412.022L74.0049 410.583Z" fill="#D82B2B"/>
<path d="M121.054 409.771C121.815 410.646 121.637 411.84 120.662 412.398L115.763 415.2C114.824 415.737 113.502 415.478 112.797 414.618L109.579 410.693C108.737 409.667 109.172 408.299 110.46 407.925L116.16 406.269C117.034 406.015 118.042 406.31 118.636 406.992L121.054 409.771Z" fill="#D82B2B"/>
<path d="M160.617 421.377C161.43 420.558 161.327 419.379 160.39 418.777L158.149 417.336C157.236 416.749 155.88 416.935 155.115 417.751L153.503 419.47C152.592 420.442 152.952 421.815 154.231 422.247L156.911 423.152C157.776 423.444 158.807 423.203 159.444 422.561L160.617 421.377Z" fill="#D82B2B"/>
<path d="M208.492 438.914C207.706 439.674 206.311 439.749 205.393 439.08L197.867 433.593C196.951 432.926 196.864 431.775 197.673 431.035L205.015 424.312C205.972 423.436 207.687 423.559 208.47 424.561L213.987 431.613C214.512 432.284 214.446 433.155 213.825 433.756L208.492 438.914Z" fill="#D82B2B"/>
<path d="M251.129 416.787C251.941 415.967 251.839 414.788 250.902 414.186L246.319 411.24C245.407 410.653 244.051 410.839 243.286 411.655L239.669 415.512C238.758 416.484 239.118 417.857 240.397 418.289L245.863 420.135C246.727 420.427 247.758 420.186 248.396 419.543L251.129 416.787Z" fill="#D82B2B"/>
<path d="M265.287 428.012C264.474 428.832 264.577 430.01 265.513 430.612L276.133 437.44C277.046 438.027 278.402 437.841 279.167 437.025L287.952 427.654C288.863 426.683 288.504 425.309 287.225 424.878L274.575 420.606C273.711 420.314 272.68 420.554 272.042 421.197L265.287 428.012Z" fill="#D82B2B"/>
<path d="M158.113 451.59C157.301 452.41 157.403 453.589 158.34 454.191L166.22 459.257C167.132 459.844 168.489 459.658 169.254 458.842L175.693 451.973C176.604 451.002 176.245 449.628 174.966 449.197L165.576 446.026C164.712 445.734 163.681 445.974 163.043 446.617L158.113 451.59Z" fill="#D82B2B"/>
<path d="M186.291 509.624C208.685 517.661 263.567 492.879 288.5 483L278 551.82C267.14 554.834 246.794 554.513 237.228 551.82C221.166 547.299 199.14 554.834 182.161 566.89C168.577 576.535 158.757 579.448 138.566 578.946C118.375 578.444 107.178 561.666 95.4302 560.862C83.6826 560.058 65.2304 565.156 58.5 567.5L47 494C61.3786 502.205 87.6291 518.207 109.656 518.207C139.381 518.207 158.298 499.577 186.291 509.624Z" fill="#B7B7B7" fill-opacity="0.43"/>
<path d="M144.234 394.624C118.548 402.661 56.5982 377.879 28 368L39.0435 436.82C51.5004 439.834 74.8363 439.513 85.8094 436.82C104.232 432.299 129.496 439.834 148.971 451.89C164.551 461.535 175.815 464.448 198.974 463.946C222.133 463.444 234.976 446.666 248.451 445.862C261.925 445.058 286.28 443.518 294 445.862L304 379C287.508 387.205 257.399 403.207 232.134 403.207C198.039 403.207 176.341 384.577 144.234 394.624Z" fill="#B7B7B7" fill-opacity="0.43"/>
<path fill-rule="evenodd" clip-rule="evenodd" d="M146.092 419.657C167.521 410.67 186.53 413.279 206.334 413.695C227.159 414.132 250.47 413.469 258.103 426.823C265.746 440.197 265.044 469.866 256.208 487.928C246.457 507.86 231.412 516.676 208.643 531.51C185.15 546.816 157.442 545.903 135.095 543.008C114.816 540.381 102.529 529.563 93.2469 516.561C83.015 502.229 69.2568 487.03 80.4621 466.483C91.6882 445.897 120.342 430.456 146.092 419.657Z" fill="#703352"/>
<path d="M96.1689 503.441C92.8651 503.441 90.112 502.339 87.9095 500.137C85.762 497.989 84.6883 495.484 84.6883 492.621C84.6883 489.702 85.3766 487.004 86.7532 484.527C88.1297 481.994 90.0845 479.654 92.6173 477.506C95.2053 475.359 98.5641 473.597 102.694 472.22C106.823 470.788 111.394 469.99 116.404 469.825C119.323 462.612 121.911 454.545 124.168 445.625C124.223 445.294 124.251 444.881 124.251 444.386C124.251 443.835 123.976 443.367 123.425 442.982V442.156C128.16 441.275 132.483 440.834 136.392 440.834L141.348 441.165C142.779 443.698 143.578 447.222 143.743 451.737C143.908 456.197 144.018 463.961 144.073 475.028C150.02 477.616 155.113 480.892 159.353 484.857C159.133 485.573 158.692 486.289 158.032 487.004C157.426 487.665 156.848 488.161 156.297 488.491L155.471 488.987C152.223 485.793 148.451 483.067 144.156 480.81C144.266 483.948 144.569 486.591 145.064 488.739C145.835 492.263 146.744 494.025 147.79 494.025C148.396 494.025 149.112 493.887 149.938 493.612L151.176 496.833C147.377 499.256 143.743 500.467 140.274 500.467C134.548 500.467 131.684 496.145 131.684 487.5V476.68C127.83 475.744 124.333 475.166 121.195 474.946C114.037 493.942 105.695 503.441 96.1689 503.441ZM114.34 474.863C108.117 475.359 102.942 477.534 98.8119 481.388C94.6822 485.242 92.6173 488.849 92.6173 492.208C92.6173 495.567 93.9113 497.246 96.4993 497.246C101.785 497.246 107.732 489.785 114.34 474.863ZM130.776 447.442C130.666 447.387 130.445 447.359 130.115 447.359C129.785 447.359 129.564 447.387 129.454 447.442C128.959 451.627 126.811 459.143 123.012 469.99C125.71 470.155 128.601 470.541 131.684 471.146C131.684 457.601 131.381 449.699 130.776 447.442ZM171.713 467.017C169.511 467.017 167.749 468.861 166.427 472.55C165.106 476.185 164.445 480.094 164.445 484.279C164.445 490.886 166.482 494.19 170.557 494.19C171.878 494.19 173.283 493.887 174.769 493.282C176.256 492.621 177.44 491.988 178.321 491.382L179.56 490.391L181.459 492.951C181.074 493.337 180.551 493.86 179.89 494.52C179.229 495.126 177.853 496.062 175.76 497.329C173.723 498.595 171.658 499.476 169.566 499.972C168.189 500.963 166.978 502.174 165.932 503.606C164.941 505.037 164.445 506.414 164.445 507.735C164.445 509.112 165.106 509.8 166.427 509.8C167.749 509.8 169.318 509.277 171.135 508.231L172.044 507.653L173.53 509.966C173.145 510.351 172.622 510.819 171.961 511.37C171.3 511.975 169.979 512.746 167.997 513.682C166.014 514.673 164.17 515.169 162.463 515.169C160.756 515.169 159.379 514.646 158.333 513.6C157.287 512.609 156.764 511.287 156.764 509.635C156.764 508.038 157.452 506.386 158.829 504.679C160.205 503.028 161.774 501.596 163.536 500.385C159.792 499.999 156.984 498.43 155.112 495.677C153.295 492.924 152.386 489.345 152.386 484.94C152.386 478.387 154.176 473.074 157.755 468.999C161.389 464.924 166.042 462.887 171.713 462.887C175.402 462.887 178.321 463.74 180.468 465.447C182.671 467.099 183.772 469.164 183.772 471.642C183.772 474.065 183.001 476.157 181.459 477.919C180.083 477.919 178.486 477.616 176.669 477.011C174.852 476.405 173.475 475.661 172.539 474.78L173.778 467.512C173.283 467.182 172.594 467.017 171.713 467.017ZM210.158 465.282C210.268 465.172 210.571 464.456 211.066 463.135C213.654 463.135 217.123 463.906 221.473 465.447C220.096 470.018 218.995 474.808 218.169 479.819C217.343 484.774 216.93 488.326 216.93 490.473C216.93 492.566 217.15 493.612 217.591 493.612C217.921 493.612 219.133 493.089 221.225 492.043L222.216 491.547L223.703 494.438C223.207 494.878 222.547 495.429 221.721 496.09C220.95 496.75 219.463 497.659 217.261 498.815C215.058 499.917 213.076 500.467 211.314 500.467C207.9 500.467 205.918 498.925 205.367 495.842C201.843 498.925 198.649 500.467 195.786 500.467C192.978 500.467 190.583 499.366 188.601 497.163C186.673 494.961 185.71 491.492 185.71 486.757C185.71 479.378 187.224 473.569 190.252 469.329C193.281 465.034 196.943 462.887 201.237 462.887C204.321 462.887 207.294 463.685 210.158 465.282ZM200.742 493.447C202.063 493.447 203.55 492.924 205.202 491.877C205.587 484.114 206.881 476.432 209.084 468.834C207.432 468.118 206.028 467.76 204.872 467.76C202.889 467.76 201.182 469.715 199.751 473.624C198.374 477.479 197.686 481.746 197.686 486.426C197.686 491.107 198.705 493.447 200.742 493.447ZM226.798 454.462C231.423 451.985 237.975 447.717 246.455 441.66C247.006 442.431 247.611 443.643 248.272 445.294C248.988 446.946 249.346 448.185 249.346 449.011C249.346 450.553 248.355 451.792 246.372 452.728C242.188 454.655 236.158 456.362 228.284 457.849L226.798 454.462ZM237.865 491.382C237.865 492.869 238.113 493.612 238.609 493.612C238.939 493.612 240.205 493.089 242.408 492.043L243.399 491.547L244.803 494.438C244.308 494.878 243.647 495.429 242.821 496.09C241.995 496.75 240.453 497.659 238.196 498.815C235.938 499.917 233.846 500.467 231.918 500.467C229.991 500.467 228.477 499.889 227.376 498.733C226.275 497.521 225.724 495.925 225.724 493.942C225.724 491.905 226.412 488.326 227.789 483.205C229.165 478.029 229.854 474.67 229.854 473.129C229.854 470.816 229.138 468.641 227.706 466.604L226.963 465.613L227.045 464.539C229.964 463.713 234.699 463.3 241.252 463.3C241.967 464.126 242.325 465.723 242.325 468.09C242.325 470.458 241.609 474.395 240.178 479.901C238.746 485.353 238.003 488.574 237.948 489.565C237.893 490.501 237.865 491.107 237.865 491.382Z" fill="#F7B90A"/>
<path d="M149.474 452.914C149.474 451.744 149.708 450.718 150.176 449.837C150.658 448.942 151.318 448.254 152.158 447.772C152.998 447.291 153.961 447.05 155.049 447.05C156.426 447.05 157.561 447.38 158.456 448.041C159.365 448.688 159.977 449.617 160.294 450.828H157.754C157.547 450.264 157.217 449.823 156.763 449.507C156.309 449.19 155.737 449.032 155.049 449.032C154.085 449.032 153.315 449.376 152.736 450.064C152.172 450.739 151.89 451.689 151.89 452.914C151.89 454.139 152.172 455.096 152.736 455.784C153.315 456.472 154.085 456.816 155.049 456.816C156.412 456.816 157.313 456.218 157.754 455.02H160.294C159.963 456.176 159.344 457.099 158.435 457.787C157.527 458.461 156.398 458.799 155.049 458.799C153.961 458.799 152.998 458.558 152.158 458.076C151.318 457.58 150.658 456.892 150.176 456.011C149.708 455.116 149.474 454.084 149.474 452.914ZM171.704 447.235V458.613H169.35V457.271C168.979 457.739 168.49 458.11 167.884 458.386C167.292 458.647 166.659 458.778 165.985 458.778C165.09 458.778 164.285 458.592 163.569 458.22C162.867 457.849 162.309 457.298 161.896 456.569C161.497 455.839 161.297 454.958 161.297 453.926V447.235H163.631V453.575C163.631 454.593 163.885 455.378 164.395 455.928C164.904 456.465 165.599 456.734 166.48 456.734C167.361 456.734 168.056 456.465 168.566 455.928C169.089 455.378 169.35 454.593 169.35 453.575V447.235H171.704ZM177.701 458.799C176.806 458.799 176.001 458.64 175.285 458.324C174.583 457.993 174.025 457.553 173.612 457.002C173.199 456.438 172.979 455.811 172.952 455.123H175.388C175.43 455.605 175.657 456.011 176.07 456.341C176.496 456.658 177.026 456.816 177.66 456.816C178.32 456.816 178.83 456.692 179.188 456.445C179.559 456.183 179.745 455.853 179.745 455.454C179.745 455.027 179.539 454.71 179.126 454.504C178.726 454.297 178.086 454.07 177.205 453.822C176.352 453.588 175.657 453.361 175.12 453.141C174.583 452.921 174.115 452.583 173.716 452.129C173.33 451.675 173.138 451.076 173.138 450.333C173.138 449.727 173.316 449.176 173.674 448.681C174.032 448.172 174.542 447.772 175.202 447.483C175.877 447.194 176.648 447.05 177.515 447.05C178.809 447.05 179.848 447.38 180.633 448.041C181.431 448.688 181.858 449.576 181.913 450.704H179.559C179.518 450.195 179.311 449.789 178.94 449.486C178.568 449.183 178.066 449.032 177.432 449.032C176.813 449.032 176.338 449.149 176.008 449.383C175.677 449.617 175.512 449.927 175.512 450.312C175.512 450.615 175.622 450.87 175.842 451.076C176.063 451.283 176.331 451.448 176.648 451.572C176.964 451.682 177.432 451.826 178.052 452.005C178.878 452.226 179.552 452.453 180.075 452.687C180.612 452.907 181.073 453.237 181.459 453.678C181.844 454.118 182.044 454.703 182.058 455.433C182.058 456.08 181.879 456.658 181.521 457.167C181.163 457.677 180.654 458.076 179.993 458.365C179.346 458.654 178.582 458.799 177.701 458.799ZM186.108 449.156V455.454C186.108 455.88 186.205 456.19 186.398 456.383C186.604 456.562 186.948 456.651 187.43 456.651H188.875V458.613H187.017C185.957 458.613 185.145 458.365 184.581 457.869C184.016 457.374 183.734 456.569 183.734 455.454V449.156H182.392V447.235H183.734V444.407H186.108V447.235H188.875V449.156H186.108ZM194.741 458.799C193.667 458.799 192.697 458.558 191.83 458.076C190.962 457.58 190.281 456.892 189.785 456.011C189.29 455.116 189.042 454.084 189.042 452.914C189.042 451.757 189.297 450.732 189.806 449.837C190.315 448.942 191.011 448.254 191.892 447.772C192.773 447.291 193.757 447.05 194.844 447.05C195.932 447.05 196.916 447.291 197.797 447.772C198.678 448.254 199.373 448.942 199.882 449.837C200.392 450.732 200.646 451.757 200.646 452.914C200.646 454.07 200.385 455.096 199.862 455.99C199.339 456.885 198.623 457.58 197.714 458.076C196.82 458.558 195.828 458.799 194.741 458.799ZM194.741 456.754C195.347 456.754 195.911 456.61 196.434 456.321C196.971 456.032 197.405 455.598 197.735 455.02C198.065 454.442 198.231 453.74 198.231 452.914C198.231 452.088 198.072 451.393 197.756 450.828C197.439 450.25 197.019 449.817 196.496 449.527C195.973 449.238 195.409 449.094 194.803 449.094C194.197 449.094 193.633 449.238 193.11 449.527C192.6 449.817 192.194 450.25 191.892 450.828C191.589 451.393 191.437 452.088 191.437 452.914C191.437 454.139 191.747 455.089 192.366 455.763C193 456.424 193.791 456.754 194.741 456.754ZM215.507 447.05C216.402 447.05 217.2 447.235 217.902 447.607C218.618 447.979 219.176 448.529 219.575 449.259C219.988 449.989 220.194 450.87 220.194 451.902V458.613H217.861V452.253C217.861 451.234 217.606 450.457 217.097 449.92C216.588 449.369 215.893 449.094 215.012 449.094C214.131 449.094 213.428 449.369 212.905 449.92C212.396 450.457 212.141 451.234 212.141 452.253V458.613H209.808V452.253C209.808 451.234 209.553 450.457 209.044 449.92C208.535 449.369 207.84 449.094 206.959 449.094C206.078 449.094 205.376 449.369 204.852 449.92C204.343 450.457 204.088 451.234 204.088 452.253V458.613H201.735V447.235H204.088V448.536C204.474 448.068 204.963 447.704 205.555 447.442C206.146 447.18 206.78 447.05 207.454 447.05C208.363 447.05 209.175 447.242 209.891 447.628C210.607 448.013 211.157 448.571 211.543 449.3C211.887 448.612 212.424 448.068 213.153 447.669C213.883 447.256 214.667 447.05 215.507 447.05Z" fill="white"/>
<g clip-path="url(#clip1_203_299)">
<path opacity="0.4" fill-rule="evenodd" clip-rule="evenodd" d="M317.411 218.319C306.41 236.725 290.93 258.769 280.323 266.087C272.091 271.766 263.464 266.743 254.88 261.745C247.56 257.483 240.272 253.239 233.287 255.667C226.011 259.444 218.199 270.423 210.368 281.43C201.823 293.44 193.256 305.482 185.337 308.234C170.122 316.132 153.515 289.916 138.834 261.071C128.433 238.718 121.176 239.736 104.381 242.092C97.5308 243.052 89.0945 244.236 78.2115 244.147C55.5316 243.962 53.8118 224.39 52.6547 211.222C51.8952 202.578 51.3781 196.693 45.3335 200.864C31.0075 210.747 15.0836 216.003 0.752824 212.276C-0.467364 184.411 10.5537 161.1 22.1934 143.88C45.6159 109.227 92.5847 90.8798 92.5847 90.8798C106.95 52.5292 117.374 32.5587 143.259 15.5588C169.145 -1.44112 195.485 -5.44126 223.118 6.6351C215.704 22.2215 210.03 44.7656 217.077 55.66C220.199 60.487 232.014 68.7359 245.608 78.2272C262.696 90.1577 282.595 104.051 291.578 115.579C295.126 120.133 298.267 124.821 300.872 129.849L259.488 129.849C274.926 129.975 287.808 129.928 299.58 129.885C300.018 129.883 300.454 129.881 300.888 129.88C310.11 147.701 312.603 169.81 302.652 205.458C302.652 205.458 310.963 209.309 317.411 218.319ZM224.362 129.849L201.883 129.849C209.349 129.855 216.815 129.861 224.362 129.849ZM179.387 129.849L157.366 129.849C164.604 129.855 171.843 129.861 179.387 129.849ZM135.311 129.849L110.596 129.849C119.182 129.855 127.767 129.861 135.311 129.849ZM85.8381 129.849L53.0061 129.849C65.6471 129.855 78.288 129.861 85.8381 129.849Z" fill="#F8EBEB"/>
<path d="M66.9998 113.104C40.4995 129.604 20.3332 162.437 11 180.104C11 180.104 19.5 177.499 30.5 162.999C41.5 148.499 54 132.395 73.5 121.999C93 111.604 101.667 106.999 110.5 104.999C111.333 102.999 115.2 88.8995 120 76.4995C122.516 69.9995 125 57.6037 144.5 40.4994C164 23.3952 185.5 15.1037 185.5 15.1037C185.5 15.1037 189.3 13.1037 174.5 15.1037C156 17.6037 144 27.6037 133 36.9995C122 46.3953 108.167 80.2704 101.5 96.6037C99.3333 97.437 93.5 96.6037 66.9998 113.104Z" fill="white" fill-opacity="0.2"/>
</g>
<path d="M240.179 233.116C273.96 229.054 296.156 211.513 303.258 203C267.405 223.625 225.624 233.116 166.588 219.751C177.042 225.898 206.397 237.178 240.179 233.116Z" fill="#642B48" fill-opacity="0.6"/>
<path d="M271.997 122.008C261.235 121.574 236.172 114.958 219.433 91.7531C202.758 68.6359 212.643 38.9545 215.797 26.7765C215.809 26.7304 215.82 26.6844 215.832 26.6383C215.821 26.6841 215.809 26.7302 215.797 26.7765C204.637 70.1496 234.292 112.357 271.997 122.008Z" fill="#642B48" fill-opacity="0.6"/>
<path d="M42.0589 256C71.5986 274.496 117.176 285.819 127.461 283.5C95.7177 274 29.4136 263.5 3.93555 180C5.72782 200.5 12.5192 237.504 42.0589 256Z" fill="#642B48" fill-opacity="0.6"/>
<path d="M98.5843 152.878C114.654 175.64 144.917 198.067 153.295 199.535C132.73 182.725 86.8126 155.439 94.4082 86C89.228 101.669 82.5143 130.115 98.5843 152.878Z" fill="#642B48" fill-opacity="0.6"/>
<rect x="73.7568" y="181.233" width="18.3615" height="3.81468" rx="1.90734" transform="rotate(-0.380322 73.7568 181.233)" fill="#4F260F"/>
<rect width="18.3427" height="3.8187" rx="1.90935" transform="matrix(0.962802 0.270207 -0.277061 0.960852 92.8984 281.243)" fill="#4F260F"/>
<rect width="18.3055" height="3.8266" rx="1.9133" transform="matrix(0.881612 0.471974 -0.481825 0.876267 263.587 253.407)" fill="#4F260F"/>
<rect width="18.3055" height="3.8266" rx="1.9133" transform="matrix(0.881612 0.471974 -0.481825 0.876267 243.16 200.268)" fill="#4F260F"/>
<rect width="18.2938" height="3.82907" rx="1.91454" transform="matrix(0.854321 0.519745 -0.529893 0.848065 197.755 129.049)" fill="#4F260F"/>
<rect width="18.1214" height="3.86524" rx="1.93262" transform="matrix(0.0904693 0.995899 -0.996095 0.0882914 179.051 30.8042)" fill="#4F260F"/>
<rect width="18.3603" height="3.81495" rx="1.90748" transform="matrix(-0.996949 0.0780552 -0.0799632 -0.996798 127.738 125.55)" fill="#4F260F"/>
<rect width="18.2834" height="3.83128" rx="1.91564" transform="matrix(-0.829077 -0.559134 0.569382 -0.822073 57.3306 237.716)" fill="#4F260F"/>
<rect width="18.2974" height="3.82831" rx="1.91415" transform="matrix(-0.8561 0.516809 -0.526807 -0.849985 166.379 254.458)" fill="#4F260F"/>
<rect width="18.1422" height="3.86091" rx="1.93046" transform="matrix(0.313871 0.949466 -0.951847 0.306574 188.594 160.27)" fill="#4F260F"/>
<rect width="18.1422" height="3.86091" rx="1.93046" transform="matrix(0.313871 0.949466 -0.951847 0.306574 269.675 104)" fill="#4F260F"/>
<rect width="18.2874" height="3.83043" rx="1.91522" transform="matrix(0.838856 0.544353 -0.554579 0.832131 125.333 202.825)" fill="#4F260F"/>
<rect width="18.3538" height="3.81634" rx="1.90817" transform="matrix(0.982904 -0.184119 0.188728 0.982029 33.7402 143.263)" fill="#4F260F"/>
<rect width="18.3615" height="3.81468" rx="1.90734" transform="matrix(0.999958 -0.00917867 0.00924694 0.999957 144.598 79.7178)" fill="#4F260F"/>
<rect width="18.3615" height="3.81468" rx="1.90734" transform="matrix(0.999958 -0.00917867 0.00924694 0.999957 216 236.168)" fill="#4F260F"/>
<rect width="18.3615" height="3.81468" rx="1.90734" transform="matrix(0.999958 -0.00917867 0.00924694 0.999957 282.753 169.557)" fill="#4F260F"/>
<ellipse rx="31.7239" ry="29.9669" transform="matrix(-0.904674 0.426104 -0.318636 -0.947877 65.2483 229.811)" fill="#A71C1C"/>
<path d="M34.619 240.948C29.4419 225.547 37.852 207.072 53.4772 199.712C69.1025 192.353 85.9368 198.938 91.1139 214.339C96.291 229.74 87.8809 248.215 72.2557 255.574C56.6304 262.934 39.7961 256.349 34.619 240.948Z" fill="#D82B2B" stroke="#A71C1C"/>
<path d="M64.9229 200.507C65.1355 202.102 63.8897 206.279 63.2402 208.168L67.3143 208.301L66.4729 207.061C65.6315 205.821 64.6571 198.515 64.9229 200.507Z" fill="#D75959"/>
<path d="M73.4385 201.245C72.9754 203.248 69.2018 207.592 67.3728 209.513L73.0939 211.716L72.4942 209.819C71.8945 207.922 74.0174 198.741 73.4385 201.245Z" fill="#D75959"/>
<path d="M83.5834 209.214C81.8175 210.267 76.0704 210.552 73.4176 210.563L75.7902 216.216L76.7436 214.469C77.6971 212.723 85.7907 207.898 83.5834 209.214Z" fill="#D75959"/>
<path d="M84.9969 217.696C83.2311 218.748 77.484 219.033 74.8312 219.044L77.2038 224.697L78.1572 222.951C79.1107 221.205 87.2043 216.38 84.9969 217.696Z" fill="#D75959"/>
<path d="M87.3357 233.659C85.3743 233.043 81.3344 228.945 79.5597 226.974L76.9228 232.508L78.8604 232.056C80.7981 231.605 89.7873 234.429 87.3357 233.659Z" fill="#D75959"/>
<path d="M78.9077 244.049C77.4429 242.465 75.9889 236.545 75.445 233.784L69.9589 237.633L71.9921 238.201C74.0253 238.77 80.7387 246.028 78.9077 244.049Z" fill="#D75959"/>
<path d="M69.7565 252.49C69.0643 250.446 70.1494 244.448 70.7784 241.705L64.1996 242.984L65.8246 244.331C67.4497 245.679 70.6216 255.044 69.7565 252.49Z" fill="#D75959"/>
<path d="M58.4474 252.49C57.7553 250.446 58.8403 244.448 59.4693 241.705L52.8905 242.984L54.5156 244.331C56.1407 245.679 59.3125 255.044 58.4474 252.49Z" fill="#D75959"/>
<path d="M43.5423 247.552C44.9774 245.941 50.7292 243.923 53.4257 243.115L49.065 238.026L48.6956 240.104C48.326 242.183 41.7484 249.565 43.5423 247.552Z" fill="#D75959"/>
<path d="M37.8384 230.515C39.9954 230.481 45.3748 233.348 47.7948 234.786L48.5881 228.131L46.8083 229.266C45.0283 230.401 35.1422 230.558 37.8384 230.515Z" fill="#D75959"/>
<path d="M39.2525 220.619C41.4095 220.585 46.7888 223.452 49.2089 224.89L50.0021 218.235L48.2223 219.37C46.4424 220.505 36.5562 220.662 39.2525 220.619Z" fill="#D75959"/>
<path d="M46.6678 205.885C48.0655 207.529 49.2722 213.504 49.7009 216.286L55.3423 212.667L53.3345 212.015C51.3266 211.363 44.9206 203.831 46.6678 205.885Z" fill="#D75959"/>
<path d="M53.7361 204.472C55.1339 206.115 56.3406 212.09 56.7692 214.872L62.4106 211.254L60.4028 210.602C58.3949 209.949 51.989 202.418 53.7361 204.472Z" fill="#D75959"/>
<path d="M77.918 233.888C73.1461 243.722 59.3822 249.136 54.016 244.288C48.6498 239.439 42.6228 228.91 47.3948 219.076C57.1316 204.098 62.868 204.587 71.2968 208.677C77.6294 213.994 82.5772 226.717 77.918 233.888Z" fill="#D75959"/>
<path d="M72.9494 232.581C71.9751 239.409 62.7903 242.094 57.2564 239.409C51.4773 240.146 49.7762 229.313 52.9092 222.856C57.8387 218.235 59.2522 211.166 68.4409 213.287C73.9748 215.972 76.0824 226.125 72.9494 232.581Z" fill="#DB4A4A"/>
<path d="M69.4431 229.193C67.4263 233.349 64.2002 236.612 59.3411 233.588C55.7787 231.859 54.5259 227.089 56.5427 222.933C58.5456 216.114 63.0824 216.809 66.6447 218.538C70.2071 220.266 69.4431 225.303 69.4431 229.193Z" fill="#DD5C5C"/>
<path d="M62.7863 229.544C63.3517 224.455 65.3779 225.538 66.3204 226.717L63.1397 226.363M59.959 226.01L63.1397 226.363M63.1397 226.363L64.1999 222.476M63.1397 226.363L65.6136 229.544L63.1397 226.717L59.959 228.13" stroke="#DB4A4A" stroke-linecap="round" stroke-linejoin="round"/>
<ellipse rx="26.2756" ry="24.8204" transform="matrix(-0.972509 0.232864 -0.118849 -0.992912 134.014 90.045)" fill="#A71C1C"/>
<path d="M107.381 93.887C105.788 80.5767 115.687 67.0581 129.558 63.7368C143.428 60.4155 155.922 68.5723 157.515 81.8826C159.108 95.1929 149.209 108.712 135.339 112.033C121.468 115.354 108.974 107.197 107.381 93.887Z" fill="#D82B2B" stroke="#A71C1C"/>
<path d="M138.695 66.2274C138.598 67.556 136.883 70.7332 136.038 72.1558L139.319 72.9508L138.846 71.8035C138.373 70.656 138.816 64.5666 138.695 66.2274Z" fill="#D75959"/>
<path d="M145.475 68.2623C144.762 69.8084 140.969 72.6941 139.161 73.9436L143.429 76.6947L143.263 75.0552C143.097 73.4157 146.367 66.3297 145.475 68.2623Z" fill="#D75959"/>
<path d="M152.357 76.436C150.747 76.9917 146.039 76.2532 143.886 75.8144L144.856 80.7984L145.924 79.5433C146.992 78.2882 154.369 75.7413 152.357 76.436Z" fill="#D75959"/>
<path d="M152.072 83.5522C150.463 84.1079 145.754 83.3694 143.601 82.9306L144.571 87.9146L145.639 86.6595C146.707 85.4044 154.084 82.8575 152.072 83.5522Z" fill="#D75959"/>
<path d="M151.275 96.8916C149.789 96.061 147.204 92.0567 146.098 90.1584L143.026 94.201L144.673 94.1618C146.321 94.1226 153.133 97.93 151.275 96.8916Z" fill="#D75959"/>
<path d="M142.688 103.894C141.768 102.363 141.587 97.3172 141.612 94.9859L136.514 97.1818L138.067 97.9856C139.62 98.7895 143.839 105.808 142.688 103.894Z" fill="#D75959"/>
<path d="M133.843 109.195C133.627 107.421 135.519 102.74 136.492 100.622L130.941 100.549L132.031 101.916C133.122 103.283 134.114 111.412 133.843 109.195Z" fill="#D75959"/>
<path d="M124.673 107.287C124.456 105.513 126.348 100.832 127.321 98.7135L121.771 98.6408L122.861 100.008C123.951 101.375 124.943 109.504 124.673 107.287Z" fill="#D75959"/>
<path d="M113.419 100.768C114.855 99.7038 119.859 99.0379 122.182 98.838L119.505 93.9753L118.855 95.5984C118.204 97.2215 111.625 102.098 113.419 100.768Z" fill="#D75959"/>
<path d="M111.669 85.9904C113.424 86.3266 117.302 89.5589 119.022 91.1331L120.788 85.8706L119.153 86.4908C117.518 87.1111 109.475 85.5702 111.669 85.9904Z" fill="#D75959"/>
<path d="M114.485 78.2048C116.24 78.5409 120.118 81.7733 121.838 83.3475L123.604 78.0849L121.969 78.7052C120.335 79.3255 112.291 77.7846 114.485 78.2048Z" fill="#D75959"/>
<path d="M122.984 67.5078C123.84 69.0761 123.811 74.1247 123.689 76.453L128.874 74.4708L127.356 73.6032C125.838 72.7355 121.914 65.5473 122.984 67.5078Z" fill="#D75959"/>
<path d="M128.954 67.5546C129.811 69.123 129.781 74.1716 129.659 76.4999L134.844 74.5177L133.326 73.6501C131.808 72.7824 127.884 65.5942 128.954 67.5546Z" fill="#D75959"/>
<path d="M143.6 95.4887C138.071 102.657 125.996 104.725 122.463 99.8881C118.93 95.0513 115.819 85.496 121.348 78.3273C131.771 67.8248 136.34 69.1889 142.485 73.9279C146.723 79.3077 148.588 90.4593 143.6 95.4887Z" fill="#D75959"/>
<path d="M139.791 93.5903C137.849 98.9624 129.948 99.5902 125.914 96.4788C121.103 96.1013 121.552 87.0296 125.182 82.323C129.959 79.4069 132.298 73.914 139.391 77.1839C143.425 80.2953 143.421 88.8837 139.791 93.5903Z" fill="#DB4A4A"/>
<path d="M137.52 90.2508C135.183 93.2806 132.017 95.3822 128.587 92.1102C125.99 90.1073 125.779 86.0274 128.115 82.9976C130.89 77.8066 134.452 79.1353 137.049 81.1382C139.646 83.1411 138.176 87.0965 137.52 90.2508Z" fill="#DD5C5C"/>
<path d="M132.062 89.4122C133.38 85.3809 134.84 86.6016 135.405 87.7159L132.886 86.8927M130.366 86.0694L132.886 86.8927M132.886 86.8927L134.401 83.9192M132.886 86.8927L134.355 89.8893L132.826 87.1792L130.008 87.7888" stroke="#DB4A4A" stroke-linecap="round" stroke-linejoin="round"/>
<ellipse rx="21.5809" ry="20.3857" transform="matrix(-0.691429 0.722444 -0.637646 -0.770329 210.301 263.913)" fill="#A71C1C"/>
<path d="M193.683 278.348C186.697 269.908 187.51 256.231 195.579 247.8C203.648 239.369 215.849 239.449 222.835 247.888C229.821 256.328 229.008 270.006 220.939 278.437C212.87 286.868 200.669 286.788 193.683 278.348Z" fill="#D82B2B" stroke="#A71C1C"/>
<path d="M202.939 245.386C203.463 246.346 203.692 249.303 203.741 250.661L206.36 249.751L205.523 249.169C204.686 248.587 202.283 244.186 202.939 245.386Z" fill="#D75959"/>
<path d="M208.526 243.775C208.721 245.16 207.385 248.84 206.693 250.506L210.864 250.508L210.02 249.449C209.176 248.391 208.282 242.044 208.526 243.775Z" fill="#D75959"/>
<path d="M216.913 246.358C216.049 247.458 212.47 249.042 210.788 249.697L213.675 252.706L213.854 251.365C214.033 250.023 217.993 244.983 216.913 246.358Z" fill="#D75959"/>
<path d="M219.882 251.398C219.018 252.498 215.438 254.082 213.757 254.737L216.643 257.746L216.822 256.405C217.001 255.063 220.962 250.023 219.882 251.398Z" fill="#D75959"/>
<path d="M225.264 260.963C223.869 261.05 220.303 259.435 218.695 258.617L218.372 262.774L219.492 262.014C220.612 261.255 227.009 260.853 225.264 260.963Z" fill="#D75959"/>
<path d="M222.451 269.617C221.134 268.969 218.765 265.566 217.745 263.945L215.202 267.729L216.632 267.593C218.061 267.457 224.097 270.427 222.451 269.617Z" fill="#D75959"/>
<path d="M218.702 277.211C217.763 276.083 216.987 272.009 216.717 270.114L212.852 272.532L214.213 272.991C215.574 273.45 219.874 278.621 218.702 277.211Z" fill="#D75959"/>
<path d="M211.52 279.973C210.582 278.844 209.806 274.771 209.536 272.875L205.671 275.294L207.032 275.753C208.393 276.212 212.693 281.383 211.52 279.973Z" fill="#D75959"/>
<path d="M200.851 280.477C201.369 279.104 204.528 276.418 206.043 275.247L202.032 273.08L202.305 274.49C202.577 275.9 200.204 282.194 200.851 280.477Z" fill="#D75959"/>
<path d="M193.069 271.053C194.43 270.504 198.546 271.011 200.434 271.333L199.312 266.914L198.459 268.069C197.607 269.225 191.368 271.739 193.069 271.053Z" fill="#D75959"/>
<path d="M191.551 264.424C192.912 263.876 197.027 264.383 198.915 264.705L197.794 260.285L196.941 261.441C196.088 262.596 189.849 265.11 191.551 264.424Z" fill="#D75959"/>
<path d="M192.661 253.259C193.95 253.961 196.175 257.46 197.126 259.121L199.825 255.447L198.391 255.523C196.956 255.599 191.05 252.381 192.661 253.259Z" fill="#D75959"/>
<path d="M196.804 250.635C198.093 251.337 200.318 254.836 201.269 256.498L203.968 252.823L202.534 252.899C201.1 252.975 195.193 249.758 196.804 250.635Z" fill="#D75959"/>
<path d="M219.341 263.408C218.712 270.817 211.295 277.615 206.704 275.847C202.113 274.079 195.715 268.866 196.344 261.457C198.869 249.569 202.63 248.478 208.981 249.017C214.3 250.847 220.548 257.717 219.341 263.408Z" fill="#D75959"/>
<path d="M215.867 263.792C216.916 268.365 211.74 272.312 207.57 271.959C204.081 273.838 200.355 267.375 200.768 262.51C202.769 258.372 201.941 253.539 208.293 252.642C212.462 252.995 216.28 258.927 215.867 263.792Z" fill="#DB4A4A"/>
<path d="M212.813 262.496C212.548 265.627 211.296 268.487 207.472 267.753C204.788 267.526 202.828 264.803 203.094 261.671C202.7 256.853 205.751 256.186 208.435 256.414C211.119 256.641 211.863 260.026 212.813 262.496Z" fill="#DD5C5C"/>
<path d="M208.672 264.344C207.789 260.975 209.34 261.168 210.226 261.686L208.12 262.239M206.014 262.791L208.12 262.239M208.12 262.239L207.844 259.511M208.12 262.239L210.468 263.654L208.206 262.463L206.532 264.137" stroke="#DB4A4A" stroke-linecap="round" stroke-linejoin="round"/>
<ellipse rx="26.2655" ry="24.8109" transform="matrix(0.904674 0.426104 0.318636 -0.947877 252.254 142.864)" fill="#A71C1C"/>
<path d="M277.536 152.048C281.806 139.346 274.871 124.1 261.973 118.025C249.075 111.95 235.187 117.389 230.917 130.09C226.647 142.792 233.582 158.038 246.48 164.113C259.378 170.188 273.266 164.75 277.536 152.048Z" fill="#D82B2B" stroke="#A71C1C"/>
<path d="M252.524 118.602C252.348 119.922 253.379 123.38 253.917 124.945L250.544 125.055L251.24 124.028C251.937 123.001 252.744 116.952 252.524 118.602Z" fill="#D75959"/>
<path d="M245.473 119.213C245.857 120.871 248.981 124.468 250.495 126.059L245.759 127.882L246.255 126.311C246.752 124.741 244.994 117.14 245.473 119.213Z" fill="#D75959"/>
<path d="M237.074 125.811C238.536 126.682 243.294 126.918 245.49 126.927L243.526 131.607L242.737 130.162C241.947 128.716 235.246 124.721 237.074 125.811Z" fill="#D75959"/>
<path d="M235.903 132.833C237.365 133.705 242.124 133.941 244.32 133.95L242.356 138.63L241.566 137.184C240.777 135.738 234.076 131.743 235.903 132.833Z" fill="#D75959"/>
<path d="M233.967 146.049C235.591 145.539 238.936 142.147 240.405 140.514L242.588 145.096L240.984 144.722C239.38 144.348 231.937 146.687 233.967 146.049Z" fill="#D75959"/>
<path d="M240.945 154.651C242.158 153.34 243.361 148.439 243.812 146.152L248.354 149.34L246.67 149.81C244.987 150.281 239.429 156.291 240.945 154.651Z" fill="#D75959"/>
<path d="M248.521 161.64C249.094 159.948 248.196 154.982 247.675 152.711L253.122 153.77L251.777 154.885C250.431 156.001 247.805 163.755 248.521 161.64Z" fill="#D75959"/>
<path d="M257.885 161.64C258.458 159.948 257.56 154.982 257.039 152.711L262.486 153.77L261.14 154.885C259.795 156.001 257.169 163.755 257.885 161.64Z" fill="#D75959"/>
<path d="M270.226 157.552C269.037 156.218 264.275 154.548 262.043 153.879L265.653 149.665L265.959 151.386C266.265 153.107 271.711 159.219 270.226 157.552Z" fill="#D75959"/>
<path d="M274.948 143.447C273.162 143.418 268.708 145.792 266.705 146.982L266.048 141.472L267.521 142.412C268.995 143.352 277.18 143.482 274.948 143.447Z" fill="#D75959"/>
<path d="M273.777 135.254C271.992 135.225 267.538 137.599 265.534 138.789L264.877 133.279L266.351 134.219C267.825 135.159 276.01 135.289 273.777 135.254Z" fill="#D75959"/>
<path d="M267.638 123.055C266.481 124.415 265.482 129.362 265.127 131.665L260.456 128.67L262.118 128.13C263.781 127.59 269.085 121.354 267.638 123.055Z" fill="#D75959"/>
<path d="M261.785 121.884C260.628 123.245 259.629 128.192 259.274 130.495L254.603 127.499L256.266 126.959C257.928 126.419 263.232 120.184 261.785 121.884Z" fill="#D75959"/>
<path d="M241.765 146.24C245.715 154.381 257.111 158.864 261.554 154.85C265.997 150.836 270.987 142.118 267.036 133.976C258.975 121.575 254.225 121.98 247.247 125.366C242.003 129.768 237.907 140.302 241.765 146.24Z" fill="#D75959"/>
<path d="M245.878 145.158C246.685 150.811 254.289 153.034 258.871 150.811C263.656 151.421 265.064 142.451 262.47 137.106C258.389 133.279 257.219 127.427 249.611 129.183C245.029 131.406 243.284 139.812 245.878 145.158Z" fill="#DB4A4A"/>
<path d="M248.781 142.352C250.451 145.793 253.122 148.495 257.145 145.991C260.095 144.56 261.132 140.61 259.462 137.169C257.804 131.524 254.048 132.099 251.098 133.53C248.149 134.961 248.781 139.131 248.781 142.352Z" fill="#DD5C5C"/>
<path d="M254.292 142.643C253.824 138.429 252.147 139.326 251.366 140.302L254 140.009M256.633 139.717L254 140.009M254 140.009L253.122 136.791M254 140.009L251.952 142.643L254 140.302L256.633 141.472" stroke="#DB4A4A" stroke-linecap="round" stroke-linejoin="round"/>
<ellipse rx="16.0021" ry="15.1159" transform="matrix(0.904674 0.426104 0.318636 -0.947877 300.18 232.161)" fill="#A71C1C"/>
<path d="M315.406 237.673C317.969 230.047 313.809 220.873 306.039 217.214C298.269 213.554 289.921 216.836 287.357 224.462C284.794 232.089 288.954 241.262 296.724 244.922C304.494 248.581 312.842 245.3 315.406 237.673Z" fill="#D82B2B" stroke="#A71C1C"/>
<path d="M300.344 217.38C300.237 218.184 300.865 220.291 301.193 221.244L299.138 221.311L299.562 220.686C299.986 220.06 300.478 216.374 300.344 217.38Z" fill="#D75959"/>
<path d="M296.049 217.752C296.283 218.762 298.186 220.953 299.109 221.923L296.223 223.034L296.525 222.077C296.828 221.12 295.757 216.489 296.049 217.752Z" fill="#D75959"/>
<path d="M290.932 221.772C291.822 222.303 294.721 222.446 296.059 222.452L294.863 225.303L294.382 224.422C293.901 223.542 289.818 221.108 290.932 221.772Z" fill="#D75959"/>
<path d="M290.219 226.05C291.109 226.581 294.008 226.725 295.346 226.73L294.15 229.582L293.669 228.701C293.188 227.82 289.105 225.386 290.219 226.05Z" fill="#D75959"/>
<path d="M289.039 234.102C290.028 233.791 292.066 231.724 292.961 230.73L294.291 233.521L293.314 233.293C292.336 233.066 287.802 234.49 289.039 234.102Z" fill="#D75959"/>
<path d="M293.29 239.343C294.029 238.544 294.762 235.558 295.037 234.165L297.804 236.106L296.778 236.393C295.753 236.68 292.366 240.341 293.29 239.343Z" fill="#D75959"/>
<path d="M297.906 243.601C298.255 242.57 297.708 239.544 297.391 238.161L300.709 238.806L299.889 239.486C299.07 240.165 297.47 244.889 297.906 243.601Z" fill="#D75959"/>
<path d="M303.611 243.601C303.96 242.57 303.412 239.544 303.095 238.161L306.414 238.806L305.594 239.486C304.774 240.165 303.174 244.889 303.611 243.601Z" fill="#D75959"/>
<path d="M311.129 241.11C310.405 240.297 307.504 239.279 306.143 238.872L308.343 236.305L308.529 237.353C308.716 238.402 312.034 242.125 311.129 241.11Z" fill="#D75959"/>
<path d="M314.006 232.516C312.918 232.499 310.205 233.945 308.984 234.67L308.584 231.313L309.482 231.886C310.379 232.459 315.366 232.538 314.006 232.516Z" fill="#D75959"/>
<path d="M313.293 227.525C312.205 227.508 309.491 228.954 308.271 229.679L307.87 226.322L308.768 226.895C309.666 227.467 314.653 227.547 313.293 227.525Z" fill="#D75959"/>
<path d="M309.552 220.092C308.847 220.921 308.238 223.935 308.022 225.338L305.177 223.513L306.189 223.184C307.202 222.855 310.434 219.056 309.552 220.092Z" fill="#D75959"/>
<path d="M305.987 219.379C305.282 220.208 304.673 223.222 304.457 224.625L301.611 222.8L302.624 222.471C303.637 222.142 306.868 218.343 305.987 219.379Z" fill="#D75959"/>
<path d="M293.789 234.218C296.196 239.178 303.139 241.909 305.846 239.463C308.552 237.018 311.593 231.707 309.186 226.746C304.274 219.191 301.381 219.438 297.129 221.501C293.935 224.183 291.439 230.6 293.789 234.218Z" fill="#D75959"/>
<path d="M296.295 233.559C296.787 237.003 301.42 238.357 304.211 237.003C307.126 237.374 307.984 231.91 306.404 228.653C303.917 226.322 303.204 222.757 298.569 223.826C295.778 225.181 294.715 230.302 296.295 233.559Z" fill="#DB4A4A"/>
<path d="M298.064 231.849C299.082 233.946 300.709 235.592 303.16 234.066C304.957 233.194 305.589 230.788 304.571 228.692C303.561 225.252 301.273 225.603 299.476 226.475C297.679 227.347 298.064 229.887 298.064 231.849Z" fill="#DD5C5C"/>
<path d="M301.422 232.026C301.137 229.459 300.115 230.006 299.639 230.6L301.244 230.422M302.848 230.244L301.244 230.422M301.244 230.422L300.709 228.461M301.244 230.422L299.996 232.026L301.244 230.6L302.848 231.313" stroke="#DB4A4A" stroke-linecap="round" stroke-linejoin="round"/>
<path d="M200.505 184.661C198.302 174.445 187.57 166.98 176.487 168.053C165.403 169.125 158.263 178.319 160.466 188.535C162.669 198.751 173.4 206.216 184.484 205.143C195.567 204.071 202.707 194.877 200.505 184.661Z" fill="#D82B2B" stroke="#A71C1C"/>
<path d="M170.322 172.128C170.733 173.089 172.816 175.008 173.807 175.847L171.576 177.274L171.634 176.303C171.692 175.331 169.809 170.927 170.322 172.128Z" fill="#D75959"/>
<path d="M165.812 175.368C166.736 176.333 170.286 177.505 171.946 177.97L169.483 181.101L169.188 179.842C168.892 178.584 164.657 174.162 165.812 175.368Z" fill="#D75959"/>
<path d="M162.794 183.189C164.13 183.19 167.434 181.44 168.919 180.565L169.472 184.51L168.359 183.851C167.247 183.193 161.124 183.187 162.794 183.189Z" fill="#D75959"/>
<path d="M164.822 188.395C166.158 188.396 169.462 186.646 170.947 185.771L171.5 189.716L170.387 189.057C169.275 188.399 163.153 188.393 164.822 188.395Z" fill="#D75959"/>
<path d="M168.819 198.086C169.71 197.09 170.605 193.46 170.941 191.769L174.252 193.984L173.02 194.375C171.788 194.767 167.706 199.33 168.819 198.086Z" fill="#D75959"/>
<path d="M176.977 201.088C177.268 199.717 176.114 195.928 175.5 194.205L179.843 194.533L178.896 195.525C177.949 196.518 176.612 202.802 176.977 201.088Z" fill="#D75959"/>
<path d="M184.891 202.762C184.599 201.391 182 198.402 180.738 197.078L184.836 195.607L184.377 196.9C183.917 198.192 185.256 204.475 184.891 202.762Z" fill="#D75959"/>
<path d="M191.206 199.005C190.914 197.634 188.316 194.645 187.053 193.322L191.152 191.851L190.692 193.143C190.232 194.435 191.572 200.718 191.206 199.005Z" fill="#D75959"/>
<path d="M197.889 191.296C196.553 190.873 192.671 191.657 190.896 192.102L191.641 187.811L192.538 188.849C193.434 189.887 199.56 191.824 197.889 191.296Z" fill="#D75959"/>
<path d="M195.415 179.888C194.199 180.585 192.148 183.973 191.274 185.58L188.62 182.127L189.991 182.17C191.362 182.212 196.935 179.016 195.415 179.888Z" fill="#D75959"/>
<path d="M191.338 174.831C190.122 175.529 188.07 178.917 187.197 180.523L184.543 177.071L185.914 177.113C187.285 177.156 192.858 173.96 191.338 174.831Z" fill="#D75959"/>
<path d="M182.303 169.067C182.068 170.448 183.379 174.186 184.064 175.882L179.712 175.735L180.616 174.704C181.521 173.673 182.596 167.339 182.303 169.067Z" fill="#D75959"/>
<path d="M177.886 170.626C177.651 172.008 178.962 175.745 179.647 177.441L175.295 177.294L176.199 176.263C177.104 175.232 178.179 168.898 177.886 170.626Z" fill="#D75959"/>
<path d="M174.155 195.086C180.086 198.992 189.57 197.443 190.956 192.953C192.342 188.463 192.21 180.581 186.279 176.675C175.866 171.545 172.825 173.723 169.477 178.808C167.707 183.88 169.17 192.628 174.155 195.086Z" fill="#D75959"/>
<path d="M176.495 192.705C179.307 196.194 185.328 194.642 187.526 191.304C190.998 189.796 188.349 183.182 184.455 180.617C180.167 179.674 177.029 176.196 172.603 180.433C170.404 183.771 172.6 190.14 176.495 192.705Z" fill="#DB4A4A"/>
<path d="M177.327 189.648C179.834 191.299 182.72 192.049 184.429 188.747C185.844 186.598 184.959 183.518 182.452 181.867C179.068 178.725 176.766 180.62 175.351 182.768C173.935 184.917 176.035 187.476 177.327 189.648Z" fill="#DD5C5C"/>
<path d="M181.161 187.633C179.154 184.979 178.383 186.257 178.248 187.228L179.907 185.974M181.566 184.72L179.907 185.974M179.907 185.974L178.023 184.155M179.907 185.974L179.582 188.572L180.024 186.171L182.27 185.904" stroke="#DB4A4A" stroke-linecap="round" stroke-linejoin="round"/>
<path d="M101.145 134.434C79.6823 137.91 67.7944 147.056 49.1001 155.343L61.4376 154.143L93.218 143.542L101.145 134.434Z" fill="#642B48"/>
<path d="M6.34367 23.4566C5.33947 20.8842 6.61071 17.9848 9.18307 16.9806L38.9921 5.34367C41.5645 4.33947 44.4639 5.61071 45.4681 8.18307L96.7434 139.529C97.7476 142.102 96.4764 145.001 93.904 146.005L64.095 157.642C61.5226 158.646 58.6232 157.375 57.619 154.803L6.34367 23.4566Z" fill="#311907"/>
<path d="M14.854 27.8871C13.8498 25.3147 15.121 22.4154 17.6934 21.4111L37.045 13.8566C39.6174 12.8524 42.5167 14.1236 43.5209 16.696L93.9915 145.981L65.3245 157.172L14.854 27.8871Z" fill="#51280B"/>
<path d="M49.1001 155.343C49.1001 155.343 65.2277 153.957 78.4453 148.622C91.663 143.286 100.893 134.218 100.893 134.218C100.893 134.218 104.771 140.558 99.1555 145.107C93.5397 149.656 75.8485 156.745 65.4463 159.775C55.0442 162.805 49.1001 155.343 49.1001 155.343Z" fill="#642B48"/>
</g>
<defs>
<clipPath id="clip0_203_299">
<rect width="333" height="686" fill="white"/>
</clipPath>
<clipPath id="clip1_203_299">
<rect width="332" height="323" fill="white" transform="translate(-7 -4)"/>
</clipPath>
</defs>
</svg>
