<svg width="371" height="701" viewBox="0 0 371 701" fill="none" xmlns="http://www.w3.org/2000/svg">
<ellipse cx="207.5" cy="660.5" rx="141.5" ry="40.5" fill="black" fill-opacity="0.2"/>
<ellipse cx="205.033" cy="647.72" rx="98.8467" ry="27.5" fill="#89526F"/>
<path d="M53.1465 297.221H356.919L303.88 648.221H106.186L53.1465 297.221Z" fill="#89526F"/>
<path d="M114.665 639.5C104.539 617.5 65.9651 332.5 65.9651 332.5C91.5206 453 105.022 622 155.168 639.5C199.067 654.82 256.908 656 288.25 648C276.195 656 257.487 660.6 223.155 663C188.824 665.4 124.791 661.5 114.665 639.5Z" fill="#AE7E96"/>
<ellipse cx="204.833" cy="296.5" rx="160.566" ry="42.5" fill="#703352" stroke="#E3D9D9" stroke-width="10"/>
<path d="M223.5 457.5C247.9 465.5 309.333 440.833 336.5 431L326.5 499.5C314.667 502.5 289.424 502.18 279 499.5C261.5 495 237.5 502.5 219 514.5C204.2 524.1 193.5 527 171.5 526.5C149.5 526 137.3 509.3 124.5 508.5C111.7 507.7 93.3333 512.667 86 515L75 442.5C90.6667 450.667 116 466.043 140 466.043C172.388 466.043 193 447.5 223.5 457.5Z" fill="#B7B7B7" fill-opacity="0.43"/>
<path fill-rule="evenodd" clip-rule="evenodd" d="M185.092 430.657C206.521 421.67 225.53 424.279 245.334 424.695C266.159 425.132 289.47 424.47 297.103 437.823C304.746 451.197 304.044 480.866 295.208 498.928C285.457 518.86 270.412 527.677 247.643 542.51C224.15 557.816 196.442 556.903 174.095 554.008C153.816 551.381 141.529 540.563 132.247 527.561C122.015 513.229 108.257 498.03 119.462 477.483C130.688 456.897 159.342 441.456 185.092 430.657Z" fill="#703352"/>
<path d="M135.169 514.44C131.865 514.44 129.112 513.339 126.909 511.137C124.762 508.989 123.688 506.484 123.688 503.621C123.688 500.702 124.376 498.004 125.753 495.526C127.13 492.993 129.084 490.653 131.617 488.506C134.205 486.358 137.564 484.596 141.694 483.22C145.823 481.788 150.394 480.99 155.404 480.825C158.323 473.611 160.911 465.545 163.168 456.625C163.223 456.294 163.251 455.881 163.251 455.386C163.251 454.835 162.975 454.367 162.425 453.982V453.156C167.16 452.275 171.483 451.834 175.392 451.834L180.348 452.165C181.779 454.697 182.578 458.221 182.743 462.737C182.908 467.197 183.018 474.96 183.073 486.028C189.02 488.616 194.113 491.892 198.353 495.857C198.133 496.573 197.692 497.288 197.032 498.004C196.426 498.665 195.848 499.16 195.297 499.491L194.471 499.986C191.223 496.793 187.451 494.067 183.156 491.81C183.266 494.948 183.569 497.591 184.064 499.739C184.835 503.263 185.744 505.025 186.79 505.025C187.396 505.025 188.111 504.887 188.937 504.612L190.176 507.833C186.377 510.256 182.743 511.467 179.274 511.467C173.547 511.467 170.684 507.145 170.684 498.5V487.68C166.83 486.744 163.333 486.166 160.195 485.945C153.037 504.942 144.695 514.44 135.169 514.44ZM153.339 485.863C147.117 486.358 141.941 488.533 137.812 492.388C133.682 496.242 131.617 499.849 131.617 503.208C131.617 506.566 132.911 508.246 135.499 508.246C140.785 508.246 146.732 500.785 153.339 485.863ZM169.776 458.442C169.665 458.387 169.445 458.359 169.115 458.359C168.784 458.359 168.564 458.387 168.454 458.442C167.959 462.626 165.811 470.142 162.012 480.99C164.71 481.155 167.601 481.54 170.684 482.146C170.684 468.601 170.381 460.699 169.776 458.442ZM210.713 478.016C208.511 478.016 206.749 479.861 205.427 483.55C204.106 487.184 203.445 491.094 203.445 495.279C203.445 501.886 205.482 505.19 209.557 505.19C210.878 505.19 212.282 504.887 213.769 504.281C215.256 503.621 216.44 502.987 217.321 502.382L218.56 501.39L220.459 503.951C220.074 504.336 219.551 504.859 218.89 505.52C218.229 506.126 216.853 507.062 214.76 508.328C212.723 509.595 210.658 510.476 208.566 510.971C207.189 511.963 205.978 513.174 204.932 514.606C203.94 516.037 203.445 517.414 203.445 518.735C203.445 520.112 204.106 520.8 205.427 520.8C206.749 520.8 208.318 520.277 210.135 519.231L211.044 518.653L212.53 520.965C212.145 521.351 211.622 521.819 210.961 522.369C210.3 522.975 208.979 523.746 206.996 524.682C205.014 525.673 203.17 526.169 201.463 526.169C199.756 526.169 198.379 525.646 197.333 524.599C196.287 523.608 195.764 522.287 195.764 520.635C195.764 519.038 196.452 517.386 197.829 515.679C199.205 514.027 200.774 512.596 202.536 511.384C198.792 510.999 195.984 509.43 194.112 506.677C192.295 503.923 191.386 500.344 191.386 495.939C191.386 489.387 193.176 484.073 196.755 479.999C200.389 475.924 205.042 473.887 210.713 473.887C214.402 473.887 217.321 474.74 219.468 476.447C221.671 478.099 222.772 480.164 222.772 482.642C222.772 485.064 222.001 487.157 220.459 488.919C219.083 488.919 217.486 488.616 215.669 488.01C213.852 487.405 212.475 486.661 211.539 485.78L212.778 478.512C212.282 478.182 211.594 478.016 210.713 478.016ZM249.157 476.282C249.268 476.172 249.57 475.456 250.066 474.134C252.654 474.134 256.123 474.905 260.473 476.447C259.096 481.017 257.995 485.808 257.169 490.818C256.343 495.774 255.93 499.326 255.93 501.473C255.93 503.565 256.15 504.612 256.591 504.612C256.921 504.612 258.133 504.089 260.225 503.042L261.216 502.547L262.703 505.438C262.207 505.878 261.547 506.429 260.721 507.089C259.95 507.75 258.463 508.659 256.26 509.815C254.058 510.916 252.076 511.467 250.314 511.467C246.9 511.467 244.918 509.925 244.367 506.842C240.843 509.925 237.649 511.467 234.786 511.467C231.978 511.467 229.583 510.366 227.6 508.163C225.673 505.961 224.71 502.492 224.71 497.756C224.71 490.378 226.224 484.569 229.252 480.329C232.281 476.034 235.942 473.887 240.237 473.887C243.321 473.887 246.294 474.685 249.157 476.282ZM239.742 504.446C241.063 504.446 242.55 503.923 244.202 502.877C244.587 495.113 245.881 487.432 248.084 479.833C246.432 479.118 245.028 478.76 243.871 478.76C241.889 478.76 240.182 480.714 238.751 484.624C237.374 488.478 236.686 492.746 236.686 497.426C236.686 502.106 237.704 504.446 239.742 504.446ZM265.798 465.462C270.423 462.984 276.975 458.717 285.455 452.66C286.005 453.431 286.611 454.642 287.272 456.294C287.988 457.946 288.346 459.185 288.346 460.011C288.346 461.553 287.355 462.792 285.372 463.728C281.188 465.655 275.158 467.362 267.284 468.848L265.798 465.462ZM276.865 502.382C276.865 503.868 277.113 504.612 277.608 504.612C277.939 504.612 279.205 504.089 281.408 503.042L282.399 502.547L283.803 505.438C283.307 505.878 282.647 506.429 281.821 507.089C280.995 507.75 279.453 508.659 277.195 509.815C274.938 510.916 272.846 511.467 270.918 511.467C268.991 511.467 267.477 510.889 266.376 509.732C265.274 508.521 264.724 506.924 264.724 504.942C264.724 502.905 265.412 499.326 266.789 494.205C268.165 489.029 268.853 485.67 268.853 484.128C268.853 481.816 268.138 479.641 266.706 477.603L265.963 476.612L266.045 475.539C268.964 474.713 273.699 474.3 280.251 474.3C280.967 475.126 281.325 476.722 281.325 479.09C281.325 481.458 280.609 485.395 279.178 490.901C277.746 496.352 277.003 499.573 276.948 500.565C276.893 501.501 276.865 502.106 276.865 502.382Z" fill="#F7B90A"/>
<path d="M188.474 463.914C188.474 462.744 188.708 461.718 189.176 460.837C189.658 459.942 190.319 459.254 191.158 458.772C191.998 458.29 192.962 458.049 194.049 458.049C195.426 458.049 196.561 458.38 197.456 459.041C198.365 459.688 198.977 460.617 199.294 461.828H196.754C196.548 461.264 196.217 460.823 195.763 460.507C195.309 460.19 194.737 460.032 194.049 460.032C193.086 460.032 192.315 460.376 191.736 461.064C191.172 461.739 190.89 462.688 190.89 463.914C190.89 465.139 191.172 466.095 191.736 466.784C192.315 467.472 193.086 467.816 194.049 467.816C195.412 467.816 196.314 467.217 196.754 466.02H199.294C198.963 467.176 198.344 468.098 197.435 468.787C196.527 469.461 195.398 469.798 194.049 469.798C192.962 469.798 191.998 469.558 191.158 469.076C190.319 468.58 189.658 467.892 189.176 467.011C188.708 466.116 188.474 465.084 188.474 463.914ZM210.704 458.235V469.613H208.35V468.27C207.979 468.738 207.49 469.11 206.884 469.385C206.292 469.647 205.659 469.778 204.985 469.778C204.09 469.778 203.285 469.592 202.569 469.22C201.867 468.849 201.309 468.298 200.896 467.568C200.497 466.839 200.298 465.958 200.298 464.925V458.235H202.631V464.574C202.631 465.593 202.885 466.378 203.395 466.928C203.904 467.465 204.599 467.734 205.48 467.734C206.361 467.734 207.056 467.465 207.566 466.928C208.089 466.378 208.35 465.593 208.35 464.574V458.235H210.704ZM216.701 469.798C215.806 469.798 215.001 469.64 214.285 469.324C213.583 468.993 213.026 468.553 212.613 468.002C212.2 467.438 211.979 466.811 211.952 466.123H214.388C214.43 466.605 214.657 467.011 215.07 467.341C215.496 467.658 216.026 467.816 216.66 467.816C217.32 467.816 217.83 467.692 218.188 467.445C218.559 467.183 218.745 466.853 218.745 466.453C218.745 466.027 218.539 465.71 218.126 465.504C217.727 465.297 217.086 465.07 216.205 464.822C215.352 464.588 214.657 464.361 214.12 464.141C213.583 463.921 213.115 463.583 212.716 463.129C212.33 462.675 212.138 462.076 212.138 461.333C212.138 460.727 212.317 460.176 212.675 459.681C213.032 459.171 213.542 458.772 214.203 458.483C214.877 458.194 215.648 458.049 216.515 458.049C217.809 458.049 218.848 458.38 219.633 459.041C220.431 459.688 220.858 460.575 220.913 461.704H218.559C218.518 461.195 218.312 460.789 217.94 460.486C217.568 460.183 217.066 460.032 216.433 460.032C215.813 460.032 215.338 460.149 215.008 460.383C214.677 460.617 214.512 460.926 214.512 461.312C214.512 461.615 214.622 461.869 214.843 462.076C215.063 462.282 215.331 462.448 215.648 462.571C215.965 462.682 216.433 462.826 217.052 463.005C217.878 463.225 218.552 463.452 219.076 463.686C219.612 463.907 220.074 464.237 220.459 464.678C220.844 465.118 221.044 465.703 221.058 466.433C221.058 467.08 220.879 467.658 220.521 468.167C220.163 468.677 219.654 469.076 218.993 469.365C218.346 469.654 217.582 469.798 216.701 469.798ZM225.109 460.156V466.453C225.109 466.88 225.205 467.19 225.398 467.383C225.604 467.562 225.948 467.651 226.43 467.651H227.876V469.613H226.017C224.957 469.613 224.145 469.365 223.581 468.869C223.016 468.374 222.734 467.568 222.734 466.453V460.156H221.392V458.235H222.734V455.406H225.109V458.235H227.876V460.156H225.109ZM233.741 469.798C232.667 469.798 231.697 469.558 230.83 469.076C229.962 468.58 229.281 467.892 228.785 467.011C228.29 466.116 228.042 465.084 228.042 463.914C228.042 462.757 228.297 461.732 228.806 460.837C229.315 459.942 230.011 459.254 230.892 458.772C231.773 458.29 232.757 458.049 233.844 458.049C234.932 458.049 235.916 458.29 236.797 458.772C237.678 459.254 238.373 459.942 238.883 460.837C239.392 461.732 239.647 462.757 239.647 463.914C239.647 465.07 239.385 466.095 238.862 466.99C238.339 467.885 237.623 468.58 236.715 469.076C235.82 469.558 234.829 469.798 233.741 469.798ZM233.741 467.754C234.347 467.754 234.911 467.61 235.434 467.321C235.971 467.032 236.405 466.598 236.735 466.02C237.066 465.442 237.231 464.74 237.231 463.914C237.231 463.088 237.072 462.393 236.756 461.828C236.439 461.25 236.019 460.816 235.496 460.527C234.973 460.238 234.409 460.094 233.803 460.094C233.197 460.094 232.633 460.238 232.11 460.527C231.601 460.816 231.194 461.25 230.892 461.828C230.589 462.393 230.437 463.088 230.437 463.914C230.437 465.139 230.747 466.089 231.367 466.763C232 467.424 232.791 467.754 233.741 467.754ZM254.507 458.049C255.402 458.049 256.2 458.235 256.902 458.607C257.618 458.979 258.176 459.529 258.575 460.259C258.988 460.988 259.194 461.869 259.194 462.902V469.613H256.861V463.253C256.861 462.234 256.606 461.456 256.097 460.92C255.588 460.369 254.893 460.094 254.012 460.094C253.131 460.094 252.429 460.369 251.906 460.92C251.396 461.456 251.142 462.234 251.142 463.253V469.613H248.808V463.253C248.808 462.234 248.554 461.456 248.044 460.92C247.535 460.369 246.84 460.094 245.959 460.094C245.078 460.094 244.376 460.369 243.853 460.92C243.343 461.456 243.089 462.234 243.089 463.253V469.613H240.735V458.235H243.089V459.536C243.474 459.068 243.963 458.703 244.555 458.442C245.147 458.18 245.78 458.049 246.454 458.049C247.363 458.049 248.175 458.242 248.891 458.628C249.607 459.013 250.157 459.571 250.543 460.3C250.887 459.612 251.424 459.068 252.153 458.669C252.883 458.256 253.668 458.049 254.507 458.049Z" fill="#DDDDDD"/>
<path d="M208.099 333.191C99.3682 334.28 72.0445 305.213 67.9467 300.213C67.9467 300.213 52.4661 284.713 42.4493 247.214C32.4325 209.715 46.0008 178.721 60.5332 157.221C83.9558 122.568 130.925 104.221 130.925 104.221C145.29 65.8703 155.713 45.8998 181.599 28.8998C207.485 11.8999 233.825 7.89978 261.457 19.9761C254.044 35.5626 248.369 58.1066 255.417 69.0011C262.464 79.8955 313.79 108.221 329.918 128.92C346.045 149.62 353.757 173.069 340.992 218.8C340.992 218.8 356.597 226.029 361.631 243.857C366.664 261.684 359.617 278.174 359.617 278.174C343.509 306.5 316.829 332.102 208.099 333.191Z" fill="#703352"/>
<path d="M278.616 248.116C312.397 244.054 334.593 226.513 341.695 218C305.842 238.625 264.061 248.116 205.025 234.751C215.479 240.898 244.834 252.178 278.616 248.116Z" fill="#642B48"/>
<path d="M309.997 137.008C299.235 136.574 274.172 129.958 257.434 106.753C240.759 83.6359 250.643 53.9545 253.797 41.7765C253.809 41.7304 253.821 41.6844 253.833 41.6383C253.821 41.6841 253.809 41.7302 253.797 41.7765C242.638 85.1496 272.293 127.357 309.997 137.008Z" fill="#642B48"/>
<path d="M80.059 271C109.599 289.496 155.176 300.819 165.461 298.5C133.718 289 67.4137 278.5 41.9357 195C43.7279 215.5 50.5193 252.504 80.059 271Z" fill="#642B48"/>
<path d="M136.584 167.878C152.654 190.64 182.917 213.067 191.295 214.535C170.73 197.725 124.813 170.439 132.408 101C127.228 116.669 120.514 145.115 136.584 167.878Z" fill="#642B48"/>
<ellipse cx="108.031" cy="143.948" rx="16" ry="8.5" transform="rotate(-22.3618 108.031 143.948)" fill="#DD2626"/>
<ellipse cx="310.031" cy="267.948" rx="16" ry="8.5" transform="rotate(11.6171 310.031 267.948)" fill="#DD2626"/>
<ellipse cx="220.553" cy="137.033" rx="16" ry="8.5" transform="rotate(-13.6396 220.553 137.033)" fill="#51A434"/>
<ellipse cx="289.072" cy="194.256" rx="16" ry="8.5" transform="rotate(23.9156 289.072 194.256)" fill="#C7CA44"/>
<ellipse cx="93.7204" cy="292.572" rx="16" ry="8.5" transform="rotate(15.9625 93.7204 292.572)" fill="#C7CA44"/>
<ellipse cx="213.657" cy="250.358" rx="16" ry="8.5" transform="rotate(-15.0305 213.657 250.358)" fill="#44B2CA"/>
<ellipse cx="207.657" cy="59.3584" rx="16" ry="8.5" transform="rotate(24.1264 207.657 59.3584)" fill="#4F44CA"/>
<ellipse cx="159.077" cy="213.297" rx="16" ry="8.5" transform="rotate(24.1264 159.077 213.297)" fill="#AF40B1"/>
<ellipse cx="108.633" cy="238.59" rx="22.5" ry="34" transform="rotate(19.6729 108.633 238.59)" fill="#642B48"/>
<ellipse cx="105.317" cy="236.192" rx="24.2887" ry="34" transform="rotate(19.6729 105.317 236.192)" fill="#EBE07D"/>
<ellipse cx="102.633" cy="235.59" rx="22.5" ry="34" transform="rotate(19.6729 102.633 235.59)" fill="#EADB53"/>
<ellipse rx="0.982125" ry="3.43744" transform="matrix(0 -1 -1 0 92.4373 232.821)" fill="#C29D3C"/>
<ellipse cx="96.0538" cy="239.875" rx="0.982125" ry="3.43744" transform="rotate(-135 96.0538 239.875)" fill="#C29D3C"/>
<ellipse rx="0.982125" ry="3.43744" transform="matrix(-0.707107 0.707107 0.707107 0.707107 96.0538 226.125)" fill="#C29D3C"/>
<ellipse rx="0.982125" ry="3.43744" transform="matrix(0.707107 -0.707107 -0.707107 -0.707107 103.911 239.875)" fill="#C29D3C"/>
<ellipse cx="103.911" cy="226.125" rx="0.982125" ry="3.43744" transform="rotate(45 103.911 226.125)" fill="#C29D3C"/>
<ellipse rx="0.982125" ry="3.43744" transform="matrix(0 -1 -1 0 108.151 232.828)" fill="#C29D3C"/>
<ellipse cx="164.369" cy="121.564" rx="16.8021" ry="25.3898" transform="rotate(19.6729 164.369 121.564)" fill="#642B48"/>
<ellipse cx="161.373" cy="119.014" rx="18.1378" ry="25.3898" transform="rotate(19.6729 161.373 119.014)" fill="#EBE07D"/>
<ellipse cx="159.369" cy="118.564" rx="16.8021" ry="25.3898" transform="rotate(19.6729 159.369 118.564)" fill="#EADB53"/>
<ellipse rx="0.733411" ry="2.56694" transform="matrix(0 -1 -1 0 151.755 116.497)" fill="#C29D3C"/>
<ellipse cx="154.456" cy="121.764" rx="0.733411" ry="2.56694" transform="rotate(-135 154.456 121.764)" fill="#C29D3C"/>
<ellipse rx="0.733411" ry="2.56694" transform="matrix(-0.707107 0.707107 0.707107 0.707107 154.456 111.496)" fill="#C29D3C"/>
<ellipse rx="0.733411" ry="2.56694" transform="matrix(0.707107 -0.707107 -0.707107 -0.707107 160.323 121.764)" fill="#C29D3C"/>
<ellipse cx="160.323" cy="111.496" rx="0.733411" ry="2.56694" transform="rotate(45 160.323 111.496)" fill="#C29D3C"/>
<ellipse rx="0.733411" ry="2.56694" transform="matrix(0 -1 -1 0 163.49 116.502)" fill="#C29D3C"/>
<ellipse rx="17.5619" ry="26.5379" transform="matrix(-0.841855 -0.539704 -0.539704 0.841855 251.025 282.857)" fill="#642B48"/>
<ellipse rx="18.958" ry="26.5379" transform="matrix(-0.841855 -0.539704 -0.539704 0.841855 256.381 282.565)" fill="#EBE07D"/>
<ellipse rx="17.5619" ry="26.5379" transform="matrix(-0.841855 -0.539704 -0.539704 0.841855 258.499 282.328)" fill="#EADB53"/>
<ellipse cx="265.072" cy="287.307" rx="0.766575" ry="2.68301" transform="rotate(-37.6636 265.072 287.307)" fill="#C29D3C"/>
<ellipse rx="0.766575" ry="2.68301" transform="matrix(0.991813 0.127695 0.127695 -0.991813 258.989 288.437)" fill="#C29D3C"/>
<ellipse cx="267.485" cy="281.879" rx="0.766575" ry="2.68301" transform="rotate(97.3364 267.485 281.879)" fill="#C29D3C"/>
<ellipse cx="255.242" cy="283.583" rx="0.766575" ry="2.68301" transform="rotate(-82.6636 255.242 283.583)" fill="#C29D3C"/>
<ellipse rx="0.766575" ry="2.68301" transform="matrix(-0.991813 -0.127695 -0.127695 0.991813 263.738 277.025)" fill="#C29D3C"/>
<ellipse cx="257.574" cy="277.601" rx="0.766575" ry="2.68301" transform="rotate(-37.6636 257.574 277.601)" fill="#C29D3C"/>
<ellipse cx="297.731" cy="157.934" rx="18.7581" ry="28.3455" transform="rotate(146.623 297.731 157.934)" fill="#642B48"/>
<ellipse cx="300.647" cy="156.113" rx="20.2493" ry="28.3455" transform="rotate(146.623 300.647 156.113)" fill="#EBE07D"/>
<ellipse cx="302.393" cy="154.627" rx="18.7581" ry="28.3455" transform="rotate(146.623 302.393 154.627)" fill="#EADB53"/>
<ellipse rx="0.81879" ry="2.86576" transform="matrix(0.799164 0.601112 0.601112 -0.799164 309.347 149.221)" fill="#C29D3C"/>
<ellipse cx="302.836" cy="148.096" rx="0.81879" ry="2.86576" transform="rotate(-8.05039 302.836 148.096)" fill="#C29D3C"/>
<ellipse rx="0.81879" ry="2.86576" transform="matrix(-0.140044 -0.990145 -0.990145 0.140044 311.996 154.987)" fill="#C29D3C"/>
<ellipse rx="0.81879" ry="2.86576" transform="matrix(0.140044 0.990145 0.990145 -0.140044 298.898 153.331)" fill="#C29D3C"/>
<ellipse cx="308.059" cy="160.221" rx="0.81879" ry="2.86576" transform="rotate(171.95 308.059 160.221)" fill="#C29D3C"/>
<ellipse rx="0.81879" ry="2.86576" transform="matrix(0.799164 0.601112 0.601112 -0.799164 301.468 159.688)" fill="#C29D3C"/>
<ellipse rx="22.4412" ry="21.1984" transform="matrix(-0.904674 0.426104 -0.318636 -0.947877 213.039 191.871)" fill="#642B48"/>
<ellipse rx="22.4412" ry="21.1984" transform="matrix(-0.904674 0.426104 -0.318636 -0.947877 210.508 191.119)" fill="#EADB53"/>
<ellipse rx="0.830598" ry="3.48949" transform="matrix(0.66662 0.745398 0.745398 -0.66662 216.672 185.76)" fill="#C29D3C"/>
<ellipse rx="0.917577" ry="3.21152" transform="matrix(0.999385 -0.0350561 -0.146007 0.989284 209.959 183.76)" fill="#C29D3C"/>
<ellipse rx="0.917577" ry="3.21152" transform="matrix(0.146007 -0.989284 -0.999385 0.0350561 217.711 192.428)" fill="#C29D3C"/>
<ellipse rx="0.917577" ry="3.21152" transform="matrix(-0.146007 0.989284 0.999385 -0.0350561 204.014 189.077)" fill="#C29D3C"/>
<ellipse rx="0.917577" ry="3.21152" transform="matrix(-0.999385 0.0350561 0.146007 -0.989284 211.766 197.745)" fill="#C29D3C"/>
<ellipse rx="0.830598" ry="3.48949" transform="matrix(0.66662 0.745398 0.745398 -0.66662 204.778 196.389)" fill="#C29D3C"/>
<path d="M87.5385 155.155C104.225 147.331 116.842 147.902 133.889 144.769L124.755 149.976L97.44 157.742L87.5385 155.155Z" fill="#642B48"/>
<path d="M100.901 25.8396C99.0719 17.7596 91.0394 12.692 82.9595 14.5206L76.6083 15.958C68.5283 17.7867 63.4607 25.8191 65.2893 33.8991L92.6902 154.971C93.2997 157.664 95.9772 159.353 98.6705 158.744L124.528 152.892C127.222 152.282 128.911 149.605 128.301 146.911L100.901 25.8396Z" fill="#FCDD71"/>
<path d="M134.044 144.843C134.044 144.843 122.124 151.41 110.34 154.077C98.5558 156.744 87.7469 154.885 87.7469 154.885C87.7469 154.885 88.1074 161.175 94.2162 161.631C100.325 162.088 116.072 158.481 124.781 155.568C133.491 152.655 134.044 144.843 134.044 144.843Z" fill="#642B48"/>
<path d="M98.2937 21.1675C96.9801 25.6327 90.3101 36.337 74.1385 43.432C85.0273 36.5894 90.3281 31.7528 98.2937 21.1675Z" stroke="#F3D25E" stroke-width="2" stroke-linecap="round" stroke-linejoin="round"/>
<path d="M105.893 53.0142C104.579 57.4795 97.9094 68.1837 81.7378 75.2788C92.6266 68.4362 97.9274 63.5995 105.893 53.0142Z" stroke="#F3D25E" stroke-width="2" stroke-linecap="round" stroke-linejoin="round"/>
<path d="M113.501 86.6378C111.722 90.3464 104.445 98.5963 89.559 101.928C99.8841 97.8589 105.131 94.5471 113.501 86.6378Z" stroke="#F3D25E" stroke-width="2" stroke-linecap="round" stroke-linejoin="round"/>
<path d="M72.3713 59.494C77.0193 59.2491 88.9763 55.2365 99.6203 41.1452C90.4441 50.1555 84.5123 54.1935 72.3713 59.494Z" stroke="#F3D25E" stroke-width="2" stroke-linecap="round" stroke-linejoin="round"/>
<path d="M79.4884 90.6435C84.1364 90.3987 96.0934 86.3861 106.737 72.2948C97.5612 81.305 91.6294 85.343 79.4884 90.6435Z" stroke="#F3D25E" stroke-width="2" stroke-linecap="round" stroke-linejoin="round"/>
<path d="M93.4755 143.834C98.6157 143.833 111.642 140.085 122.625 125.095C112.974 134.542 106.631 138.669 93.4755 143.834Z" stroke="#F3D25E" stroke-width="2" stroke-linecap="round" stroke-linejoin="round"/>
<path d="M86.1427 121.837C90.8661 122.653 102.982 121.233 113.657 109.028C104.421 116.286 98.4319 119.12 86.1427 121.837Z" stroke="#F3D25E" stroke-width="2" stroke-linecap="round" stroke-linejoin="round"/>
<path d="M120.335 182.67C99.3461 188.344 88.4196 198.475 70.6812 208.648L82.8758 206.375L113.391 192.547L120.335 182.67Z" fill="#642B48"/>
<path d="M8.48789 74.0206C4.66317 66.6721 7.51977 57.6144 14.8683 53.7897L26.4666 47.7531C33.8151 43.9283 42.8728 46.7849 46.6975 54.1334L115.97 187.228C117.245 189.678 116.293 192.697 113.843 193.972L84.5043 209.242C82.0548 210.517 79.0355 209.565 77.7606 207.116L8.48789 74.0206Z" fill="#FCDD71"/>
<path d="M70.5991 208.833C70.5991 208.833 86.3376 205.66 98.9816 199.08C111.626 192.499 119.942 182.586 119.942 182.586C119.942 182.586 124.411 188.524 119.258 193.592C114.105 198.659 97.1771 207.415 87.1141 211.43C77.0512 215.445 70.5991 208.833 70.5991 208.833Z" fill="#642B48"/>
<path d="M8.51904 70.2185C13.1054 73.238 27.2707 77.7926 47.2407 71.8547C32.2201 73.9931 23.7603 73.6784 8.51904 70.2185Z" stroke="#F3D25E" stroke-width="2" stroke-linecap="round" stroke-linejoin="round"/>
<path d="M25.9513 104.688C30.5377 107.707 44.703 112.262 64.673 106.324C49.6524 108.462 41.1925 108.148 25.9513 104.688Z" stroke="#F3D25E" stroke-width="2" stroke-linecap="round" stroke-linejoin="round"/>
<path d="M44.7302 140.763C49.1582 142.747 62 144.628 77.9435 136.282C65.5445 140.488 58.2956 141.505 44.7302 140.763Z" stroke="#F3D25E" stroke-width="2" stroke-linecap="round" stroke-linejoin="round"/>
<path d="M61.0752 84.9704C56.7032 88.2928 42.878 93.7938 22.5525 89.2185C37.6833 90.3374 46.1025 89.4519 61.0752 84.9704Z" stroke="#F3D25E" stroke-width="2" stroke-linecap="round" stroke-linejoin="round"/>
<path d="M78.4102 118.444C74.0382 121.767 60.2129 127.268 39.8874 122.692C55.0182 123.811 63.4375 122.926 78.4102 118.444Z" stroke="#F3D25E" stroke-width="2" stroke-linecap="round" stroke-linejoin="round"/>
<path d="M106.359 177.001C101.73 180.919 87.1434 187.473 65.8275 182.347C81.7189 183.497 90.5768 182.379 106.359 177.001Z" stroke="#F3D25E" stroke-width="2" stroke-linecap="round" stroke-linejoin="round"/>
<path d="M96.1954 151.605C92.5638 155.94 80.5717 163.896 61.6564 161.044C75.5053 160.539 83.0583 158.526 96.1954 151.605Z" stroke="#F3D25E" stroke-width="2" stroke-linecap="round" stroke-linejoin="round"/>
</svg>
