<svg width="759" height="1210" viewBox="0 0 759 1210" fill="none" xmlns="http://www.w3.org/2000/svg">
<path fill-rule="evenodd" clip-rule="evenodd" d="M615.573 -205.157C707.519 -228.731 773.917 -99.517 853.927 -45.6973C922.774 0.613144 1018.57 16.8671 1058.34 92.675C1100.9 173.812 1017.61 295.829 1071.43 368.947C1144 467.555 1355.06 413.776 1384.11 535.301C1410.19 644.419 1253.51 711.493 1169.59 779.691C1106.3 831.131 1005.96 819.931 954.346 884.557C906.897 943.965 950.162 1049.26 905.144 1110.79C862.573 1168.97 788.631 1202 719.564 1205.44C649.967 1208.9 594.507 1129.02 524.838 1129.71C435.061 1130.59 358.263 1213.74 268.555 1209.87C172.989 1205.75 11.7567 1208.58 0.83199 1107.11C-14.9967 960.091 200.069 879.273 217.151 732.413C226.438 652.564 76.7716 636.299 64.834 556.854C54.178 485.938 145.881 440.096 162.781 370.577C184.445 281.461 119.12 165.74 176.597 97.1161C231.045 32.1093 349.144 113.388 417.783 66.124C508.75 3.48521 510.325 -178.173 615.573 -205.157Z" fill="#F7B90A"/>
</svg>
