<svg width="663" height="1024" viewBox="0 0 663 1024" fill="none" xmlns="http://www.w3.org/2000/svg">
<path fill-rule="evenodd" clip-rule="evenodd" d="M386.712 1196.83C476.268 1241.71 580.242 1125.71 678.15 1089.33C762.397 1058.02 866.677 1063.37 928.522 995.497C994.716 922.856 940.649 780.041 1016.42 718.103C1118.62 634.573 1324.28 737.264 1387.23 620.553C1443.75 515.758 1298.38 411.973 1229.19 323.632C1177.01 256.999 1069.36 245.494 1032.89 168.141C999.374 97.0343 1072.79 0.0352478 1042.38 -72.6685C1013.62 -141.42 945.384 -191.799 874.277 -211.03C802.624 -230.408 723.316 -161.984 650.841 -178.56C557.448 -199.919 499.702 -301.81 405.105 -318.333C304.331 -335.936 136.942 -375.566 98.277 -275.077C42.256 -129.48 244.83 1.564 223.174 154.501C211.4 237.653 50.94 220.043 17.1382 297.948C-13.0342 367.489 70.2829 434.916 69.2244 509.32C67.8676 604.699 -31.3621 707.249 10.1385 789.994C49.4518 868.379 194.463 812.813 253.344 876.426C331.38 960.732 284.2 1145.45 386.712 1196.83Z" fill="#F7B90A"/>
</svg>
