<svg width="153" height="33" viewBox="0 0 153 33" fill="none" xmlns="http://www.w3.org/2000/svg">
<path fill-rule="evenodd" clip-rule="evenodd" d="M148.032 2.15217C146.045 2.86956 145.052 3.58696 143.065 5.02174C141.078 6.45652 140.084 7.17391 137.7 10.5534C135.316 13.9328 127.296 22.1621 122.4 24.2727C117.504 26.3834 111.996 21.1067 107.1 22.1621C102.204 23.7451 96.696 31.6601 91.8 32.7154C86.904 34.2984 81.396 29.0217 76.5 23.2174C71.604 16.8854 66.096 10.5534 61.2 8.44269C56.304 6.33202 50.796 8.97036 45.9 11.081C41.004 13.1917 35.496 14.247 30.6 13.1917C25.704 11.6087 20.196 7.91502 15.3 5.80435C10.404 3.69367 7.94805 1.43478 5.96104 0.717391C3.97403 -3.57628e-07 3.57628e-07 -3.57628e-07 3.57628e-07 -3.57628e-07H2.44802C4.89602 -3.57628e-07 10.404 -3.57628e-07 15.3 -3.57628e-07C20.196 -3.57628e-07 25.704 -3.57628e-07 30.6 -3.57628e-07C35.496 -3.57628e-07 41.004 -3.57628e-07 45.9 -3.57628e-07C50.796 -3.57628e-07 56.304 -3.57628e-07 61.2 -3.57628e-07C66.096 -3.57628e-07 71.604 -3.57628e-07 76.5 -3.57628e-07C81.396 -3.57628e-07 86.904 -3.57628e-07 91.8 -3.57628e-07C96.696 -3.57628e-07 102.204 -3.57628e-07 107.1 -3.57628e-07C111.996 -3.57628e-07 117.504 -3.57628e-07 122.4 -3.57628e-07C127.296 -3.57628e-07 132.804 -3.57628e-07 137.7 -3.57628e-07C142.596 -3.57628e-07 148.104 -3.57628e-07 150.552 -3.57628e-07H153C153 -3.57628e-07 150.019 1.43478 148.032 2.15217Z" fill="#642B48"/>
</svg>
