<svg width="31" height="30" viewBox="0 0 31 30" fill="none" xmlns="http://www.w3.org/2000/svg">
<path d="M6.25757 7.79163H25.8283C26.2249 7.79164 26.617 7.87735 26.9795 8.04322C27.342 8.20909 27.6667 8.45145 27.9328 8.75466C28.1989 9.05788 28.4004 9.41523 28.5244 9.80368C28.6483 10.1921 28.692 10.6031 28.6526 11.01L27.801 19.7913C27.731 20.5135 27.4032 21.1832 26.8813 21.6703C26.3595 22.1574 25.6807 22.4271 24.9768 22.4271H11.4235C10.767 22.4274 10.1308 22.193 9.62312 21.7639C9.11543 21.3348 8.76764 20.7375 8.63899 20.0737L6.25757 7.79163Z" stroke="#DDDDDD" stroke-width="2.9271" stroke-linejoin="round"/>
<path d="M21.8688 28.2815H24.7072M6.2576 7.79182L5.10805 3.04553C5.03117 2.72904 4.85394 2.44812 4.60453 2.24739C4.35511 2.04666 4.0478 1.93763 3.73142 1.93762H2L6.2576 7.79182ZM10.5152 28.2815H13.3536H10.5152Z" stroke="#DDDDDD" stroke-width="2.9271" stroke-linecap="round" stroke-linejoin="round"/>
</svg>
