<svg width="1440" height="265" viewBox="0 0 1440 265" fill="none" xmlns="http://www.w3.org/2000/svg">
<rect y="147" width="1440" height="118" fill="#642B48"/>
<path fill-rule="evenodd" clip-rule="evenodd" d="M0 47.7235H24C48 47.7235 96 47.7235 144 54.1581C192 61.0523 240 74.3811 288 67.4869C336 61.0523 384 34.3947 432 17.8487C480 1.30259 528 -5.132 576 4.51988C624 14.6314 672 41.2889 720 47.7235C768 54.1581 816 41.2889 864 34.3947C912 27.9602 960 27.9602 1008 44.5062C1056 61.0523 1104 94.1445 1152 90.9272C1200 87.2503 1248 47.7235 1296 27.9602C1344 8.19679 1392 8.19679 1416 8.19679H1440V147H1416C1392 147 1344 147 1296 147C1248 147 1200 147 1152 147C1104 147 1056 147 1008 147C960 147 912 147 864 147C816 147 768 147 720 147C672 147 624 147 576 147C528 147 480 147 432 147C384 147 336 147 288 147C240 147 192 147 144 147C96 147 48 147 24 147H0V47.7235Z" fill="#642B48"/>
</svg>
