<svg width="1440" height="265" viewBox="0 0 1440 265" fill="none" xmlns="http://www.w3.org/2000/svg">
<rect y="147" width="1440" height="118" fill="#642B48"/>
<path fill-rule="evenodd" clip-rule="evenodd" d="M0 49.9961H24C48 49.9961 96 49.9961 144 56.7371C192 63.9596 240 77.9231 288 70.7006C336 63.9596 384 36.0326 432 18.6986C480 1.36462 528 -5.37638 576 4.73511C624 15.3281 672 43.2551 720 49.9961C768 56.7371 816 43.2551 864 36.0326C912 29.2916 960 29.2916 1008 46.6256C1056 63.9596 1104 98.6275 1152 95.257C1200 91.405 1248 49.9961 1296 29.2916C1344 8.58711 1392 8.58711 1416 8.58711H1440V154H1416C1392 154 1344 154 1296 154C1248 154 1200 154 1152 154C1104 154 1056 154 1008 154C960 154 912 154 864 154C816 154 768 154 720 154C672 154 624 154 576 154C528 154 480 154 432 154C384 154 336 154 288 154C240 154 192 154 144 154C96 154 48 154 24 154H0V49.9961Z" fill="#642B48"/>
</svg>
