<svg width="24" height="24" viewBox="0 0 24 24" fill="none" xmlns="http://www.w3.org/2000/svg">
<path d="M12 0C9.62663 0 7.30655 0.703788 5.33316 2.02236C3.35977 3.34094 1.8217 5.21508 0.913451 7.4078C0.00519943 9.60051 -0.232441 12.0133 0.230582 14.3411C0.693605 16.6689 1.83649 18.807 3.51472 20.4853C5.19295 22.1635 7.33115 23.3064 9.65892 23.7694C11.9867 24.2324 14.3995 23.9948 16.5922 23.0866C18.7849 22.1783 20.6591 20.6402 21.9776 18.6668C23.2962 16.6935 24 14.3734 24 12C23.9965 8.81847 22.7311 5.76826 20.4814 3.51858C18.2317 1.2689 15.1815 0.00349392 12 0ZM12 21.6C10.1013 21.6 8.24524 21.037 6.66653 19.9821C5.08782 18.9272 3.85736 17.4279 3.13076 15.6738C2.40416 13.9196 2.21405 11.9893 2.58447 10.1271C2.95488 8.26491 3.8692 6.55436 5.21178 5.21177C6.55436 3.86919 8.26492 2.95488 10.1271 2.58446C11.9894 2.21404 13.9196 2.40416 15.6738 3.13076C17.4279 3.85736 18.9272 5.08781 19.9821 6.66652C21.037 8.24524 21.6 10.1013 21.6 12C21.5968 14.5451 20.5844 16.9851 18.7847 18.7847C16.9851 20.5844 14.5451 21.5968 12 21.6ZM12 11.4C11.6817 11.4 11.3765 11.5264 11.1515 11.7515C10.9264 11.9765 10.8 12.2817 10.8 12.6V16.2C10.8 16.5183 10.9264 16.8235 11.1515 17.0485C11.3765 17.2736 11.6817 17.4 12 17.4C12.3183 17.4 12.6235 17.2736 12.8485 17.0485C13.0736 16.8235 13.2 16.5183 13.2 16.2V12.6C13.2 12.2817 13.0736 11.9765 12.8485 11.7515C12.6235 11.5264 12.3183 11.4 12 11.4ZM12 6.6C11.7033 6.6 11.4133 6.68797 11.1666 6.85279C10.92 7.01762 10.7277 7.25188 10.6142 7.52597C10.5007 7.80006 10.4709 8.10166 10.5288 8.39263C10.5867 8.68361 10.7296 8.95088 10.9393 9.16066C11.1491 9.37044 11.4164 9.5133 11.7074 9.57118C11.9983 9.62905 12.2999 9.59935 12.574 9.48582C12.8481 9.37229 13.0824 9.18003 13.2472 8.93335C13.412 8.68668 13.5 8.39667 13.5 8.1C13.5 7.70217 13.342 7.32064 13.0607 7.03934C12.7794 6.75803 12.3978 6.6 12 6.6Z" fill="#DDDDDD"/>
</svg>
