<svg width="262" height="183" viewBox="0 0 262 183" fill="none" xmlns="http://www.w3.org/2000/svg">
<path fill-rule="evenodd" clip-rule="evenodd" d="M66.8121 31.2655C101.861 27.0717 132.369 -9.53903 165.124 2.3717C196.501 13.781 192.933 55.1558 207.594 82.4567C225.446 115.7 271.434 144.055 260.277 179.557C249.202 214.794 193.119 216.566 159.062 236.876C126.994 256 105.295 296.907 66.8121 294.931C28.1545 292.946 1.03636 257.906 -18.0491 227.784C-32.7432 204.592 -18.9909 176.133 -24.999 150.026C-29.969 128.429 -51.7854 111.437 -49.8828 89.4541C-47.7295 64.5742 -38.4518 35.9689 -14.0759 23.8141C10.1906 11.7139 39.2723 34.5608 66.8121 31.2655Z" fill="#642B48"/>
</svg>
