<svg width="342" height="116" viewBox="0 0 342 116" fill="none" xmlns="http://www.w3.org/2000/svg">
<rect x="3.00003" y="3.59778" width="336" height="108" rx="13" fill="#642B48" stroke="#F7B90A" stroke-width="6"/>
<path d="M47.2744 86.8277C43.9706 86.8277 41.2175 85.7265 39.015 83.524C36.8675 81.3765 35.7938 78.8712 35.7938 76.0079C35.7938 73.0896 36.4821 70.3915 37.8587 67.9137C39.2352 65.3808 41.19 63.0407 43.7228 60.8932C46.3108 58.7458 49.6696 56.9838 53.7993 55.6072C57.929 54.1756 62.4992 53.3772 67.5099 53.212C70.4282 45.9988 73.0162 37.9321 75.2737 29.012C75.3288 28.6816 75.3563 28.2686 75.3563 27.7731C75.3563 27.2224 75.081 26.7544 74.5304 26.369V25.543C79.2658 24.662 83.5882 24.2215 87.4976 24.2215L92.4533 24.5519C93.8849 27.0848 94.6833 30.6088 94.8485 35.1239C95.0137 39.584 95.1238 47.3478 95.1789 58.4154C101.126 61.0034 106.219 64.2796 110.459 68.2441C110.238 68.9599 109.798 69.6757 109.137 70.3915C108.532 71.0523 107.953 71.5479 107.403 71.8782L106.577 72.3738C103.328 69.1802 99.5563 66.4546 95.2615 64.197C95.3716 67.3356 95.6744 69.9786 96.17 72.126C96.9409 75.65 97.8494 77.412 98.8956 77.412C99.5013 77.412 100.217 77.2744 101.043 76.9991L102.282 80.2202C98.4826 82.643 94.8485 83.8543 91.3795 83.8543C85.653 83.8543 82.7898 79.5319 82.7898 70.8871V60.0673C78.9354 59.1312 75.4389 58.5531 72.3003 58.3328C65.1422 77.3294 56.8002 86.8277 47.2744 86.8277ZM65.445 58.2502C59.223 58.7458 54.0471 60.9208 49.9174 64.7751C45.7877 68.6295 43.7228 72.2361 43.7228 75.595C43.7228 78.9538 45.0168 80.6332 47.6048 80.6332C52.8908 80.6332 58.8375 73.1722 65.445 58.2502ZM81.8812 30.829C81.7711 30.774 81.5509 30.7464 81.2205 30.7464C80.8901 30.7464 80.6699 30.774 80.5597 30.829C80.0642 35.0138 77.9167 42.5298 74.1174 53.3772C76.8155 53.5424 79.7063 53.9278 82.7898 54.5335C82.7898 40.9881 82.4869 33.0866 81.8812 30.829ZM122.819 50.4038C120.616 50.4038 118.854 52.2484 117.533 55.9376C116.211 59.5717 115.551 63.4812 115.551 67.6659C115.551 74.2735 117.588 77.5772 121.662 77.5772C122.984 77.5772 124.388 77.2744 125.875 76.6687C127.361 76.0079 128.545 75.3747 129.426 74.769L130.665 73.7779L132.565 76.3383C132.179 76.7237 131.656 77.2468 130.996 77.9076C130.335 78.5133 128.958 79.4493 126.866 80.7158C124.829 81.9822 122.764 82.8632 120.671 83.3588C119.295 84.3499 118.083 85.5613 117.037 86.9929C116.046 88.4245 115.551 89.8011 115.551 91.1226C115.551 92.4992 116.211 93.1875 117.533 93.1875C118.854 93.1875 120.424 92.6644 122.241 91.6182L123.149 91.04L124.636 93.3527C124.25 93.7381 123.727 94.2061 123.067 94.7567C122.406 95.3624 121.084 96.1333 119.102 97.0694C117.12 98.0605 115.275 98.5561 113.568 98.5561C111.861 98.5561 110.485 98.033 109.439 96.9868C108.392 95.9957 107.869 94.6742 107.869 93.0223C107.869 91.4255 108.558 89.7736 109.934 88.0666C111.311 86.4148 112.88 84.9831 114.642 83.7718C110.898 83.3863 108.09 81.817 106.217 79.0639C104.4 76.3108 103.492 72.7317 103.492 68.3267C103.492 61.7742 105.281 56.4607 108.86 52.3861C112.495 48.3114 117.147 46.2741 122.819 46.2741C126.508 46.2741 129.426 47.1276 131.574 48.8345C133.776 50.4864 134.877 52.5512 134.877 55.0291C134.877 57.4518 134.107 59.5442 132.565 61.3062C131.188 61.3062 129.591 61.0034 127.774 60.3977C125.957 59.792 124.581 59.0486 123.645 58.1676L124.884 50.8994C124.388 50.569 123.7 50.4038 122.819 50.4038ZM161.263 48.6693C161.373 48.5592 161.676 47.8434 162.172 46.5219C164.76 46.5219 168.228 47.2928 172.578 48.8345C171.202 53.4047 170.101 58.1952 169.275 63.2059C168.449 68.1615 168.036 71.713 168.036 73.8605C168.036 75.9529 168.256 76.9991 168.696 76.9991C169.027 76.9991 170.238 76.476 172.331 75.4298L173.322 74.9342L174.808 77.825C174.313 78.2655 173.652 78.8161 172.826 79.4769C172.055 80.1376 170.569 81.0462 168.366 82.2025C166.164 83.3037 164.181 83.8543 162.419 83.8543C159.005 83.8543 157.023 82.3126 156.473 79.2291C152.949 82.3126 149.755 83.8543 146.892 83.8543C144.083 83.8543 141.688 82.7531 139.706 80.5506C137.779 78.3481 136.815 74.8791 136.815 70.1438C136.815 62.7654 138.329 56.9563 141.358 52.7164C144.386 48.4215 148.048 46.2741 152.343 46.2741C155.426 46.2741 158.4 47.0725 161.263 48.6693ZM151.847 76.8339C153.169 76.8339 154.656 76.3108 156.307 75.2646C156.693 67.5007 157.987 59.8195 160.189 52.2209C158.537 51.5051 157.133 51.1471 155.977 51.1471C153.995 51.1471 152.288 53.1019 150.856 57.0113C149.48 60.8657 148.791 65.1331 148.791 69.8134C148.791 74.4937 149.81 76.8339 151.847 76.8339ZM177.903 37.8495C182.528 35.3717 189.081 31.1044 197.56 25.0475C198.111 25.8183 198.717 27.0297 199.378 28.6816C200.093 30.3335 200.451 31.5724 200.451 32.3983C200.451 33.9401 199.46 35.179 197.478 36.1151C193.293 38.0422 187.264 39.7492 179.39 41.2359L177.903 37.8495ZM188.971 74.769C188.971 76.2557 189.219 76.9991 189.714 76.9991C190.044 76.9991 191.311 76.476 193.513 75.4298L194.505 74.9342L195.909 77.825C195.413 78.2655 194.752 78.8161 193.926 79.4769C193.1 80.1376 191.559 81.0462 189.301 82.2025C187.044 83.3037 184.951 83.8543 183.024 83.8543C181.097 83.8543 179.583 83.2762 178.481 82.1199C177.38 80.9085 176.829 79.3117 176.829 77.3294C176.829 75.2921 177.518 71.713 178.894 66.5922C180.271 61.4163 180.959 58.0575 180.959 56.5158C180.959 54.2031 180.243 52.0281 178.812 49.9908L178.068 48.9997L178.151 47.926C181.069 47.1 185.805 46.6871 192.357 46.6871C193.073 47.513 193.431 49.1098 193.431 51.4775C193.431 53.8452 192.715 57.7822 191.283 63.2885C189.852 68.7397 189.108 71.9608 189.053 72.9519C188.998 73.888 188.971 74.4937 188.971 74.769Z" fill="#F7B90A"/>
<path d="M100.58 36.301C100.58 35.1309 100.814 34.1054 101.282 33.2244C101.763 32.3296 102.424 31.6413 103.264 31.1595C104.104 30.6777 105.067 30.4368 106.155 30.4368C107.531 30.4368 108.667 30.7672 109.562 31.428C110.47 32.075 111.083 33.0041 111.399 34.2155H108.86C108.653 33.6511 108.323 33.2106 107.869 32.894C107.414 32.5774 106.843 32.4191 106.155 32.4191C105.191 32.4191 104.42 32.7632 103.842 33.4515C103.278 34.126 102.996 35.0759 102.996 36.301C102.996 37.5262 103.278 38.4829 103.842 39.1712C104.42 39.8594 105.191 40.2036 106.155 40.2036C107.518 40.2036 108.419 39.6048 108.86 38.4072H111.399C111.069 39.5635 110.45 40.4858 109.541 41.1741C108.633 41.8486 107.504 42.1858 106.155 42.1858C105.067 42.1858 104.104 41.9449 103.264 41.4631C102.424 40.9676 101.763 40.2793 101.282 39.3983C100.814 38.5035 100.58 37.4711 100.58 36.301ZM122.81 30.6227V42H120.456V40.6578C120.084 41.1259 119.596 41.4976 118.99 41.7729C118.398 42.0344 117.765 42.1652 117.09 42.1652C116.196 42.1652 115.39 41.9794 114.674 41.6077C113.972 41.236 113.415 40.6854 113.002 39.9558C112.603 39.2262 112.403 38.3452 112.403 37.3128V30.6227H114.736V36.9618C114.736 37.9804 114.991 38.7651 115.5 39.3157C116.01 39.8526 116.705 40.121 117.586 40.121C118.467 40.121 119.162 39.8526 119.671 39.3157C120.195 38.7651 120.456 37.9804 120.456 36.9618V30.6227H122.81ZM128.807 42.1858C127.912 42.1858 127.107 42.0275 126.391 41.7109C125.689 41.3805 125.131 40.94 124.718 40.3894C124.305 39.825 124.085 39.1987 124.057 38.5104H126.494C126.535 38.9922 126.762 39.3983 127.175 39.7287C127.602 40.0453 128.132 40.2036 128.765 40.2036C129.426 40.2036 129.935 40.0797 130.293 39.8319C130.665 39.5704 130.851 39.24 130.851 38.8408C130.851 38.414 130.644 38.0974 130.231 37.891C129.832 37.6845 129.192 37.4573 128.311 37.2096C127.458 36.9755 126.762 36.7484 126.226 36.5282C125.689 36.3079 125.221 35.9706 124.821 35.5164C124.436 35.0621 124.243 34.4633 124.243 33.72C124.243 33.1143 124.422 32.5636 124.78 32.0681C125.138 31.5587 125.647 31.1595 126.308 30.8705C126.983 30.5814 127.754 30.4368 128.621 30.4368C129.915 30.4368 130.954 30.7672 131.739 31.428C132.537 32.075 132.964 32.9628 133.019 34.0916H130.665C130.624 33.5823 130.417 33.1762 130.045 32.8734C129.674 32.5705 129.171 32.4191 128.538 32.4191C127.919 32.4191 127.444 32.5361 127.113 32.7701C126.783 33.0041 126.618 33.3139 126.618 33.6993C126.618 34.0022 126.728 34.2568 126.948 34.4633C127.168 34.6698 127.437 34.835 127.754 34.9589C128.07 35.069 128.538 35.2135 129.158 35.3925C129.984 35.6127 130.658 35.8399 131.181 36.0739C131.718 36.2941 132.179 36.6245 132.565 37.065C132.95 37.5055 133.15 38.0906 133.163 38.8201C133.163 39.4671 132.984 40.0453 132.627 40.5546C132.269 41.0639 131.759 41.4631 131.099 41.7522C130.452 42.0413 129.688 42.1858 128.807 42.1858ZM137.214 32.543V38.8408C137.214 39.2675 137.311 39.5772 137.503 39.77C137.71 39.9489 138.054 40.0384 138.536 40.0384H139.981V42H138.123C137.063 42 136.251 41.7522 135.686 41.2567C135.122 40.7611 134.84 39.9558 134.84 38.8408V32.543H133.498V30.6227H134.84V27.7938H137.214V30.6227H139.981V32.543H137.214ZM145.847 42.1858C144.773 42.1858 143.803 41.9449 142.935 41.4631C142.068 40.9676 141.387 40.2793 140.891 39.3983C140.396 38.5035 140.148 37.4711 140.148 36.301C140.148 35.1447 140.402 34.1192 140.912 33.2244C141.421 32.3296 142.116 31.6413 142.997 31.1595C143.878 30.6777 144.863 30.4368 145.95 30.4368C147.037 30.4368 148.022 30.6777 148.903 31.1595C149.784 31.6413 150.479 32.3296 150.988 33.2244C151.498 34.1192 151.752 35.1447 151.752 36.301C151.752 37.4573 151.491 38.4829 150.968 39.3776C150.444 40.2724 149.729 40.9676 148.82 41.4631C147.925 41.9449 146.934 42.1858 145.847 42.1858ZM145.847 40.1416C146.452 40.1416 147.017 39.9971 147.54 39.708C148.077 39.4189 148.51 38.9853 148.841 38.4072C149.171 37.829 149.336 37.127 149.336 36.301C149.336 35.4751 149.178 34.7799 148.861 34.2155C148.545 33.6374 148.125 33.2037 147.602 32.9147C147.079 32.6256 146.514 32.481 145.909 32.481C145.303 32.481 144.739 32.6256 144.216 32.9147C143.706 33.2037 143.3 33.6374 142.997 34.2155C142.694 34.7799 142.543 35.4751 142.543 36.301C142.543 37.5262 142.853 38.476 143.472 39.1505C144.105 39.8113 144.897 40.1416 145.847 40.1416ZM166.613 30.4368C167.508 30.4368 168.306 30.6227 169.008 30.9944C169.724 31.366 170.281 31.9167 170.681 32.6462C171.094 33.3758 171.3 34.2568 171.3 35.2892V42H168.967V35.6403C168.967 34.6216 168.712 33.8438 168.203 33.307C167.693 32.7564 166.998 32.481 166.117 32.481C165.236 32.481 164.534 32.7564 164.011 33.307C163.502 33.8438 163.247 34.6216 163.247 35.6403V42H160.914V35.6403C160.914 34.6216 160.659 33.8438 160.15 33.307C159.641 32.7564 158.945 32.481 158.064 32.481C157.183 32.481 156.481 32.7564 155.958 33.307C155.449 33.8438 155.194 34.6216 155.194 35.6403V42H152.84V30.6227H155.194V31.9235C155.58 31.4555 156.068 31.0907 156.66 30.8292C157.252 30.5676 157.885 30.4368 158.56 30.4368C159.468 30.4368 160.281 30.6296 160.996 31.015C161.712 31.4004 162.263 31.958 162.648 32.6875C162.992 31.9993 163.529 31.4555 164.259 31.0563C164.988 30.6433 165.773 30.4368 166.613 30.4368Z" fill="#DDDDDD"/>
<path d="M258.258 53.824C256.141 53.824 254.425 55.5402 254.425 57.6572C254.425 59.7742 256.141 61.4903 258.258 61.4903V53.824ZM297.938 61.4903C300.055 61.4903 301.771 59.7742 301.771 57.6572C301.771 55.5402 300.055 53.824 297.938 53.824V61.4903ZM293.686 57.6572L297.477 58.2258C297.643 57.1222 297.319 56.0014 296.591 55.1558C295.863 54.3103 294.802 53.824 293.686 53.824V57.6572ZM289.435 86V89.8331C291.332 89.8331 292.944 88.445 293.226 86.5686L289.435 86ZM266.761 86L262.97 86.5686C263.251 88.445 264.863 89.8331 266.761 89.8331V86ZM262.509 57.6572V53.824C261.393 53.824 260.333 54.3103 259.605 55.1558C258.877 56.0014 258.553 57.1222 258.719 58.2258L262.509 57.6572ZM278.67 57.7474L278.703 61.5804L278.67 57.7474ZM298.115 57.2143L301.267 59.3951L301.267 59.3951L298.115 57.2143ZM295.046 45.6908L291.402 44.5015L290.284 47.9269L293.634 49.2543L295.046 45.6908ZM285.246 24.7353L288.596 26.5982L290.761 22.7047L286.588 21.1448L285.246 24.7353ZM275.405 25.6758L273.528 22.3338L273.528 22.3338L275.405 25.6758ZM269.16 33.6145L270.375 37.25L271.989 36.7108L272.672 35.1522L269.16 33.6145ZM260.486 39.2005L257.479 36.8239L257.479 36.8239L260.486 39.2005ZM258.258 61.4903H297.938V53.824H258.258V61.4903ZM289.896 57.0886L285.644 85.4314L293.226 86.5686L297.477 58.2258L289.896 57.0886ZM289.435 82.1669H266.761V89.8331H289.435V82.1669ZM270.551 85.4314L266.3 57.0886L258.719 58.2258L262.97 86.5686L270.551 85.4314ZM262.509 61.4903H293.686V53.824H262.509V61.4903ZM258.279 61.5836C258.278 61.5836 258.281 61.5836 258.287 61.5836C258.294 61.5836 258.302 61.5836 258.314 61.5837C258.337 61.5837 258.367 61.5839 258.406 61.5842C258.483 61.5848 258.585 61.5858 258.713 61.5871C258.968 61.5897 259.323 61.5935 259.772 61.5978C260.671 61.6064 261.955 61.6169 263.641 61.6239C267.013 61.6379 271.988 61.6379 278.703 61.5804L278.637 53.9144C265.098 54.0304 259.073 53.9129 258.237 53.9174L258.279 61.5836ZM278.703 61.5804C285.486 61.5222 289.908 61.6008 293.216 61.5861C294.765 61.5792 296.09 61.551 297.097 61.4501C297.591 61.4007 298.185 61.3184 298.76 61.1464C299.182 61.0202 300.419 60.6217 301.267 59.3951L294.963 55.0334C295.345 54.4814 295.787 54.178 296.042 54.0317C296.301 53.8836 296.501 53.8202 296.564 53.8013C296.677 53.7675 296.644 53.791 296.334 53.822C295.734 53.882 294.746 53.9129 293.182 53.9199C290.263 53.9329 285.253 53.8577 278.637 53.9144L278.703 61.5804ZM298.69 46.88C299.599 44.0946 299.916 41.5795 299.462 39.2356C298.997 36.833 297.806 35.0538 296.515 33.6364L290.848 38.7991C291.544 39.5633 291.823 40.1107 291.936 40.6942C292.06 41.3365 292.066 42.4671 291.402 44.5015L298.69 46.88ZM296.515 33.6364C295.704 32.7461 294.629 31.9454 293.692 31.3059C292.705 30.633 291.618 29.97 290.644 29.3854C289.624 28.7741 288.77 28.2726 288.082 27.8342C287.744 27.6185 287.514 27.4606 287.37 27.3522C287.155 27.1907 287.326 27.2835 287.558 27.5902L281.444 32.2146C281.893 32.8083 282.452 33.2456 282.757 33.4757C283.133 33.7589 283.555 34.0396 283.963 34.2994C284.767 34.8118 285.781 35.4083 286.7 35.9596C287.664 36.5376 288.584 37.1019 289.37 37.6382C290.205 38.2079 290.665 38.5985 290.848 38.7991L296.515 33.6364ZM287.558 27.5902C287.88 28.0155 287.929 28.3822 287.936 28.4482C287.942 28.5146 287.927 28.4493 287.97 28.2248C288.058 27.7645 288.292 27.1446 288.596 26.5982L281.896 22.8723C281.286 23.9687 280.713 25.3583 280.44 26.7838C280.207 28.0011 279.991 30.2929 281.444 32.2146L287.558 27.5902ZM286.588 21.1448C281.989 19.4256 277.567 20.065 273.528 22.3338L277.282 29.0178C279.623 27.7031 281.693 27.4993 283.903 28.3258L286.588 21.1448ZM273.528 22.3338C271.515 23.4645 269.975 24.7792 268.683 26.5021C267.459 28.1353 266.55 30.0203 265.649 32.0767L272.672 35.1522C273.541 33.1665 274.159 31.9781 274.817 31.1004C275.408 30.3125 276.105 29.6789 277.282 29.0178L273.528 22.3338ZM269.16 33.6145C267.946 29.9789 267.945 29.9791 267.944 29.9794C267.944 29.9795 267.943 29.9798 267.943 29.98C267.941 29.9803 267.94 29.9808 267.939 29.9812C267.936 29.9821 267.933 29.9832 267.93 29.9843C267.923 29.9866 267.915 29.9894 267.905 29.9927C267.886 29.9993 267.861 30.0079 267.831 30.0184C267.77 30.0394 267.689 30.0684 267.588 30.1052C267.387 30.1788 267.109 30.2844 266.77 30.4216C266.097 30.6947 265.17 31.1 264.137 31.637C262.157 32.6669 259.422 34.3656 257.479 36.8239L263.494 41.5772C264.437 40.3831 266.039 39.2889 267.674 38.4387C268.449 38.0358 269.15 37.7293 269.652 37.5258C269.901 37.4246 270.097 37.3505 270.224 37.3041C270.287 37.281 270.333 37.2648 270.359 37.2557C270.372 37.2512 270.38 37.2485 270.383 37.2475C270.384 37.247 270.384 37.247 270.383 37.2474C270.382 37.2476 270.381 37.248 270.38 37.2484C270.379 37.2486 270.379 37.2489 270.378 37.2491C270.377 37.2493 270.377 37.2495 270.377 37.2496C270.376 37.2498 270.375 37.25 269.16 33.6145ZM301.267 59.3951C301.869 58.5252 302.02 57.5779 302.068 57.2843C302.145 56.8129 302.18 56.3209 302.196 55.8756C302.229 54.9718 302.196 53.9217 302.127 52.905C302 51.0055 301.705 48.5693 301.229 47.1301L293.95 49.5334C293.995 49.6704 294.104 50.1335 294.221 50.9432C294.33 51.692 294.421 52.5669 294.478 53.4197C294.537 54.2837 294.555 55.0494 294.535 55.5962C294.525 55.8763 294.507 56.0184 294.502 56.0522C294.499 56.0683 294.509 55.9965 294.548 55.8696C294.577 55.7768 294.685 55.4349 294.963 55.0334L301.267 59.3951ZM301.229 47.1301C300.595 45.2075 299.334 43.9632 298.408 43.2577C297.931 42.8941 297.488 42.6309 297.153 42.4532C296.984 42.3633 296.836 42.2924 296.719 42.239C296.66 42.2122 296.609 42.1896 296.565 42.1711C296.543 42.1619 296.523 42.1536 296.506 42.1463C296.497 42.1426 296.488 42.1392 296.48 42.136C296.476 42.1345 296.473 42.1329 296.469 42.1315C296.467 42.1307 296.465 42.13 296.464 42.1293C296.463 42.129 296.461 42.1284 296.461 42.1283C296.46 42.1277 296.458 42.1272 295.046 45.6908C293.634 49.2543 293.633 49.2538 293.632 49.2533C293.631 49.2531 293.63 49.2526 293.629 49.2523C293.627 49.2517 293.626 49.251 293.624 49.2504C293.621 49.2491 293.618 49.2478 293.615 49.2466C293.609 49.2442 293.603 49.2419 293.598 49.2398C293.587 49.2354 293.578 49.2317 293.571 49.2285C293.556 49.222 293.546 49.2176 293.541 49.2154C293.531 49.211 293.539 49.2143 293.56 49.2252C293.605 49.2491 293.681 49.2939 293.762 49.3556C293.953 49.5009 293.964 49.577 293.95 49.5334L301.229 47.1301ZM257.479 36.8239C254.813 40.1969 254.425 44.3659 254.425 48.6853L262.091 48.6859C262.091 44.5186 262.578 42.7362 263.494 41.5772L257.479 36.8239ZM254.425 48.6853C254.425 50.7008 254.288 52.7927 254.21 54.6506C254.175 55.5062 254.147 56.4109 254.185 57.1333C254.202 57.4537 254.242 58.012 254.404 58.5819C254.479 58.8469 254.664 59.4307 255.115 60.0217C255.631 60.6965 256.691 61.5922 258.279 61.5836L258.237 53.9174C259.753 53.9092 260.749 54.7676 261.209 55.37C261.605 55.8886 261.744 56.3649 261.779 56.49C261.861 56.7801 261.851 56.9288 261.841 56.731C261.824 56.4171 261.833 55.8511 261.87 54.9705C261.937 53.356 262.091 50.9138 262.091 48.6859L254.425 48.6853Z" fill="#F7B90A"/>
</svg>
