<svg width="333" height="686" viewBox="0 0 333 686" fill="none" xmlns="http://www.w3.org/2000/svg">
<ellipse cx="162.5" cy="645.5" rx="141.5" ry="40.5" fill="black" fill-opacity="0.2"/>
<ellipse cx="167.033" cy="632.72" rx="98.8467" ry="27.5" fill="#89526F"/>
<path d="M15.1465 282.221H318.919L265.88 633.221H68.1862L15.1465 282.221Z" fill="#89526F"/>
<path d="M76.6652 624.5C66.5394 602.5 27.9651 317.5 27.9651 317.5C53.5206 438 67.0216 607 117.168 624.5C161.067 639.82 218.908 641 250.25 633C238.195 641 219.487 645.6 185.155 648C150.824 650.4 86.7909 646.5 76.6652 624.5Z" fill="#AE7E96"/>
<ellipse cx="166.833" cy="281.5" rx="160.566" ry="42.5" fill="#703352" stroke="#E3D9D9" stroke-width="10"/>
<path d="M169.448 320.191C60.717 321.28 33.3934 292.213 29.2956 287.213C29.2956 287.213 13.815 271.713 3.79819 234.214C-6.21862 196.715 7.34965 165.721 21.8821 144.221C45.3047 109.568 92.2735 91.2208 92.2735 91.2208C106.639 52.8703 117.062 32.8998 142.948 15.8998C168.834 -1.10009 195.174 -5.10022 222.806 6.97614C215.393 22.5626 209.718 45.1066 216.766 56.0011C223.813 66.8955 275.139 95.221 291.266 115.92C307.394 136.62 315.106 160.069 302.341 205.8C302.341 205.8 317.946 213.029 322.979 230.857C328.013 248.684 320.966 265.174 320.966 265.174C304.858 293.5 278.178 319.102 169.448 320.191Z" fill="#703352"/>
<path d="M240.179 233.116C273.961 229.054 296.157 211.513 303.259 203C267.405 223.625 225.625 233.116 166.588 219.751C177.043 225.898 206.397 237.178 240.179 233.116Z" fill="#642B48"/>
<path d="M271.997 122.008C261.235 121.574 236.173 114.958 219.434 91.7531C202.759 68.6359 212.643 38.9545 215.797 26.7765C215.809 26.7304 215.821 26.6844 215.833 26.6383C215.821 26.6841 215.809 26.7302 215.797 26.7765C204.638 70.1496 234.293 112.357 271.997 122.008Z" fill="#642B48"/>
<path d="M42.0591 256C71.5988 274.496 117.176 285.819 127.461 283.5C95.718 274 29.4138 263.5 3.93579 180C5.72806 200.5 12.5194 237.504 42.0591 256Z" fill="#642B48"/>
<path d="M98.5845 152.878C114.655 175.64 144.918 198.067 153.295 199.535C132.73 182.725 86.8128 155.439 94.4084 86C89.2282 101.669 82.5145 130.115 98.5845 152.878Z" fill="#642B48"/>
</svg>
