<svg width="333" height="686" viewBox="0 0 333 686" fill="none" xmlns="http://www.w3.org/2000/svg">
<path d="M85.1892 232.573C82.0847 246.03 71.234 255.016 60.9534 252.644C50.6728 250.273 44.8554 237.441 47.9598 223.984C51.0643 210.527 61.915 201.541 72.1956 203.912C82.4762 206.284 88.2936 219.116 85.1892 232.573Z" fill="#642B48"/>
<path d="M82.035 230.599C78.9876 243.809 68.1832 252.595 57.9026 250.223C47.6219 247.851 41.7583 235.22 44.8057 222.011C47.8531 208.801 58.6575 200.015 68.9381 202.387C79.2187 204.758 85.0824 217.389 82.035 230.599Z" fill="#30123A"/>
<path d="M47.5945 230.892C45.3063 221.738 49.2869 216.399 52.338 211.822C55.389 207.246 61.4188 205.283 66.0679 202.669C61.4913 206.483 53.6967 211.059 51.4084 220.213C49.12 229.366 49.8828 235.468 50.6456 240.808C49.12 236.994 49.1885 237.268 47.5945 230.892Z" fill="#5C3A68"/>
<path d="M251.57 249.715C255.291 263.015 250.071 276.101 239.911 278.944C229.75 281.787 218.497 273.31 214.776 260.011C211.054 246.711 216.274 233.625 226.434 230.782C236.595 227.939 247.848 236.416 251.57 249.715Z" fill="#642B48"/>
<path d="M248.087 248.746C251.74 261.802 246.465 274.69 236.304 277.533C226.144 280.376 214.946 272.097 211.293 259.042C207.64 245.987 212.915 233.099 223.076 230.256C233.236 227.413 244.434 235.691 248.087 248.746Z" fill="#30123A"/>
<path d="M217.995 265.501C211.602 258.563 212.538 251.969 213.024 246.49C213.51 241.011 217.863 236.4 220.691 231.878C218.501 237.419 213.851 245.17 216.227 254.301C218.604 263.432 222.196 268.423 225.424 272.744C222.257 270.127 222.449 270.335 217.995 265.501Z" fill="#5C3A68"/>
<path d="M163.735 183.425C150.132 181.041 140.581 170.684 142.402 160.292C144.224 149.899 156.728 143.408 170.331 145.792C183.934 148.176 193.485 158.533 191.663 168.925C189.842 179.318 177.338 185.809 163.735 183.425Z" fill="#642B48"/>
<path d="M162.327 181.596C148.974 179.255 139.626 168.934 141.447 158.541C143.269 148.149 155.57 141.622 168.923 143.962C182.276 146.303 191.625 156.624 189.803 167.017C187.982 177.409 175.68 183.936 162.327 181.596Z" fill="#30123A"/>
<path d="M149.353 149.344C143.819 152.453 144.483 157.578 144.787 161.746C145.092 165.915 148.68 170.644 150.982 174.835C149.239 170.094 145.461 162.971 147.644 157.01C149.827 151.05 152.957 148.502 155.767 146.332C153.042 147.271 153.208 147.178 149.353 149.344Z" fill="#5C3A68"/>
<path d="M285.499 160.077C273.756 167.346 259.735 165.967 254.182 156.997C248.628 148.026 253.645 134.861 265.387 127.591C277.13 120.322 291.151 121.701 296.704 130.672C302.258 139.642 297.241 152.807 285.499 160.077Z" fill="#642B48"/>
<path d="M283.23 159.647C271.704 166.783 257.858 165.296 252.304 156.325C246.75 147.354 251.592 134.297 263.119 127.161C274.645 120.025 288.492 121.513 294.045 130.483C299.599 139.454 294.757 152.511 283.23 159.647Z" fill="#30123A"/>
<path d="M255.616 152.655C251.649 146.83 254.462 142.028 256.524 138.008C258.587 133.988 264.025 131.017 268.006 127.953C264.326 131.841 257.688 137.114 257.241 144.147C256.794 151.18 258.704 155.265 260.466 158.814C258.261 156.538 258.38 156.712 255.616 152.655Z" fill="#5C3A68"/>
<path d="M174.1 50.5591C178.687 63.5855 174.338 76.9863 164.386 80.4905C154.434 83.9948 142.649 76.2755 138.062 63.2491C133.475 50.2227 137.824 36.8219 147.775 33.3177C157.727 29.8134 169.513 37.5327 174.1 50.5591Z" fill="#642B48"/>
<path d="M170.823 49.337C175.326 62.1241 170.908 75.3308 160.957 78.835C151.005 82.3393 139.287 74.8141 134.785 62.027C130.282 49.24 134.699 36.0333 144.651 32.529C154.603 29.0248 166.32 36.55 170.823 49.337Z" fill="#30123A"/>
<path d="M137.204 61.8754C132.984 53.437 135.079 48.0565 136.141 44.8675C137.204 41.6786 141.988 34.2375 146.24 34.769C141.988 37.4265 136.673 46.9935 137.204 53.9029C137.736 60.8124 139.862 64.0015 141.988 69.3164C138.268 64.0024 138.268 64.0014 137.205 61.8766L137.204 61.8754Z" fill="#5C3A68"/>
</svg>
