<svg width="333" height="686" viewBox="0 0 333 686" fill="none" xmlns="http://www.w3.org/2000/svg">
<ellipse cx="63.6458" cy="218.522" rx="25.6722" ry="34" transform="rotate(19.6729 63.6458 218.522)" fill="#EBE07D"/>
<ellipse cx="63.3172" cy="217.192" rx="24.2887" ry="34" transform="rotate(19.6729 63.3172 217.192)" fill="#EBE07D"/>
<ellipse cx="60.6329" cy="216.59" rx="22.5" ry="34" transform="rotate(19.6729 60.6329 216.59)" fill="#EADB53"/>
<ellipse rx="0.982125" ry="3.43744" transform="matrix(0 -1 -1 0 50.4373 213.821)" fill="#C29D3C"/>
<ellipse cx="54.0538" cy="220.875" rx="0.982125" ry="3.43744" transform="rotate(-135 54.0538 220.875)" fill="#C29D3C"/>
<ellipse rx="0.982125" ry="3.43744" transform="matrix(-0.707107 0.707107 0.707107 0.707107 54.0538 207.125)" fill="#C29D3C"/>
<ellipse rx="0.982125" ry="3.43744" transform="matrix(0.707107 -0.707107 -0.707107 -0.707107 61.9106 220.875)" fill="#C29D3C"/>
<ellipse cx="61.9106" cy="207.125" rx="0.982125" ry="3.43744" transform="rotate(45 61.9106 207.125)" fill="#C29D3C"/>
<ellipse rx="0.982125" ry="3.43744" transform="matrix(0 -1 -1 0 66.1514 213.828)" fill="#C29D3C"/>
<ellipse cx="129.869" cy="78.6564" rx="18.1835" ry="25.9816" transform="rotate(19.6729 129.869 78.6564)" fill="#EBE07D"/>
<ellipse cx="129.373" cy="77.0139" rx="18.1378" ry="25.3898" transform="rotate(19.6729 129.373 77.0139)" fill="#EBE07D"/>
<ellipse cx="127.369" cy="76.5643" rx="16.8021" ry="25.3898" transform="rotate(19.6729 127.369 76.5643)" fill="#EADB53"/>
<ellipse rx="0.733411" ry="2.56694" transform="matrix(0 -1 -1 0 119.755 74.4966)" fill="#C29D3C"/>
<ellipse cx="122.456" cy="79.764" rx="0.733411" ry="2.56694" transform="rotate(-135 122.456 79.764)" fill="#C29D3C"/>
<ellipse rx="0.733411" ry="2.56694" transform="matrix(-0.707107 0.707107 0.707107 0.707107 122.456 69.4963)" fill="#C29D3C"/>
<ellipse rx="0.733411" ry="2.56694" transform="matrix(0.707107 -0.707107 -0.707107 -0.707107 128.323 79.764)" fill="#C29D3C"/>
<ellipse cx="128.323" cy="69.4963" rx="0.733411" ry="2.56694" transform="rotate(45 128.323 69.4963)" fill="#C29D3C"/>
<ellipse rx="0.733411" ry="2.56694" transform="matrix(0 -1 -1 0 131.49 74.5019)" fill="#C29D3C"/>
<ellipse rx="18.7104" ry="26.5379" transform="matrix(-0.841855 -0.539704 -0.539704 0.841855 214.074 254.439)" fill="#EBE07D"/>
<ellipse rx="18.958" ry="26.5379" transform="matrix(-0.841855 -0.539704 -0.539704 0.841855 216.381 252.564)" fill="#EBE07D"/>
<ellipse rx="17.5619" ry="26.5379" transform="matrix(-0.841855 -0.539704 -0.539704 0.841855 218.499 252.328)" fill="#EADB53"/>
<ellipse cx="225.072" cy="257.307" rx="0.766575" ry="2.68301" transform="rotate(-37.6636 225.072 257.307)" fill="#C29D3C"/>
<ellipse rx="0.766575" ry="2.68301" transform="matrix(0.991813 0.127695 0.127695 -0.991813 218.989 258.437)" fill="#C29D3C"/>
<ellipse cx="227.485" cy="251.879" rx="0.766575" ry="2.68301" transform="rotate(97.3364 227.485 251.879)" fill="#C29D3C"/>
<ellipse cx="215.242" cy="253.582" rx="0.766575" ry="2.68301" transform="rotate(-82.6636 215.242 253.582)" fill="#C29D3C"/>
<ellipse rx="0.766575" ry="2.68301" transform="matrix(-0.991813 -0.127695 -0.127695 0.991813 223.738 247.025)" fill="#C29D3C"/>
<ellipse cx="217.574" cy="247.601" rx="0.766575" ry="2.68301" transform="rotate(-37.6636 217.574 247.601)" fill="#C29D3C"/>
<ellipse cx="260.532" cy="126.089" rx="22.1123" ry="28.3455" transform="rotate(146.623 260.532 126.089)" fill="#EBE07D"/>
<ellipse cx="260.647" cy="126.113" rx="20.2493" ry="28.3455" transform="rotate(146.623 260.647 126.113)" fill="#EBE07D"/>
<ellipse cx="262.393" cy="124.626" rx="18.7581" ry="28.3455" transform="rotate(146.623 262.393 124.626)" fill="#EADB53"/>
<ellipse rx="0.81879" ry="2.86576" transform="matrix(0.799164 0.601112 0.601112 -0.799164 269.348 119.221)" fill="#C29D3C"/>
<ellipse cx="262.836" cy="118.096" rx="0.81879" ry="2.86576" transform="rotate(-8.05039 262.836 118.096)" fill="#C29D3C"/>
<ellipse rx="0.81879" ry="2.86576" transform="matrix(-0.140044 -0.990145 -0.990145 0.140044 271.997 124.987)" fill="#C29D3C"/>
<ellipse rx="0.81879" ry="2.86576" transform="matrix(0.140044 0.990145 0.990145 -0.140044 258.898 123.331)" fill="#C29D3C"/>
<ellipse cx="268.059" cy="130.221" rx="0.81879" ry="2.86576" transform="rotate(171.95 268.059 130.221)" fill="#C29D3C"/>
<ellipse rx="0.81879" ry="2.86576" transform="matrix(0.799164 0.601112 0.601112 -0.799164 261.468 129.688)" fill="#C29D3C"/>
<ellipse rx="22.4412" ry="21.1984" transform="matrix(-0.904674 0.426104 -0.318636 -0.947877 173.039 161.871)" fill="#EBE07D"/>
<ellipse rx="22.4412" ry="21.1984" transform="matrix(-0.904674 0.426104 -0.318636 -0.947877 170.508 161.119)" fill="#EADB53"/>
<ellipse rx="0.830598" ry="3.48949" transform="matrix(0.66662 0.745398 0.745398 -0.66662 176.672 155.76)" fill="#C29D3C"/>
<ellipse rx="0.917577" ry="3.21152" transform="matrix(0.999385 -0.0350561 -0.146007 0.989284 169.959 153.761)" fill="#C29D3C"/>
<ellipse rx="0.917577" ry="3.21152" transform="matrix(0.146007 -0.989284 -0.999385 0.0350561 177.711 162.428)" fill="#C29D3C"/>
<ellipse rx="0.917577" ry="3.21152" transform="matrix(-0.146007 0.989284 0.999385 -0.0350561 164.014 159.077)" fill="#C29D3C"/>
<ellipse rx="0.917577" ry="3.21152" transform="matrix(-0.999385 0.0350561 0.146007 -0.989284 171.766 167.745)" fill="#C29D3C"/>
<ellipse rx="0.830598" ry="3.48949" transform="matrix(0.66662 0.745398 0.745398 -0.66662 164.778 166.39)" fill="#C29D3C"/>
</svg>
