<svg width="333" height="686" viewBox="0 0 333 686" fill="none" xmlns="http://www.w3.org/2000/svg">
<g clip-path="url(#clip0_100_1164)">
<path d="M100.053 150.031C78.4393 152.389 66.0769 160.708 46.9781 168.014L59.3776 167.655L91.6649 158.715L100.053 150.031Z" fill="#642B48"/>
<path d="M6.36308 25.3849C3.72136 17.5331 7.94496 9.02643 15.7967 6.38472L28.1894 2.21524C36.0411 -0.426474 44.5478 3.79711 47.1895 11.6489L95.0359 153.859C95.9164 156.476 94.5086 159.312 91.8913 160.192L60.5428 170.74C57.9256 171.62 55.09 170.212 54.2094 167.595L6.36308 25.3849Z" fill="#FCDD71"/>
<path d="M46.8684 168.184C46.8684 168.184 62.9083 167.485 76.4182 162.939C89.928 158.394 99.6777 149.887 99.6777 149.887C99.6777 149.887 103.175 156.446 97.2998 160.655C91.425 164.864 73.3458 170.895 62.7828 173.305C52.2197 175.715 46.8684 168.184 46.8684 168.184Z" fill="#642B48"/>
<path d="M6.98218 21.6338C11.0462 25.3265 24.3362 32.0179 44.9845 29.2412C29.8138 29.0299 21.5046 27.4101 6.98218 21.6338Z" stroke="#F3D25E" stroke-width="2" stroke-linecap="round" stroke-linejoin="round"/>
<path d="M18.8716 58.3848C22.9356 62.0775 36.2256 68.7688 56.8739 65.9922C41.7032 65.7809 33.394 64.1611 18.8716 58.3848Z" stroke="#F3D25E" stroke-width="2" stroke-linecap="round" stroke-linejoin="round"/>
<path d="M31.8428 96.9307C35.9105 99.5758 48.3066 103.421 65.3494 97.6421C52.4489 99.8793 45.13 99.7627 31.8428 96.9307Z" stroke="#F3D25E" stroke-width="2" stroke-linecap="round" stroke-linejoin="round"/>
<path d="M56.623 44.3389C51.7897 46.9449 37.2798 50.2406 17.9069 42.5756C32.6824 46.022 41.1373 46.4499 56.623 44.3389Z" stroke="#F3D25E" stroke-width="2" stroke-linecap="round" stroke-linejoin="round"/>
<path d="M68.5703 80.0918C63.737 82.6978 49.227 85.9935 29.8542 78.3285C44.6297 81.775 53.0845 82.2028 68.5703 80.0918Z" stroke="#F3D25E" stroke-width="2" stroke-linecap="round" stroke-linejoin="round"/>
<path d="M87.123 142.269C81.9437 145.423 66.5185 149.641 46.2524 141.278C61.7745 144.873 70.6987 145.139 87.123 142.269Z" stroke="#F3D25E" stroke-width="2" stroke-linecap="round" stroke-linejoin="round"/>
<path d="M81.0107 115.605C76.7522 119.326 63.6735 125.331 45.4273 119.586C59.1875 121.231 66.961 120.41 81.0107 115.605Z" stroke="#F3D25E" stroke-width="2" stroke-linecap="round" stroke-linejoin="round"/>
</g>
<defs>
<clipPath id="clip0_100_1164">
<rect width="333" height="686" fill="white"/>
</clipPath>
</defs>
</svg>
