<svg width="333" height="686" viewBox="0 0 333 686" fill="none" xmlns="http://www.w3.org/2000/svg">
<path d="M101.145 134.434C79.6823 137.91 67.7944 147.056 49.1001 155.343L61.4376 154.143L93.218 143.542L101.145 134.434Z" fill="#642B48"/>
<path d="M6.34367 23.4566C5.33947 20.8842 6.61071 17.9848 9.18307 16.9806L38.9921 5.34367C41.5645 4.33947 44.4639 5.61071 45.4681 8.18307L96.7434 139.529C97.7476 142.102 96.4764 145.001 93.904 146.005L64.095 157.642C61.5226 158.646 58.6232 157.375 57.619 154.803L6.34367 23.4566Z" fill="#311907"/>
<path d="M14.854 27.8871C13.8498 25.3147 15.121 22.4154 17.6934 21.4111L37.045 13.8566C39.6174 12.8524 42.5167 14.1236 43.5209 16.696L93.9915 145.981L65.3245 157.172L14.854 27.8871Z" fill="#51280B"/>
<path d="M49.1001 155.343C49.1001 155.343 65.2277 153.957 78.4453 148.622C91.663 143.286 100.893 134.218 100.893 134.218C100.893 134.218 104.771 140.558 99.1555 145.107C93.5397 149.656 75.8485 156.745 65.4463 159.775C55.0442 162.805 49.1001 155.343 49.1001 155.343Z" fill="#642B48"/>
</svg>
