<svg width="333" height="686" viewBox="0 0 333 686" fill="none" xmlns="http://www.w3.org/2000/svg">
<path d="M94.6718 115.455C97.582 129.747 89.23 143.513 76.0172 146.204C62.8044 148.894 49.7341 139.49 46.8239 125.199C43.9137 110.907 46.5452 101.356 67.6569 102.651C88.4348 92.3177 91.7616 101.164 94.6718 115.455Z" fill="#801212"/>
<path d="M92.4198 113.18C95.33 127.471 86.9781 141.238 73.7652 143.928C60.5524 146.619 47.4821 137.215 44.5719 122.923C41.6617 108.632 44.2933 99.0808 65.4049 100.375C86.1828 90.0423 89.5096 98.8884 92.4198 113.18Z" fill="#C61313"/>
<path d="M39.8249 63.0672C38.7259 65.8605 44.4388 60.8562 51.9401 67.7982C59.4414 74.7403 62.2213 101.906 63.2 101.98C64.1787 102.054 65.7185 102.388 67.5839 101.087C69.4494 99.7862 56.7782 68.4502 53.8191 65.8766C50.86 63.3031 40.9239 60.274 39.8249 63.0672Z" fill="#1C572D"/>
<ellipse cx="48.7066" cy="111.061" rx="1.84947" ry="4.98264" transform="rotate(8.83924 48.7066 111.061)" fill="#D9D9D9"/>
</svg>
