<svg width="188" height="274" viewBox="0 0 188 274" fill="none" xmlns="http://www.w3.org/2000/svg">
<path d="M16.0092 132.709C7.72498 132.709 1.00925 139.424 1.00925 147.709C1.00925 155.993 7.72498 162.709 16.0092 162.709V132.709ZM171.286 162.709C179.571 162.709 186.286 155.993 186.286 147.709C186.286 139.424 179.571 132.709 171.286 132.709V162.709ZM154.65 147.709L169.484 149.934C170.131 145.615 168.865 141.229 166.016 137.92C163.166 134.611 159.016 132.709 154.65 132.709V147.709ZM138.013 258.621V273.621C145.438 273.621 151.745 268.189 152.847 260.846L138.013 258.621ZM49.2829 258.621L34.4489 260.846C35.5503 268.189 41.858 273.621 49.2829 273.621V258.621ZM32.6461 147.709V132.709C28.2794 132.709 24.1295 134.611 21.28 137.92C18.4305 141.229 17.1643 145.615 17.812 149.934L32.6461 147.709ZM95.888 148.061L96.0165 163.061L95.888 148.061ZM171.979 145.975L184.315 154.51L184.315 154.51L171.979 145.975ZM159.971 100.881L145.711 96.2274L141.336 109.632L154.445 114.826L159.971 100.881ZM121.618 18.8773L134.728 26.1674L143.2 10.9311L126.87 4.82685L121.618 18.8773ZM83.1096 22.5578L75.7635 9.47978L75.7635 9.47979L83.1096 22.5578ZM58.6736 53.6237L63.4271 67.8506L69.7425 65.7405L72.4137 59.6411L58.6736 53.6237ZM24.73 75.4833L12.9613 66.1829L12.9613 66.1829L24.73 75.4833ZM16.0092 162.709H171.286V132.709H16.0092V162.709ZM139.816 145.483L123.179 256.396L152.847 260.846L169.484 149.934L139.816 145.483ZM138.013 243.621H49.2829V273.621H138.013V243.621ZM64.117 256.396L47.4801 145.483L17.812 149.934L34.4489 260.846L64.117 256.396ZM32.6461 162.709H154.65V132.709H32.6461V162.709ZM16.091 163.074C16.0882 163.074 16.0979 163.073 16.124 163.073C16.1492 163.074 16.1834 163.074 16.2283 163.074C16.319 163.074 16.4374 163.075 16.5883 163.076C16.8909 163.078 17.2879 163.082 17.7913 163.087C18.7886 163.097 20.1775 163.112 21.9326 163.129C25.4529 163.163 30.4787 163.204 37.0764 163.231C50.2712 163.286 69.7366 163.286 96.0165 163.061L95.7594 133.062C42.7764 133.516 19.1975 133.056 15.9284 133.074L16.091 163.074ZM96.0165 163.061C122.561 162.833 139.864 163.141 152.809 163.083C158.872 163.056 164.055 162.946 167.997 162.551C169.929 162.358 172.252 162.036 174.503 161.363C176.155 160.869 180.994 159.309 184.315 154.51L159.644 137.441C161.138 135.281 162.869 134.094 163.869 133.521C164.88 132.942 165.662 132.694 165.911 132.619C166.352 132.487 166.222 132.579 165.009 132.7C162.663 132.935 158.797 133.056 152.675 133.084C141.251 133.134 121.647 132.84 95.7594 133.062L96.0165 163.061ZM174.231 105.535C177.788 94.6349 179.029 84.7927 177.251 75.6206C175.429 66.2187 170.772 59.2563 165.719 53.7096L143.542 73.9122C146.266 76.9029 147.357 79.045 147.799 81.3285C148.286 83.8419 148.309 88.2661 145.711 96.2274L174.231 105.535ZM165.719 53.7096C162.546 50.2256 158.337 47.0924 154.669 44.5898C150.811 41.9564 146.556 39.3621 142.742 37.0744C138.754 34.6823 135.412 32.7197 132.72 31.004C131.395 30.1602 130.494 29.542 129.93 29.1178C129.091 28.4858 129.761 28.849 130.669 30.0493L106.742 48.1456C108.499 50.4691 110.686 52.1804 111.881 53.0807C113.352 54.1888 115.002 55.2872 116.598 56.3039C119.745 58.3093 123.713 60.6435 127.31 62.8009C131.081 65.0628 134.683 67.2707 137.759 69.3694C141.026 71.5989 142.827 73.1275 143.542 73.9122L165.719 53.7096ZM130.669 30.0493C131.928 31.7136 132.118 33.1485 132.145 33.4069C132.172 33.6668 132.111 33.4112 132.279 32.5325C132.624 30.7313 133.539 28.3054 134.728 26.1674L108.509 11.5872C106.123 15.8777 103.882 21.3152 102.814 26.8935C101.903 31.6571 101.054 40.6257 106.742 48.1456L130.669 30.0493ZM126.87 4.82685C108.873 -1.9008 91.5697 0.60128 75.7635 9.47978L90.4557 35.6359C99.6145 30.4913 107.714 29.6937 116.366 32.9277L126.87 4.82685ZM75.7635 9.47979C67.8863 13.9045 61.8604 19.0491 56.8062 25.7914C52.0154 32.1823 48.4578 39.5589 44.9335 47.6062L72.4137 59.6411C75.8167 51.8709 78.2358 47.2203 80.8105 43.7856C83.122 40.7022 85.8504 38.2227 90.4557 35.6359L75.7635 9.47979ZM58.6736 53.6237C53.9202 39.3968 53.9172 39.3978 53.9141 39.3988C53.913 39.3992 53.9098 39.4002 53.9075 39.401C53.9029 39.4025 53.898 39.4042 53.8927 39.406C53.8821 39.4095 53.8702 39.4135 53.8568 39.4181C53.8301 39.4271 53.7978 39.438 53.7601 39.4509C53.6847 39.4767 53.5874 39.5102 53.4695 39.5514C53.2338 39.6337 52.9147 39.7471 52.521 39.8912C51.7343 40.1793 50.6444 40.5922 49.3206 41.1291C46.6849 42.1981 43.0586 43.7841 39.0172 45.8855C31.2669 49.9156 20.5634 56.5632 12.9613 66.1829L36.4987 84.7837C40.1913 80.1111 46.4596 75.829 52.8574 72.5022C55.8901 70.9253 58.6319 69.7262 60.5959 68.9296C61.5719 68.5338 62.3397 68.2439 62.8357 68.0622C63.0834 67.9716 63.2619 67.9084 63.3635 67.8729C63.4142 67.8552 63.4456 67.8444 63.4565 67.8407C63.462 67.8388 63.4624 67.8387 63.4575 67.8403C63.4551 67.8412 63.4513 67.8424 63.4463 67.8441C63.4437 67.845 63.4409 67.8459 63.4377 67.847C63.4361 67.8476 63.4334 67.8484 63.4326 67.8487C63.4299 67.8496 63.4271 67.8506 58.6736 53.6237ZM184.315 154.51C186.67 151.105 187.262 147.398 187.449 146.25C187.75 144.405 187.886 142.479 187.95 140.737C188.079 137.2 187.949 133.091 187.681 129.112C187.181 121.679 186.026 112.146 184.167 106.514L155.679 115.918C155.856 116.454 156.284 118.267 156.743 121.435C157.167 124.365 157.524 127.789 157.749 131.126C157.976 134.507 158.048 137.504 157.97 139.644C157.93 140.74 157.861 141.296 157.839 141.428C157.829 141.491 157.868 141.21 158.021 140.713C158.133 140.35 158.557 139.012 159.644 137.441L184.315 154.51ZM184.167 106.514C181.683 98.99 176.751 94.1206 173.128 91.36C171.26 89.9369 169.526 88.9071 168.215 88.2117C167.552 87.86 166.976 87.5823 166.518 87.3735C166.288 87.2687 166.085 87.1804 165.915 87.1079C165.829 87.0717 165.751 87.0393 165.682 87.0107C165.647 86.9964 165.614 86.9831 165.583 86.9707C165.568 86.9644 165.553 86.9585 165.538 86.9527C165.531 86.9499 165.524 86.947 165.517 86.9443C165.514 86.9429 165.509 86.9409 165.507 86.9402C165.502 86.9382 165.497 86.9362 159.971 100.881C154.445 114.826 154.44 114.824 154.435 114.822C154.433 114.822 154.428 114.82 154.425 114.818C154.418 114.816 154.412 114.813 154.406 114.811C154.393 114.806 154.381 114.801 154.369 114.796C154.346 114.787 154.324 114.778 154.303 114.769C154.262 114.752 154.227 114.738 154.197 114.725C154.138 114.7 154.099 114.683 154.08 114.674C154.043 114.657 154.073 114.67 154.154 114.712C154.33 114.806 154.629 114.981 154.946 115.222C155.692 115.791 155.735 116.089 155.679 115.918L184.167 106.514ZM12.9613 66.1829C2.53018 79.3824 1.01096 95.6966 1.0097 112.6L31.0097 112.602C31.0109 96.2943 32.9143 89.3194 36.4987 84.7837L12.9613 66.1829ZM1.0097 112.6C1.00911 120.487 0.47423 128.673 0.170596 135.943C0.0307678 139.291 -0.0765373 142.831 0.0720306 145.659C0.137921 146.912 0.294234 149.097 0.92679 151.327C1.22091 152.364 1.94693 154.649 3.71221 156.961C5.72801 159.602 9.87576 163.107 16.091 163.074L15.9284 133.074C21.8597 133.042 25.7591 136.401 27.5586 138.758C29.1076 140.788 29.6495 142.652 29.7883 143.141C30.1103 144.276 30.0714 144.858 30.0307 144.084C29.9661 142.856 30.0006 140.641 30.1445 137.195C30.4083 130.877 31.009 121.32 31.0097 112.602L1.0097 112.6Z" fill="#F7B90A"/>
</svg>
