<svg width="50" height="36" viewBox="0 0 50 36" fill="none" xmlns="http://www.w3.org/2000/svg">
<path d="M37.1462 0.0112122C32.3546 0.143025 28.6407 1.44334 25.0248 2.7009C21.1577 4.04396 17.5079 5.31043 12.4509 5.36209C9.07191 5.41552 5.68753 4.83127 2.36194 3.68059L0 2.86478V33.2921L1.18631 33.7142C4.28391 34.8097 7.45097 35.4421 10.6038 35.5917C11.1043 35.6148 11.5942 35.6273 12.0751 35.6273C17.442 35.6273 21.5513 34.2023 25.536 32.8272C29.7362 31.3737 33.6977 30.0003 39.1038 30.2551C41.9693 30.4023 44.7977 30.9688 47.4988 31.9366L49.875 32.7773V2.33753L48.7029 1.91002C45.672 0.806185 42.4902 0.171868 39.2677 0.0290251C38.5609 -0.002349 37.8533 -0.00829074 37.1462 0.0112122ZM37.2424 3.54877C37.848 3.53096 38.4679 3.53096 39.1109 3.5559C39.7771 3.5844 40.4433 3.64496 41.1077 3.72334C41.3787 4.84098 42.0724 5.81006 43.043 6.4269C44.0136 7.04375 45.1855 7.26033 46.3125 7.03112V23.2441C45.729 23.1253 45.1276 23.125 44.5439 23.2432C43.9603 23.3614 43.4064 23.5957 42.9151 23.9322C42.4238 24.2686 42.0051 24.7004 41.6839 25.2018C41.3627 25.7032 41.1456 26.2641 41.0453 26.8511C40.4553 26.7904 39.8637 26.7465 39.2712 26.7193C33.1883 26.4521 28.7031 27.9822 24.3675 29.4856C20.162 30.9426 16.1773 32.3195 10.7748 32.063C10.1019 32.0278 9.43055 31.9684 8.76197 31.8849C8.48865 30.7703 7.79479 29.8047 6.82564 29.1902C5.85649 28.5756 4.68719 28.3598 3.5625 28.5878V12.3749C4.14951 12.4943 4.75461 12.4938 5.3414 12.3733C5.9282 12.2528 6.48454 12.0148 6.97695 11.6736C7.46936 11.3325 7.88766 10.8953 8.20667 10.3882C8.52568 9.88119 8.7388 9.31486 8.83322 8.72331C10.0534 8.84978 11.2735 8.92281 12.4901 8.90321C18.1278 8.84621 22.2264 7.41943 26.1933 6.04074C29.6863 4.82415 33.0155 3.68059 37.2424 3.54877ZM24.9375 10.6845C24.9375 13.2477 23.9382 14.247 21.375 14.247V17.8095C22.7572 17.8095 23.9347 17.5405 24.9375 17.0756V24.9345H28.5V10.6845H24.9375ZM38.2969 12.4657C37.5882 12.4657 36.9086 12.7472 36.4076 13.2483C35.9065 13.7494 35.625 14.429 35.625 15.1376C35.625 15.8462 35.9065 16.5258 36.4076 17.0269C36.9086 17.528 37.5882 17.8095 38.2969 17.8095C39.0055 17.8095 39.6851 17.528 40.1862 17.0269C40.6872 16.5258 40.9688 15.8462 40.9688 15.1376C40.9688 14.429 40.6872 13.7494 40.1862 13.2483C39.6851 12.7472 39.0055 12.4657 38.2969 12.4657ZM11.5781 17.8095C10.8695 17.8095 10.1899 18.091 9.68882 18.592C9.18775 19.0931 8.90625 19.7727 8.90625 20.4813C8.90625 21.19 9.18775 21.8696 9.68882 22.3706C10.1899 22.8717 10.8695 23.1532 11.5781 23.1532C12.2867 23.1532 12.9664 22.8717 13.4674 22.3706C13.9685 21.8696 14.25 21.19 14.25 20.4813C14.25 19.7727 13.9685 19.0931 13.4674 18.592C12.9664 18.091 12.2867 17.8095 11.5781 17.8095Z" fill="#DDDDDD"/>
</svg>
