<svg width="70" height="85" viewBox="0 0 70 85" fill="none" xmlns="http://www.w3.org/2000/svg">
<path d="M35 0C15.6625 0 0 15.6625 0 35C0 50.4875 10.0187 63.5688 23.9312 68.2063C25.6812 68.5125 26.3375 67.4625 26.3375 66.5437C26.3375 65.7125 26.2938 62.9563 26.2938 60.025C17.5 61.6438 15.225 57.8812 14.525 55.9125C14.1312 54.9062 12.425 51.8 10.9375 50.9688C9.7125 50.3125 7.9625 48.6937 10.8938 48.65C13.65 48.6063 15.6188 51.1875 16.275 52.2375C19.425 57.5312 24.4563 56.0438 26.4688 55.125C26.775 52.85 27.6938 51.3187 28.7 50.4437C20.9125 49.5687 12.775 46.55 12.775 33.1625C12.775 29.3562 14.1313 26.2062 16.3625 23.7562C16.0125 22.8812 14.7875 19.2938 16.7125 14.4812C16.7125 14.4812 19.6437 13.5625 26.3375 18.0688C29.1375 17.2812 32.1125 16.8875 35.0875 16.8875C38.0625 16.8875 41.0375 17.2812 43.8375 18.0688C50.5312 13.5188 53.4625 14.4812 53.4625 14.4812C55.3875 19.2938 54.1625 22.8812 53.8125 23.7562C56.0438 26.2062 57.4 29.3125 57.4 33.1625C57.4 46.5938 49.2188 49.5687 41.4313 50.4437C42.7 51.5375 43.7938 53.6375 43.7938 56.9188C43.7938 61.6 43.75 65.3625 43.75 66.5437C43.75 67.4625 44.4062 68.5563 46.1562 68.2063C53.1047 65.8612 59.1427 61.3959 63.4201 55.4389C67.6975 49.482 69.9988 42.3335 70 35C70 15.6625 54.3375 0 35 0Z" fill="#DDDDDD"/>
<path fill-rule="evenodd" clip-rule="evenodd" d="M10.8115 67.2391C11.5503 67.6522 11.9198 68.0652 12.6586 68.8913C13.3975 69.7174 13.7669 70.1304 14.6536 72.0762C15.5402 74.0219 18.5223 78.76 20.3429 79.9752C22.1634 81.1904 24.2116 78.1524 26.0321 78.76C27.8527 79.6714 29.9009 84.2285 31.7214 84.8362C33.542 85.7476 35.5901 82.7095 37.4107 79.3676C39.2313 75.7219 41.2794 72.0762 43.1 70.8609C44.9206 69.6457 46.9687 71.1648 48.7893 72.38C50.6099 73.5952 52.658 74.2028 54.4786 73.5952C56.2991 72.6838 55.8401 70.2152 57.6607 69C59.4813 67.7848 60.5536 66.5 61.0357 65C61.5179 63.5 64 53 64 53L60.5536 56.5C59.6433 56.5 58.0349 60 56.2143 60C54.3937 60 53.6956 63.5 51.875 63.5C50.0544 63.5 50.6099 66 48.7893 66C46.9687 66 44.9206 66 43.1 66C41.2794 66 39.2313 66 37.4107 66C35.5901 66 33.542 66 31.7214 66C29.9009 66 27.8527 66 26.0321 66C24.2116 66 22.1634 66 20.3429 66C18.5223 66 17.0527 62.5 15.2321 62.5C13.4116 62.5 11.8031 60 10.8929 60L5.5 53.5C5.5 53.5 10.0726 66.8261 10.8115 67.2391Z" fill="#DDDDDD"/>
</svg>
