<svg width="223" height="293" viewBox="0 0 223 293" fill="none" xmlns="http://www.w3.org/2000/svg">
<path fill-rule="evenodd" clip-rule="evenodd" d="M223 0H0V293H223V0ZM35.8729 157.098H35.8685L35.8582 157.097C34.3152 157.082 33.3716 157.072 33.0097 157.074C31.5864 157.081 31.9465 149.669 32.4141 140.047C32.6926 134.315 33.0092 127.799 33.0097 121.601C33.0109 104.995 34.7222 93.3509 41.73 84.4833C53.0247 70.191 75.6736 62.6237 75.6736 62.6237C82.6008 46.8061 87.6271 38.5694 100.11 31.5578C112.592 24.5463 125.294 22.8964 138.618 27.8773C135.043 34.3058 132.307 43.604 135.705 48.0974C137.211 50.0883 142.908 53.4904 149.463 57.4051C157.703 62.3258 167.299 68.0562 171.63 72.8109C179.408 81.3483 183.126 91.0199 176.971 109.881C176.971 109.881 184.496 112.863 186.923 120.216C189.35 127.569 191.255 151.686 188.979 154.975C187.901 156.534 182.53 156.983 171.595 157.072L155.013 267.621H66.2829L49.7213 157.21C43.1814 157.173 38.5973 157.126 35.8729 157.098Z" fill="#642B48"/>
<path d="M33.0092 141.709C24.725 141.709 18.0092 148.424 18.0092 156.709C18.0092 164.993 24.725 171.709 33.0092 171.709V141.709ZM188.286 171.709C196.571 171.709 203.286 164.993 203.286 156.709C203.286 148.424 196.571 141.709 188.286 141.709V171.709ZM171.65 156.709L186.484 158.934C187.131 154.615 185.865 150.229 183.016 146.92C180.166 143.611 176.016 141.709 171.65 141.709V156.709ZM155.013 267.621V282.621C162.438 282.621 168.745 277.189 169.847 269.846L155.013 267.621ZM66.2829 267.621L51.4489 269.846C52.5503 277.189 58.858 282.621 66.2829 282.621V267.621ZM49.6461 156.709V141.709C45.2794 141.709 41.1295 143.611 38.28 146.92C35.4305 150.229 34.1643 154.615 34.812 158.934L49.6461 156.709ZM112.888 157.061L113.017 172.061L112.888 157.061ZM188.979 154.975L201.315 163.51L201.315 163.51L188.979 154.975ZM176.971 109.881L162.711 105.227L158.336 118.632L171.445 123.826L176.971 109.881ZM138.618 27.8773L151.728 35.1674L160.2 19.9311L143.87 13.8268L138.618 27.8773ZM100.11 31.5578L92.7635 18.4798L92.7635 18.4798L100.11 31.5578ZM75.6736 62.6237L80.4271 76.8506L86.7425 74.7405L89.4137 68.6411L75.6736 62.6237ZM41.73 84.4833L29.9613 75.1829H29.9613L41.73 84.4833ZM33.0092 171.709H188.286V141.709H33.0092V171.709ZM156.816 154.483L140.179 265.396L169.847 269.846L186.484 158.934L156.816 154.483ZM155.013 252.621H66.2829V282.621H155.013V252.621ZM81.117 265.396L64.4801 154.483L34.812 158.934L51.4489 269.846L81.117 265.396ZM49.6461 171.709H171.65V141.709H49.6461V171.709ZM33.091 172.074C33.0882 172.074 33.0979 172.073 33.124 172.074C33.1492 172.074 33.1834 172.074 33.2283 172.074C33.319 172.074 33.4374 172.075 33.5883 172.076C33.8909 172.078 34.2879 172.082 34.7913 172.087C35.7886 172.097 37.1775 172.112 38.9326 172.129C42.4529 172.163 47.4787 172.204 54.0764 172.231C67.2712 172.286 86.7366 172.286 113.017 172.061L112.759 142.062C59.7764 142.516 36.1975 142.056 32.9284 142.074L33.091 172.074ZM113.017 172.061C139.561 171.833 156.864 172.141 169.809 172.083C175.872 172.056 181.055 171.946 184.997 171.551C186.929 171.358 189.252 171.036 191.503 170.363C193.155 169.869 197.994 168.309 201.315 163.51L176.644 146.441C178.138 144.281 179.869 143.094 180.868 142.521C181.88 141.942 182.662 141.694 182.911 141.619C183.352 141.487 183.222 141.579 182.009 141.7C179.663 141.935 175.797 142.056 169.675 142.084C158.251 142.134 138.647 141.84 112.759 142.062L113.017 172.061ZM191.231 114.535C194.788 103.635 196.029 93.7927 194.251 84.6206C192.429 75.2187 187.772 68.2563 182.719 62.7096L160.542 82.9122C163.266 85.9029 164.357 88.045 164.799 90.3285C165.286 92.8419 165.309 97.2661 162.711 105.227L191.231 114.535ZM182.719 62.7096C179.546 59.2256 175.337 56.0924 171.669 53.5898C167.811 50.9564 163.556 48.3621 159.742 46.0744C155.754 43.6823 152.412 41.7197 149.72 40.004C148.395 39.1602 147.494 38.542 146.93 38.1178C146.091 37.4858 146.761 37.849 147.669 39.0493L123.742 57.1456C125.499 59.4691 127.686 61.1804 128.881 62.0807C130.352 63.1888 132.002 64.2872 133.598 65.3039C136.745 67.3093 140.713 69.6435 144.31 71.8009C148.081 74.0628 151.684 76.2707 154.759 78.3694C158.026 80.5989 159.827 82.1275 160.542 82.9122L182.719 62.7096ZM147.669 39.0493C148.928 40.7136 149.118 42.1485 149.145 42.4069C149.172 42.6668 149.111 42.4112 149.279 41.5325C149.624 39.7313 150.539 37.3054 151.728 35.1674L125.509 20.5872C123.123 24.8777 120.882 30.3152 119.814 35.8935C118.903 40.6571 118.054 49.6257 123.742 57.1456L147.669 39.0493ZM143.87 13.8268C125.873 7.0992 108.57 9.60128 92.7635 18.4798L107.456 44.6359C116.614 39.4913 124.714 38.6937 133.366 41.9277L143.87 13.8268ZM92.7635 18.4798C84.8863 22.9045 78.8604 28.0491 73.8062 34.7914C69.0154 41.1823 65.4578 48.5589 61.9335 56.6062L89.4137 68.6411C92.8167 60.8709 95.2358 56.2203 97.8105 52.7856C100.122 49.7022 102.85 47.2227 107.456 44.6359L92.7635 18.4798ZM75.6736 62.6237C70.9202 48.3968 70.9172 48.3978 70.9141 48.3988C70.913 48.3992 70.9098 48.4002 70.9075 48.401C70.9029 48.4025 70.898 48.4042 70.8927 48.406C70.8821 48.4095 70.8702 48.4135 70.8568 48.4181C70.8301 48.4271 70.7978 48.438 70.7601 48.4509C70.6847 48.4767 70.5874 48.5102 70.4695 48.5514C70.2338 48.6337 69.9147 48.7471 69.521 48.8912C68.7343 49.1793 67.6444 49.5922 66.3206 50.1291C63.6849 51.1981 60.0586 52.7841 56.0172 54.8855C48.2669 58.9156 37.5634 65.5632 29.9613 75.1829L53.4987 93.7837C57.1913 89.1111 63.4596 84.829 69.8574 81.5022C72.8901 79.9253 75.6319 78.7262 77.5959 77.9296C78.5719 77.5338 79.3397 77.2439 79.8357 77.0622C80.0834 76.9716 80.2619 76.9084 80.3635 76.8729C80.4142 76.8552 80.4456 76.8444 80.4565 76.8407C80.462 76.8388 80.4624 76.8387 80.4575 76.8403C80.4551 76.8412 80.4513 76.8424 80.4463 76.8441C80.4437 76.845 80.4409 76.8459 80.4377 76.847C80.4361 76.8475 80.4334 76.8484 80.4326 76.8487C80.4299 76.8496 80.4271 76.8506 75.6736 62.6237ZM201.315 163.51C203.67 160.105 204.262 156.398 204.449 155.25C204.75 153.405 204.886 151.479 204.95 149.737C205.079 146.2 204.949 142.091 204.681 138.112C204.181 130.679 203.026 121.146 201.167 115.514L172.679 124.918C172.856 125.454 173.284 127.267 173.743 130.435C174.167 133.365 174.524 136.789 174.749 140.126C174.976 143.507 175.048 146.504 174.97 148.644C174.93 149.74 174.861 150.296 174.839 150.428C174.829 150.491 174.868 150.21 175.021 149.713C175.133 149.35 175.557 148.012 176.644 146.441L201.315 163.51ZM201.167 115.514C198.683 107.99 193.751 103.121 190.128 100.36C188.26 98.9369 186.526 97.9071 185.215 97.2117C184.552 96.86 183.976 96.5823 183.518 96.3735C183.288 96.2687 183.085 96.1804 182.915 96.1079C182.829 96.0717 182.751 96.0393 182.682 96.0107C182.647 95.9964 182.614 95.9831 182.583 95.9707C182.568 95.9644 182.553 95.9585 182.538 95.9527C182.531 95.9499 182.524 95.947 182.517 95.9443C182.514 95.9429 182.509 95.9409 182.507 95.9402C182.502 95.9382 182.497 95.9362 176.971 109.881C171.445 123.826 171.44 123.824 171.435 123.822C171.433 123.822 171.428 123.82 171.425 123.818C171.418 123.816 171.412 123.813 171.406 123.811C171.393 123.806 171.381 123.801 171.369 123.796C171.346 123.787 171.324 123.778 171.303 123.769C171.262 123.752 171.227 123.738 171.197 123.725C171.138 123.7 171.099 123.683 171.08 123.674C171.043 123.657 171.073 123.67 171.154 123.712C171.33 123.806 171.629 123.981 171.946 124.222C172.692 124.791 172.735 125.089 172.679 124.918L201.167 115.514ZM29.9613 75.1829C19.5302 88.3824 18.011 104.697 18.0097 121.6L48.0097 121.602C48.0109 105.294 49.9143 98.3194 53.4987 93.7837L29.9613 75.1829ZM18.0097 121.6C18.0091 129.487 17.4742 137.673 17.1706 144.943C17.0308 148.291 16.9235 151.831 17.072 154.659C17.1379 155.912 17.2942 158.097 17.9268 160.327C18.2209 161.364 18.9469 163.649 20.7122 165.961C22.728 168.602 26.8758 172.107 33.091 172.074L32.9284 142.074C38.8597 142.042 42.7591 145.401 44.5586 147.758C46.1076 149.788 46.6495 151.652 46.7883 152.141C47.1103 153.276 47.0714 153.858 47.0307 153.084C46.9661 151.856 47.0006 149.641 47.1445 146.195C47.4083 139.877 48.009 130.32 48.0097 121.602L18.0097 121.6Z" fill="#F7B90A"/>
</svg>
