<svg width="70" height="89" viewBox="0 0 70 89" fill="none" xmlns="http://www.w3.org/2000/svg">
<path d="M0 5.01375C0 2.24438 2.30125 0 5.14062 0H64.8594C67.6987 0 70 2.24438 70 5.01375V64.9863C70 67.7556 67.6987 70 64.8594 70H5.14062C2.30125 70 0 67.7556 0 64.9863V5.01375ZM21.6256 58.5988V26.9894H11.1213V58.5988H21.6256ZM16.3756 22.6713C20.0375 22.6713 22.3169 20.2475 22.3169 17.2113C22.2512 14.1094 20.0419 11.7513 16.4456 11.7513C12.8494 11.7513 10.5 14.1138 10.5 17.2113C10.5 20.2475 12.7794 22.6713 16.3056 22.6713H16.3756V22.6713ZM37.8481 58.5988V40.9456C37.8481 40.0006 37.9181 39.0556 38.1981 38.3819C38.955 36.4962 40.6831 34.5406 43.5881 34.5406C47.39 34.5406 48.9081 37.4369 48.9081 41.6894V58.5988H59.4125V40.4688C59.4125 30.7562 54.2325 26.2413 47.32 26.2413C41.7462 26.2413 39.2481 29.3037 37.8481 31.4606V31.57H37.7781C37.8014 31.5335 37.8247 31.497 37.8481 31.4606V26.9894H27.3481C27.4794 29.9556 27.3481 58.5988 27.3481 58.5988H37.8481Z" fill="#DDDDDD"/>
<path fill-rule="evenodd" clip-rule="evenodd" d="M62.0844 71.2391C61.3182 71.6522 60.9351 72.0652 60.1688 72.8913C59.4026 73.7174 59.0195 74.1304 58.1 76.0762C57.1805 78.0219 54.088 82.76 52.2 83.9752C50.312 85.1904 48.188 82.1524 46.3 82.76C44.412 83.6714 42.288 88.2285 40.4 88.8362C38.512 89.7476 36.388 86.7095 34.5 83.3676C32.612 79.7219 30.488 76.0762 28.6 74.8609C26.712 73.6457 24.588 75.1648 22.7 76.38C20.812 77.5952 18.688 78.2028 16.8 77.5952C14.912 76.6838 12.788 74.5571 10.9 73.3419C9.012 72.1267 8.06494 70.8261 7.2987 70.413C6.53247 70 5 70 5 70H5.944C6.888 70 9.012 70 10.9 70C12.788 70 14.912 70 16.8 70C18.688 70 20.812 70 22.7 70C24.588 70 26.712 70 28.6 70C30.488 70 32.612 70 34.5 70C36.388 70 38.512 70 40.4 70C42.288 70 44.412 70 46.3 70C48.188 70 50.312 70 52.2 70C54.088 70 56.212 70 58.1 70C59.988 70 62.112 70 63.056 70H64C64 70 62.8506 70.8261 62.0844 71.2391Z" fill="#DDDDDD"/>
</svg>
