<svg width="260" height="172" viewBox="0 0 260 172" fill="none" xmlns="http://www.w3.org/2000/svg">
<path fill-rule="evenodd" clip-rule="evenodd" d="M98.4162 -118.223C130.661 -114.541 150.302 -88.5639 176.425 -72.7907C199.35 -58.9485 229.851 -51.4782 243.031 -30.905C256.102 -10.5019 245.141 13.8788 246.659 36.8408C248.276 61.2961 271.836 90.2658 252.274 108.917C231.368 128.849 187.243 109.437 158.336 121.051C132.301 131.511 126.559 164.881 98.4162 170.732C70.6365 176.507 42.9471 161.311 17.6908 150.29C-8.14007 139.018 -32.2284 125.36 -49.5583 106.161C-68.0692 85.653 -91.8125 61.5988 -84.7129 36.8408C-77.3501 11.1648 -30.6914 6.79921 -14.5103 -16.0605C1.73013 -39.0042 -15.1602 -72.4813 6.61208 -92.1783C28.6321 -112.099 65.758 -121.951 98.4162 -118.223Z" fill="#642B48"/>
<path d="M41.2743 96.8277C37.9706 96.8277 35.2175 95.7265 33.015 93.524C30.8675 91.3765 29.7938 88.8712 29.7938 86.0079C29.7938 83.0896 30.4821 80.3915 31.8586 77.9137C33.2352 75.3808 35.1899 73.0407 37.7228 70.8932C40.3107 68.7458 43.6696 66.9838 47.7993 65.6072C51.929 64.1756 56.4992 63.3772 61.5099 63.212C64.4282 55.9988 67.0161 47.9321 69.2737 39.012C69.3288 38.6816 69.3563 38.2686 69.3563 37.7731C69.3563 37.2224 69.081 36.7544 68.5303 36.369V35.543C73.2657 34.662 77.5881 34.2215 81.4976 34.2215L86.4532 34.5519C87.8849 37.0848 88.6833 40.6088 88.8485 45.1239C89.0136 49.584 89.1238 57.3478 89.1788 68.4154C95.1256 71.0034 100.219 74.2796 104.459 78.2441C104.238 78.9599 103.798 79.6757 103.137 80.3915C102.532 81.0523 101.953 81.5479 101.403 81.8782L100.577 82.3738C97.3281 79.1802 93.5563 76.4546 89.2614 74.197C89.3715 77.3356 89.6744 79.9786 90.17 82.126C90.9408 85.65 91.8494 87.412 92.8956 87.412C93.5012 87.412 94.2171 87.2744 95.043 86.9991L96.2819 90.2202C92.4826 92.643 88.8485 93.8543 85.3795 93.8543C79.653 93.8543 76.7897 89.5319 76.7897 80.8871V70.0673C72.9354 69.1312 69.4389 68.5531 66.3003 68.3328C59.1422 87.3294 50.8002 96.8277 41.2743 96.8277ZM59.445 68.2502C53.2229 68.7458 48.047 70.9208 43.9173 74.7751C39.7877 78.6295 37.7228 82.2361 37.7228 85.595C37.7228 88.9538 39.0168 90.6332 41.6047 90.6332C46.8907 90.6332 52.8375 83.1722 59.445 68.2502ZM75.8812 40.829C75.7711 40.774 75.5508 40.7464 75.2205 40.7464C74.8901 40.7464 74.6698 40.774 74.5597 40.829C74.0641 45.0138 71.9167 52.5298 68.1174 63.3772C70.8154 63.5424 73.7062 63.9278 76.7897 64.5335C76.7897 50.9881 76.4869 43.0866 75.8812 40.829ZM116.819 60.4038C114.616 60.4038 112.854 62.2484 111.533 65.9376C110.211 69.5717 109.55 73.4812 109.55 77.6659C109.55 84.2735 111.588 87.5772 115.662 87.5772C116.984 87.5772 118.388 87.2744 119.875 86.6687C121.361 86.0079 122.545 85.3747 123.426 84.769L124.665 83.7779L126.565 86.3383C126.179 86.7237 125.656 87.2468 124.996 87.9076C124.335 88.5133 122.958 89.4493 120.866 90.7158C118.829 91.9822 116.764 92.8632 114.671 93.3588C113.295 94.3499 112.083 95.5613 111.037 96.9929C110.046 98.4245 109.55 99.8011 109.55 101.123C109.55 102.499 110.211 103.187 111.533 103.187C112.854 103.187 114.424 102.664 116.241 101.618L117.149 101.04L118.636 103.353C118.25 103.738 117.727 104.206 117.067 104.757C116.406 105.362 115.084 106.133 113.102 107.069C111.12 108.061 109.275 108.556 107.568 108.556C105.861 108.556 104.485 108.033 103.439 106.987C102.392 105.996 101.869 104.674 101.869 103.022C101.869 101.425 102.558 99.7736 103.934 98.0666C105.311 96.4148 106.88 94.9831 108.642 93.7718C104.898 93.3863 102.09 91.817 100.217 89.0639C98.4003 86.3108 97.4918 82.7317 97.4918 78.3267C97.4918 71.7742 99.2813 66.4607 102.86 62.3861C106.495 58.3114 111.147 56.2741 116.819 56.2741C120.508 56.2741 123.426 57.1276 125.574 58.8345C127.776 60.4864 128.877 62.5512 128.877 65.0291C128.877 67.4518 128.107 69.5442 126.565 71.3062C125.188 71.3062 123.591 71.0034 121.774 70.3977C119.957 69.792 118.581 69.0486 117.645 68.1676L118.884 60.8994C118.388 60.569 117.7 60.4038 116.819 60.4038ZM155.263 58.6693C155.373 58.5592 155.676 57.8434 156.172 56.5219C158.759 56.5219 162.228 57.2928 166.578 58.8345C165.202 63.4047 164.101 68.1952 163.275 73.2059C162.449 78.1615 162.036 81.713 162.036 83.8605C162.036 85.9529 162.256 86.9991 162.696 86.9991C163.027 86.9991 164.238 86.476 166.331 85.4298L167.322 84.9342L168.808 87.825C168.313 88.2655 167.652 88.8161 166.826 89.4769C166.055 90.1376 164.569 91.0462 162.366 92.2025C160.164 93.3037 158.181 93.8543 156.419 93.8543C153.005 93.8543 151.023 92.3126 150.473 89.2291C146.949 92.3126 143.755 93.8543 140.892 93.8543C138.083 93.8543 135.688 92.7531 133.706 90.5506C131.779 88.3481 130.815 84.8791 130.815 80.1438C130.815 72.7654 132.329 66.9563 135.358 62.7164C138.386 58.4215 142.048 56.2741 146.343 56.2741C149.426 56.2741 152.4 57.0725 155.263 58.6693ZM145.847 86.8339C147.169 86.8339 148.655 86.3108 150.307 85.2646C150.693 77.5007 151.987 69.8195 154.189 62.2209C152.537 61.5051 151.133 61.1471 149.977 61.1471C147.995 61.1471 146.288 63.1019 144.856 67.0113C143.48 70.8657 142.791 75.1331 142.791 79.8134C142.791 84.4937 143.81 86.8339 145.847 86.8339ZM171.903 47.8495C176.528 45.3717 183.081 41.1044 191.56 35.0475C192.111 35.8183 192.717 37.0297 193.378 38.6816C194.093 40.3335 194.451 41.5724 194.451 42.3983C194.451 43.9401 193.46 45.179 191.478 46.1151C187.293 48.0422 181.264 49.7492 173.39 51.2359L171.903 47.8495ZM182.971 84.769C182.971 86.2557 183.218 86.9991 183.714 86.9991C184.044 86.9991 185.311 86.476 187.513 85.4298L188.504 84.9342L189.909 87.825C189.413 88.2655 188.752 88.8161 187.926 89.4769C187.1 90.1376 185.559 91.0462 183.301 92.2025C181.044 93.3037 178.951 93.8543 177.024 93.8543C175.097 93.8543 173.583 93.2762 172.481 92.1199C171.38 90.9085 170.829 89.3117 170.829 87.3294C170.829 85.2921 171.518 81.713 172.894 76.5922C174.271 71.4163 174.959 68.0575 174.959 66.5158C174.959 64.2031 174.243 62.0281 172.812 59.9908L172.068 58.9997L172.151 57.926C175.069 57.1 179.805 56.6871 186.357 56.6871C187.073 57.513 187.431 59.1098 187.431 61.4775C187.431 63.8452 186.715 67.7822 185.283 73.2885C183.852 78.7397 183.108 81.9608 183.053 82.9519C182.998 83.888 182.971 84.4937 182.971 84.769Z" fill="#F7B90A"/>
<path d="M94.5796 46.301C94.5796 45.1309 94.8136 44.1054 95.2816 43.2244C95.7634 42.3296 96.4242 41.6413 97.2639 41.1595C98.1036 40.6777 99.0672 40.4368 100.155 40.4368C101.531 40.4368 102.667 40.7672 103.562 41.428C104.47 42.075 105.083 43.0041 105.399 44.2155H102.86C102.653 43.6511 102.323 43.2106 101.869 42.894C101.414 42.5774 100.843 42.4191 100.155 42.4191C99.1911 42.4191 98.4202 42.7632 97.8421 43.4515C97.2777 44.126 96.9955 45.0759 96.9955 46.301C96.9955 47.5262 97.2777 48.4829 97.8421 49.1712C98.4202 49.8594 99.1911 50.2036 100.155 50.2036C101.517 50.2036 102.419 49.6048 102.86 48.4072H105.399C105.069 49.5635 104.45 50.4858 103.541 51.1741C102.633 51.8486 101.504 52.1858 100.155 52.1858C99.0672 52.1858 98.1036 51.9449 97.2639 51.4631C96.4242 50.9676 95.7634 50.2793 95.2816 49.3983C94.8136 48.5035 94.5796 47.4711 94.5796 46.301ZM116.81 40.6227V52H114.456V50.6578C114.084 51.1259 113.596 51.4976 112.99 51.7729C112.398 52.0344 111.765 52.1652 111.09 52.1652C110.196 52.1652 109.39 51.9794 108.674 51.6077C107.972 51.236 107.415 50.6854 107.002 49.9558C106.603 49.2262 106.403 48.3452 106.403 47.3128V40.6227H108.736V46.9618C108.736 47.9804 108.991 48.7651 109.5 49.3157C110.01 49.8526 110.705 50.121 111.586 50.121C112.467 50.121 113.162 49.8526 113.671 49.3157C114.194 48.7651 114.456 47.9804 114.456 46.9618V40.6227H116.81ZM122.807 52.1858C121.912 52.1858 121.107 52.0275 120.391 51.7109C119.689 51.3805 119.131 50.94 118.718 50.3894C118.305 49.825 118.085 49.1987 118.057 48.5104H120.494C120.535 48.9922 120.762 49.3983 121.175 49.7287C121.602 50.0453 122.132 50.2036 122.765 50.2036C123.426 50.2036 123.935 50.0797 124.293 49.8319C124.665 49.5704 124.851 49.24 124.851 48.8408C124.851 48.414 124.644 48.0974 124.231 47.891C123.832 47.6845 123.192 47.4573 122.311 47.2096C121.458 46.9755 120.762 46.7484 120.225 46.5282C119.689 46.3079 119.221 45.9706 118.821 45.5164C118.436 45.0621 118.243 44.4633 118.243 43.72C118.243 43.1143 118.422 42.5636 118.78 42.0681C119.138 41.5587 119.647 41.1595 120.308 40.8705C120.983 40.5814 121.753 40.4368 122.621 40.4368C123.915 40.4368 124.954 40.7672 125.739 41.428C126.537 42.075 126.964 42.9628 127.019 44.0916H124.665C124.624 43.5823 124.417 43.1762 124.045 42.8734C123.674 42.5705 123.171 42.4191 122.538 42.4191C121.919 42.4191 121.444 42.5361 121.113 42.7701C120.783 43.0041 120.618 43.3139 120.618 43.6993C120.618 44.0022 120.728 44.2568 120.948 44.4633C121.168 44.6698 121.437 44.835 121.753 44.9589C122.07 45.069 122.538 45.2135 123.158 45.3925C123.984 45.6127 124.658 45.8399 125.181 46.0739C125.718 46.2941 126.179 46.6245 126.565 47.065C126.95 47.5055 127.15 48.0906 127.163 48.8201C127.163 49.4671 126.984 50.0453 126.627 50.5546C126.269 51.0639 125.759 51.4631 125.099 51.7522C124.452 52.0413 123.688 52.1858 122.807 52.1858ZM131.214 42.543V48.8408C131.214 49.2675 131.311 49.5772 131.503 49.77C131.71 49.9489 132.054 50.0384 132.536 50.0384H133.981V52H132.123C131.063 52 130.251 51.7522 129.686 51.2567C129.122 50.7611 128.84 49.9558 128.84 48.8408V42.543H127.497V40.6227H128.84V37.7938H131.214V40.6227H133.981V42.543H131.214ZM139.847 52.1858C138.773 52.1858 137.803 51.9449 136.935 51.4631C136.068 50.9676 135.387 50.2793 134.891 49.3983C134.396 48.5035 134.148 47.4711 134.148 46.301C134.148 45.1447 134.402 44.1192 134.912 43.2244C135.421 42.3296 136.116 41.6413 136.997 41.1595C137.878 40.6777 138.862 40.4368 139.95 40.4368C141.037 40.4368 142.022 40.6777 142.903 41.1595C143.784 41.6413 144.479 42.3296 144.988 43.2244C145.498 44.1192 145.752 45.1447 145.752 46.301C145.752 47.4573 145.491 48.4829 144.968 49.3776C144.444 50.2724 143.729 50.9676 142.82 51.4631C141.925 51.9449 140.934 52.1858 139.847 52.1858ZM139.847 50.1416C140.452 50.1416 141.017 49.9971 141.54 49.708C142.077 49.4189 142.51 48.9853 142.841 48.4072C143.171 47.829 143.336 47.127 143.336 46.301C143.336 45.4751 143.178 44.7799 142.861 44.2155C142.545 43.6374 142.125 43.2037 141.602 42.9147C141.079 42.6256 140.514 42.481 139.909 42.481C139.303 42.481 138.739 42.6256 138.215 42.9147C137.706 43.2037 137.3 43.6374 136.997 44.2155C136.694 44.7799 136.543 45.4751 136.543 46.301C136.543 47.5262 136.853 48.476 137.472 49.1505C138.105 49.8113 138.897 50.1416 139.847 50.1416ZM160.613 40.4368C161.508 40.4368 162.306 40.6227 163.008 40.9944C163.724 41.366 164.281 41.9167 164.681 42.6462C165.094 43.3758 165.3 44.2568 165.3 45.2892V52H162.967V45.6403C162.967 44.6216 162.712 43.8438 162.203 43.307C161.693 42.7564 160.998 42.481 160.117 42.481C159.236 42.481 158.534 42.7564 158.011 43.307C157.502 43.8438 157.247 44.6216 157.247 45.6403V52H154.914V45.6403C154.914 44.6216 154.659 43.8438 154.15 43.307C153.64 42.7564 152.945 42.481 152.064 42.481C151.183 42.481 150.481 42.7564 149.958 43.307C149.449 43.8438 149.194 44.6216 149.194 45.6403V52H146.84V40.6227H149.194V41.9235C149.58 41.4555 150.068 41.0907 150.66 40.8292C151.252 40.5676 151.885 40.4368 152.56 40.4368C153.468 40.4368 154.281 40.6296 154.996 41.015C155.712 41.4004 156.263 41.958 156.648 42.6875C156.992 41.9993 157.529 41.4555 158.259 41.0563C158.988 40.6433 159.773 40.4368 160.613 40.4368Z" fill="#DDDDDD"/>
</svg>
