<svg width="44" height="76" viewBox="0 0 44 76" fill="none" xmlns="http://www.w3.org/2000/svg">
<path d="M10.8361 3.22899C9.96388 1.44567 7.81117 0.707044 6.02784 1.57923L3.22938 2.94789C1.44606 3.82007 0.707429 5.97279 1.57961 7.75611L33.1641 72.336C34.0363 74.1193 36.189 74.858 37.9724 73.9858L40.7708 72.6171C42.5541 71.7449 43.2928 69.5922 42.4206 67.8089L10.8361 3.22899Z" fill="#FCDD71"/>
<path d="M12.406 6.49365C11.9723 7.90385 9.88604 10.9507 5.01022 11.8567C8.31323 10.5368 9.93574 9.37686 12.406 6.49365Z" stroke="#F3D25E" stroke-width="0.479265" stroke-linecap="round" stroke-linejoin="round"/>
<path d="M17.616 17.0903C17.2722 18.5565 15.4015 21.82 10.6689 23.1453C13.8339 21.5315 15.359 20.22 17.616 17.0903Z" stroke="#F3D25E" stroke-width="0.479265" stroke-linecap="round" stroke-linejoin="round"/>
<path d="M22.2607 27.6118C22.0397 28.9517 20.5946 31.9668 16.5823 33.3075C19.2282 31.751 20.4756 30.5167 22.2607 27.6118Z" stroke="#F3D25E" stroke-width="0.479265" stroke-linecap="round" stroke-linejoin="round"/>
<path d="M39.676 62.688C38.4827 62.0398 35.2155 61.3294 31.6939 63.6734C34.547 62.5405 36.2871 62.3136 39.676 62.688Z" stroke="#F3D25E" stroke-width="0.479265" stroke-linecap="round" stroke-linejoin="round"/>
<path d="M14.1677 12.7568C12.8185 12.7389 9.52095 13.8963 7.12428 18.6695C9.35117 15.671 10.8822 14.3683 14.1677 12.7568Z" stroke="#F3D25E" stroke-width="0.479265" stroke-linecap="round" stroke-linejoin="round"/>
<path d="M19.3997 23.4717C18.0505 23.4537 14.7529 24.6111 12.3562 29.3843C14.5831 26.3858 16.1141 25.0832 19.3997 23.4717Z" stroke="#F3D25E" stroke-width="0.479265" stroke-linecap="round" stroke-linejoin="round"/>
<path d="M41.187 67.4883C40.3728 68.5643 37.4347 70.4566 32.1956 69.4179C35.9296 69.5011 37.8978 69.0923 41.187 67.4883Z" stroke="#F3D25E" stroke-width="0.479265" stroke-linecap="round" stroke-linejoin="round"/>
<path d="M28.9163 40.7261C27.4103 40.6101 23.786 41.6493 21.336 46.7347C23.6797 43.5915 25.3266 42.2663 28.9163 40.7261Z" stroke="#F3D25E" stroke-width="0.479265" stroke-linecap="round" stroke-linejoin="round"/>
<path d="M33.4102 49.3828C32.5772 50.6427 29.5316 52.8656 24.0134 51.6773C27.9333 51.757 29.9905 51.2707 33.4102 49.3828Z" stroke="#F3D25E" stroke-width="0.479265" stroke-linecap="round" stroke-linejoin="round"/>
<path d="M24.7371 35.6904C23.3198 35.4723 19.9728 36.1639 17.9225 40.6747C19.9673 37.9478 21.4468 36.8466 24.7371 35.6904Z" stroke="#F3D25E" stroke-width="0.479265" stroke-linecap="round" stroke-linejoin="round"/>
<path d="M34.8191 55.7734C34.1211 57.026 31.5204 59.2434 26.701 58.0924C30.1088 58.1525 31.8864 57.6607 34.8191 55.7734Z" stroke="#F3D25E" stroke-width="0.479265" stroke-linecap="round" stroke-linejoin="round"/>
</svg>
