<svg width="333" height="686" viewBox="0 0 333 686" fill="none" xmlns="http://www.w3.org/2000/svg">
<ellipse cx="247.184" cy="95.6325" rx="3.2942" ry="2.36483" transform="rotate(23.7938 247.184 95.6325)" fill="#642B48"/>
<path d="M262.676 40.4029C263.009 39.3498 264.133 38.7662 265.186 39.0993V39.0993C266.239 39.4325 266.823 40.5563 266.49 41.6094L249.288 95.984C249.121 96.5106 248.559 96.8024 248.033 96.6358L246.126 96.0326C245.599 95.866 245.308 95.3041 245.474 94.7775L262.676 40.4029Z" fill="#4F2914"/>
<rect x="263.866" y="41.8281" width="27.6145" height="30" transform="rotate(17.5551 263.866 41.8281)" fill="#D9D9D9"/>
<path d="M293.37 82.6269L281.146 78.7598L285.67 64.4584L293.37 82.6269Z" fill="#D9D9D9"/>
<path d="M302.418 54.0243L290.194 50.1572L285.67 64.4586L302.418 54.0243Z" fill="#D9D9D9"/>
<rect x="261.469" y="44.2168" width="4" height="24" transform="rotate(17.5551 261.469 44.2168)" fill="#4F260F"/>
<path d="M277.452 59.9087C277.461 59.5851 277.424 59.2851 277.341 59.0088C277.26 58.7284 277.133 58.4736 276.96 58.2444C276.792 58.0125 276.579 57.8089 276.322 57.6336C276.068 57.4596 275.771 57.3186 275.43 57.2106C274.792 57.0088 274.181 56.9899 273.597 57.1539C273.018 57.3191 272.498 57.662 272.038 58.1825C271.58 58.699 271.213 59.392 270.938 60.2614C270.663 61.1309 270.561 61.9121 270.632 62.6051C270.704 63.2981 270.93 63.8815 271.312 64.3555C271.695 64.8253 272.216 65.1644 272.874 65.3726C273.472 65.5615 274.015 65.6172 274.504 65.5396C274.999 65.4592 275.42 65.2594 275.767 64.94C276.118 64.622 276.377 64.1968 276.546 63.6646L277.057 63.9135L273.839 62.8955L274.468 60.9087L279.69 62.561L279.193 64.1334C278.846 65.2303 278.316 66.0997 277.604 66.7413C276.892 67.379 276.063 67.7825 275.116 67.9521C274.169 68.1175 273.172 68.0345 272.124 67.7029C270.954 67.3327 270.007 66.7495 269.285 65.9533C268.564 65.1531 268.106 64.1972 267.913 63.0856C267.724 61.9712 267.838 60.7558 268.255 59.4394C268.575 58.4278 269.007 57.5721 269.55 56.8724C270.098 56.1699 270.726 55.6265 271.433 55.2423C272.14 54.8582 272.893 54.6337 273.691 54.5688C274.489 54.504 275.301 54.6021 276.125 54.863C276.832 55.0866 277.458 55.3985 278.002 55.7985C278.547 56.1944 278.996 56.6538 279.349 57.1767C279.706 57.7009 279.953 58.2685 280.091 58.8796C280.229 59.4867 280.244 60.1125 280.134 60.757L277.452 59.9087Z" fill="#642B48"/>
</svg>
