<svg width="333" height="686" viewBox="0 0 333 686" fill="none" xmlns="http://www.w3.org/2000/svg">
<ellipse cx="247.184" cy="95.6325" rx="3.2942" ry="2.36483" transform="rotate(23.7938 247.184 95.6325)" fill="#642B48"/>
<path d="M262.676 40.4029C263.009 39.3498 264.133 38.7662 265.186 39.0993V39.0993C266.239 39.4325 266.823 40.5563 266.49 41.6094L249.288 95.984C249.121 96.5106 248.559 96.8024 248.033 96.6358L246.126 96.0326C245.599 95.866 245.308 95.3041 245.474 94.7775L262.676 40.4029Z" fill="#4F2914"/>
<rect x="263.866" y="41.8281" width="27.6145" height="30" transform="rotate(17.5551 263.866 41.8281)" fill="#D9D9D9"/>
<path d="M293.37 82.6269L281.146 78.7598L285.67 64.4584L293.37 82.6269Z" fill="#D9D9D9"/>
<path d="M302.418 54.0243L290.194 50.1572L285.67 64.4586L302.418 54.0243Z" fill="#D9D9D9"/>
<rect x="261.469" y="44.2168" width="4" height="24" transform="rotate(17.5551 261.469 44.2168)" fill="#4F260F"/>
<path d="M269.128 52.8372L272.383 53.8667L273.167 63.3399L273.313 63.3862L279.404 56.0878L282.658 57.1173L278.709 69.5985L276.15 68.7888L278.72 60.665L278.616 60.6322L272.835 67.6732L271.092 67.1218L270.423 58.0067L270.319 57.9739L267.74 66.1282L265.18 65.3184L269.128 52.8372Z" fill="#642B48"/>
</svg>
