<svg width="333" height="686" viewBox="0 0 333 686" fill="none" xmlns="http://www.w3.org/2000/svg">
<ellipse cx="247.184" cy="95.6325" rx="3.2942" ry="2.36483" transform="rotate(23.7938 247.184 95.6325)" fill="#642B48"/>
<path d="M262.676 40.4029C263.009 39.3498 264.133 38.7662 265.186 39.0993V39.0993C266.239 39.4325 266.823 40.5563 266.49 41.6094L249.288 95.984C249.121 96.5106 248.559 96.8024 248.033 96.6358L246.126 96.0326C245.599 95.866 245.308 95.3041 245.474 94.7775L262.676 40.4029Z" fill="#4F2914"/>
<rect x="263.866" y="41.8281" width="27.6145" height="30" transform="rotate(17.5551 263.866 41.8281)" fill="#D9D9D9"/>
<path d="M293.37 82.6269L281.146 78.7598L285.67 64.4584L293.37 82.6269Z" fill="#D9D9D9"/>
<path d="M302.418 54.0243L290.194 50.1572L285.67 64.4586L302.418 54.0243Z" fill="#D9D9D9"/>
<rect x="261.469" y="44.2168" width="4" height="24" transform="rotate(17.5551 261.469 44.2168)" fill="#4F260F"/>
<path d="M267.476 66.0448L271.424 53.5636L276.349 55.1214C277.295 55.4208 278.045 55.8568 278.597 56.4292C279.15 56.9975 279.5 57.6559 279.648 58.4043C279.801 59.1499 279.746 59.9372 279.484 60.766C279.222 61.5948 278.812 62.2696 278.254 62.7903C277.696 63.311 277.021 63.6408 276.231 63.7796C275.445 63.9197 274.572 63.8381 273.613 63.5347L270.475 62.5418L271.144 60.4271L273.856 61.285C274.364 61.4457 274.81 61.4907 275.194 61.4201C275.584 61.3468 275.909 61.1794 276.171 60.9179C276.438 60.6537 276.636 60.3165 276.766 59.9061C276.897 59.4917 276.928 59.1037 276.859 58.7423C276.796 58.378 276.624 58.0579 276.345 57.7818C276.067 57.5017 275.672 57.2807 275.16 57.1187L273.381 56.5558L270.115 66.8796L267.476 66.0448Z" fill="#642B48"/>
</svg>
