<svg width="58" height="59" viewBox="0 0 58 59" fill="none" xmlns="http://www.w3.org/2000/svg">
<g clip-path="url(#clip0_233_26)">
<ellipse rx="26.441" ry="27.1002" transform="matrix(-0.939897 -0.341458 0.386533 -0.922275 30.1751 30.4198)" fill="#642B48"/>
<ellipse rx="26.441" ry="27.1002" transform="matrix(-0.939897 -0.341458 0.386533 -0.922275 27.8528 28.5824)" fill="#A1BE1C" stroke="#B47512" stroke-width="1.54896"/>
<path d="M38.8363 17.2887C38.2752 18.1503 36.031 19.5925 34.979 20.206L36.6736 22.1116L36.8198 21.136C36.966 20.1603 39.5377 16.2119 38.8363 17.2887Z" fill="#CCD45C"/>
<path d="M42.1897 21.4927C41.1713 22.245 37.7738 22.6244 36.2023 22.72L37.7571 26.3637L38.2759 25.1819C38.7948 24 43.4628 20.5524 42.1897 21.4927Z" fill="#CCD45C"/>
<path d="M43.284 29.905C42.0952 29.6121 39.5114 27.1508 38.3681 25.9567L37.0736 29.7431L38.1974 29.3358C39.3213 28.9285 44.7701 30.2712 43.284 29.905Z" fill="#CCD45C"/>
<path d="M40.4203 34.616C39.2314 34.3231 36.6477 31.8617 35.5044 30.6677L34.2098 34.454L35.3336 34.0467C36.4575 33.6394 41.9063 34.9821 40.4203 34.616Z" fill="#CCD45C"/>
<path d="M34.8922 43.3368C34.3025 42.1543 34.2449 38.3607 34.2899 36.6117L30.8933 38.0765L31.9099 38.7357C32.9265 39.3949 35.6295 44.8151 34.8922 43.3368Z" fill="#CCD45C"/>
<path d="M27.0228 44.5151C27.0421 43.0925 28.8403 39.5933 29.737 38.0215L25.8066 37.3893L26.4469 38.5813C27.0872 39.7733 26.9987 46.2933 27.0228 44.5151Z" fill="#CCD45C"/>
<path d="M19.64 44.4302C20.179 43.1363 23.0993 40.7472 24.492 39.7144L21.1444 37.3543L21.2906 38.7359C21.4368 40.1176 18.9662 46.0475 19.64 44.4302Z" fill="#CCD45C"/>
<path d="M14.7852 39.3174C15.3242 38.0235 18.2445 35.6344 19.6373 34.6016L16.2897 32.2415L16.4359 33.6231C16.582 35.0048 14.1115 40.9347 14.7852 39.3174Z" fill="#CCD45C"/>
<path d="M10.4076 30.2077C11.6827 30.0832 14.9777 31.7148 16.4657 32.5461L16.6764 28.1313L15.6672 28.9622C14.6581 29.793 8.81359 30.3633 10.4076 30.2077Z" fill="#CCD45C"/>
<path d="M14.9304 19.4502C15.8704 20.4089 17.0065 24.2172 17.4571 26.0015L20.5208 23.1652L19.2922 22.9056C18.0636 22.646 13.7554 18.2518 14.9304 19.4502Z" fill="#CCD45C"/>
<path d="M19.5867 15.3386C20.5267 16.2973 21.6628 20.1056 22.1133 21.8899L25.1771 19.0536L23.9485 18.794C22.7198 18.5344 18.4117 14.1402 19.5867 15.3386Z" fill="#CCD45C"/>
<path d="M28.7993 11.6178C28.7269 13.0386 26.7999 16.4526 25.8455 17.9821L29.7478 18.7954L29.1528 17.5746C28.5577 16.3537 28.8898 9.84178 28.7993 11.6178Z" fill="#CCD45C"/>
<path d="M32.4123 14.1346C32.3399 15.5554 30.4129 18.9695 29.4585 20.4989L33.3609 21.3122L32.7658 20.0914C32.1708 18.8706 32.5028 12.3586 32.4123 14.1346Z" fill="#CCD45C"/>
<path d="M36.5036 14.8489C36.113 15.8191 34.1802 17.7415 33.2627 18.5814L35.2753 20.0569L35.2383 19.0699C35.2013 18.0829 36.992 13.6361 36.5036 14.8489Z" fill="#85A00A"/>
<path d="M40.5668 18.1914C39.7078 19.1593 36.4486 20.3062 34.9264 20.7586L37.1231 23.9649L37.4132 22.6913C37.7033 21.4175 41.6407 16.9815 40.5668 18.1914Z" fill="#85A00A"/>
<path d="M43.1932 26.1643C41.9741 26.1496 38.9875 24.334 37.6466 23.428L37.0775 27.4246L38.1035 26.7698C39.1296 26.115 44.7171 26.1828 43.1932 26.1643Z" fill="#85A00A"/>
<path d="M41.2572 31.4229C40.0381 31.4081 37.0514 29.5925 35.7105 28.6865L35.1414 32.6831L36.1675 32.0283C37.1936 31.3735 42.781 31.4413 41.2572 31.4229Z" fill="#85A00A"/>
<path d="M37.451 41.2095C36.6546 40.1883 35.8974 36.4936 35.6183 34.7738L32.5605 36.9813L33.6785 37.3934C34.7964 37.8056 38.4465 42.486 37.451 41.2095Z" fill="#85A00A"/>
<path d="M29.9568 44.1587C29.7129 42.7639 30.8285 38.9329 31.4168 37.1917L27.4486 37.4716L28.2962 38.4904C29.1439 39.5093 30.2617 45.9023 29.9568 44.1587Z" fill="#85A00A"/>
<path d="M22.7072 45.7619C22.9964 44.3742 25.4167 41.3719 26.5907 40.0443L22.8743 38.5021L23.2728 39.8191C23.6713 41.1362 22.3458 47.4966 22.7072 45.7619Z" fill="#85A00A"/>
<path d="M17.0053 41.8732C17.2945 40.4855 19.7148 37.4833 20.8888 36.1556L17.1724 34.6134L17.5709 35.9305C17.9693 37.2476 16.6439 43.6079 17.0053 41.8732Z" fill="#85A00A"/>
<path d="M11.0325 33.97C12.2591 33.5571 15.7893 34.3992 17.4011 34.8719L16.7919 30.5086L15.9565 31.5512C15.1211 32.5938 9.49931 34.4862 11.0325 33.97Z" fill="#85A00A"/>
<path d="M13.4774 22.4221C14.5756 23.1445 16.3924 26.6073 17.1636 28.2485L19.6419 24.7764L18.39 24.8033C17.138 24.8301 12.1046 21.5192 13.4774 22.4221Z" fill="#85A00A"/>
<path d="M17.2804 17.3394C18.3786 18.0617 20.1954 21.5246 20.9666 23.1657L23.4448 19.6936L22.1929 19.7205C20.941 19.7473 15.9075 16.4364 17.2804 17.3394Z" fill="#85A00A"/>
<path d="M25.6206 11.5982C25.8121 13.0035 24.5545 16.7806 23.9018 18.4935L27.8761 18.3972L27.0675 17.3398C26.2588 16.2824 25.3812 9.84165 25.6206 11.5982Z" fill="#85A00A"/>
<path d="M29.6262 13.233C29.8177 14.6383 28.5602 18.4154 27.9074 20.1283L31.8817 20.0319L31.0731 18.9746C30.2644 17.9172 29.3868 11.4764 29.6262 13.233Z" fill="#85A00A"/>
<path d="M38.8363 17.2887C38.2752 18.1503 36.031 19.5925 34.979 20.206L36.6736 22.1116L36.8198 21.136C36.966 20.1603 39.5377 16.2119 38.8363 17.2887Z" fill="#CCD45C"/>
<path d="M42.1897 21.4927C41.1713 22.245 37.7738 22.6244 36.2023 22.72L37.7571 26.3637L38.2759 25.1819C38.7948 24 43.4628 20.5524 42.1897 21.4927Z" fill="#CCD45C"/>
<path d="M43.284 29.905C42.0952 29.6121 39.5114 27.1508 38.3681 25.9567L37.0736 29.7431L38.1974 29.3358C39.3213 28.9285 44.7701 30.2712 43.284 29.905Z" fill="#CCD45C"/>
<path d="M40.4203 34.616C39.2314 34.3231 36.6477 31.8617 35.5044 30.6677L34.2098 34.454L35.3336 34.0467C36.4575 33.6394 41.9063 34.9821 40.4203 34.616Z" fill="#CCD45C"/>
<path d="M34.8922 43.3368C34.3025 42.1543 34.2449 38.3607 34.2899 36.6117L30.8933 38.0765L31.9099 38.7357C32.9265 39.3949 35.6295 44.8151 34.8922 43.3368Z" fill="#CCD45C"/>
<path d="M27.0228 44.5151C27.0421 43.0925 28.8403 39.5933 29.737 38.0215L25.8066 37.3893L26.4469 38.5813C27.0872 39.7733 26.9987 46.2933 27.0228 44.5151Z" fill="#CCD45C"/>
<path d="M19.64 44.4302C20.179 43.1363 23.0993 40.7472 24.492 39.7144L21.1444 37.3543L21.2906 38.7359C21.4368 40.1176 18.9662 46.0475 19.64 44.4302Z" fill="#CCD45C"/>
<path d="M14.7852 39.3174C15.3242 38.0235 18.2445 35.6344 19.6373 34.6016L16.2897 32.2415L16.4359 33.6231C16.582 35.0048 14.1115 40.9347 14.7852 39.3174Z" fill="#CCD45C"/>
<path d="M10.4076 30.2077C11.6827 30.0832 14.9777 31.7148 16.4657 32.5461L16.6764 28.1313L15.6672 28.9622C14.6581 29.793 8.81359 30.3633 10.4076 30.2077Z" fill="#CCD45C"/>
<path d="M14.9304 19.4502C15.8704 20.4089 17.0065 24.2172 17.4571 26.0015L20.5208 23.1652L19.2922 22.9056C18.0636 22.646 13.7554 18.2518 14.9304 19.4502Z" fill="#CCD45C"/>
<path d="M19.5867 15.3386C20.5267 16.2973 21.6628 20.1056 22.1133 21.8899L25.1771 19.0536L23.9485 18.794C22.7198 18.5344 18.4117 14.1402 19.5867 15.3386Z" fill="#CCD45C"/>
<path d="M28.7993 11.6178C28.7269 13.0386 26.7999 16.4526 25.8455 17.9821L29.7478 18.7954L29.1528 17.5746C28.5577 16.3537 28.8898 9.84178 28.7993 11.6178Z" fill="#CCD45C"/>
<path d="M32.4123 14.1346C32.3399 15.5554 30.4129 18.9695 29.4585 20.4989L33.3609 21.3122L32.7658 20.0914C32.1708 18.8706 32.5028 12.3586 32.4123 14.1346Z" fill="#CCD45C"/>
<path d="M30.7553 39.1895C24.6828 41.7531 16.5589 38.1296 16.2392 33.376C15.9196 28.6224 17.6411 20.8426 23.7136 18.279C34.0225 15.4903 36.2851 18.3182 38.2296 24.0925C38.7724 29.5079 35.6901 37.8528 30.7553 39.1895Z" fill="#CCD45C"/>
<path d="M29.1575 36.3158C25.9453 39.1532 22.435 35.0289 19.6269 32.4989C16.8445 30.2401 20.5473 24.27 24.5342 22.5869C28.5416 22.5966 30.4659 16.812 35.1175 25.0145C36.3942 28.8056 33.1443 34.6327 29.1575 36.3158Z" fill="#ECEB8E"/>
<ellipse rx="0.363203" ry="0.403677" transform="matrix(0.999989 -0.00471721 -0.00165813 0.999999 33.3625 15.8605)" fill="#2B2900"/>
<ellipse rx="0.363203" ry="0.403677" transform="matrix(0.999989 -0.00471721 -0.00165813 0.999999 34.8137 17.4696)" fill="#2B2900"/>
<ellipse rx="0.363203" ry="0.403677" transform="matrix(0.999989 -0.00471721 -0.00165813 0.999999 37.7224 16.6478)" fill="#2B2900"/>
<ellipse rx="0.39647" ry="0.371057" transform="matrix(0.393333 0.916877 0.884008 -0.473086 33.951 13.2119)" fill="#2B2900"/>
<ellipse rx="0.39647" ry="0.371057" transform="matrix(0.393333 0.916877 0.884008 -0.473086 35.888 13.9643)" fill="#2B2900"/>
<ellipse rx="0.39647" ry="0.371057" transform="matrix(0.393333 0.916877 0.884008 -0.473086 36.4798 17.2253)" fill="#2B2900"/>
<ellipse rx="0.363203" ry="0.403677" transform="matrix(0.999989 -0.00471721 -0.00165813 0.999999 39.1701 19.8724)" fill="#2B2900"/>
<ellipse rx="0.363203" ry="0.403677" transform="matrix(0.999989 -0.00471721 -0.00165813 0.999999 40.6223 21.4811)" fill="#2B2900"/>
<ellipse rx="0.363203" ry="0.403677" transform="matrix(0.999989 -0.00471721 -0.00165813 0.999999 43.5305 20.6598)" fill="#2B2900"/>
<ellipse rx="0.387376" ry="0.380541" transform="matrix(0.60565 -0.79958 0.72858 0.680301 41.4879 26.964)" fill="#2B2900"/>
<ellipse rx="0.387376" ry="0.380541" transform="matrix(0.60565 -0.79958 0.72858 0.680301 43.5368 26.7604)" fill="#2B2900"/>
<ellipse rx="0.387376" ry="0.380541" transform="matrix(0.60565 -0.79958 0.72858 0.680301 44.86 23.7631)" fill="#2B2900"/>
<ellipse rx="0.387376" ry="0.380541" transform="matrix(0.60565 -0.79958 0.72858 0.680301 40.0363 25.3552)" fill="#2B2900"/>
<ellipse rx="0.387376" ry="0.380541" transform="matrix(0.60565 -0.79958 0.72858 0.680301 42.0854 25.1518)" fill="#2B2900"/>
<ellipse rx="0.387376" ry="0.380541" transform="matrix(0.60565 -0.79958 0.72858 0.680301 43.4079 22.1542)" fill="#2B2900"/>
<ellipse rx="0.387376" ry="0.380541" transform="matrix(0.60565 -0.79958 0.72858 0.680301 37.8376 36.6752)" fill="#2B2900"/>
<ellipse rx="0.387376" ry="0.380541" transform="matrix(0.60565 -0.79958 0.72858 0.680301 39.8859 36.4718)" fill="#2B2900"/>
<ellipse rx="0.387376" ry="0.380541" transform="matrix(0.60565 -0.79958 0.72858 0.680301 41.2094 33.4743)" fill="#2B2900"/>
<ellipse rx="0.403531" ry="0.363365" transform="matrix(0.0571065 -0.998722 -0.99753 -0.0637373 41.3427 36.1339)" fill="#2B2900"/>
<ellipse rx="0.403531" ry="0.363365" transform="matrix(0.0571065 -0.998722 -0.99753 -0.0637373 39.9841 34.4283)" fill="#2B2900"/>
<ellipse rx="0.403531" ry="0.363365" transform="matrix(0.0571065 -0.998722 -0.99753 -0.0637373 40.8942 31.2486)" fill="#2B2900"/>
<ellipse rx="0.387376" ry="0.380541" transform="matrix(0.60565 -0.79958 0.72858 0.680301 32.7387 43.1623)" fill="#2B2900"/>
<ellipse rx="0.387376" ry="0.380541" transform="matrix(0.60565 -0.79958 0.72858 0.680301 34.7875 42.9587)" fill="#2B2900"/>
<ellipse rx="0.387376" ry="0.380541" transform="matrix(0.60565 -0.79958 0.72858 0.680301 36.1107 39.9614)" fill="#2B2900"/>
<ellipse rx="0.370729" ry="0.396777" transform="matrix(-0.887496 -0.455136 -0.387667 0.92426 39.8983 38.8547)" fill="#2B2900"/>
<ellipse rx="0.370729" ry="0.396777" transform="matrix(-0.887496 -0.455136 -0.387667 0.92426 37.9654 39.6472)" fill="#2B2900"/>
<ellipse rx="0.370729" ry="0.396777" transform="matrix(-0.887496 -0.455136 -0.387667 0.92426 35.6405 37.5627)" fill="#2B2900"/>
<ellipse rx="0.364986" ry="0.402066" transform="matrix(-0.973697 -0.221596 -0.186371 0.983657 29.2262 44.4123)" fill="#2B2900"/>
<ellipse rx="0.364986" ry="0.402066" transform="matrix(-0.973697 -0.221596 -0.186371 0.983657 27.503 45.6718)" fill="#2B2900"/>
<ellipse rx="0.364986" ry="0.402066" transform="matrix(-0.973697 -0.221596 -0.186371 0.983657 24.8085 44.2328)" fill="#2B2900"/>
<ellipse rx="0.40353" ry="0.363367" transform="matrix(-0.0574115 0.998706 -0.997504 -0.0641133 31.4298 41.0372)" fill="#2B2900"/>
<ellipse rx="0.40353" ry="0.363367" transform="matrix(-0.0574115 0.998706 -0.997504 -0.0641133 29.8866 42.5565)" fill="#2B2900"/>
<ellipse rx="0.40353" ry="0.363367" transform="matrix(-0.0574115 0.998706 -0.997504 -0.0641133 30.4264 45.8299)" fill="#2B2900"/>
<ellipse rx="0.384923" ry="0.383023" transform="matrix(-0.652591 0.761858 -0.68488 -0.724276 25.3283 43.0471)" fill="#2B2900"/>
<ellipse rx="0.384923" ry="0.383023" transform="matrix(-0.652591 0.761858 -0.68488 -0.724276 23.2729 43.1108)" fill="#2B2900"/>
<ellipse rx="0.384923" ry="0.383023" transform="matrix(-0.652591 0.761858 -0.68488 -0.724276 21.7865 46.0132)" fill="#2B2900"/>
<ellipse rx="0.364986" ry="0.402066" transform="matrix(-0.973697 -0.221596 -0.186371 0.983657 17.6019 41.2358)" fill="#2B2900"/>
<ellipse rx="0.364986" ry="0.402066" transform="matrix(-0.973697 -0.221596 -0.186371 0.983657 15.8797 42.4953)" fill="#2B2900"/>
<ellipse rx="0.364986" ry="0.402066" transform="matrix(-0.973697 -0.221596 -0.186371 0.983657 13.1847 41.0561)" fill="#2B2900"/>
<ellipse rx="0.3842" ry="0.383748" transform="matrix(0.663466 0.743963 0.674204 -0.742829 15.3015 39.8692)" fill="#2B2900"/>
<ellipse rx="0.3842" ry="0.383748" transform="matrix(0.663466 0.743963 0.674204 -0.742829 17.3571 39.8724)" fill="#2B2900"/>
<ellipse rx="0.3842" ry="0.383748" transform="matrix(0.663466 0.743963 0.674204 -0.742829 18.8794 42.731)" fill="#2B2900"/>
<ellipse rx="0.403677" ry="0.363203" transform="matrix(-0.00127876 0.999997 0.99999 -0.00518588 10.8012 33.7404)" fill="#2B2900"/>
<ellipse rx="0.403677" ry="0.363203" transform="matrix(-0.00127876 0.999997 0.99999 -0.00518588 12.2531 35.3486)" fill="#2B2900"/>
<ellipse rx="0.403677" ry="0.363203" transform="matrix(-0.00127876 0.999997 0.99999 -0.00518588 11.5224 38.5832)" fill="#2B2900"/>
<ellipse rx="0.403677" ry="0.363203" transform="matrix(-0.00127876 0.999997 0.99999 -0.00518588 12.9826 32.9223)" fill="#2B2900"/>
<ellipse rx="0.403677" ry="0.363203" transform="matrix(-0.00127876 0.999997 0.99999 -0.00518588 14.4345 34.5305)" fill="#2B2900"/>
<ellipse rx="0.403677" ry="0.363203" transform="matrix(-0.00127876 0.999997 0.99999 -0.00518588 13.703 37.7653)" fill="#2B2900"/>
<ellipse rx="0.403677" ry="0.363203" transform="matrix(-0.00127876 0.999997 0.99999 -0.00518588 12.2719 23.2314)" fill="#2B2900"/>
<ellipse rx="0.403677" ry="0.363203" transform="matrix(-0.00127876 0.999997 0.99999 -0.00518588 13.7235 24.8398)" fill="#2B2900"/>
<ellipse rx="0.403677" ry="0.363203" transform="matrix(-0.00127876 0.999997 0.99999 -0.00518588 12.9921 28.0744)" fill="#2B2900"/>
<ellipse rx="0.365244" ry="0.401832" transform="matrix(0.970704 -0.246426 -0.196159 -0.979311 11.0252 26.9796)" fill="#2B2900"/>
<ellipse rx="0.365244" ry="0.401832" transform="matrix(0.970704 -0.246426 -0.196159 -0.979311 12.1285 25.0446)" fill="#2B2900"/>
<ellipse rx="0.365244" ry="0.401832" transform="matrix(0.970704 -0.246426 -0.196159 -0.979311 15.1241 25.1112)" fill="#2B2900"/>
<ellipse rx="0.403674" ry="0.363207" transform="matrix(0.0101039 -1 -0.999917 -0.00571603 18.0957 19.9912)" fill="#2B2900"/>
<ellipse rx="0.403674" ry="0.363207" transform="matrix(0.0101039 -1 -0.999917 -0.00571603 16.6587 18.367)" fill="#2B2900"/>
<ellipse rx="0.403674" ry="0.363207" transform="matrix(0.0101039 -1 -0.999917 -0.00571603 17.4175 15.1399)" fill="#2B2900"/>
<ellipse rx="0.365861" ry="0.40127" transform="matrix(0.960781 0.271149 0.227767 -0.975157 15.0992 17.7511)" fill="#2B2900"/>
<ellipse rx="0.365861" ry="0.40127" transform="matrix(0.960781 0.271149 0.227767 -0.975157 16.8726 16.5819)" fill="#2B2900"/>
<ellipse rx="0.365861" ry="0.40127" transform="matrix(0.960781 0.271149 0.227767 -0.975157 19.5032 18.1588)" fill="#2B2900"/>
<ellipse rx="0.374622" ry="0.393104" transform="matrix(0.828467 -0.565302 -0.479905 -0.874249 22.4528 17.0896)" fill="#2B2900"/>
<ellipse rx="0.374622" ry="0.393104" transform="matrix(0.828467 -0.565302 -0.479905 -0.874249 22.9398 14.8662)" fill="#2B2900"/>
<ellipse rx="0.374622" ry="0.393104" transform="matrix(0.828467 -0.565302 -0.479905 -0.874249 25.8019 13.8591)" fill="#2B2900"/>
<ellipse rx="0.387823" ry="0.380086" transform="matrix(0.594135 0.800565 0.738651 -0.678782 21.1581 13.0713)" fill="#2B2900"/>
<ellipse rx="0.387823" ry="0.380086" transform="matrix(0.594135 0.800565 0.738651 -0.678782 23.204 13.2815)" fill="#2B2900"/>
<ellipse rx="0.387823" ry="0.380086" transform="matrix(0.594135 0.800565 0.738651 -0.678782 24.487 16.283)" fill="#2B2900"/>
<ellipse rx="0.378079" ry="0.38978" transform="matrix(0.770299 0.632756 0.556772 -0.834203 26.9711 12.5027)" fill="#2B2900"/>
<ellipse rx="0.378079" ry="0.38978" transform="matrix(0.770299 0.632756 0.556772 -0.834203 29.0048 12.1589)" fill="#2B2900"/>
<ellipse rx="0.378079" ry="0.38978" transform="matrix(0.770299 0.632756 0.556772 -0.834203 30.9021 14.7244)" fill="#2B2900"/>
</g>
<defs>
<clipPath id="clip0_233_26">
<rect width="58" height="59" fill="white"/>
</clipPath>
</defs>
</svg>
