<svg width="58" height="59" viewBox="0 0 58 59" fill="none" xmlns="http://www.w3.org/2000/svg">
<path d="M50.3677 37.9429C44.4563 52.8958 30.4921 61.3213 19.1777 56.7617C7.86328 52.2022 3.48326 36.3841 9.39462 21.4312C15.306 6.47819 29.2702 -1.9473 40.5846 2.61229C51.899 7.17188 56.279 22.9899 50.3677 37.9429Z" fill="#642B48"/>
<path d="M48.5151 37.0932C42.7123 51.7714 28.8362 59.9742 17.5218 55.4146C6.20736 50.855 1.73928 35.2597 7.54202 20.5815C13.3448 5.90334 27.2209 -2.2994 38.5353 2.26019C49.8497 6.81977 54.3178 22.4151 48.5151 37.0932Z" fill="#30123A"/>
<path d="M19.2308 8.3167C8.41954 16.3196 7.60701 24.5904 6.8986 29.3741C6.19019 34.1579 7.46374 46.8448 13.21 48.9794C9.52285 42.7646 8.94604 27.0056 14.0831 18.5172C19.2202 10.0288 23.9804 7.35565 30.1136 1.96259C21.9559 6.29951 21.9546 6.30042 19.2323 8.31558L19.2308 8.3167Z" fill="#5C3A68"/>
</svg>
