<svg width="58" height="59" viewBox="0 0 58 59" fill="none" xmlns="http://www.w3.org/2000/svg">
<g clip-path="url(#clip0_233_25)">
<ellipse rx="26.1709" ry="24.7215" transform="matrix(-0.904674 0.426104 -0.318636 -0.947877 32.0397 29.6761)" fill="#642B48"/>
<ellipse rx="26.1709" ry="24.7215" transform="matrix(-0.904674 0.426104 -0.318636 -0.947877 29.0878 28.7986)" fill="#EADB53"/>
<ellipse rx="0.968643" ry="4.06944" transform="matrix(0.66662 0.745398 0.745398 -0.66662 36.2765 22.5493)" fill="#C29D3C"/>
<ellipse rx="1.07008" ry="3.74527" transform="matrix(0.999385 -0.0350561 -0.146007 0.989284 28.4479 20.2179)" fill="#C29D3C"/>
<ellipse rx="1.07008" ry="3.74527" transform="matrix(0.146007 -0.989284 -0.999385 0.0350561 37.488 30.3263)" fill="#C29D3C"/>
<ellipse rx="1.07008" ry="3.74527" transform="matrix(-0.146007 0.989284 0.999385 -0.0350561 21.515 26.4183)" fill="#C29D3C"/>
<ellipse rx="1.07008" ry="3.74527" transform="matrix(-0.999385 0.0350561 0.146007 -0.989284 30.5551 36.5267)" fill="#C29D3C"/>
<ellipse rx="0.968643" ry="4.06944" transform="matrix(0.66662 0.745398 0.745398 -0.66662 22.4051 34.9458)" fill="#C29D3C"/>
</g>
<defs>
<clipPath id="clip0_233_25">
<rect width="58" height="59" fill="white"/>
</clipPath>
</defs>
</svg>
