<svg width="58" height="59" viewBox="0 0 58 59" fill="none" xmlns="http://www.w3.org/2000/svg">
<g clip-path="url(#clip0_233_3)">
<ellipse rx="28.5702" ry="26.988" transform="matrix(-0.904674 0.426104 -0.318636 -0.947877 30.1289 30.7034)" fill="#642B48"/>
<path d="M2.54446 40.7331C-2.11799 26.8632 5.45602 10.2245 19.528 3.5966C33.5999 -3.03133 48.7608 2.89921 53.4232 16.769C58.0857 30.6389 50.5117 47.2776 36.4397 53.9055C22.3677 60.5334 7.20691 54.6029 2.54446 40.7331Z" fill="#D82B2B" stroke="#A71C1C" stroke-width="0.900591"/>
<path d="M29.8358 4.31225C30.0273 5.74801 28.9053 9.51017 28.3204 11.2118L31.9895 11.3313L31.2318 10.2147C30.474 9.09803 29.5964 2.51756 29.8358 4.31225Z" fill="#D75959"/>
<path d="M37.505 4.97654C37.0879 6.78045 33.6894 10.6925 32.0422 12.4231L37.1946 14.4063L36.6545 12.6979C36.1145 10.9894 38.0263 2.72164 37.505 4.97654Z" fill="#D75959"/>
<path d="M46.6414 12.1535C45.051 13.1016 39.8753 13.3584 37.4862 13.3682L39.6229 18.4589L40.4815 16.8863C41.3403 15.3136 48.6293 10.9683 46.6414 12.1535Z" fill="#D75959"/>
<path d="M47.9143 19.7919C46.324 20.74 41.1482 20.9968 38.7591 21.0067L40.8958 26.0973L41.7545 24.5247C42.6132 22.9521 49.9022 18.6067 47.9143 19.7919Z" fill="#D75959"/>
<path d="M50.0206 34.1683C48.2542 33.6133 44.6159 29.9231 43.0176 28.1474L40.6428 33.1315L42.3878 32.7248C44.1329 32.3181 52.2285 34.862 50.0206 34.1683Z" fill="#D75959"/>
<path d="M42.4306 43.5254C41.1114 42.0991 39.8019 36.7679 39.3121 34.2806L34.3713 37.7476L36.2024 38.2592C38.0335 38.771 44.0796 45.3083 42.4306 43.5254Z" fill="#D75959"/>
<path d="M34.1888 51.1272C33.5655 49.2871 34.5427 43.8851 35.1092 41.4142L29.1844 42.5663L30.6479 43.7798C32.1114 44.9935 34.968 53.4274 34.1888 51.1272Z" fill="#D75959"/>
<path d="M24.004 51.1272C23.3807 49.2871 24.3579 43.8851 24.9244 41.4142L18.9995 42.5663L20.4631 43.7798C21.9266 44.9935 24.7832 53.4274 24.004 51.1272Z" fill="#D75959"/>
<path d="M10.5807 46.68C11.8732 45.2294 17.0532 43.412 19.4817 42.6846L15.5545 38.1012L15.2218 39.973C14.889 41.845 8.9652 48.4933 10.5807 46.68Z" fill="#D75959"/>
<path d="M5.44393 31.3369C7.38652 31.306 12.2311 33.8879 14.4105 35.1827L15.125 29.1893L13.5221 30.2118C11.9191 31.2342 3.01569 31.3756 5.44393 31.3369Z" fill="#D75959"/>
<path d="M6.71736 22.4251C8.65995 22.3942 13.5045 24.976 15.684 26.2708L16.3984 20.2775L14.7955 21.2999C13.1925 22.3223 4.28913 22.4637 6.71736 22.4251Z" fill="#D75959"/>
<path d="M13.3955 9.15552C14.6542 10.6354 15.741 16.0164 16.127 18.5219L21.2076 15.2633L19.3994 14.6759C17.5911 14.0885 11.822 7.30566 13.3955 9.15552Z" fill="#D75959"/>
<path d="M19.7612 7.88257C21.02 9.36245 22.1067 14.7434 22.4928 17.2489L27.5734 13.9903L25.7651 13.403C23.9569 12.8156 18.1877 6.03271 19.7612 7.88257Z" fill="#D75959"/>
<path d="M41.5391 34.3752C37.2415 43.2312 24.8459 48.1068 20.0131 43.7406C15.1803 39.3743 9.75248 29.8915 14.0501 21.0355C22.819 7.54647 27.9852 7.98643 35.576 11.6701C41.2792 16.4583 45.7351 27.9163 41.5391 34.3752Z" fill="#D75959"/>
<path d="M37.0643 33.198C36.187 39.3468 27.9152 41.7654 22.9314 39.3468C17.7268 40.0106 16.1948 30.2542 19.0164 24.4398C23.4558 20.2773 24.7288 13.9118 33.0041 15.8215C37.9879 18.24 39.8859 27.3835 37.0643 33.198Z" fill="#DB4A4A"/>
<path d="M33.9068 30.1464C32.0904 33.8893 29.185 36.828 24.809 34.1046C21.6008 32.5477 20.4724 28.2514 22.2888 24.5085C24.0926 18.3679 28.1783 18.9934 31.3866 20.5502C34.5948 22.1071 33.9068 26.6431 33.9068 30.1464Z" fill="#DD5C5C"/>
<path d="M27.9117 30.4625C28.421 25.8793 30.2457 26.8553 31.0945 27.9163L28.23 27.598M25.3655 27.2797L28.23 27.598M28.23 27.598L29.1848 24.0969M28.23 27.598L30.4579 30.4625L28.23 27.9163L25.3655 29.1894" stroke="#DB4A4A" stroke-width="0.900591" stroke-linecap="round" stroke-linejoin="round"/>
</g>
<defs>
<clipPath id="clip0_233_3">
<rect width="58" height="59" fill="white"/>
</clipPath>
</defs>
</svg>
