<svg width="125" height="258" viewBox="0 0 125 258" fill="none" xmlns="http://www.w3.org/2000/svg">
<ellipse cx="63.6166" cy="242.768" rx="53.2172" ry="15.2318" fill="black" fill-opacity="0.2"/>
<ellipse cx="62.6886" cy="237.962" rx="37.1756" ry="10.3426" fill="#89526F"/>
<path d="M5.56512 106.141H119.812L99.8641 238.15H25.513L5.56512 106.141Z" fill="#89526F"/>
<path d="M28.7019 234.87C24.8936 226.596 10.3861 119.41 10.3861 119.41C19.9974 164.729 25.075 228.289 43.9348 234.87C60.4448 240.632 82.1984 241.076 93.9858 238.067C89.4522 241.076 82.416 242.806 69.5043 243.709C56.5926 244.611 32.5101 243.144 28.7019 234.87Z" fill="#AE7E96"/>
<ellipse cx="62.6133" cy="105.87" rx="60.3876" ry="15.984" fill="#703352" stroke="#E3D9D9" stroke-width="3.76093"/>
<path d="M69.6338 166.421C78.8105 169.43 101.915 160.153 112.132 156.455L108.371 182.217C103.921 183.346 94.4273 183.225 90.507 182.217C83.9253 180.525 74.8991 183.346 67.9414 187.859C62.3752 191.469 58.351 192.56 50.0769 192.372C41.8029 192.184 37.2146 185.903 32.4006 185.602C27.5866 185.301 20.679 187.169 17.921 188.047L13.7839 160.78C19.6761 163.851 29.2038 169.634 38.23 169.634C50.411 169.634 58.1629 162.66 69.6338 166.421Z" fill="#B7B7B7" fill-opacity="0.43"/>
<path fill-rule="evenodd" clip-rule="evenodd" d="M55.1892 156.326C63.2484 152.946 70.3973 153.927 77.8456 154.084C85.6776 154.248 94.445 153.999 97.3154 159.021C100.19 164.051 99.9261 175.209 96.6028 182.002C92.9355 189.498 87.2773 192.814 78.714 198.393C69.8783 204.15 59.4576 203.806 51.0531 202.717C43.4263 201.729 38.8053 197.661 35.3143 192.771C31.4662 187.381 26.2918 181.665 30.506 173.937C34.7281 166.195 45.5046 160.387 55.1892 156.326Z" fill="#703352"/>
<path d="M36.4133 188.058C35.1708 188.058 34.1353 187.644 33.307 186.815C32.4994 186.008 32.0955 185.065 32.0955 183.989C32.0955 182.891 32.3544 181.876 32.8721 180.944C33.3898 179.992 34.125 179.112 35.0776 178.304C36.0509 177.496 37.3141 176.834 38.8673 176.316C40.4204 175.778 42.1392 175.477 44.0237 175.415C45.1213 172.702 46.0946 169.668 46.9437 166.314C46.9644 166.189 46.9747 166.034 46.9747 165.848C46.9747 165.641 46.8712 165.465 46.6641 165.32V165.009C48.445 164.678 50.0707 164.512 51.541 164.512L53.4048 164.636C53.9432 165.589 54.2435 166.914 54.3056 168.612C54.3677 170.29 54.4091 173.21 54.4298 177.372C56.6664 178.345 58.5819 179.578 60.1765 181.069C60.0937 181.338 59.928 181.607 59.6795 181.876C59.4517 182.125 59.2343 182.311 59.0272 182.435L58.7165 182.622C57.4947 181.421 56.0762 180.396 54.4609 179.547C54.5023 180.727 54.6162 181.721 54.8026 182.529C55.0925 183.854 55.4342 184.517 55.8277 184.517C56.0555 184.517 56.3247 184.465 56.6353 184.361L57.1013 185.573C55.6724 186.484 54.3056 186.94 53.0009 186.94C50.8472 186.94 49.7704 185.314 49.7704 182.063V177.993C48.3208 177.641 47.0058 177.424 45.8254 177.341C43.1333 184.486 39.9959 188.058 36.4133 188.058ZM43.2472 177.31C40.9071 177.496 38.9605 178.314 37.4073 179.764C35.8542 181.214 35.0776 182.57 35.0776 183.833C35.0776 185.096 35.5642 185.728 36.5375 185.728C38.5256 185.728 40.7621 182.922 43.2472 177.31ZM49.4287 166.997C49.3873 166.976 49.3044 166.966 49.1802 166.966C49.0559 166.966 48.9731 166.976 48.9317 166.997C48.7453 168.571 47.9377 171.398 46.5088 175.477C47.5235 175.539 48.6107 175.684 49.7704 175.912C49.7704 170.818 49.6565 167.846 49.4287 166.997ZM64.825 174.359C63.9967 174.359 63.334 175.053 62.837 176.44C62.34 177.807 62.0915 179.277 62.0915 180.851C62.0915 183.336 62.8577 184.579 64.3901 184.579C64.8872 184.579 65.4152 184.465 65.9744 184.237C66.5335 183.989 66.9787 183.75 67.3101 183.523L67.776 183.15L68.4905 184.113C68.3455 184.258 68.1488 184.454 67.9003 184.703C67.6518 184.931 67.134 185.283 66.3471 185.759C65.5809 186.235 64.8043 186.567 64.0174 186.753C63.4997 187.126 63.0441 187.581 62.6506 188.12C62.2779 188.658 62.0915 189.176 62.0915 189.673C62.0915 190.191 62.34 190.45 62.837 190.45C63.334 190.45 63.9242 190.253 64.6076 189.859L64.9493 189.642L65.5084 190.512C65.3635 190.657 65.1667 190.833 64.9182 191.04C64.6697 191.268 64.1727 191.558 63.4272 191.91C62.6817 192.282 61.9879 192.469 61.346 192.469C60.704 192.469 60.1863 192.272 59.7928 191.879C59.3994 191.506 59.2026 191.009 59.2026 190.388C59.2026 189.787 59.4615 189.166 59.9792 188.524C60.4969 187.902 61.0871 187.364 61.7498 186.908C60.3416 186.764 59.2855 186.173 58.5814 185.138C57.898 184.102 57.5563 182.756 57.5563 181.1C57.5563 178.635 58.2293 176.637 59.5754 175.105C60.9422 173.572 62.692 172.806 64.825 172.806C66.2125 172.806 67.3101 173.127 68.1177 173.769C68.9461 174.39 69.3602 175.167 69.3602 176.099C69.3602 177.01 69.0703 177.797 68.4905 178.459C67.9727 178.459 67.3722 178.345 66.6888 178.118C66.0054 177.89 65.4877 177.61 65.1357 177.279L65.6016 174.545C65.4152 174.421 65.1564 174.359 64.825 174.359ZM79.2836 173.707C79.3251 173.665 79.439 173.396 79.6253 172.899C80.5986 172.899 81.9033 173.189 83.5393 173.769C83.0216 175.488 82.6074 177.289 82.2968 179.174C81.9861 181.038 81.8308 182.373 81.8308 183.181C81.8308 183.968 81.9136 184.361 82.0793 184.361C82.2036 184.361 82.6592 184.165 83.4461 183.771L83.8188 183.585L84.378 184.672C84.1916 184.838 83.9431 185.045 83.6325 185.293C83.3425 185.542 82.7834 185.883 81.9551 186.318C81.1267 186.732 80.3812 186.94 79.7185 186.94C78.4346 186.94 77.6891 186.36 77.482 185.2C76.1566 186.36 74.9555 186.94 73.8787 186.94C72.8225 186.94 71.9217 186.525 71.1762 185.697C70.4514 184.869 70.089 183.564 70.089 181.783C70.089 179.008 70.6585 176.823 71.7975 175.229C72.9364 173.613 74.3136 172.806 75.9288 172.806C77.0885 172.806 78.2068 173.106 79.2836 173.707ZM75.7425 184.299C76.2395 184.299 76.7986 184.102 77.4199 183.709C77.5648 180.789 78.0515 177.9 78.8798 175.042C78.2586 174.773 77.7305 174.639 77.2956 174.639C76.5501 174.639 75.9081 175.374 75.3697 176.844C74.852 178.294 74.5931 179.899 74.5931 181.659C74.5931 183.419 74.9762 184.299 75.7425 184.299ZM85.5419 169.637C87.2814 168.706 89.7457 167.101 92.9349 164.823C93.142 165.113 93.3698 165.568 93.6183 166.189C93.8875 166.811 94.0221 167.277 94.0221 167.587C94.0221 168.167 93.6493 168.633 92.9038 168.985C91.33 169.71 89.0624 170.352 86.101 170.911L85.5419 169.637ZM89.7043 183.523C89.7043 184.082 89.7975 184.361 89.9839 184.361C90.1081 184.361 90.5844 184.165 91.4128 183.771L91.7855 183.585L92.3136 184.672C92.1272 184.838 91.8787 185.045 91.5681 185.293C91.2575 185.542 90.6776 185.883 89.8286 186.318C88.9795 186.732 88.1926 186.94 87.4678 186.94C86.743 186.94 86.1735 186.722 85.7593 186.287C85.3451 185.832 85.1381 185.231 85.1381 184.486C85.1381 183.719 85.3969 182.373 85.9146 180.447C86.4324 178.501 86.6912 177.238 86.6912 176.658C86.6912 175.788 86.422 174.97 85.8836 174.204L85.604 173.831L85.6351 173.427C86.7326 173.116 88.5136 172.961 90.9779 172.961C91.2471 173.272 91.3817 173.872 91.3817 174.763C91.3817 175.653 91.1125 177.134 90.5741 179.205C90.0357 181.255 89.7561 182.466 89.7354 182.839C89.7147 183.191 89.7043 183.419 89.7043 183.523Z" fill="#F7B90A"/>
<path d="M56.4611 169.072C56.4611 168.632 56.5491 168.247 56.7251 167.915C56.9063 167.579 57.1548 167.32 57.4706 167.139C57.7864 166.958 58.1488 166.867 58.5578 166.867C59.0756 166.867 59.5027 166.991 59.8392 167.24C60.1809 167.483 60.4113 167.832 60.5303 168.288H59.5751C59.4975 168.076 59.3732 167.91 59.2024 167.791C59.0315 167.672 58.8167 167.612 58.5578 167.612C58.1954 167.612 57.9055 167.742 57.6881 168.001C57.4758 168.254 57.3697 168.612 57.3697 169.072C57.3697 169.533 57.4758 169.893 57.6881 170.152C57.9055 170.411 58.1954 170.54 58.5578 170.54C59.0704 170.54 59.4095 170.315 59.5751 169.865H60.5303C60.4061 170.299 60.1731 170.646 59.8314 170.905C59.4897 171.159 59.0652 171.286 58.5578 171.286C58.1488 171.286 57.7864 171.195 57.4706 171.014C57.1548 170.827 56.9063 170.569 56.7251 170.237C56.5491 169.901 56.4611 169.512 56.4611 169.072ZM64.8218 166.937V171.216H63.9365V170.711C63.7967 170.887 63.6129 171.027 63.3851 171.13C63.1625 171.229 62.9243 171.278 62.6706 171.278C62.3341 171.278 62.0313 171.208 61.7621 171.068C61.498 170.928 61.2883 170.721 61.133 170.447C60.9829 170.173 60.9078 169.841 60.9078 169.453V166.937H61.7854V169.321C61.7854 169.704 61.8811 169.999 62.0727 170.206C62.2642 170.408 62.5257 170.509 62.857 170.509C63.1884 170.509 63.4498 170.408 63.6414 170.206C63.8381 169.999 63.9365 169.704 63.9365 169.321V166.937H64.8218ZM67.077 171.286C66.7405 171.286 66.4377 171.226 66.1685 171.107C65.9044 170.983 65.6947 170.817 65.5394 170.61C65.3841 170.398 65.3013 170.162 65.2909 169.903H66.2073C66.2228 170.085 66.3082 170.237 66.4636 170.362C66.624 170.481 66.8234 170.54 67.0615 170.54C67.31 170.54 67.5016 170.494 67.6362 170.4C67.776 170.302 67.8459 170.178 67.8459 170.028C67.8459 169.867 67.7682 169.748 67.6129 169.67C67.4627 169.593 67.222 169.507 66.8907 169.414C66.5697 169.326 66.3082 169.241 66.1063 169.158C65.9044 169.075 65.7284 168.948 65.5783 168.777C65.4333 168.606 65.3608 168.381 65.3608 168.102C65.3608 167.874 65.4281 167.667 65.5627 167.48C65.6973 167.289 65.8889 167.139 66.1374 167.03C66.3911 166.921 66.681 166.867 67.0072 166.867C67.4938 166.867 67.8847 166.991 68.1798 167.24C68.4801 167.483 68.6406 167.817 68.6613 168.241H67.776C67.7604 168.05 67.6828 167.897 67.543 167.783C67.4032 167.669 67.2142 167.612 66.9761 167.612C66.7431 167.612 66.5645 167.656 66.4403 167.744C66.316 167.832 66.2539 167.949 66.2539 168.094C66.2539 168.208 66.2953 168.304 66.3781 168.381C66.461 168.459 66.5619 168.521 66.681 168.568C66.8001 168.609 66.9761 168.663 67.2091 168.731C67.5197 168.814 67.7734 168.899 67.9701 168.987C68.172 169.07 68.3455 169.194 68.4904 169.36C68.6354 169.525 68.7104 169.745 68.7156 170.02C68.7156 170.263 68.6483 170.481 68.5137 170.672C68.3791 170.864 68.1876 171.014 67.939 171.123C67.6957 171.231 67.4084 171.286 67.077 171.286ZM70.2391 167.659V170.028C70.2391 170.188 70.2753 170.305 70.3478 170.377C70.4255 170.444 70.5549 170.478 70.7361 170.478H71.2797V171.216H70.5808C70.1822 171.216 69.8767 171.123 69.6644 170.936C69.4522 170.75 69.346 170.447 69.346 170.028V167.659H68.8413V166.937H69.346V165.873H70.2391V166.937H71.2797V167.659H70.2391ZM73.4857 171.286C73.0819 171.286 72.7169 171.195 72.3908 171.014C72.0646 170.827 71.8083 170.569 71.622 170.237C71.4356 169.901 71.3424 169.512 71.3424 169.072C71.3424 168.638 71.4382 168.252 71.6297 167.915C71.8213 167.579 72.0827 167.32 72.4141 167.139C72.7454 166.958 73.1156 166.867 73.5246 166.867C73.9336 166.867 74.3037 166.958 74.6351 167.139C74.9664 167.32 75.2279 167.579 75.4194 167.915C75.611 168.252 75.7067 168.638 75.7067 169.072C75.7067 169.507 75.6084 169.893 75.4116 170.23C75.2149 170.566 74.9457 170.827 74.604 171.014C74.2675 171.195 73.8947 171.286 73.4857 171.286ZM73.4857 170.517C73.7135 170.517 73.9258 170.462 74.1225 170.354C74.3244 170.245 74.4875 170.082 74.6118 169.865C74.736 169.647 74.7981 169.383 74.7981 169.072C74.7981 168.762 74.7386 168.5 74.6195 168.288C74.5005 168.071 74.3426 167.908 74.1458 167.799C73.9491 167.69 73.7368 167.636 73.509 167.636C73.2812 167.636 73.069 167.69 72.8722 167.799C72.6807 167.908 72.528 168.071 72.4141 168.288C72.3002 168.5 72.2432 168.762 72.2432 169.072C72.2432 169.533 72.3597 169.89 72.5927 170.144C72.8308 170.393 73.1285 170.517 73.4857 170.517ZM81.2957 166.867C81.6322 166.867 81.9325 166.937 82.1965 167.077C82.4658 167.216 82.6754 167.423 82.8256 167.698C82.9809 167.972 83.0585 168.304 83.0585 168.692V171.216H82.181V168.824C82.181 168.441 82.0852 168.148 81.8937 167.946C81.7021 167.739 81.4407 167.636 81.1093 167.636C80.778 167.636 80.514 167.739 80.3172 167.946C80.1257 168.148 80.0299 168.441 80.0299 168.824V171.216H79.1524V168.824C79.1524 168.441 79.0566 168.148 78.865 167.946C78.6735 167.739 78.412 167.636 78.0807 167.636C77.7494 167.636 77.4853 167.739 77.2886 167.946C77.097 168.148 77.0013 168.441 77.0013 168.824V171.216H76.116V166.937H77.0013V167.426C77.1462 167.25 77.33 167.113 77.5526 167.014C77.7752 166.916 78.0134 166.867 78.2671 166.867C78.6088 166.867 78.9142 166.939 79.1834 167.084C79.4526 167.229 79.6597 167.439 79.8047 167.713C79.9341 167.455 80.136 167.25 80.4104 167.1C80.6848 166.945 80.9799 166.867 81.2957 166.867Z" fill="#DDDDDD"/>
<path d="M63.5969 120.422C22.7041 120.831 12.4278 109.899 10.8867 108.019C10.8867 108.019 5.06452 102.19 1.29726 88.0865C-2.46999 73.9833 2.63294 62.3265 8.09851 54.2405C16.9076 41.2079 34.5722 34.3075 34.5722 34.3075C39.975 19.8842 43.8952 12.3734 53.6307 5.97982C63.3662 -0.413736 73.2725 -1.91816 83.6648 2.62368C80.8766 8.48563 78.7424 16.9643 81.3929 21.0616C84.0434 25.1589 103.347 35.812 109.412 43.5969C115.478 51.3818 118.378 60.201 113.577 77.3998C113.577 77.3998 119.446 80.1189 121.339 86.8237C123.232 93.5284 120.582 99.7302 120.582 99.7302C114.524 110.383 104.49 120.012 63.5969 120.422Z" fill="#703352"/>
<path d="M90.363 87.6733C103.068 86.1456 111.416 79.5487 114.087 76.347C100.603 84.1041 84.8892 87.6733 62.686 82.6469C66.6179 84.9589 77.6579 89.201 90.363 87.6733Z" fill="#642B48"/>
<path d="M102.165 45.8865C98.1175 45.7234 88.6916 43.2351 82.3963 34.5078C76.1249 25.8136 79.8424 14.6506 81.0286 10.0706C81.0331 10.0533 81.0375 10.0359 81.042 10.0186C81.0376 10.0358 81.0331 10.0532 81.0286 10.0706C76.8316 26.3829 87.9846 42.2568 102.165 45.8865Z" fill="#642B48"/>
<path d="M15.687 96.2799C26.7967 103.236 43.938 107.495 47.8063 106.622C35.8678 103.05 10.9312 99.1006 1.34912 67.6968C2.02318 75.4068 4.57736 89.3237 15.687 96.2799Z" fill="#642B48"/>
<path d="M36.9458 57.4964C42.9896 66.0573 54.3713 74.4919 57.5221 75.0437C49.7878 68.7216 32.5185 58.4595 35.3752 32.3441C33.4269 38.2372 30.902 48.9356 36.9458 57.4964Z" fill="#642B48"/>
<ellipse cx="26.2067" cy="48.4965" rx="6.01749" ry="3.19679" transform="rotate(-22.3618 26.2067 48.4965)" fill="#DD2626"/>
<ellipse cx="102.178" cy="95.1321" rx="6.01749" ry="3.19679" transform="rotate(11.6171 102.178 95.1321)" fill="#DD2626"/>
<ellipse cx="68.5258" cy="45.8959" rx="6.01749" ry="3.19679" transform="rotate(-13.6396 68.5258 45.8959)" fill="#51A434"/>
<ellipse cx="94.2952" cy="67.4171" rx="6.01749" ry="3.19679" transform="rotate(23.9156 94.2952 67.4171)" fill="#C7CA44"/>
<ellipse cx="20.8248" cy="104.393" rx="6.01749" ry="3.19679" transform="rotate(15.9625 20.8248 104.393)" fill="#C7CA44"/>
<ellipse cx="65.932" cy="88.5167" rx="6.01749" ry="3.19679" transform="rotate(-15.0305 65.932 88.5167)" fill="#44B2CA"/>
<ellipse cx="63.6756" cy="16.6828" rx="6.01749" ry="3.19679" transform="rotate(24.1264 63.6756 16.6828)" fill="#4F44CA"/>
<ellipse cx="45.4048" cy="74.5783" rx="6.01749" ry="3.19679" transform="rotate(24.1264 45.4048 74.5783)" fill="#AF40B1"/>
<ellipse cx="26.4333" cy="84.0907" rx="8.4621" ry="12.7872" transform="rotate(19.6729 26.4333 84.0907)" fill="#642B48"/>
<ellipse cx="25.1865" cy="83.1888" rx="9.13482" ry="12.7872" transform="rotate(19.6729 25.1865 83.1888)" fill="#EBE07D"/>
<ellipse cx="24.1769" cy="82.9624" rx="8.4621" ry="12.7872" transform="rotate(19.6729 24.1769 82.9624)" fill="#EADB53"/>
<ellipse rx="0.36937" ry="1.2928" transform="matrix(0 -1 -1 0 20.3423 81.921)" fill="#C29D3C"/>
<ellipse cx="21.7022" cy="84.5739" rx="0.36937" ry="1.2928" transform="rotate(-135 21.7022 84.5739)" fill="#C29D3C"/>
<ellipse rx="0.36937" ry="1.2928" transform="matrix(-0.707107 0.707107 0.707107 0.707107 21.7022 79.4027)" fill="#C29D3C"/>
<ellipse rx="0.36937" ry="1.2928" transform="matrix(0.707107 -0.707107 -0.707107 -0.707107 24.6575 84.5739)" fill="#C29D3C"/>
<ellipse cx="24.6575" cy="79.4027" rx="0.36937" ry="1.2928" transform="rotate(45 24.6575 79.4027)" fill="#C29D3C"/>
<ellipse rx="0.36937" ry="1.2928" transform="matrix(0 -1 -1 0 26.2522 81.9235)" fill="#C29D3C"/>
<ellipse cx="47.3953" cy="40.0781" rx="6.31916" ry="9.54895" transform="rotate(19.6729 47.3953 40.0781)" fill="#642B48"/>
<ellipse cx="46.2689" cy="39.1189" rx="6.82151" ry="9.54895" transform="rotate(19.6729 46.2689 39.1189)" fill="#EBE07D"/>
<ellipse cx="45.5149" cy="38.9498" rx="6.31916" ry="9.54895" transform="rotate(19.6729 45.5149 38.9498)" fill="#EADB53"/>
<ellipse rx="0.275831" ry="0.965409" transform="matrix(0 -1 -1 0 42.6518 38.1722)" fill="#C29D3C"/>
<ellipse cx="43.6674" cy="40.1533" rx="0.275831" ry="0.965409" transform="rotate(-135 43.6674 40.1533)" fill="#C29D3C"/>
<ellipse rx="0.275831" ry="0.965409" transform="matrix(-0.707107 0.707107 0.707107 0.707107 43.6674 36.2916)" fill="#C29D3C"/>
<ellipse rx="0.275831" ry="0.965409" transform="matrix(0.707107 -0.707107 -0.707107 -0.707107 45.874 40.1533)" fill="#C29D3C"/>
<ellipse cx="45.874" cy="36.2916" rx="0.275831" ry="0.965409" transform="rotate(45 45.874 36.2916)" fill="#C29D3C"/>
<ellipse rx="0.275831" ry="0.965409" transform="matrix(0 -1 -1 0 47.065 38.1741)" fill="#C29D3C"/>
<ellipse rx="6.6049" ry="9.98074" transform="matrix(-0.841855 -0.539704 -0.539704 0.841855 79.9861 100.739)" fill="#642B48"/>
<ellipse rx="7.12997" ry="9.98074" transform="matrix(-0.841855 -0.539704 -0.539704 0.841855 82.0006 100.629)" fill="#EBE07D"/>
<ellipse rx="6.6049" ry="9.98074" transform="matrix(-0.841855 -0.539704 -0.539704 0.841855 82.7971 100.54)" fill="#EADB53"/>
<ellipse cx="85.2692" cy="102.413" rx="0.288304" ry="1.00906" transform="rotate(-37.6636 85.2692 102.413)" fill="#C29D3C"/>
<ellipse rx="0.288304" ry="1.00906" transform="matrix(0.991813 0.127695 0.127695 -0.991813 82.9814 102.838)" fill="#C29D3C"/>
<ellipse cx="86.1765" cy="100.372" rx="0.288304" ry="1.00906" transform="rotate(97.3364 86.1765 100.372)" fill="#C29D3C"/>
<ellipse cx="81.5719" cy="101.012" rx="0.288304" ry="1.00906" transform="rotate(-82.6636 81.5719 101.012)" fill="#C29D3C"/>
<ellipse rx="0.288304" ry="1.00906" transform="matrix(-0.991813 -0.127695 -0.127695 0.991813 84.7672 98.5458)" fill="#C29D3C"/>
<ellipse cx="82.449" cy="98.7625" rx="0.288304" ry="1.00906" transform="rotate(-37.6636 82.449 98.7625)" fill="#C29D3C"/>
<ellipse cx="97.552" cy="53.7565" rx="7.05479" ry="10.6606" transform="rotate(146.623 97.552 53.7565)" fill="#642B48"/>
<ellipse cx="98.6486" cy="53.0718" rx="7.61563" ry="10.6606" transform="rotate(146.623 98.6486 53.0718)" fill="#EBE07D"/>
<ellipse cx="99.3054" cy="52.5126" rx="7.05479" ry="10.6606" transform="rotate(146.623 99.3054 52.5126)" fill="#EADB53"/>
<ellipse rx="0.307941" ry="1.07779" transform="matrix(0.799164 0.601112 0.601112 -0.799164 101.921 50.4797)" fill="#C29D3C"/>
<ellipse cx="99.472" cy="50.0565" rx="0.307941" ry="1.07779" transform="rotate(-8.05039 99.472 50.0565)" fill="#C29D3C"/>
<ellipse rx="0.307941" ry="1.07779" transform="matrix(-0.140044 -0.990145 -0.990145 0.140044 102.917 52.648)" fill="#C29D3C"/>
<ellipse rx="0.307941" ry="1.07779" transform="matrix(0.140044 0.990145 0.990145 -0.140044 97.9914 52.0252)" fill="#C29D3C"/>
<ellipse cx="101.436" cy="54.6166" rx="0.307941" ry="1.07779" transform="rotate(171.95 101.436 54.6166)" fill="#C29D3C"/>
<ellipse rx="0.307941" ry="1.07779" transform="matrix(0.799164 0.601112 0.601112 -0.799164 98.9576 54.416)" fill="#C29D3C"/>
<ellipse rx="8.43999" ry="7.97257" transform="matrix(-0.904674 0.426104 -0.318636 -0.947877 65.6999 66.5199)" fill="#642B48"/>
<ellipse rx="8.43999" ry="7.97257" transform="matrix(-0.904674 0.426104 -0.318636 -0.947877 64.748 66.237)" fill="#EADB53"/>
<ellipse rx="0.312382" ry="1.31237" transform="matrix(0.66662 0.745398 0.745398 -0.66662 67.0661 64.2216)" fill="#C29D3C"/>
<ellipse rx="0.345095" ry="1.20783" transform="matrix(0.999385 -0.0350561 -0.146007 0.989284 64.5415 63.4697)" fill="#C29D3C"/>
<ellipse rx="0.345094" ry="1.20783" transform="matrix(0.146007 -0.989284 -0.999385 0.0350561 67.4568 66.7296)" fill="#C29D3C"/>
<ellipse rx="0.345094" ry="1.20783" transform="matrix(-0.146007 0.989284 0.999385 -0.0350561 62.3055 65.4693)" fill="#C29D3C"/>
<ellipse rx="0.345095" ry="1.20783" transform="matrix(-0.999385 0.0350561 0.146007 -0.989284 65.2209 68.7293)" fill="#C29D3C"/>
<ellipse rx="0.312382" ry="1.31237" transform="matrix(0.66662 0.745398 0.745398 -0.66662 62.5929 68.2194)" fill="#C29D3C"/>
</svg>
