<svg width="333" height="686" viewBox="0 0 333 686" fill="none" xmlns="http://www.w3.org/2000/svg">
<g clip-path="url(#clip0_122_6492)">
<ellipse cx="162.5" cy="645.5" rx="141.5" ry="40.5" fill="black" fill-opacity="0.2"/>
<ellipse cx="167.033" cy="632.72" rx="98.8467" ry="27.5" fill="#89526F"/>
<path d="M15.1465 282.221H318.919L265.88 633.221H68.1862L15.1465 282.221Z" fill="#89526F"/>
<path d="M76.6652 624.5C66.5394 602.5 27.9651 317.5 27.9651 317.5C53.5206 438 67.0216 607 117.168 624.5C161.067 639.82 218.908 641 250.25 633C238.195 641 219.487 645.6 185.155 648C150.824 650.4 86.7909 646.5 76.6652 624.5Z" fill="#AE7E96"/>
<ellipse cx="166.833" cy="281.5" rx="160.566" ry="42.5" fill="#703352" stroke="#E3D9D9" stroke-width="10"/>
<path d="M169.448 320.191C60.717 321.28 33.3934 292.213 29.2956 287.213C29.2956 287.213 13.815 271.713 3.79819 234.214C-6.21862 196.715 7.34965 165.721 21.8821 144.221C45.3047 109.568 92.2735 91.2208 92.2735 91.2208C106.639 52.8703 117.062 32.8998 142.948 15.8998C168.834 -1.10009 195.174 -5.10022 222.806 6.97614C215.393 22.5626 209.718 45.1066 216.766 56.0011C223.813 66.8955 275.139 95.221 291.266 115.92C307.394 136.62 315.106 160.069 302.341 205.8C302.341 205.8 317.946 213.029 322.979 230.857C328.013 248.684 320.966 265.174 320.966 265.174C304.858 293.5 278.178 319.102 169.448 320.191Z" fill="#703352"/>
<g clip-path="url(#clip1_122_6492)">
<path opacity="0.4" fill-rule="evenodd" clip-rule="evenodd" d="M317.411 218.319C306.41 236.725 290.93 258.769 280.323 266.087C272.091 271.766 263.464 266.743 254.88 261.745C247.56 257.483 240.272 253.239 233.287 255.667C226.011 259.444 218.199 270.423 210.368 281.43C201.823 293.44 193.256 305.482 185.337 308.234C170.122 316.132 153.515 289.916 138.834 261.071C128.433 238.718 121.176 239.736 104.38 242.092C97.5308 243.052 89.0945 244.236 78.2115 244.147C55.5316 243.962 53.8118 224.39 52.6547 211.222C51.8952 202.578 51.3781 196.693 45.3335 200.864C31.0075 210.747 15.0836 216.003 0.752823 212.276C-0.467365 184.411 10.5537 161.1 22.1934 143.88C45.6159 109.227 92.5847 90.8798 92.5847 90.8798C106.95 52.5292 117.374 32.5587 143.259 15.5588C169.145 -1.44113 195.485 -5.44126 223.118 6.6351C215.704 22.2215 210.03 44.7656 217.077 55.66C220.199 60.487 232.014 68.7359 245.608 78.2272C262.696 90.1577 282.595 104.051 291.578 115.579C295.126 120.133 298.267 124.821 300.872 129.849L259.488 129.849C274.926 129.975 287.808 129.928 299.58 129.885C300.018 129.883 300.454 129.881 300.888 129.88C310.11 147.701 312.603 169.81 302.652 205.458C302.652 205.458 310.963 209.309 317.411 218.319ZM224.362 129.849L201.883 129.849C209.349 129.855 216.815 129.861 224.362 129.849ZM179.387 129.849L157.366 129.849C164.604 129.855 171.843 129.861 179.387 129.849ZM135.311 129.849L110.596 129.849C119.182 129.855 127.767 129.861 135.311 129.849ZM85.8381 129.849L53.0061 129.849C65.6471 129.855 78.288 129.861 85.8381 129.849Z" fill="#F8EBEB"/>
<path d="M66.9998 113.104C40.4995 129.604 20.3332 162.437 11 180.104C11 180.104 19.5 177.499 30.5 162.999C41.5 148.499 54 132.395 73.5 121.999C93 111.604 101.667 106.999 110.5 104.999C111.333 102.999 115.2 88.8995 120 76.4995C122.516 69.9995 125 57.6037 144.5 40.4994C164 23.3952 185.5 15.1037 185.5 15.1037C185.5 15.1037 189.3 13.1037 174.5 15.1037C156 17.6037 144 27.6037 133 36.9995C122 46.3953 108.167 80.2704 101.5 96.6037C99.3333 97.437 93.5 96.6037 66.9998 113.104Z" fill="white" fill-opacity="0.2"/>
</g>
<path d="M240.179 233.116C273.961 229.054 296.157 211.513 303.259 203C267.405 223.625 225.625 233.116 166.588 219.751C177.043 225.898 206.397 237.178 240.179 233.116Z" fill="#642B48" fill-opacity="0.6"/>
<path d="M271.997 122.008C261.235 121.574 236.173 114.958 219.434 91.7531C202.759 68.6359 212.643 38.9545 215.797 26.7765C215.809 26.7304 215.821 26.6844 215.833 26.6383C215.821 26.6841 215.809 26.7302 215.797 26.7765C204.638 70.1496 234.293 112.357 271.997 122.008Z" fill="#642B48" fill-opacity="0.6"/>
<path d="M42.0591 256C71.5988 274.496 117.176 285.819 127.461 283.5C95.718 274 29.4138 263.5 3.93579 180C5.72806 200.5 12.5194 237.504 42.0591 256Z" fill="#642B48" fill-opacity="0.6"/>
<path d="M98.5845 152.878C114.655 175.64 144.918 198.067 153.295 199.535C132.73 182.725 86.8128 155.439 94.4084 86C89.2282 101.669 82.5145 130.115 98.5845 152.878Z" fill="#642B48" fill-opacity="0.6"/>
<path d="M73.0145 549.773C72.4227 550.724 72.7275 551.976 73.6903 552.549L77.3878 554.748C78.3422 555.315 79.5763 554.997 80.1367 554.038L82.4009 550.165C83.0651 549.029 82.4699 547.572 81.2001 547.226L76.9932 546.08C76.1403 545.847 75.2361 546.202 74.7692 546.953L73.0145 549.773Z" fill="#30123A"/>
<path d="M98.629 542.491C99.3312 543.364 100.613 543.49 101.472 542.771L103.087 541.418C103.938 540.705 104.045 539.435 103.326 538.589L101.969 536.995C101.116 535.992 99.5447 536.072 98.7985 537.156L97.5861 538.918C97.0849 539.646 97.1211 540.617 97.6751 541.305L98.629 542.491Z" fill="#30123A"/>
<path d="M151.993 560.957C152.716 560.101 152.594 558.819 151.724 558.113L148.382 555.405C147.519 554.706 146.252 554.843 145.559 555.711L142.761 559.218C141.94 560.246 142.319 561.774 143.526 562.299L147.524 564.039C148.334 564.392 149.28 564.171 149.85 563.496L151.993 560.957Z" fill="#30123A"/>
<path d="M170.839 536.854C171.478 537.774 171.237 539.04 170.304 539.66L168.773 540.679C167.848 541.294 166.6 541.038 165.992 540.109L165.005 538.602C164.284 537.501 164.805 536.016 166.056 535.606L167.83 535.025C168.67 534.75 169.591 535.058 170.095 535.784L170.839 536.854Z" fill="#30123A"/>
<path d="M211.867 522.438C211.209 521.532 209.934 521.343 209.041 522.019L202.687 526.83C201.802 527.5 201.632 528.764 202.309 529.644L207.482 536.37C208.284 537.413 209.858 537.41 210.657 536.364L215.557 529.948C216.093 529.246 216.105 528.275 215.586 527.559L211.867 522.438Z" fill="#30123A"/>
<path d="M248.784 541.642C249.423 542.562 249.182 543.828 248.249 544.448L244.668 546.832C243.744 547.447 242.495 547.191 241.887 546.262L239.429 542.508C238.709 541.407 239.229 539.922 240.48 539.512L244.624 538.155C245.464 537.88 246.385 538.188 246.889 538.914L248.784 541.642Z" fill="#30123A"/>
<path d="M257.798 510.458C257.159 509.538 257.4 508.272 258.333 507.652L267.201 501.751C268.126 501.135 269.374 501.391 269.983 502.32L276.232 511.866C276.953 512.967 276.432 514.452 275.181 514.862L264.929 518.221C264.089 518.497 263.168 518.188 262.664 517.462L257.798 510.458Z" fill="#30123A"/>
<path d="M133.973 522.307C133.334 521.387 133.575 520.121 134.508 519.5L140.977 515.196C141.901 514.581 143.15 514.836 143.758 515.765L148.286 522.683C149.007 523.784 148.486 525.269 147.236 525.679L139.756 528.13C138.916 528.405 137.995 528.096 137.49 527.37L133.973 522.307Z" fill="#30123A"/>
<path d="M45.5575 401.714C44.9415 400.729 45.3037 399.541 46.3516 399.109L51.7429 396.887C52.7412 396.475 53.9858 396.908 54.5414 397.861L56.9929 402.063C57.6589 403.205 57.0286 404.525 55.7155 404.739L49.7224 405.716C48.829 405.862 47.8856 405.436 47.407 404.671L45.5575 401.714Z" fill="#30123A"/>
<path d="M76.0049 410.583C76.8255 409.864 78.2162 409.857 79.0982 410.567L81.1995 412.261C82.0838 412.973 82.1152 414.132 81.2693 414.834L79.0143 416.707C78.0143 417.538 76.3081 417.327 75.5782 416.283L74.091 414.156C73.6034 413.459 73.7142 412.592 74.364 412.022L76.0049 410.583Z" fill="#30123A"/>
<path d="M123.054 409.771C123.815 410.645 123.637 411.839 122.662 412.397L117.763 415.2C116.824 415.737 115.502 415.477 114.797 414.618L111.579 410.693C110.737 409.666 111.172 408.299 112.46 407.925L118.16 406.268C119.034 406.014 120.042 406.309 120.636 406.992L123.054 409.771Z" fill="#30123A"/>
<path d="M162.617 421.377C163.43 420.558 163.327 419.379 162.39 418.777L160.149 417.336C159.236 416.749 157.88 416.935 157.115 417.751L155.503 419.47C154.592 420.442 154.952 421.815 156.231 422.247L158.911 423.152C159.776 423.444 160.807 423.203 161.444 422.561L162.617 421.377Z" fill="#30123A"/>
<path d="M210.492 438.914C209.707 439.674 208.312 439.748 207.394 439.079L199.867 433.593C198.952 432.925 198.864 431.775 199.673 431.034L207.015 424.311C207.972 423.435 209.687 423.559 210.471 424.561L215.987 431.613C216.512 432.284 216.446 433.155 215.825 433.756L210.492 438.914Z" fill="#30123A"/>
<path d="M253.129 416.787C253.941 415.967 253.839 414.789 252.902 414.187L248.319 411.24C247.407 410.654 246.051 410.84 245.286 411.656L241.669 415.513C240.758 416.485 241.118 417.858 242.397 418.29L247.863 420.136C248.727 420.428 249.758 420.187 250.396 419.544L253.129 416.787Z" fill="#30123A"/>
<path d="M267.286 428.012C266.474 428.832 266.577 430.01 267.513 430.612L278.133 437.44C279.045 438.027 280.402 437.841 281.167 437.025L289.952 427.654C290.863 426.683 290.503 425.309 289.225 424.878L276.575 420.606C275.71 420.314 274.679 420.554 274.042 421.197L267.286 428.012Z" fill="#30123A"/>
<path d="M160.113 451.59C159.3 452.41 159.403 453.589 160.34 454.191L168.22 459.257C169.132 459.844 170.488 459.658 171.254 458.842L177.693 451.973C178.604 451.002 178.244 449.628 176.966 449.197L167.576 446.026C166.711 445.734 165.68 445.974 165.043 446.617L160.113 451.59Z" fill="#30123A"/>
<path d="M186.291 508.624C208.685 516.661 263.567 491.879 288.5 482L278 550.82C267.14 553.834 246.794 553.513 237.228 550.82C221.166 546.299 199.14 553.834 182.161 565.89C168.577 575.535 158.757 578.448 138.566 577.946C118.375 577.444 107.178 560.666 95.4302 559.862C83.6826 559.058 65.2304 564.156 58.5 566.5L47 493C61.3786 501.205 87.6291 517.207 109.656 517.207C139.381 517.207 158.298 498.577 186.291 508.624Z" fill="#B7B7B7" fill-opacity="0.43"/>
<path d="M144.234 393.624C118.548 401.661 56.5982 376.879 28 367L39.0435 435.82C51.5004 438.834 74.8363 438.513 85.8094 435.82C104.232 431.299 129.496 438.834 148.971 450.89C164.551 460.535 175.815 463.448 198.974 462.946C222.133 462.444 234.976 445.666 248.451 444.862C261.925 444.058 286.28 442.518 294 444.862L304 378C287.508 386.205 257.399 402.207 232.134 402.207C198.039 402.207 176.341 383.577 144.234 393.624Z" fill="#B7B7B7" fill-opacity="0.43"/>
<path fill-rule="evenodd" clip-rule="evenodd" d="M146.092 419.657C167.521 410.671 186.53 413.279 206.334 413.695C227.159 414.133 250.47 413.47 258.103 426.824C265.746 440.197 265.044 469.866 256.208 487.928C246.457 507.86 231.412 516.677 208.643 531.511C185.15 546.817 157.442 545.903 135.095 543.008C114.816 540.381 102.529 529.563 93.2469 516.562C83.015 502.23 69.2568 487.031 80.4621 466.483C91.6882 445.898 120.342 430.457 146.092 419.657Z" fill="#703352"/>
<path d="M96.1689 503.44C92.8651 503.44 90.112 502.339 87.9095 500.136C85.762 497.989 84.6883 495.484 84.6883 492.62C84.6883 489.702 85.3766 487.004 86.7532 484.526C88.1297 481.993 90.0845 479.653 92.6173 477.506C95.2053 475.358 98.5641 473.596 102.694 472.22C106.823 470.788 111.394 469.99 116.404 469.824C119.323 462.611 121.911 454.544 124.168 445.624C124.223 445.294 124.251 444.881 124.251 444.385C124.251 443.835 123.976 443.367 123.425 442.981V442.155C128.16 441.274 132.483 440.834 136.392 440.834L141.348 441.164C142.779 443.697 143.578 447.221 143.743 451.736C143.908 456.196 144.018 463.96 144.073 475.028C150.02 477.616 155.113 480.892 159.353 484.856C159.133 485.572 158.692 486.288 158.032 487.004C157.426 487.665 156.848 488.16 156.297 488.491L155.471 488.986C152.223 485.793 148.451 483.067 144.156 480.809C144.266 483.948 144.569 486.591 145.064 488.738C145.835 492.262 146.744 494.024 147.79 494.024C148.396 494.024 149.112 493.887 149.938 493.611L151.176 496.833C147.377 499.255 143.743 500.467 140.274 500.467C134.548 500.467 131.684 496.144 131.684 487.499V476.68C127.83 475.744 124.333 475.165 121.195 474.945C114.037 493.942 105.695 503.44 96.1689 503.44ZM114.34 474.863C108.117 475.358 102.942 477.533 98.8119 481.388C94.6822 485.242 92.6173 488.848 92.6173 492.207C92.6173 495.566 93.9113 497.246 96.4993 497.246C101.785 497.246 107.732 489.785 114.34 474.863ZM130.776 447.441C130.666 447.386 130.445 447.359 130.115 447.359C129.785 447.359 129.564 447.386 129.454 447.441C128.959 451.626 126.811 459.142 123.012 469.99C125.71 470.155 128.601 470.54 131.684 471.146C131.684 457.6 131.381 449.699 130.776 447.441ZM171.713 467.016C169.511 467.016 167.749 468.861 166.427 472.55C165.106 476.184 164.445 480.094 164.445 484.278C164.445 490.886 166.482 494.19 170.557 494.19C171.878 494.19 173.283 493.887 174.769 493.281C176.256 492.62 177.44 491.987 178.321 491.381L179.56 490.39L181.459 492.951C181.074 493.336 180.551 493.859 179.89 494.52C179.229 495.126 177.853 496.062 175.76 497.328C173.723 498.595 171.658 499.476 169.566 499.971C168.189 500.962 166.978 502.174 165.932 503.605C164.941 505.037 164.445 506.413 164.445 507.735C164.445 509.112 165.106 509.8 166.427 509.8C167.749 509.8 169.318 509.277 171.135 508.231L172.044 507.652L173.53 509.965C173.145 510.35 172.622 510.818 171.961 511.369C171.3 511.975 169.979 512.746 167.997 513.682C166.014 514.673 164.17 515.168 162.463 515.168C160.756 515.168 159.379 514.645 158.333 513.599C157.287 512.608 156.764 511.287 156.764 509.635C156.764 508.038 157.452 506.386 158.829 504.679C160.205 503.027 161.774 501.595 163.536 500.384C159.792 499.999 156.984 498.429 155.112 495.676C153.295 492.923 152.386 489.344 152.386 484.939C152.386 478.387 154.176 473.073 157.755 468.998C161.389 464.924 166.042 462.886 171.713 462.886C175.402 462.886 178.321 463.74 180.468 465.447C182.671 467.099 183.772 469.164 183.772 471.641C183.772 474.064 183.001 476.157 181.459 477.919C180.083 477.919 178.486 477.616 176.669 477.01C174.852 476.404 173.475 475.661 172.539 474.78L173.778 467.512C173.283 467.181 172.594 467.016 171.713 467.016ZM210.158 465.282C210.268 465.172 210.571 464.456 211.066 463.134C213.654 463.134 217.123 463.905 221.473 465.447C220.096 470.017 218.995 474.808 218.169 479.818C217.343 484.774 216.93 488.325 216.93 490.473C216.93 492.565 217.15 493.611 217.591 493.611C217.921 493.611 219.133 493.088 221.225 492.042L222.216 491.547L223.703 494.437C223.207 494.878 222.547 495.428 221.721 496.089C220.95 496.75 219.463 497.659 217.261 498.815C215.058 499.916 213.076 500.467 211.314 500.467C207.9 500.467 205.918 498.925 205.367 495.841C201.843 498.925 198.649 500.467 195.786 500.467C192.978 500.467 190.583 499.365 188.601 497.163C186.673 494.96 185.71 491.492 185.71 486.756C185.71 479.378 187.224 473.569 190.252 469.329C193.281 465.034 196.943 462.886 201.237 462.886C204.321 462.886 207.294 463.685 210.158 465.282ZM200.742 493.446C202.063 493.446 203.55 492.923 205.202 491.877C205.587 484.113 206.881 476.432 209.084 468.833C207.432 468.117 206.028 467.76 204.872 467.76C202.889 467.76 201.182 469.714 199.751 473.624C198.374 477.478 197.686 481.745 197.686 486.426C197.686 491.106 198.705 493.446 200.742 493.446ZM226.798 454.462C231.423 451.984 237.975 447.717 246.455 441.66C247.006 442.431 247.611 443.642 248.272 445.294C248.988 446.946 249.346 448.185 249.346 449.011C249.346 450.552 248.355 451.791 246.372 452.727C242.188 454.655 236.158 456.362 228.284 457.848L226.798 454.462ZM237.865 491.381C237.865 492.868 238.113 493.611 238.609 493.611C238.939 493.611 240.205 493.088 242.408 492.042L243.399 491.547L244.803 494.437C244.308 494.878 243.647 495.428 242.821 496.089C241.995 496.75 240.453 497.659 238.196 498.815C235.938 499.916 233.846 500.467 231.918 500.467C229.991 500.467 228.477 499.889 227.376 498.732C226.275 497.521 225.724 495.924 225.724 493.942C225.724 491.904 226.412 488.325 227.789 483.205C229.165 478.029 229.854 474.67 229.854 473.128C229.854 470.815 229.138 468.641 227.706 466.603L226.963 465.612L227.045 464.538C229.964 463.712 234.699 463.299 241.252 463.299C241.967 464.125 242.325 465.722 242.325 468.09C242.325 470.458 241.609 474.395 240.178 479.901C238.746 485.352 238.003 488.573 237.948 489.564C237.893 490.5 237.865 491.106 237.865 491.381Z" fill="#F7B90A"/>
<path d="M149.474 452.913C149.474 451.743 149.708 450.718 150.176 449.837C150.658 448.942 151.319 448.254 152.158 447.772C152.998 447.29 153.962 447.049 155.049 447.049C156.426 447.049 157.561 447.38 158.456 448.04C159.365 448.687 159.977 449.616 160.294 450.828H157.754C157.548 450.263 157.217 449.823 156.763 449.506C156.309 449.19 155.738 449.031 155.049 449.031C154.086 449.031 153.315 449.376 152.737 450.064C152.172 450.738 151.89 451.688 151.89 452.913C151.89 454.138 152.172 455.095 152.737 455.783C153.315 456.472 154.086 456.816 155.049 456.816C156.412 456.816 157.314 456.217 157.754 455.019H160.294C159.964 456.176 159.344 457.098 158.436 457.786C157.527 458.461 156.398 458.798 155.049 458.798C153.962 458.798 152.998 458.557 152.158 458.075C151.319 457.58 150.658 456.892 150.176 456.011C149.708 455.116 149.474 454.083 149.474 452.913ZM171.704 447.235V458.612H169.351V457.27C168.979 457.738 168.49 458.11 167.885 458.385C167.293 458.647 166.659 458.777 165.985 458.777C165.09 458.777 164.285 458.592 163.569 458.22C162.867 457.848 162.309 457.298 161.896 456.568C161.497 455.839 161.298 454.958 161.298 453.925V447.235H163.631V453.574C163.631 454.593 163.886 455.377 164.395 455.928C164.904 456.465 165.599 456.733 166.48 456.733C167.361 456.733 168.057 456.465 168.566 455.928C169.089 455.377 169.351 454.593 169.351 453.574V447.235H171.704ZM177.701 458.798C176.806 458.798 176.001 458.64 175.285 458.323C174.583 457.993 174.026 457.552 173.613 457.002C173.2 456.437 172.979 455.811 172.952 455.123H175.388C175.43 455.605 175.657 456.011 176.07 456.341C176.497 456.658 177.027 456.816 177.66 456.816C178.321 456.816 178.83 456.692 179.188 456.444C179.559 456.183 179.745 455.852 179.745 455.453C179.745 455.026 179.539 454.71 179.126 454.503C178.727 454.297 178.087 454.07 177.206 453.822C176.352 453.588 175.657 453.361 175.12 453.14C174.583 452.92 174.115 452.583 173.716 452.129C173.33 451.674 173.138 451.076 173.138 450.332C173.138 449.727 173.317 449.176 173.675 448.68C174.033 448.171 174.542 447.772 175.203 447.483C175.877 447.194 176.648 447.049 177.515 447.049C178.809 447.049 179.849 447.38 180.633 448.04C181.432 448.687 181.858 449.575 181.913 450.704H179.559C179.518 450.195 179.312 449.789 178.94 449.486C178.568 449.183 178.066 449.031 177.433 449.031C176.813 449.031 176.338 449.148 176.008 449.382C175.678 449.616 175.512 449.926 175.512 450.312C175.512 450.614 175.622 450.869 175.843 451.076C176.063 451.282 176.331 451.447 176.648 451.571C176.965 451.681 177.433 451.826 178.052 452.005C178.878 452.225 179.553 452.452 180.076 452.686C180.613 452.906 181.074 453.237 181.459 453.677C181.845 454.118 182.044 454.703 182.058 455.432C182.058 456.079 181.879 456.658 181.521 457.167C181.163 457.676 180.654 458.075 179.993 458.365C179.346 458.654 178.582 458.798 177.701 458.798ZM186.109 449.155V455.453C186.109 455.88 186.205 456.19 186.398 456.382C186.604 456.561 186.948 456.651 187.43 456.651H188.876V458.612H187.017C185.957 458.612 185.145 458.365 184.581 457.869C184.016 457.373 183.734 456.568 183.734 455.453V449.155H182.392V447.235H183.734V444.406H186.109V447.235H188.876V449.155H186.109ZM194.741 458.798C193.668 458.798 192.697 458.557 191.83 458.075C190.963 457.58 190.281 456.892 189.786 456.011C189.29 455.116 189.042 454.083 189.042 452.913C189.042 451.757 189.297 450.731 189.806 449.837C190.316 448.942 191.011 448.254 191.892 447.772C192.773 447.29 193.757 447.049 194.844 447.049C195.932 447.049 196.916 447.29 197.797 447.772C198.678 448.254 199.373 448.942 199.883 449.837C200.392 450.731 200.647 451.757 200.647 452.913C200.647 454.07 200.385 455.095 199.862 455.99C199.339 456.885 198.623 457.58 197.715 458.075C196.82 458.557 195.829 458.798 194.741 458.798ZM194.741 456.754C195.347 456.754 195.911 456.609 196.434 456.32C196.971 456.031 197.405 455.598 197.735 455.019C198.066 454.441 198.231 453.739 198.231 452.913C198.231 452.087 198.073 451.392 197.756 450.828C197.439 450.25 197.019 449.816 196.496 449.527C195.973 449.238 195.409 449.093 194.803 449.093C194.198 449.093 193.633 449.238 193.11 449.527C192.601 449.816 192.195 450.25 191.892 450.828C191.589 451.392 191.437 452.087 191.437 452.913C191.437 454.138 191.747 455.088 192.367 455.763C193 456.424 193.791 456.754 194.741 456.754ZM215.507 447.049C216.402 447.049 217.201 447.235 217.903 447.607C218.618 447.978 219.176 448.529 219.575 449.259C219.988 449.988 220.195 450.869 220.195 451.902V458.612H217.861V452.253C217.861 451.234 217.607 450.456 217.097 449.919C216.588 449.369 215.893 449.093 215.012 449.093C214.131 449.093 213.429 449.369 212.906 449.919C212.396 450.456 212.142 451.234 212.142 452.253V458.612H209.808V452.253C209.808 451.234 209.554 450.456 209.044 449.919C208.535 449.369 207.84 449.093 206.959 449.093C206.078 449.093 205.376 449.369 204.853 449.919C204.343 450.456 204.089 451.234 204.089 452.253V458.612H201.735V447.235H204.089V448.536C204.474 448.068 204.963 447.703 205.555 447.441C206.147 447.18 206.78 447.049 207.454 447.049C208.363 447.049 209.175 447.242 209.891 447.627C210.607 448.013 211.157 448.57 211.543 449.3C211.887 448.612 212.424 448.068 213.153 447.669C213.883 447.256 214.668 447.049 215.507 447.049Z" fill="white"/>
<rect x="73.7571" y="181.232" width="18.3615" height="3.81468" rx="1.90734" transform="rotate(-0.380322 73.7571 181.232)" fill="#4F260F"/>
<rect width="18.3427" height="3.8187" rx="1.90935" transform="matrix(0.962802 0.270207 -0.277061 0.960852 92.8987 281.243)" fill="#4F260F"/>
<rect width="18.3055" height="3.8266" rx="1.9133" transform="matrix(0.881612 0.471974 -0.481825 0.876267 263.587 253.407)" fill="#4F260F"/>
<rect width="18.3055" height="3.8266" rx="1.9133" transform="matrix(0.881612 0.471974 -0.481825 0.876267 243.16 200.268)" fill="#4F260F"/>
<rect width="18.2938" height="3.82907" rx="1.91454" transform="matrix(0.854321 0.519745 -0.529893 0.848065 197.755 129.049)" fill="#4F260F"/>
<rect width="18.1214" height="3.86524" rx="1.93262" transform="matrix(0.0904693 0.995899 -0.996095 0.0882914 179.051 30.8037)" fill="#4F260F"/>
<rect width="18.3603" height="3.81495" rx="1.90748" transform="matrix(-0.996949 0.0780552 -0.0799632 -0.996798 127.739 125.551)" fill="#4F260F"/>
<rect width="18.2834" height="3.83128" rx="1.91564" transform="matrix(-0.829077 -0.559134 0.569382 -0.822073 57.3308 237.717)" fill="#4F260F"/>
<rect width="18.2974" height="3.82831" rx="1.91415" transform="matrix(-0.8561 0.516809 -0.526807 -0.849985 166.38 254.459)" fill="#4F260F"/>
<rect width="18.1422" height="3.86091" rx="1.93046" transform="matrix(0.313871 0.949466 -0.951847 0.306574 188.594 160.27)" fill="#4F260F"/>
<rect width="18.1422" height="3.86091" rx="1.93046" transform="matrix(0.313871 0.949466 -0.951847 0.306574 269.675 104)" fill="#4F260F"/>
<rect width="18.2874" height="3.83043" rx="1.91522" transform="matrix(0.838856 0.544353 -0.554579 0.832131 125.333 202.825)" fill="#4F260F"/>
<rect width="18.3538" height="3.81634" rx="1.90817" transform="matrix(0.982904 -0.184119 0.188728 0.982029 33.74 143.263)" fill="#4F260F"/>
<rect width="18.3615" height="3.81468" rx="1.90734" transform="matrix(0.999958 -0.00917867 0.00924694 0.999957 144.598 79.7178)" fill="#4F260F"/>
<rect width="18.3615" height="3.81468" rx="1.90734" transform="matrix(0.999958 -0.00917867 0.00924694 0.999957 216 236.168)" fill="#4F260F"/>
<rect width="18.3615" height="3.81468" rx="1.90734" transform="matrix(0.999958 -0.00917867 0.00924694 0.999957 282.753 169.557)" fill="#4F260F"/>
<path d="M72.3908 125.169C87.1426 118.252 98.2973 118.756 113.368 115.986L105.293 120.59L81.1444 127.456L72.3908 125.169Z" fill="#642B48"/>
<path d="M84.2038 10.8442C82.5872 3.70094 75.4858 -0.779281 68.3426 0.837381L62.7276 2.10815C55.5843 3.72481 51.1041 10.8262 52.7208 17.9694L76.9452 125.006C77.4841 127.387 79.8512 128.881 82.2323 128.342L105.093 123.168C107.474 122.629 108.967 120.262 108.428 117.881L84.2038 10.8442Z" fill="#FCDD71"/>
<path d="M113.505 116.053C113.505 116.053 102.967 121.858 92.5489 124.216C82.1309 126.574 72.575 124.931 72.575 124.931C72.575 124.931 72.8937 130.491 78.2944 130.894C83.6951 131.298 97.6167 128.11 105.316 125.534C113.016 122.959 113.505 116.053 113.505 116.053Z" fill="#642B48"/>
<path d="M81.8992 6.71387C80.7379 10.6615 74.8411 20.1249 60.5441 26.3975C70.1707 20.3481 74.857 16.0721 81.8992 6.71387Z" stroke="#F3D25E" stroke-width="1.76816" stroke-linecap="round" stroke-linejoin="round"/>
<path d="M88.6177 34.8691C87.4564 38.8168 81.5596 48.2802 67.2626 54.5527C76.8892 48.5033 81.5755 44.2274 88.6177 34.8691Z" stroke="#F3D25E" stroke-width="1.76816" stroke-linecap="round" stroke-linejoin="round"/>
<path d="M95.3433 64.5947C93.7712 67.8733 87.337 75.1669 74.177 78.1125C83.3052 74.515 87.9437 71.5871 95.3433 64.5947Z" stroke="#F3D25E" stroke-width="1.76816" stroke-linecap="round" stroke-linejoin="round"/>
<path d="M58.9819 40.5977C63.0911 40.3812 73.662 36.8338 83.0721 24.3759C74.9597 32.3417 69.7155 35.9116 58.9819 40.5977Z" stroke="#F3D25E" stroke-width="1.76816" stroke-linecap="round" stroke-linejoin="round"/>
<path d="M65.2739 68.1357C69.3831 67.9193 79.954 64.3719 89.3641 51.914C81.2517 59.8798 76.0075 63.4497 65.2739 68.1357Z" stroke="#F3D25E" stroke-width="1.76816" stroke-linecap="round" stroke-linejoin="round"/>
<path d="M77.6394 115.16C82.1838 115.16 93.7 111.846 103.41 98.5933C94.8774 106.945 89.2697 110.594 77.6394 115.16Z" stroke="#F3D25E" stroke-width="1.76816" stroke-linecap="round" stroke-linejoin="round"/>
<path d="M71.1567 95.7139C75.3326 96.4348 86.0438 95.1793 95.4814 84.3895C87.3162 90.8062 82.0214 93.3116 71.1567 95.7139Z" stroke="#F3D25E" stroke-width="1.76816" stroke-linecap="round" stroke-linejoin="round"/>
<path d="M101.385 149.495C82.8298 154.512 73.1699 163.468 57.4877 172.462L68.2687 170.452L95.2467 158.228L101.385 149.495Z" fill="#642B48"/>
<path d="M2.50383 53.44C-0.877522 46.9433 1.64793 38.9356 8.14459 35.5543L18.3984 30.2174C24.895 26.8361 32.9028 29.3615 36.2841 35.8582L97.5266 153.525C98.6537 155.69 97.8119 158.359 95.6463 159.486L69.7082 172.987C67.5427 174.114 64.8734 173.272 63.7463 171.106L2.50383 53.44Z" fill="#FCDD71"/>
<path d="M57.415 172.625C57.415 172.625 71.3291 169.82 82.5073 164.002C93.6855 158.184 101.038 149.42 101.038 149.42C101.038 149.42 104.989 154.67 100.434 159.15C95.878 163.63 80.912 171.371 72.0155 174.921C63.1191 178.47 57.415 172.625 57.415 172.625Z" fill="#642B48"/>
<path d="M2.53149 50.0791C6.58623 52.7486 19.1095 56.7751 36.7645 51.5256C23.4851 53.4161 16.0059 53.1379 2.53149 50.0791Z" stroke="#F3D25E" stroke-width="1.76816" stroke-linecap="round" stroke-linejoin="round"/>
<path d="M17.9429 80.5518C21.9976 83.2212 34.5208 87.2478 52.1759 81.9982C38.8964 83.8888 31.4173 83.6106 17.9429 80.5518Z" stroke="#F3D25E" stroke-width="1.76816" stroke-linecap="round" stroke-linejoin="round"/>
<path d="M34.5452 112.446C38.4598 114.2 49.813 115.863 63.9082 108.485C52.9466 112.203 46.538 113.102 34.5452 112.446Z" stroke="#F3D25E" stroke-width="1.76816" stroke-linecap="round" stroke-linejoin="round"/>
<path d="M48.9951 63.1201C45.13 66.0574 32.9073 70.9207 14.938 66.8757C28.3148 67.8649 35.7581 67.0821 48.9951 63.1201Z" stroke="#F3D25E" stroke-width="1.76816" stroke-linecap="round" stroke-linejoin="round"/>
<path d="M64.3208 92.7139C60.4557 95.6511 48.233 100.514 30.2637 96.4695C43.6405 97.4587 51.0838 96.6759 64.3208 92.7139Z" stroke="#F3D25E" stroke-width="1.76816" stroke-linecap="round" stroke-linejoin="round"/>
<path d="M89.0298 144.483C84.9374 147.947 72.0415 153.741 53.1966 149.209C67.2458 150.226 75.0769 149.237 89.0298 144.483Z" stroke="#F3D25E" stroke-width="1.76816" stroke-linecap="round" stroke-linejoin="round"/>
<path d="M80.0442 122.031C76.8335 125.863 66.2316 132.897 49.509 130.375C61.7525 129.93 68.4299 128.15 80.0442 122.031Z" stroke="#F3D25E" stroke-width="1.76816" stroke-linecap="round" stroke-linejoin="round"/>
<path d="M85.1892 232.572C82.0847 246.029 71.234 255.016 60.9534 252.644C50.6728 250.272 44.8554 237.441 47.9598 223.984C51.0643 210.527 61.915 201.54 72.1956 203.912C82.4762 206.284 88.2936 219.115 85.1892 232.572Z" fill="#642B48"/>
<path d="M82.035 230.599C78.9876 243.809 68.1832 252.595 57.9026 250.223C47.6219 247.851 41.7583 235.22 44.8057 222.011C47.8531 208.801 58.6575 200.015 68.9381 202.387C79.2187 204.758 85.0824 217.389 82.035 230.599Z" fill="#30123A"/>
<path d="M47.5945 230.892C45.3063 221.738 49.2869 216.399 52.338 211.822C55.389 207.246 61.4188 205.283 66.0679 202.669C61.4913 206.483 53.6967 211.059 51.4084 220.213C49.12 229.366 49.8828 235.468 50.6456 240.808C49.12 236.994 49.1885 237.268 47.5945 230.892Z" fill="#5C3A68"/>
<path d="M251.57 249.716C255.291 263.016 250.071 276.102 239.911 278.945C229.75 281.788 218.497 273.311 214.776 260.012C211.054 246.712 216.274 233.626 226.434 230.783C236.595 227.94 247.848 236.417 251.57 249.716Z" fill="#642B48"/>
<path d="M248.087 248.747C251.74 261.802 246.465 274.69 236.304 277.533C226.144 280.376 214.946 272.098 211.293 259.042C207.64 245.987 212.915 233.099 223.076 230.256C233.236 227.413 244.434 235.692 248.087 248.747Z" fill="#30123A"/>
<path d="M217.995 265.502C211.602 258.563 212.538 251.97 213.024 246.491C213.51 241.012 217.863 236.401 220.691 231.879C218.501 237.419 213.851 245.17 216.227 254.301C218.604 263.432 222.196 268.423 225.424 272.745C222.257 270.128 222.449 270.335 217.995 265.502Z" fill="#5C3A68"/>
<path d="M163.735 183.426C150.132 181.042 140.581 170.684 142.402 160.292C144.224 149.9 156.728 143.408 170.331 145.792C183.934 148.176 193.485 158.534 191.663 168.926C189.842 179.318 177.338 185.81 163.735 183.426Z" fill="#642B48"/>
<path d="M162.327 181.595C148.974 179.255 139.626 168.933 141.447 158.541C143.269 148.149 155.57 141.621 168.923 143.962C182.276 146.302 191.625 156.624 189.803 167.016C187.982 177.408 175.68 183.936 162.327 181.595Z" fill="#30123A"/>
<path d="M149.353 149.343C143.819 152.452 144.483 157.578 144.787 161.746C145.092 165.914 148.68 170.643 150.982 174.835C149.239 170.094 145.461 162.97 147.644 157.01C149.827 151.05 152.957 148.502 155.767 146.332C153.042 147.271 153.208 147.178 149.353 149.343Z" fill="#5C3A68"/>
<path d="M285.499 160.077C273.756 167.346 259.735 165.967 254.182 156.997C248.628 148.026 253.645 134.861 265.387 127.591C277.13 120.322 291.151 121.701 296.704 130.672C302.258 139.642 297.241 152.807 285.499 160.077Z" fill="#642B48"/>
<path d="M283.23 159.647C271.704 166.783 257.858 165.296 252.304 156.325C246.75 147.354 251.592 134.297 263.119 127.161C274.645 120.025 288.492 121.513 294.045 130.483C299.599 139.454 294.757 152.511 283.23 159.647Z" fill="#30123A"/>
<path d="M255.616 152.655C251.649 146.83 254.462 142.029 256.524 138.009C258.587 133.988 264.025 131.018 268.006 127.954C264.326 131.841 257.688 137.114 257.241 144.147C256.794 151.181 258.704 155.265 260.466 158.814C258.261 156.538 258.38 156.713 255.616 152.655Z" fill="#5C3A68"/>
<path d="M174.1 50.5591C178.687 63.5855 174.338 76.9863 164.386 80.4905C154.434 83.9948 142.649 76.2755 138.062 63.2491C133.475 50.2227 137.824 36.8219 147.775 33.3177C157.727 29.8134 169.513 37.5327 174.1 50.5591Z" fill="#642B48"/>
<path d="M170.823 49.3365C175.326 62.1236 170.908 75.3303 160.957 78.8345C151.005 82.3388 139.287 74.8136 134.785 62.0265C130.282 49.2395 134.699 36.0328 144.651 32.5285C154.603 29.0243 166.32 36.5495 170.823 49.3365Z" fill="#30123A"/>
<path d="M137.204 61.8754C132.984 53.437 135.079 48.0565 136.141 44.8675C137.204 41.6786 141.988 34.2375 146.24 34.769C141.988 37.4265 136.673 46.9935 137.204 53.9029C137.736 60.8124 139.862 64.0015 141.988 69.3164C138.268 64.0024 138.268 64.0014 137.205 61.8766L137.204 61.8754Z" fill="#5C3A68"/>
</g>
<defs>
<clipPath id="clip0_122_6492">
<rect width="333" height="686" fill="white"/>
</clipPath>
<clipPath id="clip1_122_6492">
<rect width="332" height="323" fill="white" transform="translate(-7 -4)"/>
</clipPath>
</defs>
</svg>
