<svg width="333" height="686" viewBox="0 0 333 686" fill="none" xmlns="http://www.w3.org/2000/svg">
<ellipse rx="31.7239" ry="29.9669" transform="matrix(-0.904674 0.426104 -0.318636 -0.947877 65.2485 229.811)" fill="#A71C1C"/>
<path d="M34.6188 240.948C29.4417 225.547 37.8517 207.072 53.477 199.712C69.1022 192.353 85.9365 198.938 91.1136 214.339C96.2907 229.74 87.8807 248.215 72.2554 255.574C56.6302 262.934 39.7959 256.349 34.6188 240.948Z" fill="#D82B2B" stroke="#A71C1C"/>
<path d="M64.9231 200.507C65.1357 202.102 63.8899 206.279 63.2404 208.168L67.3145 208.301L66.4731 207.061C65.6317 205.821 64.6573 198.515 64.9231 200.507Z" fill="#D75959"/>
<path d="M73.4383 201.245C72.9752 203.248 69.2015 207.592 67.3726 209.513L73.0937 211.716L72.494 209.819C71.8943 207.922 74.0172 198.741 73.4383 201.245Z" fill="#D75959"/>
<path d="M83.5834 209.214C81.8175 210.267 76.0704 210.552 73.4176 210.563L75.7902 216.216L76.7436 214.469C77.6971 212.723 85.7907 207.898 83.5834 209.214Z" fill="#D75959"/>
<path d="M84.9969 217.696C83.2311 218.748 77.484 219.033 74.8312 219.044L77.2038 224.697L78.1572 222.951C79.1107 221.205 87.2043 216.38 84.9969 217.696Z" fill="#D75959"/>
<path d="M87.3357 233.659C85.3743 233.043 81.3344 228.945 79.5597 226.974L76.9228 232.508L78.8604 232.056C80.7981 231.605 89.7873 234.429 87.3357 233.659Z" fill="#D75959"/>
<path d="M78.908 244.049C77.4431 242.465 75.9892 236.545 75.4453 233.784L69.9591 237.633L71.9923 238.201C74.0256 238.77 80.739 246.028 78.908 244.049Z" fill="#D75959"/>
<path d="M69.7567 252.49C69.0646 250.446 70.1496 244.448 70.7786 241.705L64.1998 242.984L65.8249 244.331C67.45 245.679 70.6218 255.044 69.7567 252.49Z" fill="#D75959"/>
<path d="M58.4474 252.49C57.7553 250.446 58.8403 244.448 59.4693 241.705L52.8905 242.984L54.5156 244.331C56.1407 245.679 59.3125 255.044 58.4474 252.49Z" fill="#D75959"/>
<path d="M43.5423 247.552C44.9774 245.941 50.7292 243.923 53.4257 243.115L49.065 238.026L48.6956 240.104C48.326 242.183 41.7484 249.565 43.5423 247.552Z" fill="#D75959"/>
<path d="M37.8384 230.515C39.9954 230.481 45.3748 233.348 47.7948 234.786L48.5881 228.131L46.8083 229.266C45.0283 230.401 35.1422 230.558 37.8384 230.515Z" fill="#D75959"/>
<path d="M39.2525 220.619C41.4095 220.585 46.7888 223.452 49.2089 224.89L50.0021 218.235L48.2223 219.37C46.4424 220.505 36.5562 220.662 39.2525 220.619Z" fill="#D75959"/>
<path d="M46.6678 205.885C48.0655 207.529 49.2722 213.504 49.7009 216.286L55.3423 212.667L53.3345 212.015C51.3266 211.363 44.9206 203.831 46.6678 205.885Z" fill="#D75959"/>
<path d="M53.7364 204.472C55.1341 206.115 56.3408 212.09 56.7695 214.872L62.4109 211.254L60.4031 210.602C58.3952 209.949 51.9892 202.418 53.7364 204.472Z" fill="#D75959"/>
<path d="M77.918 233.888C73.1461 243.722 59.3822 249.136 54.016 244.288C48.6498 239.439 42.6228 228.91 47.3948 219.076C57.1316 204.098 62.868 204.587 71.2968 208.677C77.6294 213.994 82.5772 226.717 77.918 233.888Z" fill="#D75959"/>
<path d="M72.9494 232.581C71.9751 239.409 62.7903 242.094 57.2564 239.409C51.4773 240.146 49.7762 229.313 52.9092 222.856C57.8387 218.235 59.2522 211.166 68.4409 213.287C73.9748 215.972 76.0824 226.125 72.9494 232.581Z" fill="#DB4A4A"/>
<path d="M69.4431 229.193C67.4263 233.349 64.2002 236.612 59.3411 233.588C55.7787 231.859 54.5259 227.089 56.5427 222.933C58.5456 216.114 63.0824 216.809 66.6447 218.538C70.2071 220.266 69.4431 225.303 69.4431 229.193Z" fill="#DD5C5C"/>
<path d="M62.7863 229.544C63.3517 224.455 65.3779 225.538 66.3204 226.717L63.1397 226.363M59.959 226.01L63.1397 226.363M63.1397 226.363L64.1999 222.476M63.1397 226.363L65.6136 229.544L63.1397 226.717L59.959 228.13" stroke="#DB4A4A" stroke-linecap="round" stroke-linejoin="round"/>
<ellipse rx="26.2756" ry="24.8204" transform="matrix(-0.972509 0.232864 -0.118849 -0.992912 134.014 90.045)" fill="#A71C1C"/>
<path d="M107.381 93.887C105.788 80.5767 115.687 67.0581 129.557 63.7368C143.428 60.4155 155.922 68.5723 157.515 81.8826C159.108 95.1929 149.209 108.712 135.338 112.033C121.468 115.354 108.974 107.197 107.381 93.887Z" fill="#D82B2B" stroke="#A71C1C"/>
<path d="M138.695 66.2274C138.598 67.556 136.883 70.7332 136.038 72.1558L139.319 72.9508L138.846 71.8035C138.373 70.656 138.816 64.5666 138.695 66.2274Z" fill="#D75959"/>
<path d="M145.475 68.2623C144.762 69.8084 140.969 72.6941 139.161 73.9436L143.429 76.6947L143.263 75.0552C143.097 73.4157 146.367 66.3297 145.475 68.2623Z" fill="#D75959"/>
<path d="M152.357 76.436C150.747 76.9917 146.039 76.2532 143.886 75.8144L144.856 80.7984L145.924 79.5433C146.992 78.2882 154.369 75.7413 152.357 76.436Z" fill="#D75959"/>
<path d="M152.072 83.5522C150.463 84.1079 145.754 83.3694 143.601 82.9306L144.571 87.9146L145.639 86.6595C146.707 85.4044 154.084 82.8575 152.072 83.5522Z" fill="#D75959"/>
<path d="M151.275 96.8916C149.789 96.061 147.204 92.0567 146.098 90.1584L143.026 94.201L144.673 94.1618C146.32 94.1226 153.133 97.93 151.275 96.8916Z" fill="#D75959"/>
<path d="M142.688 103.894C141.767 102.363 141.587 97.3172 141.612 94.9859L136.514 97.1818L138.067 97.9856C139.62 98.7895 143.839 105.808 142.688 103.894Z" fill="#D75959"/>
<path d="M133.843 109.195C133.626 107.421 135.518 102.74 136.491 100.622L130.941 100.549L132.031 101.916C133.122 103.283 134.113 111.412 133.843 109.195Z" fill="#D75959"/>
<path d="M124.672 107.287C124.456 105.513 126.348 100.832 127.321 98.7135L121.77 98.6408L122.861 100.008C123.951 101.375 124.943 109.504 124.672 107.287Z" fill="#D75959"/>
<path d="M113.419 100.768C114.855 99.7038 119.859 99.0379 122.182 98.838L119.505 93.9753L118.855 95.5984C118.204 97.2215 111.625 102.098 113.419 100.768Z" fill="#D75959"/>
<path d="M111.669 85.9904C113.424 86.3266 117.302 89.5589 119.022 91.1331L120.788 85.8706L119.153 86.4908C117.518 87.1111 109.475 85.5702 111.669 85.9904Z" fill="#D75959"/>
<path d="M114.485 78.2048C116.24 78.5409 120.118 81.7733 121.838 83.3475L123.604 78.0849L121.969 78.7052C120.335 79.3255 112.291 77.7846 114.485 78.2048Z" fill="#D75959"/>
<path d="M122.984 67.5078C123.84 69.0761 123.811 74.1247 123.689 76.453L128.874 74.4708L127.356 73.6032C125.838 72.7355 121.914 65.5473 122.984 67.5078Z" fill="#D75959"/>
<path d="M128.955 67.5546C129.811 69.123 129.781 74.1716 129.659 76.4999L134.844 74.5177L133.326 73.6501C131.808 72.7824 127.884 65.5942 128.955 67.5546Z" fill="#D75959"/>
<path d="M143.6 95.4887C138.071 102.657 125.996 104.725 122.463 99.8881C118.93 95.0513 115.819 85.496 121.348 78.3273C131.771 67.8248 136.34 69.1889 142.485 73.9279C146.723 79.3077 148.588 90.4593 143.6 95.4887Z" fill="#D75959"/>
<path d="M139.791 93.5903C137.849 98.9624 129.948 99.5902 125.914 96.4788C121.103 96.1013 121.552 87.0296 125.182 82.323C129.959 79.4069 132.298 73.914 139.391 77.1839C143.425 80.2953 143.421 88.8837 139.791 93.5903Z" fill="#DB4A4A"/>
<path d="M137.52 90.2508C135.183 93.2806 132.016 95.3822 128.586 92.1102C125.989 90.1073 125.778 86.0274 128.115 82.9976C130.89 77.8066 134.451 79.1353 137.048 81.1382C139.645 83.1411 138.176 87.0965 137.52 90.2508Z" fill="#DD5C5C"/>
<path d="M132.063 89.4122C133.38 85.3809 134.84 86.6016 135.405 87.7159L132.886 86.8927M130.366 86.0694L132.886 86.8927M132.886 86.8927L134.402 83.9192M132.886 86.8927L134.355 89.8893L132.826 87.1792L130.009 87.7888" stroke="#DB4A4A" stroke-linecap="round" stroke-linejoin="round"/>
<ellipse rx="21.5809" ry="20.3857" transform="matrix(-0.691429 0.722444 -0.637646 -0.770329 210.302 263.913)" fill="#A71C1C"/>
<path d="M193.684 278.348C186.698 269.908 187.511 256.231 195.58 247.8C203.648 239.369 215.849 239.449 222.836 247.888C229.822 256.328 229.009 270.006 220.94 278.437C212.871 286.868 200.67 286.788 193.684 278.348Z" fill="#D82B2B" stroke="#A71C1C"/>
<path d="M202.939 245.386C203.463 246.346 203.692 249.303 203.741 250.661L206.36 249.751L205.523 249.169C204.686 248.587 202.283 244.186 202.939 245.386Z" fill="#D75959"/>
<path d="M208.526 243.775C208.721 245.16 207.386 248.84 206.694 250.506L210.864 250.508L210.02 249.449C209.176 248.391 208.282 242.044 208.526 243.775Z" fill="#D75959"/>
<path d="M216.913 246.358C216.049 247.458 212.47 249.042 210.788 249.697L213.675 252.706L213.854 251.365C214.033 250.023 217.993 244.983 216.913 246.358Z" fill="#D75959"/>
<path d="M219.882 251.398C219.018 252.498 215.438 254.082 213.757 254.737L216.643 257.746L216.822 256.405C217.001 255.063 220.962 250.023 219.882 251.398Z" fill="#D75959"/>
<path d="M225.265 260.963C223.869 261.05 220.303 259.435 218.695 258.617L218.372 262.774L219.492 262.014C220.612 261.255 227.01 260.853 225.265 260.963Z" fill="#D75959"/>
<path d="M222.451 269.617C221.134 268.969 218.765 265.566 217.746 263.945L215.202 267.729L216.632 267.593C218.062 267.457 224.097 270.427 222.451 269.617Z" fill="#D75959"/>
<path d="M218.702 277.211C217.763 276.083 216.988 272.009 216.717 270.114L212.852 272.532L214.213 272.991C215.574 273.45 219.875 278.621 218.702 277.211Z" fill="#D75959"/>
<path d="M211.521 279.973C210.582 278.844 209.806 274.771 209.536 272.875L205.671 275.294L207.032 275.753C208.393 276.212 212.694 281.383 211.521 279.973Z" fill="#D75959"/>
<path d="M200.851 280.477C201.369 279.104 204.528 276.418 206.043 275.247L202.032 273.08L202.305 274.49C202.578 275.9 200.204 282.194 200.851 280.477Z" fill="#D75959"/>
<path d="M193.07 271.053C194.431 270.504 198.546 271.011 200.434 271.333L199.313 266.914L198.46 268.069C197.607 269.225 191.368 271.739 193.07 271.053Z" fill="#D75959"/>
<path d="M191.551 264.424C192.912 263.876 197.028 264.383 198.915 264.705L197.794 260.285L196.941 261.441C196.088 262.596 189.849 265.11 191.551 264.424Z" fill="#D75959"/>
<path d="M192.661 253.259C193.95 253.961 196.175 257.46 197.127 259.121L199.825 255.447L198.391 255.523C196.957 255.599 191.05 252.381 192.661 253.259Z" fill="#D75959"/>
<path d="M196.804 250.635C198.093 251.337 200.318 254.836 201.27 256.498L203.968 252.823L202.534 252.899C201.1 252.975 195.193 249.758 196.804 250.635Z" fill="#D75959"/>
<path d="M219.341 263.408C218.713 270.817 211.295 277.615 206.704 275.847C202.113 274.079 195.715 268.866 196.344 261.457C198.869 249.569 202.63 248.478 208.981 249.017C214.3 250.847 220.548 257.717 219.341 263.408Z" fill="#D75959"/>
<path d="M215.867 263.792C216.916 268.365 211.74 272.312 207.571 271.959C204.081 273.838 200.356 267.375 200.768 262.51C202.77 258.372 201.941 253.539 208.293 252.642C212.463 252.995 216.28 258.927 215.867 263.792Z" fill="#DB4A4A"/>
<path d="M212.814 262.496C212.548 265.627 211.296 268.487 207.473 267.753C204.789 267.526 202.828 264.803 203.094 261.671C202.701 256.853 205.751 256.186 208.435 256.414C211.119 256.641 211.864 260.026 212.814 262.496Z" fill="#DD5C5C"/>
<path d="M208.673 264.344C207.789 260.975 209.34 261.168 210.226 261.686L208.12 262.239M206.015 262.791L208.12 262.239M208.12 262.239L207.844 259.511M208.12 262.239L210.468 263.654L208.207 262.463L206.532 264.137" stroke="#DB4A4A" stroke-linecap="round" stroke-linejoin="round"/>
<ellipse rx="26.2655" ry="24.8109" transform="matrix(0.904674 0.426104 0.318636 -0.947877 252.254 142.864)" fill="#A71C1C"/>
<path d="M277.536 152.048C281.806 139.346 274.871 124.1 261.973 118.025C249.075 111.95 235.187 117.389 230.917 130.09C226.647 142.792 233.582 158.038 246.48 164.113C259.378 170.188 273.266 164.75 277.536 152.048Z" fill="#D82B2B" stroke="#A71C1C"/>
<path d="M252.523 118.602C252.347 119.922 253.379 123.38 253.917 124.945L250.543 125.055L251.24 124.028C251.937 123.001 252.743 116.952 252.523 118.602Z" fill="#D75959"/>
<path d="M245.473 119.213C245.857 120.871 248.981 124.468 250.496 126.059L245.759 127.882L246.255 126.311C246.752 124.741 244.994 117.14 245.473 119.213Z" fill="#D75959"/>
<path d="M237.074 125.811C238.536 126.682 243.294 126.918 245.491 126.927L243.526 131.607L242.737 130.162C241.947 128.716 235.246 124.721 237.074 125.811Z" fill="#D75959"/>
<path d="M235.904 132.833C237.366 133.705 242.124 133.941 244.32 133.95L242.356 138.63L241.566 137.184C240.777 135.738 234.076 131.743 235.904 132.833Z" fill="#D75959"/>
<path d="M233.967 146.049C235.591 145.539 238.936 142.147 240.405 140.514L242.588 145.096L240.984 144.722C239.38 144.348 231.937 146.687 233.967 146.049Z" fill="#D75959"/>
<path d="M240.945 154.651C242.158 153.34 243.361 148.439 243.812 146.152L248.354 149.34L246.67 149.81C244.987 150.281 239.429 156.291 240.945 154.651Z" fill="#D75959"/>
<path d="M248.522 161.64C249.095 159.948 248.196 154.982 247.675 152.711L253.122 153.77L251.777 154.885C250.431 156.001 247.805 163.755 248.522 161.64Z" fill="#D75959"/>
<path d="M257.885 161.64C258.458 159.948 257.56 154.982 257.039 152.711L262.486 153.77L261.14 154.885C259.795 156.001 257.169 163.755 257.885 161.64Z" fill="#D75959"/>
<path d="M270.226 157.552C269.037 156.218 264.275 154.548 262.043 153.879L265.653 149.665L265.959 151.386C266.265 153.107 271.711 159.219 270.226 157.552Z" fill="#D75959"/>
<path d="M274.948 143.447C273.162 143.418 268.708 145.792 266.705 146.982L266.048 141.472L267.522 142.412C268.995 143.352 277.18 143.482 274.948 143.447Z" fill="#D75959"/>
<path d="M273.777 135.254C271.991 135.225 267.538 137.599 265.534 138.789L264.877 133.279L266.351 134.219C267.824 135.159 276.01 135.289 273.777 135.254Z" fill="#D75959"/>
<path d="M267.638 123.055C266.48 124.415 265.481 129.362 265.126 131.665L260.456 128.67L262.118 128.13C263.78 127.59 269.084 121.354 267.638 123.055Z" fill="#D75959"/>
<path d="M261.785 121.884C260.628 123.245 259.629 128.192 259.274 130.495L254.603 127.499L256.266 126.959C257.928 126.419 263.232 120.184 261.785 121.884Z" fill="#D75959"/>
<path d="M241.764 146.24C245.715 154.381 257.111 158.864 261.554 154.85C265.997 150.836 270.987 142.118 267.036 133.976C258.974 121.575 254.225 121.98 247.246 125.366C242.003 129.768 237.907 140.302 241.764 146.24Z" fill="#D75959"/>
<path d="M245.878 145.158C246.685 150.811 254.289 153.034 258.871 150.811C263.656 151.421 265.064 142.451 262.47 137.106C258.389 133.279 257.219 127.427 249.611 129.183C245.029 131.406 243.284 139.812 245.878 145.158Z" fill="#DB4A4A"/>
<path d="M248.781 142.352C250.451 145.793 253.122 148.495 257.145 145.991C260.095 144.56 261.132 140.61 259.462 137.169C257.804 131.524 254.048 132.099 251.098 133.53C248.149 134.961 248.781 139.131 248.781 142.352Z" fill="#DD5C5C"/>
<path d="M254.293 142.643C253.825 138.429 252.147 139.326 251.367 140.302L254 140.009M256.634 139.717L254 140.009M254 140.009L253.122 136.791M254 140.009L251.952 142.643L254 140.302L256.634 141.472" stroke="#DB4A4A" stroke-linecap="round" stroke-linejoin="round"/>
<ellipse rx="16.0021" ry="15.1159" transform="matrix(0.904674 0.426104 0.318636 -0.947877 300.18 232.161)" fill="#A71C1C"/>
<path d="M315.406 237.673C317.969 230.047 313.809 220.873 306.039 217.214C298.269 213.554 289.921 216.836 287.357 224.462C284.794 232.089 288.954 241.262 296.724 244.922C304.494 248.581 312.842 245.3 315.406 237.673Z" fill="#D82B2B" stroke="#A71C1C"/>
<path d="M300.344 217.38C300.237 218.184 300.865 220.291 301.193 221.244L299.138 221.311L299.562 220.686C299.987 220.06 300.478 216.374 300.344 217.38Z" fill="#D75959"/>
<path d="M296.049 217.752C296.283 218.762 298.186 220.953 299.109 221.923L296.223 223.034L296.525 222.077C296.828 221.12 295.757 216.489 296.049 217.752Z" fill="#D75959"/>
<path d="M290.932 221.772C291.822 222.303 294.721 222.446 296.059 222.452L294.863 225.303L294.382 224.422C293.901 223.542 289.818 221.108 290.932 221.772Z" fill="#D75959"/>
<path d="M290.218 226.05C291.109 226.581 294.008 226.725 295.346 226.73L294.149 229.582L293.669 228.701C293.188 227.82 289.105 225.386 290.218 226.05Z" fill="#D75959"/>
<path d="M289.039 234.102C290.028 233.791 292.066 231.724 292.961 230.73L294.291 233.521L293.314 233.293C292.337 233.066 287.802 234.49 289.039 234.102Z" fill="#D75959"/>
<path d="M293.29 239.343C294.029 238.544 294.762 235.558 295.037 234.165L297.804 236.106L296.778 236.393C295.753 236.68 292.366 240.341 293.29 239.343Z" fill="#D75959"/>
<path d="M297.906 243.601C298.255 242.57 297.708 239.544 297.39 238.161L300.709 238.806L299.889 239.486C299.069 240.165 297.469 244.889 297.906 243.601Z" fill="#D75959"/>
<path d="M303.611 243.601C303.96 242.57 303.412 239.544 303.095 238.161L306.414 238.806L305.594 239.486C304.774 240.165 303.174 244.889 303.611 243.601Z" fill="#D75959"/>
<path d="M311.129 241.11C310.405 240.297 307.504 239.279 306.144 238.872L308.343 236.305L308.53 237.353C308.716 238.402 312.034 242.125 311.129 241.11Z" fill="#D75959"/>
<path d="M314.006 232.516C312.918 232.499 310.205 233.945 308.984 234.67L308.584 231.313L309.482 231.886C310.379 232.459 315.366 232.538 314.006 232.516Z" fill="#D75959"/>
<path d="M313.293 227.525C312.205 227.508 309.491 228.954 308.271 229.679L307.87 226.322L308.768 226.895C309.666 227.467 314.653 227.547 313.293 227.525Z" fill="#D75959"/>
<path d="M309.552 220.092C308.847 220.921 308.238 223.935 308.022 225.338L305.177 223.513L306.189 223.184C307.202 222.855 310.434 219.056 309.552 220.092Z" fill="#D75959"/>
<path d="M305.987 219.379C305.282 220.208 304.673 223.222 304.457 224.625L301.611 222.8L302.624 222.471C303.637 222.142 306.868 218.343 305.987 219.379Z" fill="#D75959"/>
<path d="M293.789 234.218C296.196 239.178 303.139 241.909 305.846 239.463C308.552 237.018 311.593 231.707 309.186 226.746C304.274 219.191 301.381 219.438 297.129 221.501C293.935 224.183 291.439 230.6 293.789 234.218Z" fill="#D75959"/>
<path d="M296.296 233.559C296.787 237.003 301.42 238.357 304.211 237.003C307.126 237.374 307.985 231.91 306.404 228.653C303.918 226.322 303.205 222.757 298.57 223.826C295.778 225.181 294.715 230.302 296.296 233.559Z" fill="#DB4A4A"/>
<path d="M298.064 231.849C299.082 233.946 300.709 235.592 303.16 234.066C304.957 233.194 305.589 230.788 304.571 228.692C303.561 225.252 301.273 225.603 299.476 226.475C297.679 227.347 298.064 229.887 298.064 231.849Z" fill="#DD5C5C"/>
<path d="M301.422 232.026C301.137 229.459 300.115 230.006 299.639 230.6L301.244 230.422M302.848 230.244L301.244 230.422M301.244 230.422L300.709 228.461M301.244 230.422L299.996 232.026L301.244 230.6L302.848 231.313" stroke="#DB4A4A" stroke-linecap="round" stroke-linejoin="round"/>
<path d="M200.504 184.661C198.302 174.445 187.57 166.98 176.487 168.053C165.403 169.125 158.263 178.319 160.466 188.535C162.669 198.751 173.4 206.216 184.484 205.143C195.567 204.071 202.707 194.877 200.504 184.661Z" fill="#D82B2B" stroke="#A71C1C"/>
<path d="M170.322 172.128C170.733 173.089 172.816 175.008 173.807 175.847L171.576 177.274L171.634 176.303C171.692 175.331 169.809 170.927 170.322 172.128Z" fill="#D75959"/>
<path d="M165.812 175.368C166.736 176.333 170.286 177.505 171.946 177.97L169.483 181.101L169.188 179.842C168.892 178.584 164.657 174.162 165.812 175.368Z" fill="#D75959"/>
<path d="M162.794 183.189C164.13 183.19 167.434 181.44 168.919 180.565L169.472 184.51L168.359 183.851C167.247 183.193 161.124 183.187 162.794 183.189Z" fill="#D75959"/>
<path d="M164.822 188.395C166.158 188.396 169.462 186.646 170.947 185.771L171.5 189.716L170.387 189.057C169.275 188.399 163.153 188.393 164.822 188.395Z" fill="#D75959"/>
<path d="M168.819 198.086C169.71 197.09 170.605 193.46 170.941 191.769L174.252 193.984L173.02 194.375C171.787 194.767 167.706 199.33 168.819 198.086Z" fill="#D75959"/>
<path d="M176.977 201.088C177.268 199.717 176.114 195.928 175.5 194.205L179.843 194.533L178.896 195.525C177.949 196.518 176.612 202.802 176.977 201.088Z" fill="#D75959"/>
<path d="M184.891 202.762C184.599 201.391 182.001 198.402 180.738 197.078L184.837 195.607L184.377 196.9C183.917 198.192 185.257 204.475 184.891 202.762Z" fill="#D75959"/>
<path d="M191.206 199.005C190.914 197.634 188.316 194.645 187.053 193.322L191.152 191.851L190.692 193.143C190.232 194.435 191.572 200.718 191.206 199.005Z" fill="#D75959"/>
<path d="M197.889 191.296C196.553 190.873 192.671 191.657 190.896 192.102L191.641 187.811L192.538 188.849C193.434 189.887 199.56 191.824 197.889 191.296Z" fill="#D75959"/>
<path d="M195.415 179.888C194.199 180.585 192.148 183.973 191.274 185.58L188.62 182.127L189.991 182.17C191.362 182.212 196.935 179.016 195.415 179.888Z" fill="#D75959"/>
<path d="M191.338 174.831C190.122 175.529 188.071 178.917 187.197 180.523L184.543 177.071L185.914 177.113C187.285 177.156 192.858 173.96 191.338 174.831Z" fill="#D75959"/>
<path d="M182.303 169.067C182.068 170.448 183.379 174.186 184.064 175.882L179.712 175.735L180.616 174.704C181.521 173.673 182.596 167.339 182.303 169.067Z" fill="#D75959"/>
<path d="M177.886 170.626C177.651 172.008 178.962 175.745 179.647 177.441L175.295 177.294L176.199 176.263C177.104 175.232 178.179 168.898 177.886 170.626Z" fill="#D75959"/>
<path d="M174.155 195.086C180.086 198.992 189.57 197.443 190.956 192.953C192.342 188.463 192.21 180.581 186.279 176.675C175.866 171.545 172.825 173.723 169.477 178.808C167.707 183.88 169.17 192.628 174.155 195.086Z" fill="#D75959"/>
<path d="M176.495 192.705C179.307 196.194 185.328 194.642 187.526 191.304C190.998 189.796 188.349 183.182 184.455 180.617C180.167 179.674 177.03 176.196 172.603 180.433C170.405 183.771 172.601 190.14 176.495 192.705Z" fill="#DB4A4A"/>
<path d="M177.327 189.648C179.834 191.299 182.72 192.049 184.428 188.747C185.843 186.598 184.958 183.518 182.451 181.867C179.068 178.725 176.765 180.62 175.35 182.768C173.935 184.917 176.035 187.476 177.327 189.648Z" fill="#DD5C5C"/>
<path d="M181.161 187.633C179.155 184.979 178.383 186.257 178.248 187.228L179.907 185.974M181.566 184.72L179.907 185.974M179.907 185.974L178.024 184.155M179.907 185.974L179.582 188.572L180.024 186.171L182.27 185.904" stroke="#DB4A4A" stroke-linecap="round" stroke-linejoin="round"/>
</svg>
