<svg width="333" height="686" viewBox="0 0 333 686" fill="none" xmlns="http://www.w3.org/2000/svg">
<path d="M73.0205 484.843C72.1997 484.081 72.165 482.793 72.9436 481.987L75.9335 478.894C76.7053 478.096 77.9797 478.079 78.7723 478.857L81.9744 481.999C82.9137 482.921 82.7221 484.483 81.5878 485.15L77.8297 487.362C77.0679 487.81 76.1022 487.705 75.4545 487.103L73.0205 484.843Z" fill="#A1BE1C"/>
<path d="M99.6488 485.141C100.097 484.114 101.301 483.656 102.318 484.124L104.232 485.005C105.24 485.47 105.678 486.667 105.205 487.672L104.316 489.567C103.756 490.758 102.218 491.094 101.214 490.244L99.5811 488.863C98.9063 488.292 98.6862 487.346 99.0398 486.536L99.6488 485.141Z" fill="#A1BE1C"/>
<path d="M146.288 453.305C147.21 453.941 147.429 455.21 146.775 456.12L144.262 459.611C143.613 460.512 142.354 460.712 141.458 460.057L137.837 457.409C136.774 456.632 136.739 455.058 137.765 454.234L141.166 451.505C141.855 450.952 142.826 450.917 143.553 451.419L146.288 453.305Z" fill="#A1BE1C"/>
<path d="M170.803 471.612C171.178 470.556 170.613 469.398 169.55 469.045L167.805 468.464C166.751 468.113 165.614 468.688 165.271 469.744L164.715 471.457C164.309 472.709 165.201 474.005 166.516 474.072L168.381 474.167C169.263 474.212 170.071 473.672 170.367 472.839L170.803 471.612Z" fill="#A1BE1C"/>
<path d="M286.893 445.907C287.268 444.851 286.703 443.693 285.641 443.339L283.896 442.759C282.842 442.408 281.704 442.983 281.362 444.039L280.806 445.752C280.399 447.004 281.292 448.3 282.606 448.367L284.471 448.462C285.354 448.507 286.162 447.967 286.457 447.134L286.893 445.907Z" fill="#A1BE1C"/>
<path d="M214.177 474.743C213.78 475.791 212.6 476.308 211.561 475.89L204.166 472.917C203.136 472.503 202.641 471.329 203.063 470.302L206.287 462.453C206.787 461.236 208.306 460.825 209.352 461.624L215.765 466.528C216.467 467.065 216.733 467.999 216.42 468.825L214.177 474.743Z" fill="#A1BE1C"/>
<path d="M244.753 446.516C245.128 445.46 244.563 444.302 243.5 443.949L239.418 442.59C238.365 442.239 237.227 442.814 236.884 443.87L235.5 448.137C235.093 449.389 235.986 450.685 237.3 450.752L241.655 450.974C242.538 451.019 243.345 450.479 243.641 449.646L244.753 446.516Z" fill="#A1BE1C"/>
<path d="M261.643 474.237C261.268 475.293 261.833 476.45 262.895 476.804L273.002 480.169C274.056 480.519 275.194 479.945 275.536 478.888L279.059 468.036C279.465 466.784 278.572 465.488 277.258 465.421L266.484 464.873C265.601 464.828 264.793 465.368 264.497 466.201L261.643 474.237Z" fill="#A1BE1C"/>
<path d="M139.053 495.331C138.678 496.387 139.243 497.545 140.306 497.899L147.679 500.353C148.733 500.704 149.87 500.129 150.213 499.073L152.765 491.209C153.171 489.957 152.279 488.661 150.964 488.594L143.103 488.194C142.221 488.149 141.413 488.689 141.117 489.522L139.053 495.331Z" fill="#A1BE1C"/>
<path d="M65.9912 451.76C64.8721 451.711 63.9308 452.59 63.904 453.71L63.718 461.478C63.6914 462.588 64.5743 463.508 65.6846 463.526L73.9512 463.662C75.2671 463.683 76.2448 462.45 75.9236 461.174L74.0023 453.541C73.7866 452.683 73.0337 452.07 72.1507 452.031L65.9912 451.76Z" fill="#A1BE1C"/>
</svg>
