<svg width="333" height="686" viewBox="0 0 333 686" fill="none" xmlns="http://www.w3.org/2000/svg">
<ellipse rx="31.7239" ry="29.9669" transform="matrix(-0.949411 -0.314036 0.421712 -0.90673 63.1725 212.58)" fill="#B47512"/>
<ellipse rx="31.7239" ry="29.9669" transform="matrix(-0.949411 -0.314036 0.421712 -0.90673 60.3566 210.567)" fill="#A1BE1C" stroke="#B47512" stroke-width="2"/>
<path d="M73.6366 198.322C72.9587 199.257 70.2434 200.817 68.9704 201.48L71.0268 203.564L71.2019 202.502C71.377 201.44 74.484 197.152 73.6366 198.322Z" fill="#CCD45C"/>
<path d="M77.7068 202.918C76.4747 203.733 72.3604 204.128 70.4572 204.224L72.3478 208.202L72.9738 206.917C73.5999 205.632 79.2469 201.901 77.7068 202.918Z" fill="#CCD45C"/>
<path d="M79.0487 212.088C77.6082 211.762 74.4738 209.068 73.0866 207.761L71.5262 211.879L72.8866 211.441C74.2471 211.003 80.8494 212.494 79.0487 212.088Z" fill="#CCD45C"/>
<path d="M75.59 217.205C74.1495 216.88 71.015 214.185 69.6279 212.879L68.0675 216.996L69.4279 216.558C70.7883 216.121 77.3907 217.611 75.59 217.205Z" fill="#CCD45C"/>
<path d="M68.9112 226.676C68.1945 225.385 68.1172 221.252 68.1682 219.347L64.0571 220.925L65.2897 221.649C66.5224 222.372 69.8072 228.29 68.9112 226.676Z" fill="#CCD45C"/>
<path d="M59.3823 227.919C59.4028 226.369 61.5737 222.567 62.6567 220.859L57.8949 220.15L58.6728 221.452C59.4507 222.754 59.3567 229.856 59.3823 227.919Z" fill="#CCD45C"/>
<path d="M50.4404 227.788C51.0906 226.382 54.6229 223.794 56.3078 222.676L52.2484 220.088L52.4282 221.594C52.608 223.1 49.6276 229.547 50.4404 227.788Z" fill="#CCD45C"/>
<path d="M44.5495 222.194C45.1998 220.787 48.7321 218.2 50.4169 217.082L46.3575 214.494L46.5374 216C46.7172 217.506 43.7367 223.952 44.5495 222.194Z" fill="#CCD45C"/>
<path d="M39.229 212.249C40.7733 212.12 44.7674 213.914 46.5714 214.827L46.8177 210.019L45.5971 210.919C44.3764 211.819 37.2987 212.41 39.229 212.249Z" fill="#CCD45C"/>
<path d="M44.6857 200.553C45.8262 201.603 47.2099 205.757 47.7591 207.703L51.4643 204.629L49.9757 204.34C48.487 204.051 43.2601 199.242 44.6857 200.553Z" fill="#CCD45C"/>
<path d="M50.3168 196.099C51.4573 197.148 52.841 201.302 53.3903 203.248L57.0955 200.174L55.6068 199.885C54.1181 199.596 48.8912 194.787 50.3168 196.099Z" fill="#CCD45C"/>
<path d="M61.4681 192.093C61.3832 193.64 59.0561 197.349 57.9032 199.01L62.6314 199.916L61.9082 198.583C61.185 197.25 61.5741 190.159 61.4681 192.093Z" fill="#CCD45C"/>
<path d="M65.8492 194.853C65.7643 196.4 63.4372 200.109 62.2843 201.77L67.0125 202.676L66.2893 201.344C65.5661 200.011 65.9552 192.919 65.8492 194.853Z" fill="#CCD45C"/>
<path d="M70.8068 195.652C70.3356 196.707 67.9985 198.791 66.8888 199.701L69.3295 201.319L69.2827 200.243C69.2359 199.168 71.3958 194.333 70.8068 195.652Z" fill="#85A00A"/>
<path d="M75.7343 199.315C74.6958 200.364 70.7505 201.597 68.9076 202.082L71.5748 205.586L71.9236 204.2C72.2724 202.814 77.0325 198.002 75.7343 199.315Z" fill="#85A00A"/>
<path d="M78.9313 208.013C77.4547 207.99 73.8336 205.997 72.2077 205.003L71.5264 209.354L72.7678 208.646C74.0093 207.938 80.7771 208.041 78.9313 208.013Z" fill="#85A00A"/>
<path d="M76.5973 213.731C75.1207 213.709 71.4996 211.715 69.8737 210.722L69.1924 215.072L70.4338 214.364C71.6753 213.656 78.4431 213.759 76.5973 213.731Z" fill="#85A00A"/>
<path d="M72.0065 224.372C71.0398 223.256 70.1153 219.227 69.7739 217.352L66.0747 219.741L67.4296 220.196C68.7845 220.651 73.2149 225.768 72.0065 224.372Z" fill="#85A00A"/>
<path d="M62.936 227.546C62.6378 226.025 63.9814 221.858 64.6904 219.964L59.8846 220.249L60.9133 221.363C61.9421 222.477 63.3088 229.447 62.936 227.546Z" fill="#85A00A"/>
<path d="M54.1579 229.255C54.5054 227.745 57.4308 224.487 58.8501 223.047L54.3457 221.348L54.831 222.785C55.3163 224.221 53.7236 231.143 54.1579 229.255Z" fill="#85A00A"/>
<path d="M47.2436 224.99C47.5911 223.48 50.5165 220.222 51.9358 218.782L47.4313 217.083L47.9167 218.519C48.402 219.956 46.8093 226.878 47.2436 224.99Z" fill="#85A00A"/>
<path d="M39.9939 216.35C41.4788 215.906 45.7563 216.841 47.7094 217.365L46.9628 212.609L45.9531 213.74C44.9433 214.871 38.1379 216.904 39.9939 216.35Z" fill="#85A00A"/>
<path d="M42.932 203.783C44.2636 204.576 46.4711 208.357 47.4084 210.149L50.4032 206.379L48.8869 206.402C47.3706 206.425 41.2674 202.793 42.932 203.783Z" fill="#85A00A"/>
<path d="M47.5279 198.267C48.8596 199.059 51.0671 202.841 52.0044 204.632L54.9991 200.863L53.4829 200.886C51.9666 200.908 45.8633 197.276 47.5279 198.267Z" fill="#85A00A"/>
<path d="M57.6183 192.055C57.8531 193.587 56.3375 197.695 55.5503 199.558L60.3638 199.473L59.3823 198.317C58.4007 197.161 57.3248 190.141 57.6183 192.055Z" fill="#85A00A"/>
<path d="M62.473 193.857C62.7078 195.388 61.1922 199.496 60.405 201.359L65.2185 201.274L64.237 200.118C63.2554 198.962 62.1795 191.942 62.473 193.857Z" fill="#85A00A"/>
<path d="M73.6364 198.322C72.9585 199.257 70.2431 200.817 68.9702 201.48L71.0266 203.564L71.2016 202.502C71.3767 201.44 74.4837 197.152 73.6364 198.322Z" fill="#CCD45C"/>
<path d="M77.7066 202.918C76.4745 203.733 72.3602 204.128 70.457 204.224L72.3475 208.202L72.9736 206.917C73.5996 205.632 79.2467 201.901 77.7066 202.918Z" fill="#CCD45C"/>
<path d="M79.0485 212.088C77.608 211.762 74.4735 209.068 73.0864 207.761L71.526 211.879L72.8864 211.441C74.2468 211.003 80.8492 212.494 79.0485 212.088Z" fill="#CCD45C"/>
<path d="M75.5898 217.205C74.1492 216.88 71.0148 214.185 69.6276 212.879L68.0672 216.996L69.4276 216.558C70.7881 216.121 77.3904 217.611 75.5898 217.205Z" fill="#CCD45C"/>
<path d="M68.911 226.676C68.1943 225.385 68.117 221.252 68.168 219.347L64.0569 220.925L65.2895 221.649C66.5221 222.372 69.8069 228.29 68.911 226.676Z" fill="#CCD45C"/>
<path d="M59.382 227.919C59.4025 226.369 61.5735 222.567 62.6564 220.859L57.8946 220.15L58.6726 221.452C59.4505 222.754 59.3564 229.856 59.382 227.919Z" fill="#CCD45C"/>
<path d="M50.4401 227.788C51.0904 226.382 54.6227 223.794 56.3076 222.676L52.2481 220.088L52.428 221.594C52.6078 223.1 49.6273 229.547 50.4401 227.788Z" fill="#CCD45C"/>
<path d="M44.5493 222.194C45.1995 220.787 48.7318 218.2 50.4167 217.082L46.3573 214.494L46.5371 216C46.7169 217.506 43.7365 223.952 44.5493 222.194Z" fill="#CCD45C"/>
<path d="M39.2288 212.249C40.773 212.12 44.7672 213.914 46.5712 214.827L46.8175 210.019L45.5969 210.919C44.3762 211.819 37.2984 212.41 39.2288 212.249Z" fill="#CCD45C"/>
<path d="M44.6855 200.553C45.8259 201.603 47.2096 205.757 47.7589 207.703L51.4641 204.629L49.9755 204.34C48.4868 204.051 43.2599 199.242 44.6855 200.553Z" fill="#CCD45C"/>
<path d="M50.3166 196.099C51.457 197.148 52.8407 201.302 53.39 203.248L57.0952 200.174L55.6066 199.885C54.1179 199.596 48.891 194.787 50.3166 196.099Z" fill="#CCD45C"/>
<path d="M61.4678 192.093C61.383 193.64 59.0559 197.349 57.9029 199.01L62.6311 199.916L61.908 198.583C61.1848 197.25 61.5739 190.159 61.4678 192.093Z" fill="#CCD45C"/>
<path d="M65.8489 194.853C65.7641 196.4 63.437 200.109 62.284 201.77L67.0122 202.676L66.2891 201.344C65.5659 200.011 65.955 192.919 65.8489 194.853Z" fill="#CCD45C"/>
<path d="M63.8927 222.137C56.5428 224.898 46.6958 220.91 46.299 215.73C45.9023 210.55 47.9718 202.084 55.3217 199.323C67.8024 196.338 70.5486 199.43 72.9154 205.73C73.5838 211.632 69.8672 220.706 63.8927 222.137Z" fill="#CCD45C"/>
<path d="M61.9515 218.998C58.0666 222.072 53.8065 217.562 50.4003 214.791C47.0256 212.316 51.4985 205.832 56.3241 204.019C61.178 204.051 63.4971 197.759 69.1477 206.718C70.7016 210.854 66.7771 217.185 61.9515 218.998Z" fill="#ECEB8E"/>
<ellipse cx="67.0039" cy="196.738" rx="0.439908" ry="0.439721" fill="#2B2900"/>
<ellipse cx="68.7649" cy="198.497" rx="0.439908" ry="0.439721" fill="#2B2900"/>
<ellipse cx="72.2859" cy="197.617" rx="0.439908" ry="0.439721" fill="#2B2900"/>
<ellipse rx="0.439756" ry="0.439874" transform="matrix(0.431176 0.902268 0.90241 -0.430878 67.7118 193.855)" fill="#2B2900"/>
<ellipse rx="0.439756" ry="0.439874" transform="matrix(0.431176 0.902268 0.90241 -0.430878 70.0592 194.685)" fill="#2B2900"/>
<ellipse rx="0.439756" ry="0.439874" transform="matrix(0.431176 0.902268 0.90241 -0.430878 70.7826 198.24)" fill="#2B2900"/>
<ellipse cx="74.0466" cy="201.137" rx="0.439908" ry="0.439721" fill="#2B2900"/>
<ellipse cx="75.8081" cy="202.897" rx="0.439908" ry="0.439721" fill="#2B2900"/>
<ellipse cx="79.3293" cy="202.017" rx="0.439908" ry="0.439721" fill="#2B2900"/>
<ellipse rx="0.439799" ry="0.439831" transform="matrix(0.644717 -0.764422 0.764692 0.644396 76.8677 208.874)" fill="#2B2900"/>
<ellipse rx="0.439799" ry="0.439831" transform="matrix(0.644717 -0.764422 0.764692 0.644396 79.3486 208.663)" fill="#2B2900"/>
<ellipse rx="0.439799" ry="0.439831" transform="matrix(0.644717 -0.764422 0.764692 0.644396 80.9453 205.405)" fill="#2B2900"/>
<ellipse rx="0.439799" ry="0.439831" transform="matrix(0.644717 -0.764422 0.764692 0.644396 75.1067 207.115)" fill="#2B2900"/>
<ellipse rx="0.439799" ry="0.439831" transform="matrix(0.644717 -0.764422 0.764692 0.644396 77.5879 206.903)" fill="#2B2900"/>
<ellipse rx="0.439799" ry="0.439831" transform="matrix(0.644717 -0.764422 0.764692 0.644396 79.1841 203.645)" fill="#2B2900"/>
<ellipse rx="0.439799" ry="0.439831" transform="matrix(0.644717 -0.764422 0.764692 0.644396 72.4658 219.434)" fill="#2B2900"/>
<ellipse rx="0.439799" ry="0.439831" transform="matrix(0.644717 -0.764422 0.764692 0.644396 74.947 219.223)" fill="#2B2900"/>
<ellipse rx="0.439799" ry="0.439831" transform="matrix(0.644717 -0.764422 0.764692 0.644396 76.5435 215.964)" fill="#2B2900"/>
<ellipse rx="0.439722" ry="0.439908" transform="matrix(0.0616347 -0.998099 -0.998102 -0.0615825 76.7106 218.863)" fill="#2B2900"/>
<ellipse rx="0.439722" ry="0.439908" transform="matrix(0.0616347 -0.998099 -0.998102 -0.0615825 75.0617 216.997)" fill="#2B2900"/>
<ellipse rx="0.439722" ry="0.439908" transform="matrix(0.0616347 -0.998099 -0.998102 -0.0615825 76.1574 213.538)" fill="#2B2900"/>
<ellipse rx="0.439799" ry="0.439831" transform="matrix(0.644717 -0.764422 0.764692 0.644396 66.3032 226.474)" fill="#2B2900"/>
<ellipse rx="0.439799" ry="0.439831" transform="matrix(0.644717 -0.764422 0.764692 0.644396 68.7847 226.263)" fill="#2B2900"/>
<ellipse rx="0.439799" ry="0.439831" transform="matrix(0.644717 -0.764422 0.764692 0.644396 70.3811 223.004)" fill="#2B2900"/>
<ellipse rx="0.439875" ry="0.439755" transform="matrix(-0.906741 -0.421689 -0.421983 0.906604 74.9668 221.819)" fill="#2B2900"/>
<ellipse rx="0.439875" ry="0.439755" transform="matrix(-0.906741 -0.421689 -0.421983 0.906604 72.6272 222.672)" fill="#2B2900"/>
<ellipse rx="0.439875" ry="0.439755" transform="matrix(-0.906741 -0.421689 -0.421983 0.906604 69.8064 220.389)" fill="#2B2900"/>
<ellipse rx="0.439901" ry="0.439729" transform="matrix(-0.978882 -0.204428 -0.204595 0.978847 62.0517 227.818)" fill="#2B2900"/>
<ellipse rx="0.439901" ry="0.439729" transform="matrix(-0.978882 -0.204428 -0.204595 0.978847 59.9679 229.18)" fill="#2B2900"/>
<ellipse rx="0.439901" ry="0.439729" transform="matrix(-0.978882 -0.204428 -0.204595 0.978847 56.7009 227.599)" fill="#2B2900"/>
<ellipse rx="0.439722" ry="0.439908" transform="matrix(-0.0619735 0.998078 -0.998081 -0.0619211 64.7136 224.152)" fill="#2B2900"/>
<ellipse rx="0.439722" ry="0.439908" transform="matrix(-0.0619735 0.998078 -0.998081 -0.0619211 62.8474 225.8)" fill="#2B2900"/>
<ellipse rx="0.439722" ry="0.439908" transform="matrix(-0.0619735 0.998078 -0.998081 -0.0619211 63.5083 229.368)" fill="#2B2900"/>
<ellipse rx="0.439811" ry="0.439819" transform="matrix(-0.690443 0.723387 -0.72368 -0.690136 57.3275 226.311)" fill="#2B2900"/>
<ellipse rx="0.439811" ry="0.439819" transform="matrix(-0.690443 0.723387 -0.72368 -0.690136 54.8378 226.369)" fill="#2B2900"/>
<ellipse rx="0.439811" ry="0.439819" transform="matrix(-0.690443 0.723387 -0.72368 -0.690136 53.0438 229.523)" fill="#2B2900"/>
<ellipse rx="0.439901" ry="0.439729" transform="matrix(-0.978882 -0.204428 -0.204595 0.978847 47.9655 224.298)" fill="#2B2900"/>
<ellipse rx="0.439901" ry="0.439729" transform="matrix(-0.978882 -0.204428 -0.204595 0.978847 45.8818 225.66)" fill="#2B2900"/>
<ellipse rx="0.439901" ry="0.439729" transform="matrix(-0.978882 -0.204428 -0.204595 0.978847 42.6144 224.079)" fill="#2B2900"/>
<ellipse rx="0.439814" ry="0.439816" transform="matrix(0.70329 0.710903 0.711202 -0.702988 45.1768 222.797)" fill="#2B2900"/>
<ellipse rx="0.439814" ry="0.439816" transform="matrix(0.70329 0.710903 0.711202 -0.702988 47.6668 222.811)" fill="#2B2900"/>
<ellipse rx="0.439814" ry="0.439816" transform="matrix(0.70329 0.710903 0.711202 -0.702988 49.5164 225.933)" fill="#2B2900"/>
<ellipse rx="0.439721" ry="0.439908" transform="matrix(0.000421827 1 1 -0.000421469 39.713 216.098)" fill="#2B2900"/>
<ellipse rx="0.439721" ry="0.439908" transform="matrix(0.000421827 1 1 -0.000421469 41.4745 217.858)" fill="#2B2900"/>
<ellipse rx="0.439721" ry="0.439908" transform="matrix(0.000421827 1 1 -0.000421469 40.5956 221.378)" fill="#2B2900"/>
<ellipse rx="0.439721" ry="0.439908" transform="matrix(0.000421827 1 1 -0.000421469 42.3539 215.218)" fill="#2B2900"/>
<ellipse rx="0.439721" ry="0.439908" transform="matrix(0.000421827 1 1 -0.000421469 44.1151 216.978)" fill="#2B2900"/>
<ellipse rx="0.439721" ry="0.439908" transform="matrix(0.000421827 1 1 -0.000421469 43.2362 220.498)" fill="#2B2900"/>
<ellipse rx="0.439721" ry="0.439908" transform="matrix(0.000421827 1 1 -0.000421469 41.4738 204.658)" fill="#2B2900"/>
<ellipse rx="0.439721" ry="0.439908" transform="matrix(0.000421827 1 1 -0.000421469 43.2355 206.418)" fill="#2B2900"/>
<ellipse rx="0.439721" ry="0.439908" transform="matrix(0.000421827 1 1 -0.000421469 42.3561 209.938)" fill="#2B2900"/>
<ellipse rx="0.439899" ry="0.43973" transform="matrix(0.975785 -0.218734 -0.218911 -0.975745 39.9709 208.735)" fill="#2B2900"/>
<ellipse rx="0.439899" ry="0.43973" transform="matrix(0.975785 -0.218734 -0.218911 -0.975745 41.3032 206.632)" fill="#2B2900"/>
<ellipse rx="0.439899" ry="0.43973" transform="matrix(0.975785 -0.218734 -0.218911 -0.975745 44.9319 206.721)" fill="#2B2900"/>
<ellipse rx="0.439722" ry="0.439908" transform="matrix(0.00939103 -0.999956 -0.999956 -0.00938305 48.5208 201.159)" fill="#2B2900"/>
<ellipse rx="0.439722" ry="0.439908" transform="matrix(0.00939103 -0.999956 -0.999956 -0.00938305 46.7769 199.382)" fill="#2B2900"/>
<ellipse rx="0.439722" ry="0.439908" transform="matrix(0.00939103 -0.999956 -0.999956 -0.00938305 47.6897 195.871)" fill="#2B2900"/>
<ellipse rx="0.439897" ry="0.439733" transform="matrix(0.968308 0.249758 0.249957 -0.968257 44.8874 198.703)" fill="#2B2900"/>
<ellipse rx="0.439897" ry="0.439733" transform="matrix(0.968308 0.249758 0.249957 -0.968257 47.0322 197.438)" fill="#2B2900"/>
<ellipse rx="0.439897" ry="0.439733" transform="matrix(0.968308 0.249758 0.249957 -0.968257 50.2219 199.17)" fill="#2B2900"/>
<ellipse rx="0.439858" ry="0.439772" transform="matrix(0.85366 -0.52083 -0.521152 -0.853464 53.7928 198.021)" fill="#2B2900"/>
<ellipse rx="0.439858" ry="0.439772" transform="matrix(0.85366 -0.52083 -0.521152 -0.853464 54.3782 195.601)" fill="#2B2900"/>
<ellipse rx="0.439858" ry="0.439772" transform="matrix(0.85366 -0.52083 -0.521152 -0.853464 57.8428 194.519)" fill="#2B2900"/>
<ellipse rx="0.439797" ry="0.439833" transform="matrix(0.635999 0.77169 0.771955 -0.635677 52.2169 193.636)" fill="#2B2900"/>
<ellipse rx="0.439797" ry="0.439833" transform="matrix(0.635999 0.77169 0.771955 -0.635677 54.6954 193.876)" fill="#2B2900"/>
<ellipse rx="0.439797" ry="0.439833" transform="matrix(0.635999 0.77169 0.771955 -0.635677 56.255 197.152)" fill="#2B2900"/>
<ellipse rx="0.439842" ry="0.439788" transform="matrix(0.803076 0.595876 0.596203 -0.802834 59.2561 193.047)" fill="#2B2900"/>
<ellipse rx="0.439842" ry="0.439788" transform="matrix(0.803076 0.595876 0.596203 -0.802834 61.7189 192.682)" fill="#2B2900"/>
<ellipse rx="0.439842" ry="0.439788" transform="matrix(0.803076 0.595876 0.596203 -0.802834 64.0219 195.487)" fill="#2B2900"/>
<ellipse rx="30.9847" ry="27.5069" transform="matrix(-0.523967 -0.851738 0.906612 -0.421964 267.173 255.784)" fill="#B47512"/>
<ellipse rx="28.2834" ry="26.717" transform="matrix(-0.523967 -0.851738 0.906612 -0.421964 267.371 252.86)" fill="#A1BE1C" stroke="#B47512" stroke-width="1.7831"/>
<path d="M283.46 252.135C282.461 252.384 279.713 251.888 278.465 251.609L278.67 254.212L279.399 253.588C280.129 252.964 284.71 251.824 283.46 252.135Z" fill="#CCD45C"/>
<path d="M283.596 257.607C282.289 257.455 279.255 255.362 277.902 254.335L276.908 258.133L278.072 257.616C279.237 257.099 285.231 257.797 283.596 257.607Z" fill="#CCD45C"/>
<path d="M279.246 264.631C278.45 263.582 277.86 259.945 277.664 258.257L274.235 260.169L275.415 260.652C276.594 261.134 280.241 265.942 279.246 264.631Z" fill="#CCD45C"/>
<path d="M273.949 266.134C273.153 265.085 272.563 261.448 272.367 259.76L268.938 261.673L270.117 262.155C271.297 262.638 274.943 267.446 273.949 266.134Z" fill="#CCD45C"/>
<path d="M263.955 268.758C264.208 267.466 266.528 264.604 267.657 263.334L263.947 262.049L264.372 263.25C264.798 264.451 263.639 270.374 263.955 268.758Z" fill="#CCD45C"/>
<path d="M256.743 264.134C257.647 263.089 261.311 261.743 263.03 261.2L260.189 257.982L259.973 259.317C259.756 260.651 255.613 265.44 256.743 264.134Z" fill="#CCD45C"/>
<path d="M250.719 258.91C251.971 258.324 255.865 258.588 257.656 258.793L256.374 254.697L255.632 255.827C254.89 256.957 249.155 259.642 250.719 258.91Z" fill="#CCD45C"/>
<path d="M249.915 251.712C251.166 251.126 255.061 251.39 256.852 251.595L255.57 247.499L254.828 248.629C254.085 249.759 248.351 252.444 249.915 251.712Z" fill="#CCD45C"/>
<path d="M251.997 241.874C253.125 242.673 254.818 246.19 255.524 247.849L258.453 244.712L257.104 244.625C255.755 244.537 250.588 240.876 251.997 241.874Z" fill="#CCD45C"/>
<path d="M262.435 237.032C262.61 238.402 261.168 242.03 260.425 243.673L264.717 243.704L263.868 242.652C263.019 241.6 262.215 235.319 262.435 237.032Z" fill="#CCD45C"/>
<path d="M268.833 237.228C269.008 238.598 267.567 242.226 266.824 243.868L271.116 243.9L270.267 242.848C269.417 241.796 268.614 235.515 268.833 237.228Z" fill="#CCD45C"/>
<path d="M278.739 240.899C277.792 241.906 274.075 243.099 272.335 243.57L275.039 246.903L275.312 245.578C275.584 244.254 279.922 239.641 278.739 240.899Z" fill="#CCD45C"/>
<path d="M280.141 245.297C279.195 246.304 275.478 247.497 273.737 247.968L276.442 251.301L276.714 249.976C276.986 248.652 281.324 244.039 280.141 245.297Z" fill="#CCD45C"/>
<path d="M283.063 248.689C282.136 249.138 279.346 249.217 278.066 249.201L278.802 251.706L279.387 250.945C279.973 250.185 284.222 248.128 283.063 248.689Z" fill="#85A00A"/>
<path d="M284.32 254.017C283.009 254.136 279.611 252.711 278.076 251.984L277.882 255.905L278.916 255.16C279.95 254.415 285.959 253.867 284.32 254.017Z" fill="#85A00A"/>
<path d="M281.506 261.785C280.512 260.922 279.187 257.483 278.649 255.872L275.686 258.447L276.939 258.677C278.192 258.908 282.749 262.864 281.506 261.785Z" fill="#85A00A"/>
<path d="M276.63 264.344C275.636 263.481 274.311 260.042 273.773 258.431L270.81 261.006L272.063 261.236C273.317 261.467 277.873 265.423 276.63 264.344Z" fill="#85A00A"/>
<path d="M267.389 268.965C267.371 267.648 269.054 264.37 269.897 262.896L266.003 262.4L266.666 263.489C267.329 264.577 267.412 270.611 267.389 268.965Z" fill="#85A00A"/>
<path d="M259.381 265.92C260.05 264.712 263.36 262.642 264.931 261.757L261.49 259.192L261.552 260.542C261.614 261.893 258.543 267.431 259.381 265.92Z" fill="#85A00A"/>
<path d="M252.413 262.045C253.517 261.215 257.383 260.673 259.178 260.506L257.082 256.76L256.588 258.019C256.093 259.277 251.033 263.083 252.413 262.045Z" fill="#85A00A"/>
<path d="M250.146 255.166C251.251 254.335 255.117 253.794 256.912 253.626L254.815 249.881L254.321 251.14C253.827 252.398 248.766 256.204 250.146 255.166Z" fill="#85A00A"/>
<path d="M250.164 245.11C251.431 245.661 253.811 248.755 254.843 250.233L257.065 246.561L255.727 246.753C254.388 246.944 248.58 244.423 250.164 245.11Z" fill="#85A00A"/>
<path d="M259.384 238.227C259.837 239.532 259.171 243.379 258.781 245.139L262.988 244.288L261.941 243.433C260.894 242.578 258.818 236.596 259.384 238.227Z" fill="#85A00A"/>
<path d="M265.686 237.104C266.139 238.409 265.473 242.256 265.083 244.016L269.29 243.165L268.243 242.31C267.196 241.455 265.12 235.473 265.686 237.104Z" fill="#85A00A"/>
<path d="M276.134 238.663C275.415 239.842 272.022 241.774 270.416 242.592L273.747 245.298L273.741 243.946C273.736 242.594 277.034 237.189 276.134 238.663Z" fill="#85A00A"/>
<path d="M278.411 242.68C277.691 243.859 274.299 245.79 272.692 246.608L276.024 249.315L276.018 247.963C276.012 246.611 279.31 241.205 278.411 242.68Z" fill="#85A00A"/>
<path d="M283.46 252.135C282.461 252.384 279.713 251.888 278.465 251.609L278.67 254.212L279.399 253.588C280.129 252.964 284.71 251.824 283.46 252.135Z" fill="#CCD45C"/>
<path d="M283.596 257.607C282.289 257.455 279.255 255.362 277.902 254.335L276.908 258.133L278.072 257.616C279.237 257.099 285.231 257.797 283.596 257.607Z" fill="#CCD45C"/>
<path d="M279.246 264.631C278.45 263.582 277.86 259.945 277.664 258.257L274.235 260.169L275.415 260.652C276.594 261.134 280.241 265.942 279.246 264.631Z" fill="#CCD45C"/>
<path d="M273.949 266.134C273.153 265.085 272.563 261.448 272.367 259.76L268.938 261.673L270.117 262.155C271.297 262.638 274.943 267.446 273.949 266.134Z" fill="#CCD45C"/>
<path d="M263.955 268.758C264.208 267.466 266.528 264.604 267.657 263.334L263.947 262.049L264.372 263.25C264.798 264.451 263.639 270.374 263.955 268.758Z" fill="#CCD45C"/>
<path d="M256.743 264.134C257.647 263.089 261.311 261.743 263.03 261.2L260.189 257.982L259.973 259.317C259.756 260.651 255.613 265.44 256.743 264.134Z" fill="#CCD45C"/>
<path d="M250.719 258.91C251.971 258.324 255.865 258.588 257.656 258.793L256.374 254.697L255.632 255.827C254.89 256.957 249.155 259.642 250.719 258.91Z" fill="#CCD45C"/>
<path d="M249.915 251.712C251.166 251.126 255.061 251.39 256.852 251.595L255.57 247.499L254.828 248.629C254.085 249.759 248.351 252.444 249.915 251.712Z" fill="#CCD45C"/>
<path d="M251.997 241.874C253.125 242.673 254.818 246.19 255.524 247.849L258.453 244.712L257.104 244.625C255.755 244.537 250.588 240.876 251.997 241.874Z" fill="#CCD45C"/>
<path d="M262.435 237.032C262.61 238.402 261.168 242.03 260.425 243.673L264.717 243.704L263.868 242.652C263.019 241.6 262.215 235.319 262.435 237.032Z" fill="#CCD45C"/>
<path d="M268.833 237.228C269.008 238.598 267.567 242.226 266.824 243.868L271.116 243.9L270.267 242.848C269.417 241.796 268.614 235.515 268.833 237.228Z" fill="#CCD45C"/>
<path d="M278.739 240.899C277.792 241.906 274.075 243.099 272.335 243.57L275.039 246.903L275.312 245.578C275.584 244.254 279.922 239.641 278.739 240.899Z" fill="#CCD45C"/>
<path d="M280.141 245.297C279.195 246.304 275.478 247.497 273.737 247.968L276.442 251.301L276.714 249.976C276.986 248.652 281.324 244.039 280.141 245.297Z" fill="#CCD45C"/>
<path d="M263.139 262.781C256.541 260.443 252.116 252.068 254.82 248.308C257.524 244.548 263.797 239.963 270.395 242.3C280.62 247.432 280.718 251.117 278.714 256.773C275.781 261.182 268.035 265.236 263.139 262.781Z" fill="#CCD45C"/>
<path d="M263.618 259.526C259.203 259.392 258.888 253.869 258.156 250.024C257.275 246.398 264.049 244.545 268.381 246.079C271.674 248.888 276.868 245.929 275.577 255.284C274.262 258.997 267.95 261.061 263.618 259.526Z" fill="#ECEB8E"/>
<ellipse cx="279.846" cy="247.246" rx="0.3922" ry="0.392033" transform="rotate(40.0986 279.846 247.246)" fill="#2B2900"/>
<ellipse cx="280.036" cy="249.458" rx="0.3922" ry="0.392033" transform="rotate(40.0986 280.036 249.458)" fill="#2B2900"/>
<ellipse cx="282.943" cy="250.879" rx="0.3922" ry="0.392033" transform="rotate(40.0986 282.943 250.879)" fill="#2B2900"/>
<ellipse rx="0.392064" ry="0.392169" transform="matrix(-0.251333 0.967901 0.967818 0.251652 281.984 245.686)" fill="#2B2900"/>
<ellipse rx="0.392064" ry="0.392169" transform="matrix(-0.251333 0.967901 0.967818 0.251652 283.109 247.6)" fill="#2B2900"/>
<ellipse rx="0.392064" ry="0.392169" transform="matrix(-0.251333 0.967901 0.967818 0.251652 281.561 250.44)" fill="#2B2900"/>
<ellipse cx="282.122" cy="254.291" rx="0.3922" ry="0.392033" transform="rotate(40.0986 282.122 254.291)" fill="#2B2900"/>
<ellipse cx="282.313" cy="256.503" rx="0.3922" ry="0.392033" transform="rotate(40.0986 282.313 256.503)" fill="#2B2900"/>
<ellipse cx="285.22" cy="257.925" rx="0.3922" ry="0.392033" transform="rotate(40.0986 285.22 257.925)" fill="#2B2900"/>
<ellipse rx="0.392102" ry="0.39213" transform="matrix(0.985536 -0.169469 0.169882 0.985465 279.604 261.187)" fill="#2B2900"/>
<ellipse rx="0.392102" ry="0.39213" transform="matrix(0.985536 -0.169469 0.169882 0.985465 281.417 262.468)" fill="#2B2900"/>
<ellipse rx="0.392102" ry="0.39213" transform="matrix(0.985536 -0.169469 0.169882 0.985465 284.377 261.163)" fill="#2B2900"/>
<ellipse rx="0.392102" ry="0.39213" transform="matrix(0.985536 -0.169469 0.169882 0.985465 279.413 258.976)" fill="#2B2900"/>
<ellipse rx="0.392102" ry="0.39213" transform="matrix(0.985536 -0.169469 0.169882 0.985465 281.227 260.257)" fill="#2B2900"/>
<ellipse rx="0.392102" ry="0.39213" transform="matrix(0.985536 -0.169469 0.169882 0.985465 284.186 258.951)" fill="#2B2900"/>
<ellipse rx="0.392102" ry="0.39213" transform="matrix(0.985536 -0.169469 0.169882 0.985465 270.538 265.861)" fill="#2B2900"/>
<ellipse rx="0.392102" ry="0.39213" transform="matrix(0.985536 -0.169469 0.169882 0.985465 272.351 267.142)" fill="#2B2900"/>
<ellipse rx="0.392102" ry="0.39213" transform="matrix(0.985536 -0.169469 0.169882 0.985465 275.311 265.837)" fill="#2B2900"/>
<ellipse rx="0.392034" ry="0.392199" transform="matrix(0.690027 -0.723783 -0.723819 -0.68999 273.761 267.909)" fill="#2B2900"/>
<ellipse rx="0.392034" ry="0.392199" transform="matrix(0.690027 -0.723783 -0.723819 -0.68999 273.707 265.69)" fill="#2B2900"/>
<ellipse rx="0.392034" ry="0.392199" transform="matrix(0.690027 -0.723783 -0.723819 -0.68999 276.441 263.96)" fill="#2B2900"/>
<ellipse rx="0.392102" ry="0.39213" transform="matrix(0.985536 -0.169469 0.169882 0.985465 262.292 267.123)" fill="#2B2900"/>
<ellipse rx="0.392102" ry="0.39213" transform="matrix(0.985536 -0.169469 0.169882 0.985465 264.105 268.403)" fill="#2B2900"/>
<ellipse rx="0.392102" ry="0.39213" transform="matrix(0.985536 -0.169469 0.169882 0.985465 267.065 267.098)" fill="#2B2900"/>
<ellipse rx="0.39217" ry="0.392063" transform="matrix(-0.421987 -0.906602 -0.906739 0.421693 270.874 268.923)" fill="#2B2900"/>
<ellipse rx="0.39217" ry="0.392063" transform="matrix(-0.421987 -0.906602 -0.906739 0.421693 268.788 268.161)" fill="#2B2900"/>
<ellipse rx="0.39217" ry="0.392063" transform="matrix(-0.421987 -0.906602 -0.906739 0.421693 268.176 264.985)" fill="#2B2900"/>
<ellipse rx="0.392193" ry="0.39204" transform="matrix(-0.617109 -0.786878 -0.786982 0.616975 258.621 265.598)" fill="#2B2900"/>
<ellipse rx="0.392193" ry="0.39204" transform="matrix(-0.617109 -0.786878 -0.786982 0.616975 256.417 265.33)" fill="#2B2900"/>
<ellipse rx="0.392193" ry="0.39204" transform="matrix(-0.617109 -0.786878 -0.786982 0.616975 255.097 262.376)" fill="#2B2900"/>
<ellipse rx="0.392034" ry="0.392199" transform="matrix(-0.690273 0.723549 -0.723585 -0.690235 262.541 264.627)" fill="#2B2900"/>
<ellipse rx="0.392034" ry="0.392199" transform="matrix(-0.690273 0.723549 -0.723585 -0.690235 260.322 264.678)" fill="#2B2900"/>
<ellipse rx="0.392034" ry="0.392199" transform="matrix(-0.690273 0.723549 -0.723585 -0.690235 258.724 267.491)" fill="#2B2900"/>
<ellipse rx="0.392113" ry="0.39212" transform="matrix(-0.994083 0.108627 -0.109049 -0.994036 256.265 261.857)" fill="#2B2900"/>
<ellipse rx="0.392113" ry="0.39212" transform="matrix(-0.994083 0.108627 -0.109049 -0.994036 254.534 260.468)" fill="#2B2900"/>
<ellipse rx="0.392113" ry="0.39212" transform="matrix(-0.994083 0.108627 -0.109049 -0.994036 251.499 261.589)" fill="#2B2900"/>
<ellipse rx="0.392193" ry="0.39204" transform="matrix(-0.617109 -0.786878 -0.786982 0.616975 251.036 255.108)" fill="#2B2900"/>
<ellipse rx="0.392193" ry="0.39204" transform="matrix(-0.617109 -0.786878 -0.786982 0.616975 248.833 254.841)" fill="#2B2900"/>
<ellipse rx="0.392193" ry="0.39204" transform="matrix(-0.617109 -0.786878 -0.786982 0.616975 247.513 251.886)" fill="#2B2900"/>
<ellipse rx="0.392116" ry="0.392117" transform="matrix(0.0800757 0.996789 0.996823 -0.0796522 249.996 252.484)" fill="#2B2900"/>
<ellipse rx="0.392116" ry="0.392117" transform="matrix(0.0800757 0.996789 0.996823 -0.0796522 251.686 253.923)" fill="#2B2900"/>
<ellipse rx="0.392116" ry="0.392117" transform="matrix(0.0800757 0.996789 0.996823 -0.0796522 251.155 257.114)" fill="#2B2900"/>
<ellipse rx="0.392033" ry="0.3922" transform="matrix(-0.643783 0.765208 0.765208 0.643783 250.117 244.778)" fill="#2B2900"/>
<ellipse rx="0.392033" ry="0.3922" transform="matrix(-0.643783 0.765208 0.765208 0.643783 250.308 246.989)" fill="#2B2900"/>
<ellipse rx="0.392033" ry="0.3922" transform="matrix(-0.643783 0.765208 0.765208 0.643783 247.687 248.885)" fill="#2B2900"/>
<ellipse rx="0.392033" ry="0.3922" transform="matrix(-0.643783 0.765208 0.765208 0.643783 252.423 245.694)" fill="#2B2900"/>
<ellipse rx="0.392033" ry="0.3922" transform="matrix(-0.643783 0.765208 0.765208 0.643783 252.614 247.906)" fill="#2B2900"/>
<ellipse rx="0.392033" ry="0.3922" transform="matrix(-0.643783 0.765208 0.765208 0.643783 249.993 249.802)" fill="#2B2900"/>
<ellipse rx="0.392033" ry="0.3922" transform="matrix(-0.643783 0.765208 0.765208 0.643783 257.887 237.987)" fill="#2B2900"/>
<ellipse rx="0.392033" ry="0.3922" transform="matrix(-0.643783 0.765208 0.765208 0.643783 258.078 240.198)" fill="#2B2900"/>
<ellipse rx="0.392033" ry="0.3922" transform="matrix(-0.643783 0.765208 0.765208 0.643783 255.457 242.093)" fill="#2B2900"/>
<ellipse rx="0.392192" ry="0.392041" transform="matrix(0.887301 0.46119 0.461029 -0.887385 254.521 239.904)" fill="#2B2900"/>
<ellipse rx="0.392192" ry="0.392041" transform="matrix(0.887301 0.46119 0.461029 -0.887385 256.637 239.235)" fill="#2B2900"/>
<ellipse rx="0.392192" ry="0.392041" transform="matrix(0.887301 0.46119 0.461029 -0.887385 259.061 241.379)" fill="#2B2900"/>
<ellipse rx="0.392033" ry="0.3922" transform="matrix(0.65126 -0.758854 -0.758859 -0.651254 264.702 239.647)" fill="#2B2900"/>
<ellipse rx="0.392033" ry="0.3922" transform="matrix(0.65126 -0.758854 -0.758859 -0.651254 264.533 237.434)" fill="#2B2900"/>
<ellipse rx="0.392033" ry="0.3922" transform="matrix(0.65126 -0.758854 -0.758859 -0.651254 267.172 235.563)" fill="#2B2900"/>
<ellipse rx="0.392189" ry="0.392044" transform="matrix(0.579824 0.814742 0.814861 -0.579657 263.635 235.886)" fill="#2B2900"/>
<ellipse rx="0.392189" ry="0.392044" transform="matrix(0.579824 0.814742 0.814861 -0.579657 265.823 236.255)" fill="#2B2900"/>
<ellipse rx="0.392189" ry="0.392044" transform="matrix(0.579824 0.814742 0.814861 -0.579657 267.004 239.268)" fill="#2B2900"/>
<ellipse rx="0.392154" ry="0.392078" transform="matrix(0.988466 0.151445 0.151072 -0.988523 270.1 240.534)" fill="#2B2900"/>
<ellipse rx="0.392154" ry="0.392078" transform="matrix(0.988466 0.151445 0.151072 -0.988523 271.889 239.221)" fill="#2B2900"/>
<ellipse rx="0.392154" ry="0.392078" transform="matrix(0.988466 0.151445 0.151072 -0.988523 274.873 240.472)" fill="#2B2900"/>
<ellipse rx="0.3921" ry="0.392132" transform="matrix(-0.0105504 0.999944 0.99994 0.0109674 271.543 236.639)" fill="#2B2900"/>
<ellipse rx="0.3921" ry="0.392132" transform="matrix(-0.0105504 0.999944 0.99994 0.0109674 273.096 238.225)" fill="#2B2900"/>
<ellipse rx="0.3921" ry="0.392132" transform="matrix(-0.0105504 0.999944 0.99994 0.0109674 272.278 241.356)" fill="#2B2900"/>
<ellipse rx="0.392141" ry="0.392092" transform="matrix(0.230495 0.973073 0.973167 -0.2301 276.682 240.279)" fill="#2B2900"/>
<ellipse rx="0.392141" ry="0.392092" transform="matrix(0.230495 0.973073 0.973167 -0.2301 278.571 241.445)" fill="#2B2900"/>
<ellipse rx="0.392141" ry="0.392092" transform="matrix(0.230495 0.973073 0.973167 -0.2301 278.531 244.681)" fill="#2B2900"/>
<ellipse rx="24.5695" ry="23.2088" transform="matrix(-0.523967 -0.851738 0.906612 -0.421964 142.343 68.5221)" fill="#B47512"/>
<ellipse rx="24.5695" ry="23.2088" transform="matrix(-0.523967 -0.851738 0.906612 -0.421964 141.679 65.9245)" fill="#A1BE1C" stroke="#B47512" stroke-width="1.54896"/>
<path d="M155.656 65.2953C154.788 65.5113 152.401 65.0807 151.316 64.8384L151.495 67.0991L152.128 66.5573C152.762 66.0155 156.741 65.0251 155.656 65.2953Z" fill="#CCD45C"/>
<path d="M155.774 70.0487C154.638 69.9164 152.003 68.0985 150.828 67.206L149.964 70.5052L150.975 70.0564C151.987 69.6076 157.194 70.214 155.774 70.0487Z" fill="#CCD45C"/>
<path d="M151.995 76.1503C151.304 75.239 150.791 72.0792 150.621 70.6132L147.643 72.2743L148.667 72.6935C149.691 73.1128 152.859 77.2894 151.995 76.1503Z" fill="#CCD45C"/>
<path d="M147.394 77.456C146.702 76.5447 146.19 73.3849 146.02 71.9188L143.041 73.5799L144.065 73.9992C145.09 74.4184 148.258 78.595 147.394 77.456Z" fill="#CCD45C"/>
<path d="M138.712 79.7357C138.932 78.6132 140.948 76.1264 141.928 75.0232L138.705 73.9074L139.075 74.9507C139.444 75.9942 138.438 81.1388 138.712 79.7357Z" fill="#CCD45C"/>
<path d="M132.447 75.7182C133.232 74.8105 136.415 73.6407 137.909 73.1693L135.441 70.374L135.253 71.5332C135.064 72.6925 131.466 76.8529 132.447 75.7182Z" fill="#CCD45C"/>
<path d="M127.214 71.18C128.301 70.671 131.684 70.9002 133.24 71.0784L132.126 67.5202L131.482 68.5019C130.837 69.4837 125.856 71.8161 127.214 71.18Z" fill="#CCD45C"/>
<path d="M126.515 64.9275C127.602 64.4186 130.985 64.6478 132.541 64.826L131.427 61.2677L130.783 62.2495C130.138 63.2313 125.157 65.5637 126.515 64.9275Z" fill="#CCD45C"/>
<path d="M128.325 56.3818C129.304 57.0757 130.775 60.1311 131.388 61.5721L133.933 58.8466L132.761 58.7708C131.589 58.6949 127.101 55.5145 128.325 56.3818Z" fill="#CCD45C"/>
<path d="M137.391 52.1749C137.544 53.3654 136.291 56.5167 135.646 57.9436L139.374 57.9709L138.636 57.057C137.899 56.1431 137.201 50.6869 137.391 52.1749Z" fill="#CCD45C"/>
<path d="M142.949 52.3454C143.102 53.5358 141.849 56.6871 141.204 58.114L144.932 58.1413L144.195 57.2274C143.457 56.3135 142.759 50.8573 142.949 52.3454Z" fill="#CCD45C"/>
<path d="M151.554 55.5342C150.732 56.4086 147.503 57.445 145.992 57.854L148.341 60.7494L148.577 59.599C148.814 58.4486 152.582 54.4413 151.554 55.5342Z" fill="#CCD45C"/>
<path d="M152.773 59.355C151.951 60.2294 148.722 61.2658 147.21 61.6748L149.559 64.5702L149.796 63.4198C150.032 62.2694 153.8 58.2621 152.773 59.355Z" fill="#CCD45C"/>
<path d="M155.311 62.3014C154.505 62.6913 152.081 62.7601 150.97 62.7458L151.609 64.9216L152.117 64.2612C152.626 63.6008 156.317 61.8141 155.311 62.3014Z" fill="#85A00A"/>
<path d="M156.403 66.9294C155.264 67.0333 152.312 65.7954 150.978 65.1634L150.81 68.5698L151.708 67.9227C152.607 67.2756 157.827 66.7995 156.403 66.9294Z" fill="#85A00A"/>
<path d="M153.958 73.6772C153.094 72.9274 151.943 69.9403 151.476 68.5404L148.902 70.7779L149.991 70.9778C151.079 71.1777 155.038 74.6145 153.958 73.6772Z" fill="#85A00A"/>
<path d="M149.723 75.9004C148.859 75.1505 147.708 72.1634 147.241 70.7636L144.667 73.0011L145.755 73.2009C146.844 73.4008 150.802 76.8377 149.723 75.9004Z" fill="#85A00A"/>
<path d="M141.695 79.9149C141.679 78.7713 143.141 75.9234 143.874 74.6424L140.491 74.2123L141.067 75.1576C141.642 76.1029 141.714 81.3444 141.695 79.9149Z" fill="#85A00A"/>
<path d="M134.738 77.2703C135.32 76.2207 138.195 74.422 139.559 73.6539L136.57 71.4251L136.624 72.5983C136.678 73.7716 134.011 78.5824 134.738 77.2703Z" fill="#85A00A"/>
<path d="M128.685 73.9038C129.644 73.1825 133.002 72.7118 134.562 72.5666L132.741 69.313L132.311 70.4062C131.882 71.4995 127.486 74.8055 128.685 73.9038Z" fill="#85A00A"/>
<path d="M126.716 67.9278C127.676 67.2064 131.034 66.7357 132.593 66.5905L130.772 63.3369L130.343 64.4302C129.914 65.5234 125.517 68.8295 126.716 67.9278Z" fill="#85A00A"/>
<path d="M126.731 59.1927C127.832 59.6707 129.9 62.3587 130.796 63.643L132.726 60.4529L131.564 60.6195C130.401 60.786 125.355 58.5953 126.731 59.1927Z" fill="#85A00A"/>
<path d="M134.741 53.2135C135.134 54.3472 134.556 57.6887 134.217 59.2177L137.872 58.4785L136.962 57.7356C136.053 56.9927 134.249 51.7962 134.741 53.2135Z" fill="#85A00A"/>
<path d="M140.215 52.2379C140.609 53.3717 140.03 56.7131 139.692 58.2421L143.347 57.5029L142.437 56.7601C141.527 56.0172 139.723 50.8206 140.215 52.2379Z" fill="#85A00A"/>
<path d="M149.292 53.5916C148.667 54.6162 145.72 56.2938 144.324 57.0045L147.218 59.3556L147.213 58.1812C147.208 57.0067 150.073 52.3109 149.292 53.5916Z" fill="#85A00A"/>
<path d="M151.269 57.0808C150.644 58.1054 147.697 59.783 146.302 60.4937L149.196 62.8449L149.191 61.6704C149.186 60.4959 152.05 55.8001 151.269 57.0808Z" fill="#85A00A"/>
<path d="M155.656 65.2953C154.788 65.5113 152.401 65.0807 151.316 64.8384L151.495 67.0991L152.128 66.5573C152.762 66.0155 156.741 65.0251 155.656 65.2953Z" fill="#CCD45C"/>
<path d="M155.774 70.0487C154.638 69.9164 152.003 68.0985 150.828 67.206L149.964 70.5052L150.975 70.0564C151.987 69.6076 157.194 70.214 155.774 70.0487Z" fill="#CCD45C"/>
<path d="M151.995 76.1503C151.304 75.239 150.791 72.0792 150.621 70.6132L147.643 72.2743L148.667 72.6935C149.691 73.1128 152.859 77.2894 151.995 76.1503Z" fill="#CCD45C"/>
<path d="M147.394 77.456C146.702 76.5447 146.19 73.3849 146.02 71.9188L143.041 73.5799L144.065 73.9992C145.09 74.4184 148.258 78.595 147.394 77.456Z" fill="#CCD45C"/>
<path d="M138.712 79.7357C138.932 78.6132 140.948 76.1264 141.928 75.0232L138.705 73.9074L139.075 74.9507C139.444 75.9942 138.438 81.1388 138.712 79.7357Z" fill="#CCD45C"/>
<path d="M132.447 75.7182C133.232 74.8105 136.415 73.6407 137.909 73.1693L135.441 70.374L135.253 71.5332C135.064 72.6925 131.466 76.8529 132.447 75.7182Z" fill="#CCD45C"/>
<path d="M127.214 71.18C128.301 70.671 131.684 70.9002 133.24 71.0784L132.126 67.5202L131.482 68.5019C130.837 69.4837 125.856 71.8161 127.214 71.18Z" fill="#CCD45C"/>
<path d="M126.515 64.9275C127.602 64.4186 130.985 64.6478 132.541 64.826L131.427 61.2677L130.783 62.2495C130.138 63.2313 125.157 65.5637 126.515 64.9275Z" fill="#CCD45C"/>
<path d="M128.325 56.3818C129.304 57.0757 130.775 60.1311 131.388 61.5721L133.933 58.8466L132.761 58.7708C131.589 58.6949 127.101 55.5145 128.325 56.3818Z" fill="#CCD45C"/>
<path d="M137.391 52.1749C137.544 53.3654 136.291 56.5167 135.646 57.9436L139.374 57.9709L138.636 57.057C137.899 56.1431 137.201 50.6869 137.391 52.1749Z" fill="#CCD45C"/>
<path d="M142.949 52.3454C143.102 53.5358 141.849 56.6871 141.204 58.114L144.932 58.1413L144.195 57.2274C143.457 56.3135 142.759 50.8573 142.949 52.3454Z" fill="#CCD45C"/>
<path d="M151.554 55.5342C150.732 56.4086 147.503 57.445 145.992 57.854L148.341 60.7494L148.577 59.599C148.814 58.4486 152.582 54.4413 151.554 55.5342Z" fill="#CCD45C"/>
<path d="M152.773 59.355C151.951 60.2294 148.722 61.2658 147.21 61.6748L149.559 64.5702L149.796 63.4198C150.032 62.2694 153.8 58.2621 152.773 59.355Z" fill="#CCD45C"/>
<path d="M138.003 74.5428C132.271 72.5122 128.427 65.237 130.776 61.9704C133.125 58.7039 138.574 54.7209 144.306 56.7515C153.189 61.2092 153.273 64.4109 151.533 69.3239C148.984 73.1537 142.256 76.6756 138.003 74.5428Z" fill="#CCD45C"/>
<path d="M138.419 71.7153C134.584 71.5986 134.31 66.8013 133.674 63.4609C132.909 60.3112 138.794 58.7012 142.557 60.0344C145.417 62.4742 149.929 59.9039 148.808 68.0302C147.665 71.2558 142.182 73.0485 138.419 71.7153Z" fill="#ECEB8E"/>
<ellipse cx="152.516" cy="61.0478" rx="0.3407" ry="0.340556" transform="rotate(40.0986 152.516 61.0478)" fill="#2B2900"/>
<ellipse cx="152.681" cy="62.9692" rx="0.3407" ry="0.340556" transform="rotate(40.0986 152.681 62.9692)" fill="#2B2900"/>
<ellipse cx="155.206" cy="64.2041" rx="0.3407" ry="0.340556" transform="rotate(40.0986 155.206 64.2041)" fill="#2B2900"/>
<ellipse rx="0.340582" ry="0.340673" transform="matrix(-0.251333 0.967901 0.967818 0.251652 154.373 59.6932)" fill="#2B2900"/>
<ellipse rx="0.340582" ry="0.340673" transform="matrix(-0.251333 0.967901 0.967818 0.251652 155.35 61.3558)" fill="#2B2900"/>
<ellipse rx="0.340582" ry="0.340673" transform="matrix(-0.251333 0.967901 0.967818 0.251652 154.005 63.8231)" fill="#2B2900"/>
<ellipse cx="154.494" cy="67.1674" rx="0.3407" ry="0.340556" transform="rotate(40.0986 154.494 67.1674)" fill="#2B2900"/>
<ellipse cx="154.66" cy="69.0888" rx="0.3407" ry="0.340556" transform="rotate(40.0986 154.66 69.0888)" fill="#2B2900"/>
<ellipse cx="157.184" cy="70.3242" rx="0.3407" ry="0.340556" transform="rotate(40.0986 157.184 70.3242)" fill="#2B2900"/>
<ellipse rx="0.340616" ry="0.34064" transform="matrix(0.985536 -0.169469 0.169882 0.985465 152.306 73.1588)" fill="#2B2900"/>
<ellipse rx="0.340616" ry="0.34064" transform="matrix(0.985536 -0.169469 0.169882 0.985465 153.881 74.2711)" fill="#2B2900"/>
<ellipse rx="0.340616" ry="0.34064" transform="matrix(0.985536 -0.169469 0.169882 0.985465 156.452 73.1373)" fill="#2B2900"/>
<ellipse rx="0.340616" ry="0.34064" transform="matrix(0.985536 -0.169469 0.169882 0.985465 152.14 71.2374)" fill="#2B2900"/>
<ellipse rx="0.340616" ry="0.34064" transform="matrix(0.985536 -0.169469 0.169882 0.985465 153.716 72.3502)" fill="#2B2900"/>
<ellipse rx="0.340616" ry="0.34064" transform="matrix(0.985536 -0.169469 0.169882 0.985465 156.286 71.216)" fill="#2B2900"/>
<ellipse rx="0.340616" ry="0.34064" transform="matrix(0.985536 -0.169469 0.169882 0.985465 144.43 77.2189)" fill="#2B2900"/>
<ellipse rx="0.340616" ry="0.34064" transform="matrix(0.985536 -0.169469 0.169882 0.985465 146.005 78.3312)" fill="#2B2900"/>
<ellipse rx="0.340616" ry="0.34064" transform="matrix(0.985536 -0.169469 0.169882 0.985465 148.577 77.1974)" fill="#2B2900"/>
<ellipse rx="0.340556" ry="0.3407" transform="matrix(0.690027 -0.723783 -0.723819 -0.68999 147.23 78.9974)" fill="#2B2900"/>
<ellipse rx="0.340556" ry="0.3407" transform="matrix(0.690027 -0.723783 -0.723819 -0.68999 147.183 77.0702)" fill="#2B2900"/>
<ellipse rx="0.340556" ry="0.3407" transform="matrix(0.690027 -0.723783 -0.723819 -0.68999 149.558 75.5673)" fill="#2B2900"/>
<ellipse rx="0.340616" ry="0.34064" transform="matrix(0.985536 -0.169469 0.169882 0.985465 137.267 78.3151)" fill="#2B2900"/>
<ellipse rx="0.340616" ry="0.34064" transform="matrix(0.985536 -0.169469 0.169882 0.985465 138.843 79.4274)" fill="#2B2900"/>
<ellipse rx="0.340616" ry="0.34064" transform="matrix(0.985536 -0.169469 0.169882 0.985465 141.414 78.2936)" fill="#2B2900"/>
<ellipse rx="0.340674" ry="0.340581" transform="matrix(-0.421987 -0.906602 -0.906739 0.421693 144.722 79.8787)" fill="#2B2900"/>
<ellipse rx="0.340674" ry="0.340581" transform="matrix(-0.421987 -0.906602 -0.906739 0.421693 142.91 79.2171)" fill="#2B2900"/>
<ellipse rx="0.340674" ry="0.340581" transform="matrix(-0.421987 -0.906602 -0.906739 0.421693 142.378 76.4578)" fill="#2B2900"/>
<ellipse rx="0.340694" ry="0.340562" transform="matrix(-0.617109 -0.786878 -0.786982 0.616975 134.078 76.9899)" fill="#2B2900"/>
<ellipse rx="0.340694" ry="0.340562" transform="matrix(-0.617109 -0.786878 -0.786982 0.616975 132.163 76.7575)" fill="#2B2900"/>
<ellipse rx="0.340694" ry="0.340562" transform="matrix(-0.617109 -0.786878 -0.786982 0.616975 131.017 74.1911)" fill="#2B2900"/>
<ellipse rx="0.340556" ry="0.3407" transform="matrix(-0.690273 0.723549 -0.723585 -0.690235 137.483 76.1465)" fill="#2B2900"/>
<ellipse rx="0.340556" ry="0.3407" transform="matrix(-0.690273 0.723549 -0.723585 -0.690235 135.556 76.1914)" fill="#2B2900"/>
<ellipse rx="0.340556" ry="0.3407" transform="matrix(-0.690273 0.723549 -0.723585 -0.690235 134.168 78.6348)" fill="#2B2900"/>
<ellipse rx="0.340625" ry="0.340631" transform="matrix(-0.994083 0.108627 -0.109049 -0.994036 132.031 73.7409)" fill="#2B2900"/>
<ellipse rx="0.340625" ry="0.340631" transform="matrix(-0.994083 0.108627 -0.109049 -0.994036 130.527 72.5339)" fill="#2B2900"/>
<ellipse rx="0.340625" ry="0.340631" transform="matrix(-0.994083 0.108627 -0.109049 -0.994036 127.891 73.5075)" fill="#2B2900"/>
<ellipse rx="0.340694" ry="0.340562" transform="matrix(-0.617109 -0.786878 -0.786982 0.616975 127.489 67.8781)" fill="#2B2900"/>
<ellipse rx="0.340694" ry="0.340562" transform="matrix(-0.617109 -0.786878 -0.786982 0.616975 125.575 67.6461)" fill="#2B2900"/>
<ellipse rx="0.340694" ry="0.340562" transform="matrix(-0.617109 -0.786878 -0.786982 0.616975 124.428 65.0792)" fill="#2B2900"/>
<ellipse rx="0.340627" ry="0.340629" transform="matrix(0.0800757 0.996789 0.996823 -0.0796522 126.585 65.5976)" fill="#2B2900"/>
<ellipse rx="0.340627" ry="0.340629" transform="matrix(0.0800757 0.996789 0.996823 -0.0796522 128.053 66.848)" fill="#2B2900"/>
<ellipse rx="0.340627" ry="0.340629" transform="matrix(0.0800757 0.996789 0.996823 -0.0796522 127.592 69.62)" fill="#2B2900"/>
<ellipse rx="0.340556" ry="0.3407" transform="matrix(-0.643783 0.765208 0.765208 0.643783 126.691 58.9038)" fill="#2B2900"/>
<ellipse rx="0.340556" ry="0.3407" transform="matrix(-0.643783 0.765208 0.765208 0.643783 126.857 60.8247)" fill="#2B2900"/>
<ellipse rx="0.340556" ry="0.3407" transform="matrix(-0.643783 0.765208 0.765208 0.643783 124.58 62.4716)" fill="#2B2900"/>
<ellipse rx="0.340556" ry="0.3407" transform="matrix(-0.643783 0.765208 0.765208 0.643783 128.694 59.6997)" fill="#2B2900"/>
<ellipse rx="0.340556" ry="0.3407" transform="matrix(-0.643783 0.765208 0.765208 0.643783 128.86 61.6206)" fill="#2B2900"/>
<ellipse rx="0.340556" ry="0.3407" transform="matrix(-0.643783 0.765208 0.765208 0.643783 126.583 63.2675)" fill="#2B2900"/>
<ellipse rx="0.340556" ry="0.3407" transform="matrix(-0.643783 0.765208 0.765208 0.643783 133.44 53.0048)" fill="#2B2900"/>
<ellipse rx="0.340556" ry="0.3407" transform="matrix(-0.643783 0.765208 0.765208 0.643783 133.606 54.9257)" fill="#2B2900"/>
<ellipse rx="0.340556" ry="0.3407" transform="matrix(-0.643783 0.765208 0.765208 0.643783 131.329 56.5727)" fill="#2B2900"/>
<ellipse rx="0.340693" ry="0.340562" transform="matrix(0.887301 0.46119 0.461029 -0.887385 130.517 54.6699)" fill="#2B2900"/>
<ellipse rx="0.340693" ry="0.340562" transform="matrix(0.887301 0.46119 0.461029 -0.887385 132.355 54.0888)" fill="#2B2900"/>
<ellipse rx="0.340693" ry="0.340562" transform="matrix(0.887301 0.46119 0.461029 -0.887385 134.46 55.9511)" fill="#2B2900"/>
<ellipse rx="0.340556" ry="0.3407" transform="matrix(0.65126 -0.758854 -0.758859 -0.651254 139.361 54.4469)" fill="#2B2900"/>
<ellipse rx="0.340556" ry="0.3407" transform="matrix(0.65126 -0.758854 -0.758859 -0.651254 139.214 52.5246)" fill="#2B2900"/>
<ellipse rx="0.340556" ry="0.3407" transform="matrix(0.65126 -0.758854 -0.758859 -0.651254 141.506 50.8996)" fill="#2B2900"/>
<ellipse rx="0.340691" ry="0.340565" transform="matrix(0.579824 0.814742 0.814861 -0.579657 138.433 51.1793)" fill="#2B2900"/>
<ellipse rx="0.340691" ry="0.340565" transform="matrix(0.579824 0.814742 0.814861 -0.579657 140.335 51.5001)" fill="#2B2900"/>
<ellipse rx="0.340691" ry="0.340565" transform="matrix(0.579824 0.814742 0.814861 -0.579657 141.361 54.1173)" fill="#2B2900"/>
<ellipse rx="0.340661" ry="0.340595" transform="matrix(0.988466 0.151445 0.151072 -0.988523 144.05 55.2173)" fill="#2B2900"/>
<ellipse rx="0.340661" ry="0.340595" transform="matrix(0.988466 0.151445 0.151072 -0.988523 145.604 54.0762)" fill="#2B2900"/>
<ellipse rx="0.340661" ry="0.340595" transform="matrix(0.988466 0.151445 0.151072 -0.988523 148.196 55.1631)" fill="#2B2900"/>
<ellipse rx="0.340614" ry="0.340642" transform="matrix(-0.0105504 0.999944 0.99994 0.0109674 145.303 51.8341)" fill="#2B2900"/>
<ellipse rx="0.340614" ry="0.340642" transform="matrix(-0.0105504 0.999944 0.99994 0.0109674 146.652 53.212)" fill="#2B2900"/>
<ellipse rx="0.340614" ry="0.340642" transform="matrix(-0.0105504 0.999944 0.99994 0.0109674 145.941 55.9312)" fill="#2B2900"/>
<ellipse rx="0.340649" ry="0.340607" transform="matrix(0.230495 0.973073 0.973167 -0.2301 149.767 54.9963)" fill="#2B2900"/>
<ellipse rx="0.340649" ry="0.340607" transform="matrix(0.230495 0.973073 0.973167 -0.2301 151.408 56.009)" fill="#2B2900"/>
<ellipse rx="0.340649" ry="0.340607" transform="matrix(0.230495 0.973073 0.973167 -0.2301 151.373 58.8195)" fill="#2B2900"/>
<ellipse rx="24.8741" ry="24.0006" transform="matrix(-1 -0.000382264 0.116012 -0.993248 263.612 134.152)" fill="#B47512"/>
<ellipse rx="24.5695" ry="23.2088" transform="matrix(-1 -0.000382264 0.116012 -0.993248 260.839 132.568)" fill="#A1BE1C" stroke="#B47512" stroke-width="1.54896"/>
<path d="M267.631 120.336C267.36 121.189 265.742 122.995 264.967 123.792L266.985 124.825L266.856 124.002C266.727 123.178 267.97 119.27 267.631 120.336Z" fill="#CCD45C"/>
<path d="M271.741 122.728C271.032 123.626 268.103 124.917 266.727 125.45L269.083 127.915L269.231 126.818C269.38 125.721 272.626 121.605 271.741 122.728Z" fill="#CCD45C"/>
<path d="M274.955 129.145C273.817 129.256 270.857 128.036 269.52 127.412L269.373 130.819L270.267 130.167C271.161 129.514 276.378 129.006 274.955 129.145Z" fill="#CCD45C"/>
<path d="M273.654 133.748C272.516 133.859 269.556 132.639 268.219 132.015L268.072 135.422L268.966 134.77C269.86 134.117 275.077 133.609 273.654 133.748Z" fill="#CCD45C"/>
<path d="M271.044 142.336C270.204 141.56 269.143 138.54 268.718 137.127L266.078 139.286L267.16 139.518C268.242 139.751 272.095 143.305 271.044 142.336Z" fill="#CCD45C"/>
<path d="M264.338 145.564C263.977 144.42 264.65 141.096 265.031 139.577L261.357 140.213L262.246 140.981C263.134 141.749 264.79 146.995 264.338 145.564Z" fill="#CCD45C"/>
<path d="M257.731 147.641C257.867 146.449 259.836 143.688 260.804 142.456L257.19 141.539L257.688 142.603C258.186 143.667 257.56 149.132 257.731 147.641Z" fill="#CCD45C"/>
<path d="M252.04 144.958C252.176 143.766 254.145 141.005 255.113 139.773L251.499 138.856L251.997 139.92C252.495 140.984 251.869 146.449 252.04 144.958Z" fill="#CCD45C"/>
<path d="M245.711 138.937C246.816 138.467 250.189 138.816 251.737 139.049L250.75 135.454L250.071 136.412C249.392 137.37 244.331 139.524 245.711 138.937Z" fill="#CCD45C"/>
<path d="M246.883 129.011C247.976 129.505 250.003 132.224 250.88 133.522L252.858 130.361L251.693 130.51C250.528 130.659 245.516 128.393 246.883 129.011Z" fill="#CCD45C"/>
<path d="M249.942 124.367C251.035 124.862 253.062 127.58 253.939 128.878L255.917 125.717L254.752 125.866C253.587 126.015 248.575 123.749 249.942 124.367Z" fill="#CCD45C"/>
<path d="M257.169 118.712C257.482 119.87 256.672 123.163 256.228 124.665L259.925 124.182L259.069 123.378C258.214 122.573 256.777 117.264 257.169 118.712Z" fill="#CCD45C"/>
<path d="M261.061 119.677C261.375 120.836 260.564 124.128 260.12 125.63L263.817 125.148L262.962 124.343C262.106 123.539 260.669 118.229 261.061 119.677Z" fill="#CCD45C"/>
<path d="M264.901 119.061C264.811 119.951 263.598 122.052 263.003 122.991L265.191 123.587L264.896 122.808C264.6 122.029 265.014 117.949 264.901 119.061Z" fill="#85A00A"/>
<path d="M269.415 120.557C268.906 121.582 266.304 123.446 265.067 124.251L267.879 126.18L267.799 125.076C267.719 123.972 270.05 119.277 269.415 120.557Z" fill="#85A00A"/>
<path d="M273.879 126.177C272.787 126.519 269.64 125.933 268.203 125.598L268.759 128.962L269.5 128.14C270.241 127.318 275.243 125.749 273.879 126.177Z" fill="#85A00A"/>
<path d="M273.551 130.949C272.46 131.291 269.313 130.705 267.876 130.37L268.432 133.734L269.173 132.912C269.914 132.09 274.915 130.521 273.551 130.949Z" fill="#85A00A"/>
<path d="M272.761 139.89C271.778 139.304 270.12 136.566 269.413 135.27L267.273 137.925L268.38 137.931C269.487 137.936 273.988 140.623 272.761 139.89Z" fill="#85A00A"/>
<path d="M266.861 144.428C266.272 143.382 266.248 139.991 266.31 138.426L262.844 139.803L263.872 140.372C264.899 140.942 267.597 145.735 266.861 144.428Z" fill="#85A00A"/>
<path d="M260.821 147.817C260.71 146.622 262.07 143.515 262.764 142.111L259.038 141.956L259.744 142.895C260.45 143.834 260.96 149.31 260.821 147.817Z" fill="#85A00A"/>
<path d="M254.7 146.36C254.589 145.165 255.949 142.059 256.643 140.655L252.917 140.5L253.623 141.438C254.329 142.377 254.839 147.854 254.7 146.36Z" fill="#85A00A"/>
<path d="M247.27 141.767C248.254 141.08 251.627 140.729 253.19 140.639L251.486 137.323L251.018 138.4C250.55 139.478 246.04 142.626 247.27 141.767Z" fill="#85A00A"/>
<path d="M246.377 131.812C247.549 132.072 250.091 134.316 251.216 135.406L252.502 131.906L251.393 132.292C250.283 132.677 244.913 131.488 246.377 131.812Z" fill="#85A00A"/>
<path d="M248.417 126.639C249.589 126.898 252.131 129.143 253.255 130.233L254.542 126.733L253.433 127.118C252.323 127.503 246.952 126.315 248.417 126.639Z" fill="#85A00A"/>
<path d="M254.328 119.62C254.873 120.689 254.757 124.078 254.63 125.639L258.149 124.408L257.147 123.796C256.144 123.184 253.647 118.283 254.328 119.62Z" fill="#85A00A"/>
<path d="M258.336 119.765C258.881 120.835 258.765 124.224 258.638 125.785L262.158 124.553L261.155 123.942C260.152 123.33 257.655 118.429 258.336 119.765Z" fill="#85A00A"/>
<path d="M267.631 120.336C267.36 121.189 265.742 122.995 264.967 123.792L266.985 124.825L266.856 124.002C266.727 123.178 267.97 119.27 267.631 120.336Z" fill="#CCD45C"/>
<path d="M271.741 122.728C271.032 123.626 268.103 124.917 266.727 125.45L269.083 127.915L269.231 126.818C269.38 125.721 272.626 121.605 271.741 122.728Z" fill="#CCD45C"/>
<path d="M274.955 129.145C273.817 129.256 270.857 128.036 269.52 127.412L269.373 130.819L270.267 130.167C271.161 129.514 276.378 129.006 274.955 129.145Z" fill="#CCD45C"/>
<path d="M273.654 133.748C272.516 133.859 269.556 132.639 268.219 132.015L268.072 135.422L268.966 134.77C269.86 134.117 275.077 133.609 273.654 133.748Z" fill="#CCD45C"/>
<path d="M271.044 142.336C270.204 141.56 269.143 138.54 268.718 137.127L266.078 139.286L267.16 139.518C268.242 139.751 272.095 143.305 271.044 142.336Z" fill="#CCD45C"/>
<path d="M264.338 145.564C263.977 144.42 264.65 141.096 265.031 139.577L261.357 140.213L262.246 140.981C263.134 141.749 264.79 146.995 264.338 145.564Z" fill="#CCD45C"/>
<path d="M257.731 147.641C257.867 146.449 259.836 143.688 260.804 142.456L257.19 141.539L257.688 142.603C258.186 143.667 257.56 149.132 257.731 147.641Z" fill="#CCD45C"/>
<path d="M252.04 144.958C252.176 143.766 254.145 141.005 255.113 139.773L251.499 138.856L251.997 139.92C252.495 140.984 251.869 146.449 252.04 144.958Z" fill="#CCD45C"/>
<path d="M245.711 138.937C246.816 138.467 250.189 138.816 251.737 139.049L250.75 135.454L250.071 136.412C249.392 137.37 244.331 139.524 245.711 138.937Z" fill="#CCD45C"/>
<path d="M246.883 129.011C247.976 129.505 250.003 132.224 250.88 133.522L252.858 130.361L251.693 130.51C250.528 130.659 245.516 128.393 246.883 129.011Z" fill="#CCD45C"/>
<path d="M249.942 124.367C251.035 124.862 253.062 127.58 253.939 128.878L255.917 125.717L254.752 125.866C253.587 126.015 248.575 123.749 249.942 124.367Z" fill="#CCD45C"/>
<path d="M257.169 118.712C257.482 119.87 256.672 123.163 256.228 124.665L259.925 124.182L259.069 123.378C258.214 122.573 256.777 117.264 257.169 118.712Z" fill="#CCD45C"/>
<path d="M261.061 119.677C261.375 120.836 260.564 124.128 260.12 125.63L263.817 125.148L262.962 124.343C262.106 123.539 260.669 118.229 261.061 119.677Z" fill="#CCD45C"/>
<path d="M266.251 140.217C261.517 144.033 253.306 143.492 251.756 139.779C250.206 136.067 249.671 129.338 254.405 125.522C262.859 120.295 265.629 121.902 268.9 125.96C270.825 130.138 270.297 137.714 266.251 140.217Z" fill="#CCD45C"/>
<path d="M264.061 138.381C261.951 141.585 257.722 139.303 254.544 138.093C251.461 137.093 253.175 131.238 256.284 128.733C259.861 127.576 260.038 122.386 266.37 127.602C268.517 130.266 267.169 135.875 264.061 138.381Z" fill="#ECEB8E"/>
<ellipse cx="262.368" cy="120.783" rx="0.3407" ry="0.340556" transform="rotate(-18.2807 262.368 120.783)" fill="#2B2900"/>
<ellipse cx="264.091" cy="121.65" rx="0.3407" ry="0.340556" transform="rotate(-18.2807 264.091 121.65)" fill="#2B2900"/>
<ellipse cx="266.466" cy="120.147" rx="0.3407" ry="0.340556" transform="rotate(-18.2807 266.466 120.147)" fill="#2B2900"/>
<ellipse rx="0.340582" ry="0.340673" transform="matrix(0.692432 0.721483 0.721712 -0.692194 262.188 118.492)" fill="#2B2900"/>
<ellipse rx="0.340582" ry="0.340673" transform="matrix(0.692432 0.721483 0.721712 -0.692194 264.116 118.531)" fill="#2B2900"/>
<ellipse rx="0.340582" ry="0.340673" transform="matrix(0.692432 0.721483 0.721712 -0.692194 265.512 120.97)" fill="#2B2900"/>
<ellipse cx="268.616" cy="122.308" rx="0.3407" ry="0.340556" transform="rotate(-18.2807 268.616 122.308)" fill="#2B2900"/>
<ellipse cx="270.34" cy="123.175" rx="0.3407" ry="0.340556" transform="rotate(-18.2807 270.34 123.175)" fill="#2B2900"/>
<ellipse cx="272.715" cy="121.672" rx="0.3407" ry="0.340556" transform="rotate(-18.2807 272.715 121.672)" fill="#2B2900"/>
<ellipse rx="0.340616" ry="0.34064" transform="matrix(0.3724 -0.928072 0.928228 0.372012 272.571 127.313)" fill="#2B2900"/>
<ellipse rx="0.340616" ry="0.34064" transform="matrix(0.3724 -0.928072 0.928228 0.372012 274.344 126.554)" fill="#2B2900"/>
<ellipse rx="0.340616" ry="0.34064" transform="matrix(0.3724 -0.928072 0.928228 0.372012 274.727 123.771)" fill="#2B2900"/>
<ellipse rx="0.340616" ry="0.34064" transform="matrix(0.3724 -0.928072 0.928228 0.372012 270.848 126.446)" fill="#2B2900"/>
<ellipse rx="0.340616" ry="0.34064" transform="matrix(0.3724 -0.928072 0.928228 0.372012 272.622 125.688)" fill="#2B2900"/>
<ellipse rx="0.340616" ry="0.34064" transform="matrix(0.3724 -0.928072 0.928228 0.372012 273.003 122.904)" fill="#2B2900"/>
<ellipse rx="0.340616" ry="0.34064" transform="matrix(0.3724 -0.928072 0.928228 0.372012 271.899 136.148)" fill="#2B2900"/>
<ellipse rx="0.340616" ry="0.34064" transform="matrix(0.3724 -0.928072 0.928228 0.372012 273.672 135.39)" fill="#2B2900"/>
<ellipse rx="0.340616" ry="0.34064" transform="matrix(0.3724 -0.928072 0.928228 0.372012 274.055 132.606)" fill="#2B2900"/>
<ellipse rx="0.340556" ry="0.3407" transform="matrix(-0.254552 -0.967059 -0.967046 0.254603 274.881 134.696)" fill="#2B2900"/>
<ellipse rx="0.340556" ry="0.3407" transform="matrix(-0.254552 -0.967059 -0.967046 0.254603 273.216 133.725)" fill="#2B2900"/>
<ellipse rx="0.340556" ry="0.3407" transform="matrix(-0.254552 -0.967059 -0.967046 0.254603 273.181 130.915)" fill="#2B2900"/>
<ellipse rx="0.340616" ry="0.34064" transform="matrix(0.3724 -0.928072 0.928228 0.372012 269.077 142.821)" fill="#2B2900"/>
<ellipse rx="0.340616" ry="0.34064" transform="matrix(0.3724 -0.928072 0.928228 0.372012 270.85 142.063)" fill="#2B2900"/>
<ellipse rx="0.340616" ry="0.34064" transform="matrix(0.3724 -0.928072 0.928228 0.372012 271.233 139.279)" fill="#2B2900"/>
<ellipse rx="0.340674" ry="0.340581" transform="matrix(-0.993251 -0.115987 -0.116309 0.993213 274.317 137.293)" fill="#2B2900"/>
<ellipse rx="0.340674" ry="0.340581" transform="matrix(-0.993251 -0.115987 -0.116309 0.993213 272.804 138.489)" fill="#2B2900"/>
<ellipse rx="0.340674" ry="0.340581" transform="matrix(-0.993251 -0.115987 -0.116309 0.993213 270.175 137.496)" fill="#2B2900"/>
<ellipse rx="0.340694" ry="0.340562" transform="matrix(-0.993602 0.112938 0.112769 0.993621 266.277 144.843)" fill="#2B2900"/>
<ellipse rx="0.340694" ry="0.340562" transform="matrix(-0.993602 0.112938 0.112769 0.993621 265.075 146.351)" fill="#2B2900"/>
<ellipse rx="0.340694" ry="0.340562" transform="matrix(-0.993602 0.112938 0.112769 0.993621 262.289 145.982)" fill="#2B2900"/>
<ellipse rx="0.340556" ry="0.3407" transform="matrix(0.254224 0.967145 -0.967132 0.254275 267.344 141.5)" fill="#2B2900"/>
<ellipse rx="0.340556" ry="0.3407" transform="matrix(0.254224 0.967145 -0.967132 0.254275 266.372 143.165)" fill="#2B2900"/>
<ellipse rx="0.340556" ry="0.3407" transform="matrix(0.254224 0.967145 -0.967132 0.254275 267.724 145.629)" fill="#2B2900"/>
<ellipse rx="0.340625" ry="0.340631" transform="matrix(-0.428691 0.903451 -0.903633 -0.428307 262.437 144.882)" fill="#2B2900"/>
<ellipse rx="0.340625" ry="0.340631" transform="matrix(-0.428691 0.903451 -0.903633 -0.428307 260.62 145.53)" fill="#2B2900"/>
<ellipse rx="0.340625" ry="0.340631" transform="matrix(-0.428691 0.903451 -0.903633 -0.428307 260.067 148.285)" fill="#2B2900"/>
<ellipse rx="0.340694" ry="0.340562" transform="matrix(-0.993602 0.112938 0.112769 0.993621 255.063 145.676)" fill="#2B2900"/>
<ellipse rx="0.340694" ry="0.340562" transform="matrix(-0.993602 0.112938 0.112769 0.993621 253.862 147.184)" fill="#2B2900"/>
<ellipse rx="0.340694" ry="0.340562" transform="matrix(-0.993602 0.112938 0.112769 0.993621 251.075 146.815)" fill="#2B2900"/>
<ellipse rx="0.340627" ry="0.340629" transform="matrix(0.890787 0.454422 0.4548 -0.890593 252.647 145.25)" fill="#2B2900"/>
<ellipse rx="0.340627" ry="0.340629" transform="matrix(0.890787 0.454422 0.4548 -0.890593 254.482 144.656)" fill="#2B2900"/>
<ellipse rx="0.340627" ry="0.340629" transform="matrix(0.890787 0.454422 0.4548 -0.890593 256.6 146.502)" fill="#2B2900"/>
<ellipse rx="0.340556" ry="0.3407" transform="matrix(0.314073 0.949399 0.949399 -0.314073 247.002 141.651)" fill="#2B2900"/>
<ellipse rx="0.340556" ry="0.3407" transform="matrix(0.314073 0.949399 0.949399 -0.314073 248.725 142.517)" fill="#2B2900"/>
<ellipse rx="0.340556" ry="0.3407" transform="matrix(0.314073 0.949399 0.949399 -0.314073 248.934 145.319)" fill="#2B2900"/>
<ellipse rx="0.340556" ry="0.3407" transform="matrix(0.314073 0.949399 0.949399 -0.314073 248.73 140.362)" fill="#2B2900"/>
<ellipse rx="0.340556" ry="0.3407" transform="matrix(0.314073 0.949399 0.949399 -0.314073 250.453 141.228)" fill="#2B2900"/>
<ellipse rx="0.340556" ry="0.3407" transform="matrix(0.314073 0.949399 0.949399 -0.314073 250.662 144.03)" fill="#2B2900"/>
<ellipse rx="0.340556" ry="0.3407" transform="matrix(0.314073 0.949399 0.949399 -0.314073 245.518 132.81)" fill="#2B2900"/>
<ellipse rx="0.340556" ry="0.3407" transform="matrix(0.314073 0.949399 0.949399 -0.314073 247.24 133.676)" fill="#2B2900"/>
<ellipse rx="0.340556" ry="0.3407" transform="matrix(0.314073 0.949399 0.949399 -0.314073 247.449 136.479)" fill="#2B2900"/>
<ellipse rx="0.340693" ry="0.340562" transform="matrix(0.857927 -0.513772 -0.513927 -0.857834 245.403 136.173)" fill="#2B2900"/>
<ellipse rx="0.340693" ry="0.340562" transform="matrix(0.857927 -0.513772 -0.513927 -0.857834 245.872 134.303)" fill="#2B2900"/>
<ellipse rx="0.340693" ry="0.340562" transform="matrix(0.857927 -0.513772 -0.513927 -0.857834 248.562 133.486)" fill="#2B2900"/>
<ellipse rx="0.340556" ry="0.3407" transform="matrix(-0.304742 -0.952435 -0.952433 0.30475 249.85 128.525)" fill="#2B2900"/>
<ellipse rx="0.340556" ry="0.3407" transform="matrix(-0.304742 -0.952435 -0.952433 0.30475 248.136 127.642)" fill="#2B2900"/>
<ellipse rx="0.340556" ry="0.3407" transform="matrix(-0.304742 -0.952435 -0.952433 0.30475 247.954 124.838)" fill="#2B2900"/>
<ellipse rx="0.340691" ry="0.340565" transform="matrix(0.997781 -0.0665791 -0.0663739 -0.997795 246.581 127.601)" fill="#2B2900"/>
<ellipse rx="0.340691" ry="0.340565" transform="matrix(0.997781 -0.0665791 -0.0663739 -0.997795 247.852 126.15)" fill="#2B2900"/>
<ellipse rx="0.340691" ry="0.340565" transform="matrix(0.997781 -0.0665791 -0.0663739 -0.997795 250.618 126.649)" fill="#2B2900"/>
<ellipse rx="0.340661" ry="0.340595" transform="matrix(0.647207 -0.762314 -0.762559 -0.646919 252.965 124.936)" fill="#2B2900"/>
<ellipse rx="0.340661" ry="0.340595" transform="matrix(0.647207 -0.762314 -0.762559 -0.646919 252.807 123.015)" fill="#2B2900"/>
<ellipse rx="0.340661" ry="0.340595" transform="matrix(0.647207 -0.762314 -0.762559 -0.646919 255.092 121.377)" fill="#2B2900"/>
<ellipse rx="0.340614" ry="0.340642" transform="matrix(0.845959 0.533248 0.533601 -0.845737 250.74 122.095)" fill="#2B2900"/>
<ellipse rx="0.340614" ry="0.340642" transform="matrix(0.845959 0.533248 0.533601 -0.845737 252.621 121.669)" fill="#2B2900"/>
<ellipse rx="0.340614" ry="0.340642" transform="matrix(0.845959 0.533248 0.533601 -0.845737 254.564 123.7)" fill="#2B2900"/>
<ellipse rx="0.340649" ry="0.340607" transform="matrix(0.949456 0.3139 0.314286 -0.949328 255.774 119.952)" fill="#2B2900"/>
<ellipse rx="0.340649" ry="0.340607" transform="matrix(0.949456 0.3139 0.314286 -0.949328 257.496 119.086)" fill="#2B2900"/>
<ellipse rx="0.340649" ry="0.340607" transform="matrix(0.949456 0.3139 0.314286 -0.949328 259.872 120.588)" fill="#2B2900"/>
<ellipse rx="24.5695" ry="23.2088" transform="matrix(-1 -0.000382264 0.116012 -0.993248 172.399 179.365)" fill="#B47512"/>
<ellipse rx="24.5695" ry="23.2088" transform="matrix(-1 -0.000382264 0.116012 -0.993248 169.839 178.568)" fill="#A1BE1C" stroke="#B47512" stroke-width="1.54896"/>
<path d="M176.631 166.336C176.359 167.188 174.741 168.995 173.966 169.792L175.985 170.825L175.856 170.001C175.727 169.178 176.97 165.27 176.631 166.336Z" fill="#CCD45C"/>
<path d="M180.74 168.728C180.032 169.626 177.103 170.916 175.726 171.449L178.083 173.915L178.231 172.818C178.38 171.721 181.626 167.605 180.74 168.728Z" fill="#CCD45C"/>
<path d="M183.955 175.144C182.817 175.255 179.857 174.035 178.52 173.411L178.372 176.819L179.266 176.166C180.16 175.514 185.378 175.006 183.955 175.144Z" fill="#CCD45C"/>
<path d="M182.654 179.747C181.516 179.858 178.556 178.638 177.219 178.014L177.072 181.422L177.966 180.769C178.86 180.117 184.077 179.609 182.654 179.747Z" fill="#CCD45C"/>
<path d="M180.044 188.335C179.203 187.56 178.143 184.539 177.717 183.126L175.077 185.285L176.16 185.518C177.242 185.75 181.095 189.304 180.044 188.335Z" fill="#CCD45C"/>
<path d="M173.338 191.564C172.977 190.419 173.65 187.096 174.031 185.577L170.357 186.212L171.245 186.981C172.134 187.749 173.79 192.994 173.338 191.564Z" fill="#CCD45C"/>
<path d="M166.73 193.641C166.867 192.448 168.836 189.687 169.803 188.456L166.189 187.539L166.688 188.603C167.186 189.666 166.56 195.131 166.73 193.641Z" fill="#CCD45C"/>
<path d="M161.04 190.958C161.176 189.765 163.145 187.004 164.113 185.773L160.499 184.856L160.997 185.919C161.495 186.983 160.869 192.448 161.04 190.958Z" fill="#CCD45C"/>
<path d="M154.711 184.936C155.815 184.466 159.188 184.815 160.737 185.049L159.75 181.453L159.071 182.411C158.392 183.37 153.331 185.524 154.711 184.936Z" fill="#CCD45C"/>
<path d="M155.882 175.01C156.976 175.505 159.003 178.223 159.879 179.521L161.857 176.36L160.693 176.51C159.528 176.659 154.515 174.392 155.882 175.01Z" fill="#CCD45C"/>
<path d="M158.942 170.367C160.035 170.861 162.062 173.58 162.939 174.878L164.917 171.717L163.752 171.866C162.587 172.015 157.575 169.748 158.942 170.367Z" fill="#CCD45C"/>
<path d="M166.169 164.711C166.482 165.87 165.672 169.163 165.228 170.664L168.925 170.182L168.069 169.377C167.213 168.573 165.777 163.263 166.169 164.711Z" fill="#CCD45C"/>
<path d="M170.061 165.677C170.374 166.835 169.564 170.128 169.12 171.63L172.817 171.147L171.961 170.343C171.106 169.538 169.669 164.228 170.061 165.677Z" fill="#CCD45C"/>
<path d="M173.901 165.061C173.81 165.951 172.598 168.051 172.003 168.99L174.191 169.587L173.895 168.808C173.6 168.028 174.014 163.948 173.901 165.061Z" fill="#85A00A"/>
<path d="M178.414 166.557C177.906 167.581 175.304 169.446 174.066 170.25L176.879 172.179L176.799 171.075C176.719 169.971 179.05 165.276 178.414 166.557Z" fill="#85A00A"/>
<path d="M182.878 172.177C181.787 172.519 178.64 171.933 177.203 171.597L177.759 174.962L178.5 174.14C179.241 173.318 184.243 171.749 182.878 172.177Z" fill="#85A00A"/>
<path d="M182.551 176.949C181.46 177.291 178.313 176.705 176.876 176.369L177.431 179.734L178.172 178.912C178.913 178.089 183.915 176.521 182.551 176.949Z" fill="#85A00A"/>
<path d="M181.76 185.889C180.778 185.303 179.12 182.565 178.413 181.269L176.273 183.925L177.38 183.93C178.487 183.935 182.988 186.622 181.76 185.889Z" fill="#85A00A"/>
<path d="M175.861 190.427C175.272 189.381 175.248 185.99 175.309 184.426L171.844 185.802L172.871 186.372C173.899 186.941 176.597 191.735 175.861 190.427Z" fill="#85A00A"/>
<path d="M169.821 193.816C169.709 192.621 171.069 189.515 171.763 188.111L168.038 187.956L168.744 188.894C169.45 189.833 169.96 195.31 169.821 193.816Z" fill="#85A00A"/>
<path d="M163.7 192.36C163.589 191.165 164.949 188.058 165.642 186.654L161.917 186.499L162.623 187.438C163.329 188.377 163.839 193.853 163.7 192.36Z" fill="#85A00A"/>
<path d="M156.27 187.767C157.254 187.08 160.627 186.729 162.19 186.639L160.486 183.323L160.018 184.4C159.55 185.477 155.039 188.625 156.27 187.767Z" fill="#85A00A"/>
<path d="M155.377 177.812C156.549 178.071 159.091 180.316 160.216 181.405L161.502 177.906L160.393 178.291C159.283 178.676 153.912 177.488 155.377 177.812Z" fill="#85A00A"/>
<path d="M157.417 172.638C158.589 172.898 161.131 175.142 162.255 176.232L163.542 172.733L162.432 173.118C161.323 173.503 155.952 172.314 157.417 172.638Z" fill="#85A00A"/>
<path d="M163.328 165.619C163.873 166.689 163.756 170.078 163.63 171.639L167.149 170.407L166.147 169.796C165.144 169.184 162.647 164.283 163.328 165.619Z" fill="#85A00A"/>
<path d="M167.336 165.765C167.881 166.834 167.764 170.223 167.638 171.784L171.157 170.553L170.155 169.941C169.152 169.329 166.655 164.428 167.336 165.765Z" fill="#85A00A"/>
<path d="M176.631 166.336C176.359 167.188 174.741 168.995 173.966 169.792L175.985 170.825L175.856 170.001C175.727 169.178 176.97 165.27 176.631 166.336Z" fill="#CCD45C"/>
<path d="M180.74 168.728C180.032 169.626 177.103 170.916 175.726 171.449L178.083 173.915L178.231 172.818C178.38 171.721 181.626 167.605 180.74 168.728Z" fill="#CCD45C"/>
<path d="M183.955 175.144C182.817 175.255 179.857 174.035 178.52 173.411L178.372 176.819L179.266 176.166C180.16 175.514 185.378 175.006 183.955 175.144Z" fill="#CCD45C"/>
<path d="M182.654 179.747C181.516 179.858 178.556 178.638 177.219 178.014L177.072 181.422L177.966 180.769C178.86 180.117 184.077 179.609 182.654 179.747Z" fill="#CCD45C"/>
<path d="M180.044 188.335C179.203 187.56 178.143 184.539 177.717 183.126L175.077 185.285L176.16 185.518C177.242 185.75 181.095 189.304 180.044 188.335Z" fill="#CCD45C"/>
<path d="M173.338 191.564C172.977 190.419 173.65 187.096 174.031 185.577L170.357 186.212L171.245 186.981C172.134 187.749 173.79 192.994 173.338 191.564Z" fill="#CCD45C"/>
<path d="M166.73 193.641C166.867 192.448 168.836 189.687 169.803 188.456L166.189 187.539L166.688 188.603C167.186 189.666 166.56 195.131 166.73 193.641Z" fill="#CCD45C"/>
<path d="M161.04 190.958C161.176 189.765 163.145 187.004 164.113 185.773L160.499 184.856L160.997 185.919C161.495 186.983 160.869 192.448 161.04 190.958Z" fill="#CCD45C"/>
<path d="M154.711 184.936C155.815 184.466 159.188 184.815 160.737 185.049L159.75 181.453L159.071 182.411C158.392 183.37 153.331 185.524 154.711 184.936Z" fill="#CCD45C"/>
<path d="M155.882 175.01C156.976 175.505 159.003 178.223 159.879 179.521L161.857 176.36L160.693 176.51C159.528 176.659 154.515 174.392 155.882 175.01Z" fill="#CCD45C"/>
<path d="M158.942 170.367C160.035 170.861 162.062 173.58 162.939 174.878L164.917 171.717L163.752 171.866C162.587 172.015 157.575 169.748 158.942 170.367Z" fill="#CCD45C"/>
<path d="M166.169 164.711C166.482 165.87 165.672 169.163 165.228 170.664L168.925 170.182L168.069 169.377C167.213 168.573 165.777 163.263 166.169 164.711Z" fill="#CCD45C"/>
<path d="M170.061 165.677C170.374 166.835 169.564 170.128 169.12 171.63L172.817 171.147L171.961 170.343C171.106 169.538 169.669 164.228 170.061 165.677Z" fill="#CCD45C"/>
<path d="M175.251 186.217C170.516 190.033 162.306 189.492 160.756 185.779C159.206 182.066 158.671 175.338 163.405 171.522C171.858 166.295 174.629 167.901 177.9 171.959C179.825 176.137 179.297 183.713 175.251 186.217Z" fill="#CCD45C"/>
<path d="M173.061 184.38C170.95 187.585 166.722 185.303 163.544 184.093C160.461 183.093 162.175 177.238 165.283 174.732C168.86 173.576 169.038 168.386 175.369 173.602C177.517 176.266 176.169 181.875 173.061 184.38Z" fill="#ECEB8E"/>
<ellipse cx="171.368" cy="166.783" rx="0.3407" ry="0.340556" transform="rotate(-18.2807 171.368 166.783)" fill="#2B2900"/>
<ellipse cx="173.091" cy="167.65" rx="0.3407" ry="0.340556" transform="rotate(-18.2807 173.091 167.65)" fill="#2B2900"/>
<ellipse cx="175.466" cy="166.147" rx="0.3407" ry="0.340556" transform="rotate(-18.2807 175.466 166.147)" fill="#2B2900"/>
<ellipse rx="0.340582" ry="0.340673" transform="matrix(0.692432 0.721483 0.721712 -0.692194 171.188 164.491)" fill="#2B2900"/>
<ellipse rx="0.340582" ry="0.340673" transform="matrix(0.692432 0.721483 0.721712 -0.692194 173.116 164.531)" fill="#2B2900"/>
<ellipse rx="0.340582" ry="0.340673" transform="matrix(0.692432 0.721483 0.721712 -0.692194 174.512 166.97)" fill="#2B2900"/>
<ellipse cx="177.616" cy="168.308" rx="0.3407" ry="0.340556" transform="rotate(-18.2807 177.616 168.308)" fill="#2B2900"/>
<ellipse cx="179.339" cy="169.174" rx="0.3407" ry="0.340556" transform="rotate(-18.2807 179.339 169.174)" fill="#2B2900"/>
<ellipse cx="181.715" cy="167.672" rx="0.3407" ry="0.340556" transform="rotate(-18.2807 181.715 167.672)" fill="#2B2900"/>
<ellipse rx="0.340616" ry="0.34064" transform="matrix(0.3724 -0.928072 0.928228 0.372012 181.57 173.312)" fill="#2B2900"/>
<ellipse rx="0.340616" ry="0.34064" transform="matrix(0.3724 -0.928072 0.928228 0.372012 183.344 172.554)" fill="#2B2900"/>
<ellipse rx="0.340616" ry="0.34064" transform="matrix(0.3724 -0.928072 0.928228 0.372012 183.726 169.77)" fill="#2B2900"/>
<ellipse rx="0.340616" ry="0.34064" transform="matrix(0.3724 -0.928072 0.928228 0.372012 179.848 172.445)" fill="#2B2900"/>
<ellipse rx="0.340616" ry="0.34064" transform="matrix(0.3724 -0.928072 0.928228 0.372012 181.621 171.688)" fill="#2B2900"/>
<ellipse rx="0.340616" ry="0.34064" transform="matrix(0.3724 -0.928072 0.928228 0.372012 182.003 168.903)" fill="#2B2900"/>
<ellipse rx="0.340616" ry="0.34064" transform="matrix(0.3724 -0.928072 0.928228 0.372012 180.899 182.147)" fill="#2B2900"/>
<ellipse rx="0.340616" ry="0.34064" transform="matrix(0.3724 -0.928072 0.928228 0.372012 182.672 181.389)" fill="#2B2900"/>
<ellipse rx="0.340616" ry="0.34064" transform="matrix(0.3724 -0.928072 0.928228 0.372012 183.054 178.605)" fill="#2B2900"/>
<ellipse rx="0.340556" ry="0.3407" transform="matrix(-0.254552 -0.967059 -0.967046 0.254603 183.881 180.695)" fill="#2B2900"/>
<ellipse rx="0.340556" ry="0.3407" transform="matrix(-0.254552 -0.967059 -0.967046 0.254603 182.215 179.725)" fill="#2B2900"/>
<ellipse rx="0.340556" ry="0.3407" transform="matrix(-0.254552 -0.967059 -0.967046 0.254603 182.181 176.915)" fill="#2B2900"/>
<ellipse rx="0.340616" ry="0.34064" transform="matrix(0.3724 -0.928072 0.928228 0.372012 178.077 188.821)" fill="#2B2900"/>
<ellipse rx="0.340616" ry="0.34064" transform="matrix(0.3724 -0.928072 0.928228 0.372012 179.85 188.063)" fill="#2B2900"/>
<ellipse rx="0.340616" ry="0.34064" transform="matrix(0.3724 -0.928072 0.928228 0.372012 180.233 185.278)" fill="#2B2900"/>
<ellipse rx="0.340674" ry="0.340581" transform="matrix(-0.993251 -0.115987 -0.116309 0.993213 183.317 183.293)" fill="#2B2900"/>
<ellipse rx="0.340674" ry="0.340581" transform="matrix(-0.993251 -0.115987 -0.116309 0.993213 181.803 184.489)" fill="#2B2900"/>
<ellipse rx="0.340674" ry="0.340581" transform="matrix(-0.993251 -0.115987 -0.116309 0.993213 179.175 183.495)" fill="#2B2900"/>
<ellipse rx="0.340694" ry="0.340562" transform="matrix(-0.993602 0.112938 0.112769 0.993621 175.277 190.842)" fill="#2B2900"/>
<ellipse rx="0.340694" ry="0.340562" transform="matrix(-0.993602 0.112938 0.112769 0.993621 174.075 192.351)" fill="#2B2900"/>
<ellipse rx="0.340694" ry="0.340562" transform="matrix(-0.993602 0.112938 0.112769 0.993621 171.288 191.982)" fill="#2B2900"/>
<ellipse rx="0.340556" ry="0.3407" transform="matrix(0.254224 0.967145 -0.967132 0.254275 176.344 187.5)" fill="#2B2900"/>
<ellipse rx="0.340556" ry="0.3407" transform="matrix(0.254224 0.967145 -0.967132 0.254275 175.371 189.165)" fill="#2B2900"/>
<ellipse rx="0.340556" ry="0.3407" transform="matrix(0.254224 0.967145 -0.967132 0.254275 176.724 191.628)" fill="#2B2900"/>
<ellipse rx="0.340625" ry="0.340631" transform="matrix(-0.428691 0.903451 -0.903633 -0.428307 171.437 190.881)" fill="#2B2900"/>
<ellipse rx="0.340625" ry="0.340631" transform="matrix(-0.428691 0.903451 -0.903633 -0.428307 169.62 191.529)" fill="#2B2900"/>
<ellipse rx="0.340625" ry="0.340631" transform="matrix(-0.428691 0.903451 -0.903633 -0.428307 169.067 194.284)" fill="#2B2900"/>
<ellipse rx="0.340694" ry="0.340562" transform="matrix(-0.993602 0.112938 0.112769 0.993621 164.063 191.675)" fill="#2B2900"/>
<ellipse rx="0.340694" ry="0.340562" transform="matrix(-0.993602 0.112938 0.112769 0.993621 162.862 193.184)" fill="#2B2900"/>
<ellipse rx="0.340694" ry="0.340562" transform="matrix(-0.993602 0.112938 0.112769 0.993621 160.075 192.814)" fill="#2B2900"/>
<ellipse rx="0.340627" ry="0.340629" transform="matrix(0.890787 0.454422 0.4548 -0.890593 161.647 191.249)" fill="#2B2900"/>
<ellipse rx="0.340627" ry="0.340629" transform="matrix(0.890787 0.454422 0.4548 -0.890593 163.482 190.655)" fill="#2B2900"/>
<ellipse rx="0.340627" ry="0.340629" transform="matrix(0.890787 0.454422 0.4548 -0.890593 165.6 192.501)" fill="#2B2900"/>
<ellipse rx="0.340556" ry="0.3407" transform="matrix(0.314073 0.949399 0.949399 -0.314073 156.002 187.65)" fill="#2B2900"/>
<ellipse rx="0.340556" ry="0.3407" transform="matrix(0.314073 0.949399 0.949399 -0.314073 157.725 188.516)" fill="#2B2900"/>
<ellipse rx="0.340556" ry="0.3407" transform="matrix(0.314073 0.949399 0.949399 -0.314073 157.934 191.318)" fill="#2B2900"/>
<ellipse rx="0.340556" ry="0.3407" transform="matrix(0.314073 0.949399 0.949399 -0.314073 157.73 186.362)" fill="#2B2900"/>
<ellipse rx="0.340556" ry="0.3407" transform="matrix(0.314073 0.949399 0.949399 -0.314073 159.453 187.228)" fill="#2B2900"/>
<ellipse rx="0.340556" ry="0.3407" transform="matrix(0.314073 0.949399 0.949399 -0.314073 159.662 190.03)" fill="#2B2900"/>
<ellipse rx="0.340556" ry="0.3407" transform="matrix(0.314073 0.949399 0.949399 -0.314073 154.518 178.81)" fill="#2B2900"/>
<ellipse rx="0.340556" ry="0.3407" transform="matrix(0.314073 0.949399 0.949399 -0.314073 156.24 179.675)" fill="#2B2900"/>
<ellipse rx="0.340556" ry="0.3407" transform="matrix(0.314073 0.949399 0.949399 -0.314073 156.449 182.478)" fill="#2B2900"/>
<ellipse rx="0.340693" ry="0.340562" transform="matrix(0.857927 -0.513772 -0.513927 -0.857834 154.403 182.172)" fill="#2B2900"/>
<ellipse rx="0.340693" ry="0.340562" transform="matrix(0.857927 -0.513772 -0.513927 -0.857834 154.872 180.303)" fill="#2B2900"/>
<ellipse rx="0.340693" ry="0.340562" transform="matrix(0.857927 -0.513772 -0.513927 -0.857834 157.562 179.486)" fill="#2B2900"/>
<ellipse rx="0.340556" ry="0.3407" transform="matrix(-0.304742 -0.952435 -0.952433 0.30475 158.85 174.524)" fill="#2B2900"/>
<ellipse rx="0.340556" ry="0.3407" transform="matrix(-0.304742 -0.952435 -0.952433 0.30475 157.136 173.641)" fill="#2B2900"/>
<ellipse rx="0.340556" ry="0.3407" transform="matrix(-0.304742 -0.952435 -0.952433 0.30475 156.954 170.838)" fill="#2B2900"/>
<ellipse rx="0.340691" ry="0.340565" transform="matrix(0.997781 -0.0665791 -0.0663739 -0.997795 155.581 173.601)" fill="#2B2900"/>
<ellipse rx="0.340691" ry="0.340565" transform="matrix(0.997781 -0.0665791 -0.0663739 -0.997795 156.851 172.15)" fill="#2B2900"/>
<ellipse rx="0.340691" ry="0.340565" transform="matrix(0.997781 -0.0665791 -0.0663739 -0.997795 159.617 172.648)" fill="#2B2900"/>
<ellipse rx="0.340661" ry="0.340595" transform="matrix(0.647207 -0.762314 -0.762559 -0.646919 161.964 170.935)" fill="#2B2900"/>
<ellipse rx="0.340661" ry="0.340595" transform="matrix(0.647207 -0.762314 -0.762559 -0.646919 161.807 169.014)" fill="#2B2900"/>
<ellipse rx="0.340661" ry="0.340595" transform="matrix(0.647207 -0.762314 -0.762559 -0.646919 164.092 167.376)" fill="#2B2900"/>
<ellipse rx="0.340614" ry="0.340642" transform="matrix(0.845959 0.533248 0.533601 -0.845737 159.74 168.095)" fill="#2B2900"/>
<ellipse rx="0.340614" ry="0.340642" transform="matrix(0.845959 0.533248 0.533601 -0.845737 161.621 167.668)" fill="#2B2900"/>
<ellipse rx="0.340614" ry="0.340642" transform="matrix(0.845959 0.533248 0.533601 -0.845737 163.564 169.699)" fill="#2B2900"/>
<ellipse rx="0.340649" ry="0.340607" transform="matrix(0.949456 0.3139 0.314286 -0.949328 164.774 165.951)" fill="#2B2900"/>
<ellipse rx="0.340649" ry="0.340607" transform="matrix(0.949456 0.3139 0.314286 -0.949328 166.496 165.085)" fill="#2B2900"/>
<ellipse rx="0.340649" ry="0.340607" transform="matrix(0.949456 0.3139 0.314286 -0.949328 168.871 166.588)" fill="#2B2900"/>
</svg>
