<svg width="333" height="686" viewBox="0 0 333 686" fill="none" xmlns="http://www.w3.org/2000/svg">
<g clip-path="url(#clip0_92_158)">
<g clip-path="url(#clip1_92_158)">
<path opacity="0.4" fill-rule="evenodd" clip-rule="evenodd" d="M317.411 218.319C306.41 236.725 290.93 258.769 280.323 266.087C272.091 271.766 263.464 266.743 254.88 261.745C247.56 257.483 240.272 253.239 233.287 255.667C226.011 259.444 218.199 270.423 210.368 281.43C201.823 293.44 193.256 305.482 185.337 308.234C170.122 316.132 153.515 289.916 138.834 261.071C128.433 238.718 121.176 239.736 104.381 242.092C97.5308 243.052 89.0945 244.236 78.2115 244.147C55.5316 243.962 53.8118 224.39 52.6547 211.222C51.8952 202.578 51.3781 196.693 45.3335 200.864C31.0075 210.747 15.0836 216.003 0.752824 212.276C-0.467364 184.411 10.5537 161.1 22.1934 143.88C45.6159 109.227 92.5847 90.8798 92.5847 90.8798C106.95 52.5292 117.374 32.5587 143.259 15.5588C169.145 -1.44112 195.485 -5.44126 223.118 6.6351C215.704 22.2215 210.03 44.7656 217.077 55.66C220.199 60.487 232.014 68.7359 245.608 78.2272C262.696 90.1577 282.595 104.051 291.578 115.579C295.126 120.133 298.267 124.821 300.872 129.849L259.488 129.849C274.926 129.975 287.808 129.928 299.58 129.885C300.018 129.883 300.454 129.881 300.888 129.88C310.11 147.701 312.603 169.81 302.652 205.458C302.652 205.458 310.963 209.309 317.411 218.319ZM224.362 129.849L201.883 129.849C209.349 129.855 216.815 129.861 224.362 129.849ZM179.387 129.849L157.366 129.849C164.604 129.855 171.843 129.861 179.387 129.849ZM135.311 129.849L110.596 129.849C119.182 129.855 127.767 129.861 135.311 129.849ZM85.8381 129.849L53.0061 129.849C65.6471 129.855 78.288 129.861 85.8381 129.849Z" fill="#FB9A08"/>
<path d="M66.9998 113.104C40.4995 129.604 20.3332 162.437 11 180.104C11 180.104 19.5 177.499 30.5 162.999C41.5 148.499 54 132.395 73.5 121.999C93 111.604 101.667 106.999 110.5 104.999C111.333 102.999 115.2 88.8995 120 76.4995C122.516 69.9995 125 57.6037 144.5 40.4994C164 23.3952 185.5 15.1037 185.5 15.1037C185.5 15.1037 189.3 13.1037 174.5 15.1037C156 17.6037 144 27.6037 133 36.9995C122 46.3953 108.167 80.2704 101.5 96.6037C99.3333 97.437 93.5 96.6037 66.9998 113.104Z" fill="white" fill-opacity="0.2"/>
</g>
</g>
<defs>
<clipPath id="clip0_92_158">
<rect width="333" height="686" fill="white"/>
</clipPath>
<clipPath id="clip1_92_158">
<rect width="332" height="323" fill="white" transform="translate(-7 -4)"/>
</clipPath>
</defs>
</svg>
