<svg width="333" height="686" viewBox="0 0 333 686" fill="none" xmlns="http://www.w3.org/2000/svg">
<path d="M73.0145 549.773C72.4227 550.724 72.7275 551.976 73.6903 552.549L77.3878 554.748C78.3422 555.315 79.5763 554.997 80.1367 554.038L82.4009 550.165C83.0651 549.029 82.4699 547.572 81.2001 547.226L76.9932 546.08C76.1403 545.847 75.2361 546.202 74.7692 546.953L73.0145 549.773Z" fill="#30123A"/>
<path d="M98.629 542.491C99.3312 543.364 100.613 543.49 101.472 542.771L103.087 541.418C103.938 540.705 104.045 539.435 103.326 538.589L101.969 536.995C101.116 535.992 99.5447 536.072 98.7985 537.156L97.5861 538.918C97.0849 539.646 97.1211 540.617 97.6751 541.305L98.629 542.491Z" fill="#30123A"/>
<path d="M151.993 560.957C152.716 560.101 152.594 558.819 151.724 558.113L148.382 555.405C147.519 554.706 146.252 554.843 145.559 555.711L142.761 559.218C141.94 560.246 142.319 561.774 143.526 562.299L147.524 564.039C148.334 564.392 149.28 564.171 149.85 563.496L151.993 560.957Z" fill="#30123A"/>
<path d="M170.839 536.854C171.478 537.774 171.237 539.04 170.304 539.66L168.773 540.679C167.848 541.294 166.6 541.038 165.992 540.109L165.005 538.602C164.284 537.501 164.805 536.016 166.056 535.606L167.83 535.025C168.67 534.75 169.591 535.058 170.095 535.784L170.839 536.854Z" fill="#30123A"/>
<path d="M211.867 522.438C211.209 521.532 209.934 521.343 209.041 522.019L202.687 526.83C201.802 527.5 201.632 528.764 202.309 529.644L207.482 536.37C208.284 537.413 209.858 537.41 210.657 536.364L215.557 529.948C216.093 529.246 216.105 528.275 215.586 527.559L211.867 522.438Z" fill="#30123A"/>
<path d="M248.784 541.642C249.423 542.562 249.182 543.828 248.249 544.448L244.668 546.832C243.744 547.447 242.495 547.191 241.887 546.262L239.429 542.508C238.709 541.407 239.229 539.922 240.48 539.512L244.624 538.155C245.464 537.88 246.385 538.188 246.889 538.914L248.784 541.642Z" fill="#30123A"/>
<path d="M257.798 510.458C257.159 509.538 257.4 508.272 258.333 507.652L267.201 501.751C268.126 501.135 269.374 501.391 269.983 502.32L276.232 511.866C276.953 512.967 276.432 514.452 275.181 514.862L264.929 518.221C264.089 518.497 263.168 518.188 262.664 517.462L257.798 510.458Z" fill="#30123A"/>
<path d="M133.973 522.307C133.334 521.387 133.575 520.121 134.508 519.5L140.977 515.196C141.901 514.581 143.15 514.836 143.758 515.765L148.286 522.683C149.007 523.784 148.486 525.269 147.236 525.679L139.756 528.13C138.916 528.405 137.995 528.096 137.49 527.37L133.973 522.307Z" fill="#30123A"/>
<path d="M45.5575 401.714C44.9415 400.729 45.3037 399.541 46.3516 399.109L51.7429 396.887C52.7412 396.475 53.9858 396.908 54.5414 397.861L56.9929 402.063C57.6589 403.205 57.0286 404.525 55.7155 404.739L49.7224 405.716C48.829 405.862 47.8856 405.436 47.407 404.671L45.5575 401.714Z" fill="#30123A"/>
<path d="M76.0049 410.583C76.8255 409.864 78.2162 409.857 79.0982 410.567L81.1995 412.261C82.0838 412.973 82.1152 414.132 81.2693 414.834L79.0143 416.707C78.0143 417.538 76.3081 417.327 75.5782 416.283L74.091 414.156C73.6034 413.459 73.7142 412.592 74.364 412.022L76.0049 410.583Z" fill="#30123A"/>
<path d="M123.054 409.771C123.815 410.645 123.637 411.839 122.662 412.397L117.763 415.2C116.824 415.737 115.502 415.477 114.797 414.618L111.579 410.693C110.737 409.666 111.172 408.299 112.46 407.925L118.16 406.268C119.034 406.014 120.042 406.309 120.636 406.992L123.054 409.771Z" fill="#30123A"/>
<path d="M162.617 421.377C163.43 420.558 163.327 419.379 162.39 418.777L160.149 417.336C159.236 416.749 157.88 416.935 157.115 417.751L155.503 419.47C154.592 420.442 154.952 421.815 156.231 422.247L158.911 423.152C159.776 423.444 160.807 423.203 161.444 422.561L162.617 421.377Z" fill="#30123A"/>
<path d="M210.492 438.914C209.707 439.674 208.312 439.748 207.394 439.079L199.867 433.593C198.952 432.925 198.864 431.775 199.673 431.034L207.015 424.311C207.972 423.435 209.687 423.559 210.471 424.561L215.987 431.613C216.512 432.284 216.446 433.155 215.825 433.756L210.492 438.914Z" fill="#30123A"/>
<path d="M253.129 416.787C253.941 415.967 253.839 414.789 252.902 414.187L248.319 411.24C247.407 410.654 246.051 410.84 245.286 411.656L241.669 415.513C240.758 416.485 241.118 417.858 242.397 418.29L247.863 420.136C248.727 420.428 249.758 420.187 250.396 419.544L253.129 416.787Z" fill="#30123A"/>
<path d="M267.286 428.012C266.474 428.832 266.577 430.01 267.513 430.612L278.133 437.44C279.045 438.027 280.402 437.841 281.167 437.025L289.952 427.654C290.863 426.683 290.503 425.309 289.225 424.878L276.575 420.606C275.71 420.314 274.679 420.554 274.042 421.197L267.286 428.012Z" fill="#30123A"/>
<path d="M160.113 451.59C159.3 452.41 159.403 453.589 160.34 454.191L168.22 459.257C169.132 459.844 170.488 459.658 171.254 458.842L177.693 451.973C178.604 451.002 178.244 449.628 176.966 449.197L167.576 446.026C166.711 445.734 165.68 445.974 165.043 446.617L160.113 451.59Z" fill="#30123A"/>
</svg>
