<svg width="533" height="701" viewBox="0 0 533 701" fill="none" xmlns="http://www.w3.org/2000/svg">
<g clip-path="url(#clip0_213_41)">
<ellipse cx="431.102" cy="468.653" rx="91.3154" ry="26.1362" fill="black" fill-opacity="0.2"/>
<ellipse cx="429.51" cy="460.405" rx="63.7895" ry="17.7468" fill="#89526F"/>
<path d="M331.058 233.432H527.094L492.866 459.946H365.287L331.058 233.432Z" fill="#89526F"/>
<path d="M459.006 325.512V376.281H448.823V343.259L435.222 376.281H427.512L413.838 343.259V376.281H403.655V325.512H415.22L431.367 363.261L447.514 325.512H459.006Z" fill="#DDDDDD"/>
<path d="M371.192 455.101C364.658 440.903 339.764 256.982 339.764 256.982C356.256 334.745 364.969 443.807 397.33 455.101C425.66 464.987 462.987 465.749 483.213 460.586C475.434 465.749 463.36 468.717 441.205 470.266C419.05 471.815 377.727 469.298 371.192 455.101Z" fill="#AE7E96"/>
<ellipse cx="429.381" cy="233.75" rx="103.619" ry="27.4269" fill="#703352" stroke="#E3D9D9" stroke-width="6.45338"/>
<ellipse cx="90.0792" cy="470.91" rx="75.4859" ry="21.6055" fill="black" fill-opacity="0.2"/>
<ellipse cx="88.7634" cy="464.093" rx="52.7317" ry="14.6704" fill="#89526F"/>
<path d="M7.37793 276.465H169.431L141.136 463.713H35.673L7.37793 276.465Z" fill="#89526F"/>
<path d="M105.218 362.82C105.218 364.857 104.727 366.766 103.745 368.548C102.799 370.33 101.29 371.767 99.2169 372.858C97.1803 373.949 94.5982 374.494 91.4706 374.494H85.0881V389.114H77.4509V351.037H91.4706C94.4164 351.037 96.9257 351.546 98.9987 352.564C101.072 353.583 102.617 354.983 103.636 356.765C104.69 358.547 105.218 360.565 105.218 362.82ZM91.1433 368.33C93.2526 368.33 94.8164 367.857 95.8347 366.911C96.853 365.93 97.3621 364.566 97.3621 362.82C97.3621 359.111 95.2892 357.256 91.1433 357.256H85.0881V368.33H91.1433Z" fill="#DDDDDD"/>
<path d="M40.5552 459.708C35.1534 447.971 14.5752 295.933 14.5752 295.933C28.2083 360.216 35.4106 450.372 62.1623 459.708C85.581 467.88 116.437 468.51 133.157 464.242C126.726 468.51 116.746 470.964 98.4314 472.244C80.1168 473.525 45.957 471.444 40.5552 459.708Z" fill="#AE7E96"/>
<ellipse cx="88.6568" cy="276.728" rx="85.6568" ry="22.6724" fill="#703352" stroke="#E3D9D9" stroke-width="5.33469"/>
<ellipse cx="253.388" cy="505.355" rx="119.52" ry="34.2089" fill="black" fill-opacity="0.2"/>
<ellipse cx="251.305" cy="494.561" rx="83.4921" ry="23.2282" fill="#89526F"/>
<path d="M122.444 197.482H379.029L334.229 493.959H167.245L122.444 197.482Z" fill="#89526F"/>
<path d="M272.388 330.435C270.642 327.234 268.242 324.798 265.187 323.125C262.132 321.452 258.568 320.615 254.495 320.615C249.985 320.615 245.985 321.634 242.494 323.67C239.002 325.707 236.275 328.616 234.311 332.399C232.347 336.181 231.365 340.545 231.365 345.491C231.365 350.582 232.347 355.019 234.311 358.801C236.347 362.584 239.148 365.493 242.712 367.53C246.276 369.566 250.422 370.584 255.149 370.584C260.968 370.584 265.732 369.057 269.442 366.002C273.151 362.875 275.588 358.547 276.752 353.019H250.567V341.345H291.808V354.655C290.79 359.965 288.608 364.875 285.262 369.384C281.916 373.894 277.588 377.531 272.279 380.295C267.042 382.986 261.15 384.331 254.604 384.331C247.258 384.331 240.602 382.695 234.638 379.422C228.747 376.076 224.092 371.457 220.673 365.566C217.327 359.674 215.654 352.983 215.654 345.491C215.654 337.999 217.327 331.307 220.673 325.416C224.092 319.452 228.747 314.833 234.638 311.56C240.602 308.214 247.221 306.541 254.495 306.541C263.078 306.541 270.533 308.651 276.861 312.869C283.189 317.015 287.553 322.87 289.953 330.435H272.388Z" fill="#DDDDDD"/>
<path d="M174.975 487.618C166.422 469.035 133.839 228.306 133.839 228.306C155.425 330.088 166.829 472.836 209.186 487.618C246.266 500.558 295.122 501.555 321.595 494.797C311.413 501.555 295.61 505.44 266.612 507.467C237.614 509.494 183.527 506.2 174.975 487.618Z" fill="#AE7E96"/>
<ellipse cx="251.136" cy="197.898" rx="135.624" ry="35.8982" fill="#703352" stroke="#E3D9D9" stroke-width="8.44663"/>
</g>
<defs>
<clipPath id="clip0_213_41">
<rect width="533" height="701" fill="white"/>
</clipPath>
</defs>
</svg>
