<svg width="62" height="65" viewBox="0 0 62 65" fill="none" xmlns="http://www.w3.org/2000/svg">
<path fill-rule="evenodd" clip-rule="evenodd" d="M27.9268 0.154002C33.6295 2.04508 30.0584 13.1713 35.0227 16.5554C38.5794 18.9799 43.2103 12.6956 47.4463 13.4601C51.3208 14.1593 55.4388 16.7988 56.8137 20.488C58.2391 24.313 53.7145 28.4047 54.508 32.4088C55.4196 37.0084 62.3462 39.8188 61.5607 44.4416C60.8218 48.7908 55.3189 51.0473 51.1143 52.3823C47.0373 53.6768 42.2888 50.0025 38.4045 51.794C35.1532 53.2934 35.5928 58.6216 32.7806 60.8376C29.8844 63.1198 25.5368 66.3496 22.4071 64.3997C18.467 61.9449 21.1768 54.4763 17.6763 51.427C14.9182 49.0244 9.86154 52.8381 6.81339 50.8161C4.12271 49.0311 3.31891 45.111 3.28804 41.8823C3.25722 38.6588 7.14252 36.0841 6.64209 32.8996C5.92937 28.3641 -0.101727 25.5567 0.00130478 20.9667C0.087416 17.1304 3.71097 13.8173 7.11038 12.0374C10.5838 10.2187 15.3341 13.0993 18.739 11.1555C22.924 8.76645 23.3529 -1.36278 27.9268 0.154002Z" fill="#EC3C3C" fill-opacity="0.8"/>
<path d="M19.8074 13.9386C24.5024 13.3517 26.1653 8.80335 25.6762 6.60254C27.877 10.2706 24.5024 14.9656 22.7418 16.1394C20.541 17.6066 11.7377 18.3402 12.4713 20.541C13.2049 22.7418 19.0738 28.6106 19.0738 30.8115C19.0738 33.0123 13.2049 38.8811 14.6721 41.0819C16.1393 43.2827 25.6762 41.8155 27.877 43.2827C30.0778 44.7499 30.0778 49.8851 28.6106 52.8196C27.1434 55.754 26.4098 57.2212 23.4754 60.8892C22.1005 62.6077 22.7418 52.8196 22.7418 49.8851C22.7418 46.9507 17.6066 46.9507 13.2049 46.9507C8.80331 46.9507 8.06971 42.5491 8.06971 41.0819C8.06971 39.6147 11.7377 35.2131 11.7377 31.5451C11.7377 27.877 5.8689 21.2746 5.8689 19.0738C5.8689 16.873 6.79032 15.909 8.80331 15.4058C11.7377 14.6722 13.9385 14.6722 19.8074 13.9386Z" fill="white" fill-opacity="0.2"/>
</svg>
