<svg width="333" height="686" viewBox="0 0 333 686" fill="none" xmlns="http://www.w3.org/2000/svg">
<path d="M186.291 509.624C208.685 517.661 263.567 492.879 288.5 483L278 551.82C267.14 554.834 246.794 554.513 237.228 551.82C221.166 547.299 199.14 554.834 182.161 566.89C168.577 576.535 158.757 579.448 138.566 578.946C118.375 578.444 107.178 561.666 95.4302 560.862C83.6826 560.058 65.2304 565.156 58.5 567.5L47 494C61.3786 502.205 87.6291 518.207 109.656 518.207C139.381 518.207 158.298 499.577 186.291 509.624Z" fill="#B7B7B7" fill-opacity="0.43"/>
<path d="M144.234 394.624C118.548 402.661 56.5982 377.879 28 368L39.0435 436.82C51.5004 439.834 74.8363 439.513 85.8094 436.82C104.232 432.299 129.496 439.834 148.971 451.89C164.551 461.535 175.815 464.448 198.974 463.946C222.133 463.444 234.976 446.666 248.451 445.862C261.925 445.058 286.28 443.518 294 445.862L304 379C287.508 387.205 257.399 403.207 232.134 403.207C198.039 403.207 176.341 384.577 144.234 394.624Z" fill="#B7B7B7" fill-opacity="0.43"/>
</svg>
