<svg width="333" height="686" viewBox="0 0 333 686" fill="none" xmlns="http://www.w3.org/2000/svg">
<g clip-path="url(#clip0_99_1094)">
<path d="M72.3908 125.169C87.1426 118.252 98.2973 118.756 113.368 115.986L105.293 120.59L81.1444 127.456L72.3908 125.169Z" fill="#642B48"/>
<path d="M84.2038 10.8442C82.5872 3.70094 75.4858 -0.779281 68.3426 0.837381L62.7276 2.10815C55.5843 3.72481 51.1041 10.8262 52.7208 17.9694L76.9452 125.006C77.4841 127.387 79.8512 128.881 82.2323 128.342L105.093 123.168C107.474 122.629 108.967 120.262 108.428 117.881L84.2038 10.8442Z" fill="#FCDD71"/>
<path d="M113.505 116.053C113.505 116.053 102.967 121.858 92.5489 124.216C82.1309 126.574 72.575 124.931 72.575 124.931C72.575 124.931 72.8937 130.491 78.2944 130.894C83.6951 131.298 97.6167 128.11 105.316 125.534C113.016 122.959 113.505 116.053 113.505 116.053Z" fill="#642B48"/>
<path d="M81.8992 6.71387C80.7379 10.6615 74.8411 20.1249 60.5441 26.3975C70.1707 20.3481 74.857 16.0721 81.8992 6.71387Z" stroke="#F3D25E" stroke-width="1.76816" stroke-linecap="round" stroke-linejoin="round"/>
<path d="M88.6177 34.8691C87.4564 38.8168 81.5596 48.2802 67.2626 54.5527C76.8892 48.5033 81.5755 44.2274 88.6177 34.8691Z" stroke="#F3D25E" stroke-width="1.76816" stroke-linecap="round" stroke-linejoin="round"/>
<path d="M95.3433 64.5947C93.7712 67.8733 87.337 75.1669 74.177 78.1125C83.3052 74.515 87.9437 71.5871 95.3433 64.5947Z" stroke="#F3D25E" stroke-width="1.76816" stroke-linecap="round" stroke-linejoin="round"/>
<path d="M58.9819 40.5977C63.0911 40.3812 73.662 36.8338 83.0721 24.3759C74.9597 32.3417 69.7155 35.9116 58.9819 40.5977Z" stroke="#F3D25E" stroke-width="1.76816" stroke-linecap="round" stroke-linejoin="round"/>
<path d="M65.2739 68.1357C69.3831 67.9193 79.954 64.3719 89.3641 51.914C81.2517 59.8798 76.0075 63.4497 65.2739 68.1357Z" stroke="#F3D25E" stroke-width="1.76816" stroke-linecap="round" stroke-linejoin="round"/>
<path d="M77.6394 115.16C82.1838 115.16 93.7 111.846 103.41 98.5933C94.8774 106.945 89.2697 110.594 77.6394 115.16Z" stroke="#F3D25E" stroke-width="1.76816" stroke-linecap="round" stroke-linejoin="round"/>
<path d="M71.1567 95.7139C75.3326 96.4348 86.0438 95.1793 95.4814 84.3895C87.3162 90.8062 82.0214 93.3116 71.1567 95.7139Z" stroke="#F3D25E" stroke-width="1.76816" stroke-linecap="round" stroke-linejoin="round"/>
<path d="M101.385 149.495C82.8298 154.512 73.1699 163.468 57.4877 172.462L68.2687 170.452L95.2467 158.228L101.385 149.495Z" fill="#642B48"/>
<path d="M2.50383 53.44C-0.877522 46.9433 1.64793 38.9356 8.14459 35.5543L18.3984 30.2174C24.895 26.8361 32.9028 29.3615 36.2841 35.8582L97.5266 153.525C98.6537 155.69 97.8119 158.359 95.6463 159.486L69.7082 172.987C67.5427 174.114 64.8734 173.272 63.7463 171.106L2.50383 53.44Z" fill="#FCDD71"/>
<path d="M57.415 172.625C57.415 172.625 71.3291 169.82 82.5073 164.002C93.6855 158.184 101.038 149.42 101.038 149.42C101.038 149.42 104.989 154.67 100.434 159.15C95.878 163.63 80.912 171.371 72.0155 174.921C63.1191 178.47 57.415 172.625 57.415 172.625Z" fill="#642B48"/>
<path d="M2.53149 50.0791C6.58623 52.7486 19.1095 56.7751 36.7645 51.5256C23.4851 53.4161 16.0059 53.1379 2.53149 50.0791Z" stroke="#F3D25E" stroke-width="1.76816" stroke-linecap="round" stroke-linejoin="round"/>
<path d="M17.9429 80.5518C21.9976 83.2212 34.5208 87.2478 52.1759 81.9982C38.8964 83.8888 31.4173 83.6106 17.9429 80.5518Z" stroke="#F3D25E" stroke-width="1.76816" stroke-linecap="round" stroke-linejoin="round"/>
<path d="M34.5452 112.446C38.4598 114.2 49.813 115.863 63.9082 108.485C52.9466 112.203 46.538 113.102 34.5452 112.446Z" stroke="#F3D25E" stroke-width="1.76816" stroke-linecap="round" stroke-linejoin="round"/>
<path d="M48.9951 63.1201C45.13 66.0574 32.9073 70.9207 14.938 66.8757C28.3148 67.8649 35.7581 67.0821 48.9951 63.1201Z" stroke="#F3D25E" stroke-width="1.76816" stroke-linecap="round" stroke-linejoin="round"/>
<path d="M64.3208 92.7139C60.4557 95.6511 48.233 100.514 30.2637 96.4695C43.6405 97.4587 51.0838 96.6759 64.3208 92.7139Z" stroke="#F3D25E" stroke-width="1.76816" stroke-linecap="round" stroke-linejoin="round"/>
<path d="M89.0298 144.483C84.9374 147.947 72.0415 153.741 53.1966 149.209C67.2458 150.226 75.0769 149.237 89.0298 144.483Z" stroke="#F3D25E" stroke-width="1.76816" stroke-linecap="round" stroke-linejoin="round"/>
<path d="M80.0442 122.031C76.8335 125.863 66.2316 132.897 49.509 130.375C61.7525 129.93 68.4299 128.15 80.0442 122.031Z" stroke="#F3D25E" stroke-width="1.76816" stroke-linecap="round" stroke-linejoin="round"/>
</g>
<defs>
<clipPath id="clip0_99_1094">
<rect width="333" height="686" fill="white"/>
</clipPath>
</defs>
</svg>
