<svg width="327" height="686" viewBox="0 0 327 686" fill="none" xmlns="http://www.w3.org/2000/svg">
<rect x="73.757" y="181.233" width="18.3615" height="3.81468" rx="1.90734" transform="rotate(-0.380322 73.757 181.233)" fill="#4F260F"/>
<rect width="18.3427" height="3.8187" rx="1.90935" transform="matrix(0.962802 0.270207 -0.277061 0.960852 92.8987 281.243)" fill="#4F260F"/>
<rect width="18.3055" height="3.8266" rx="1.9133" transform="matrix(0.881612 0.471974 -0.481825 0.876267 263.587 253.407)" fill="#4F260F"/>
<rect width="18.3055" height="3.8266" rx="1.9133" transform="matrix(0.881612 0.471974 -0.481825 0.876267 243.16 200.268)" fill="#4F260F"/>
<rect width="18.2938" height="3.82907" rx="1.91454" transform="matrix(0.854321 0.519745 -0.529893 0.848065 197.755 129.049)" fill="#4F260F"/>
<rect width="18.1214" height="3.86524" rx="1.93262" transform="matrix(0.0904693 0.995899 -0.996095 0.0882914 179.051 30.8042)" fill="#4F260F"/>
<rect width="18.3603" height="3.81495" rx="1.90748" transform="matrix(-0.996949 0.0780552 -0.0799632 -0.996798 127.739 125.55)" fill="#4F260F"/>
<rect width="18.2834" height="3.83128" rx="1.91564" transform="matrix(-0.829077 -0.559134 0.569382 -0.822073 57.3307 237.716)" fill="#4F260F"/>
<rect width="18.2974" height="3.82831" rx="1.91415" transform="matrix(-0.8561 0.516809 -0.526807 -0.849985 166.38 254.458)" fill="#4F260F"/>
<rect width="18.1422" height="3.86091" rx="1.93046" transform="matrix(0.313871 0.949466 -0.951847 0.306574 188.594 160.27)" fill="#4F260F"/>
<rect width="18.1422" height="3.86091" rx="1.93046" transform="matrix(0.313871 0.949466 -0.951847 0.306574 269.675 104)" fill="#4F260F"/>
<rect width="18.2874" height="3.83043" rx="1.91522" transform="matrix(0.838856 0.544353 -0.554579 0.832131 125.333 202.825)" fill="#4F260F"/>
<rect width="18.3538" height="3.81634" rx="1.90817" transform="matrix(0.982904 -0.184119 0.188728 0.982029 33.74 143.263)" fill="#4F260F"/>
<rect width="18.3615" height="3.81468" rx="1.90734" transform="matrix(0.999958 -0.00917867 0.00924694 0.999957 144.598 79.7178)" fill="#4F260F"/>
<rect width="18.3615" height="3.81468" rx="1.90734" transform="matrix(0.999958 -0.00917867 0.00924694 0.999957 216 236.168)" fill="#4F260F"/>
<rect width="18.3615" height="3.81468" rx="1.90734" transform="matrix(0.999958 -0.00917867 0.00924694 0.999957 282.753 169.557)" fill="#4F260F"/>
</svg>
