<svg width="327" height="686" viewBox="0 0 327 686" fill="none" xmlns="http://www.w3.org/2000/svg">
<path d="M179.954 235.518C182.709 240.775 169.435 253.805 162.279 255.002C155.124 256.198 138.779 264.204 138.236 257.388C133.56 254.729 149.018 239.602 154.105 236.935C159.193 234.268 176.145 232.92 179.954 235.518Z" fill="#ECC289"/>
<path d="M178.639 237.171C179.598 233.868 156.394 241.622 148.041 250.346C142.507 256.126 164.462 245.555 178.639 237.171Z" fill="#E4A245"/>
<path d="M264.618 194.369C262.627 203.009 243.857 201.066 238.627 197.509C233.398 193.952 221.404 187.931 225.164 183.216C223.817 178.679 242.664 178.291 247.475 179.651C252.287 181.011 266.609 185.73 264.618 194.369Z" fill="#ECC289"/>
<path d="M262.795 194.638C265.387 193.092 246.097 184.052 235.582 184.614C228.615 184.987 248.814 191.461 262.795 194.638Z" fill="#E4A245"/>
<path d="M95.7363 184.849C96.4743 188.935 105.133 189.055 110.364 190.183C115.596 191.311 130.266 183.084 127.665 179.083C129.073 175.611 114.258 173.865 110.364 174.568C106.471 175.271 96.6995 181.782 95.7363 184.849Z" fill="#ECC289"/>
<path d="M97.1522 185.2C95.2284 183.784 111.114 178.139 119.353 179.387C124.812 180.213 108.407 183.767 97.1522 185.2Z" fill="#E4A245"/>
<path d="M50.5041 269.264C48.9524 274.563 63.2007 283.948 69.8519 283.702C76.5031 283.457 92.6265 287.696 91.9118 281.39C95.6504 278.098 79.0673 267.211 74.0176 265.733C68.9679 264.254 53.4734 266.189 50.5041 269.264Z" fill="#ECC289"/>
<path d="M51.9794 270.523C50.5327 267.695 72.7855 270.426 81.8434 276.809C87.8455 281.038 66.2193 275.511 51.9794 270.523Z" fill="#E4A245"/>
<path d="M178.784 113.113C179.031 108.509 192.856 105.068 198.027 107.106C203.198 109.143 217.074 110.275 214.762 115.044C216.794 118.674 200.713 122.651 196.325 122.415C191.938 122.18 180.27 116.359 178.784 113.113Z" fill="#ECC289"/>
<path d="M180.295 112.53C178.371 114.357 196.656 118.376 205.561 115.861C211.461 114.194 192.894 112.55 180.295 112.53Z" fill="#E4A245"/>
<path d="M199.414 50.3363C202.253 46.7029 195.353 38.6643 192.336 32.6829C189.318 26.7014 172.412 23.0409 171.021 28.1546C167.105 29.556 176.616 43.1192 180.078 45.8243C183.541 48.5294 196.162 51.8069 199.414 50.3363Z" fill="#ECC289"/>
<path d="M198.658 48.9042C198.908 51.5448 182.482 42.5618 177.422 34.815C174.069 29.6818 189.146 40.6413 198.658 48.9042Z" fill="#E4A245"/>
<path d="M244.051 258.129C241.541 260.962 247.636 270.945 251.832 272.736C256.029 274.527 264.79 281.866 266.189 277.746C269.469 276.797 262.365 265.201 259.665 262.808C256.966 260.416 246.791 257.09 244.051 258.129Z" fill="#ECC289"/>
<path d="M244.598 259.342C244.527 257.165 257.53 265.36 261.283 271.964C263.77 276.34 251.972 266.595 244.598 259.342Z" fill="#E4A245"/>
<path d="M97.5247 119.91C98.7137 123.35 89.63 129.978 85.2435 130.027C80.8571 130.076 70.3763 133.375 70.6476 129.202C68.0823 127.153 78.6556 119.461 81.9333 118.328C85.211 117.195 95.4728 117.98 97.5247 119.91Z" fill="#ECC289"/>
<path d="M96.5936 120.786C97.4566 118.879 82.8931 121.38 77.1315 125.868C73.3138 128.842 87.3765 124.52 96.5936 120.786Z" fill="#E4A245"/>
</svg>
