<svg width="68" height="69" viewBox="0 0 68 69" fill="none" xmlns="http://www.w3.org/2000/svg">
<path d="M40.4237 44.7855C40.9769 46.4857 36.4551 49.6604 34.2998 49.6449C32.1445 49.6295 26.9663 51.1565 27.137 49.1085C25.8952 48.0789 31.1583 44.3956 32.7787 43.8684C34.399 43.3412 39.433 43.8185 40.4237 44.7855Z" fill="#ECC289"/>
<path d="M39.9582 45.2072C40.3993 44.278 33.2226 45.3759 30.3519 47.529C28.4498 48.9556 35.3968 46.9587 39.9582 45.2072Z" fill="#E4A245"/>
<path d="M63.3162 33.7485C61.3945 36.0799 55.9668 32.6307 54.9135 30.7503C53.8602 28.8699 51.1194 25.2087 52.9834 24.3433C53.2634 22.7547 59.069 25.5048 60.3291 26.6517C61.5892 27.7987 65.238 31.4171 63.3162 33.7485Z" fill="#ECC289"/>
<path d="M62.7195 33.5528C63.7452 33.4761 59.239 27.7836 55.9473 26.355C53.7662 25.4084 58.9399 30.4563 62.7195 33.5528Z" fill="#E4A245"/>
<path d="M0.455356 38.0175C0.706842 39.4099 3.65761 39.4509 5.44042 39.8352C7.22323 40.2196 12.2225 37.4158 11.3362 36.0523C11.816 34.8694 6.76735 34.2741 5.44042 34.5137C4.11349 34.7534 0.783579 36.9724 0.455356 38.0175Z" fill="#ECC289"/>
<path d="M0.93799 38.137C0.282373 37.6546 5.69603 35.7308 8.50363 36.1559C10.364 36.4375 4.77359 37.6487 0.93799 38.137Z" fill="#E4A245"/>
<path d="M9.23325 61.9289C8.70444 63.7347 13.5601 66.9328 15.8267 66.8492C18.0934 66.7656 23.588 68.2101 23.3445 66.0612C24.6185 64.9394 18.9672 61.2293 17.2463 60.7254C15.5255 60.2214 10.2451 60.8808 9.23325 61.9289Z" fill="#ECC289"/>
<path d="M9.7357 62.3579C9.24269 61.3942 16.8261 62.3249 19.913 64.5C21.9584 65.9413 14.5885 64.0577 9.7357 62.3579Z" fill="#E4A245"/>
<path d="M26.2097 16.7793C26.2939 15.2102 31.0055 14.0376 32.7677 14.732C34.5299 15.4264 39.2585 15.8123 38.4707 17.4374C39.1632 18.6743 33.683 20.0295 32.1877 19.9493C30.6925 19.869 26.7161 17.8854 26.2097 16.7793Z" fill="#ECC289"/>
<path d="M26.7245 16.5803C26.0689 17.2026 32.3003 18.5725 35.335 17.7152C37.3457 17.1471 31.0183 16.587 26.7245 16.5803Z" fill="#E4A245"/>
<path d="M59.3698 10.3384C60.3372 9.1002 57.9859 6.36075 56.9575 4.32236C55.9292 2.28397 50.1677 1.03649 49.6939 2.7792C48.3592 3.25677 51.6004 7.87894 52.7803 8.80079C53.9603 9.72265 58.2613 10.8396 59.3698 10.3384Z" fill="#ECC289"/>
<path d="M59.1121 9.85064C59.1975 10.7505 53.5997 7.68925 51.8751 5.04924C50.7324 3.29991 55.8706 7.03474 59.1121 9.85064Z" fill="#E4A245"/>
<path d="M67.0997 59.4139C67.4117 57.4982 62.0349 54.8412 59.7253 55.2148C57.4157 55.5883 51.6077 54.8077 52.1299 56.9764C50.9683 58.2866 57.2245 61.3665 59.0501 61.6638C60.8757 61.961 66.1971 60.6153 67.0997 59.4139Z" fill="#ECC289"/>
<path d="M66.531 59.0389C67.158 59.9627 59.2771 59.9734 55.8409 58.139C53.5641 56.9235 61.3475 57.9153 66.531 59.0389Z" fill="#E4A245"/>
<path d="M10.463 8.90843C11.6683 9.20039 11.8977 13.0257 11.1044 14.2928C10.3111 15.5598 9.32872 19.1732 8.18148 18.3273C7.12168 18.686 6.86158 14.2379 7.13982 13.0892C7.41805 11.9406 9.53155 9.14163 10.463 8.90843Z" fill="#ECC289"/>
<path d="M10.5424 9.33651C10.1542 8.73795 8.1913 13.3754 8.41822 15.8539C8.56859 17.4962 9.91704 12.6673 10.5424 9.33651Z" fill="#E4A245"/>
</svg>
