<svg width="333" height="686" viewBox="0 0 333 686" fill="none" xmlns="http://www.w3.org/2000/svg">
<g clip-path="url(#clip0_122_6235)">
<ellipse cx="162.5" cy="645.5" rx="141.5" ry="40.5" fill="black" fill-opacity="0.2"/>
<ellipse cx="167.033" cy="632.72" rx="98.8467" ry="27.5" fill="#89526F"/>
<path d="M15.1465 282.221H318.919L265.88 633.221H68.1862L15.1465 282.221Z" fill="#89526F"/>
<path d="M76.6652 624.5C66.5394 602.5 27.9651 317.5 27.9651 317.5C53.5206 438 67.0216 607 117.168 624.5C161.067 639.82 218.908 641 250.25 633C238.195 641 219.487 645.6 185.155 648C150.824 650.4 86.7909 646.5 76.6652 624.5Z" fill="#AE7E96"/>
<ellipse cx="166.833" cy="281.5" rx="160.566" ry="42.5" fill="#703352" stroke="#E3D9D9" stroke-width="10"/>
<path d="M169.448 320.191C60.717 321.28 33.3934 292.213 29.2956 287.213C29.2956 287.213 13.815 271.713 3.79819 234.214C-6.21862 196.715 7.34965 165.721 21.8821 144.221C45.3047 109.568 92.2735 91.2208 92.2735 91.2208C106.639 52.8703 117.062 32.8998 142.948 15.8998C168.834 -1.10009 195.174 -5.10022 222.806 6.97614C215.393 22.5626 209.718 45.1066 216.766 56.0011C223.813 66.8955 275.139 95.221 291.266 115.92C307.394 136.62 315.106 160.069 302.341 205.8C302.341 205.8 317.946 213.029 322.979 230.857C328.013 248.684 320.966 265.174 320.966 265.174C304.858 293.5 278.178 319.102 169.448 320.191Z" fill="#703352"/>
<g clip-path="url(#clip1_122_6235)">
<path opacity="0.4" fill-rule="evenodd" clip-rule="evenodd" d="M317.411 218.319C306.41 236.725 290.93 258.769 280.323 266.087C272.091 271.766 263.464 266.743 254.88 261.745C247.56 257.483 240.272 253.239 233.287 255.667C226.011 259.444 218.199 270.423 210.368 281.43C201.823 293.44 193.256 305.482 185.337 308.234C170.122 316.132 153.515 289.916 138.834 261.071C128.433 238.718 121.176 239.736 104.38 242.092C97.5308 243.052 89.0945 244.236 78.2115 244.147C55.5316 243.962 53.8118 224.39 52.6547 211.222C51.8952 202.578 51.3781 196.693 45.3335 200.864C31.0075 210.747 15.0836 216.003 0.752823 212.276C-0.467365 184.411 10.5537 161.1 22.1934 143.88C45.6159 109.227 92.5847 90.8798 92.5847 90.8798C106.95 52.5292 117.374 32.5587 143.259 15.5588C169.145 -1.44113 195.485 -5.44126 223.118 6.6351C215.704 22.2215 210.03 44.7656 217.077 55.66C220.199 60.487 232.014 68.7359 245.608 78.2272C262.696 90.1577 282.595 104.051 291.578 115.579C295.126 120.133 298.267 124.821 300.872 129.849L259.488 129.849C274.926 129.975 287.808 129.928 299.58 129.885C300.018 129.883 300.454 129.881 300.888 129.88C310.11 147.701 312.603 169.81 302.652 205.458C302.652 205.458 310.963 209.309 317.411 218.319ZM224.362 129.849L201.883 129.849C209.349 129.855 216.815 129.861 224.362 129.849ZM179.387 129.849L157.366 129.849C164.604 129.855 171.843 129.861 179.387 129.849ZM135.311 129.849L110.596 129.849C119.182 129.855 127.767 129.861 135.311 129.849ZM85.8381 129.849L53.0061 129.849C65.6471 129.855 78.288 129.861 85.8381 129.849Z" fill="#DD2626"/>
<path d="M66.9998 113.104C40.4995 129.604 20.3332 162.437 11 180.104C11 180.104 19.5 177.499 30.5 162.999C41.5 148.499 54 132.395 73.5 121.999C93 111.604 101.667 106.999 110.5 104.999C111.333 102.999 115.2 88.8995 120 76.4995C122.516 69.9995 125 57.6037 144.5 40.4994C164 23.3952 185.5 15.1037 185.5 15.1037C185.5 15.1037 189.3 13.1037 174.5 15.1037C156 17.6037 144 27.6037 133 36.9995C122 46.3953 108.167 80.2704 101.5 96.6037C99.3333 97.437 93.5 96.6037 66.9998 113.104Z" fill="white" fill-opacity="0.2"/>
</g>
<path d="M240.179 233.116C273.961 229.054 296.157 211.513 303.259 203C267.405 223.625 225.625 233.116 166.588 219.751C177.043 225.898 206.397 237.178 240.179 233.116Z" fill="#642B48" fill-opacity="0.6"/>
<path d="M271.997 122.008C261.235 121.574 236.173 114.958 219.434 91.7531C202.759 68.6359 212.643 38.9545 215.797 26.7765C215.809 26.7304 215.821 26.6844 215.833 26.6383C215.821 26.6841 215.809 26.7302 215.797 26.7765C204.638 70.1496 234.293 112.357 271.997 122.008Z" fill="#642B48" fill-opacity="0.6"/>
<path d="M42.0591 256C71.5988 274.496 117.176 285.819 127.461 283.5C95.718 274 29.4138 263.5 3.93579 180C5.72806 200.5 12.5194 237.504 42.0591 256Z" fill="#642B48" fill-opacity="0.6"/>
<path d="M98.5845 152.878C114.655 175.64 144.918 198.067 153.295 199.535C132.73 182.725 86.8128 155.439 94.4084 86C89.2282 101.669 82.5145 130.115 98.5845 152.878Z" fill="#642B48" fill-opacity="0.6"/>
<path fill-rule="evenodd" clip-rule="evenodd" d="M146.092 419.657C167.521 410.671 186.53 413.279 206.334 413.695C227.159 414.133 250.47 413.47 258.103 426.824C265.746 440.197 265.044 469.866 256.208 487.928C246.457 507.86 231.412 516.677 208.643 531.511C185.15 546.817 157.442 545.903 135.095 543.008C114.816 540.381 102.529 529.563 93.2469 516.562C83.015 502.23 69.2568 487.031 80.4621 466.483C91.6882 445.898 120.342 430.457 146.092 419.657Z" fill="#703352"/>
<path d="M96.1689 503.44C92.8651 503.44 90.112 502.339 87.9095 500.136C85.762 497.989 84.6883 495.484 84.6883 492.62C84.6883 489.702 85.3766 487.004 86.7532 484.526C88.1297 481.993 90.0845 479.653 92.6173 477.506C95.2053 475.358 98.5641 473.596 102.694 472.22C106.823 470.788 111.394 469.99 116.404 469.824C119.323 462.611 121.911 454.544 124.168 445.624C124.223 445.294 124.251 444.881 124.251 444.385C124.251 443.835 123.976 443.367 123.425 442.981V442.155C128.16 441.274 132.483 440.834 136.392 440.834L141.348 441.164C142.779 443.697 143.578 447.221 143.743 451.736C143.908 456.196 144.018 463.96 144.073 475.028C150.02 477.616 155.113 480.892 159.353 484.856C159.133 485.572 158.692 486.288 158.032 487.004C157.426 487.665 156.848 488.16 156.297 488.491L155.471 488.986C152.223 485.793 148.451 483.067 144.156 480.809C144.266 483.948 144.569 486.591 145.064 488.738C145.835 492.262 146.744 494.024 147.79 494.024C148.396 494.024 149.112 493.887 149.938 493.611L151.176 496.833C147.377 499.255 143.743 500.467 140.274 500.467C134.548 500.467 131.684 496.144 131.684 487.499V476.68C127.83 475.744 124.333 475.165 121.195 474.945C114.037 493.942 105.695 503.44 96.1689 503.44ZM114.34 474.863C108.117 475.358 102.942 477.533 98.8119 481.388C94.6822 485.242 92.6173 488.848 92.6173 492.207C92.6173 495.566 93.9113 497.246 96.4993 497.246C101.785 497.246 107.732 489.785 114.34 474.863ZM130.776 447.441C130.666 447.386 130.445 447.359 130.115 447.359C129.785 447.359 129.564 447.386 129.454 447.441C128.959 451.626 126.811 459.142 123.012 469.99C125.71 470.155 128.601 470.54 131.684 471.146C131.684 457.6 131.381 449.699 130.776 447.441ZM171.713 467.016C169.511 467.016 167.749 468.861 166.427 472.55C165.106 476.184 164.445 480.094 164.445 484.278C164.445 490.886 166.482 494.19 170.557 494.19C171.878 494.19 173.283 493.887 174.769 493.281C176.256 492.62 177.44 491.987 178.321 491.381L179.56 490.39L181.459 492.951C181.074 493.336 180.551 493.859 179.89 494.52C179.229 495.126 177.853 496.062 175.76 497.328C173.723 498.595 171.658 499.476 169.566 499.971C168.189 500.962 166.978 502.174 165.932 503.605C164.941 505.037 164.445 506.413 164.445 507.735C164.445 509.112 165.106 509.8 166.427 509.8C167.749 509.8 169.318 509.277 171.135 508.231L172.044 507.652L173.53 509.965C173.145 510.35 172.622 510.818 171.961 511.369C171.3 511.975 169.979 512.746 167.997 513.682C166.014 514.673 164.17 515.168 162.463 515.168C160.756 515.168 159.379 514.645 158.333 513.599C157.287 512.608 156.764 511.287 156.764 509.635C156.764 508.038 157.452 506.386 158.829 504.679C160.205 503.027 161.774 501.595 163.536 500.384C159.792 499.999 156.984 498.429 155.112 495.676C153.295 492.923 152.386 489.344 152.386 484.939C152.386 478.387 154.176 473.073 157.755 468.998C161.389 464.924 166.042 462.886 171.713 462.886C175.402 462.886 178.321 463.74 180.468 465.447C182.671 467.099 183.772 469.164 183.772 471.641C183.772 474.064 183.001 476.157 181.459 477.919C180.083 477.919 178.486 477.616 176.669 477.01C174.852 476.404 173.475 475.661 172.539 474.78L173.778 467.512C173.283 467.181 172.594 467.016 171.713 467.016ZM210.158 465.282C210.268 465.172 210.571 464.456 211.066 463.134C213.654 463.134 217.123 463.905 221.473 465.447C220.096 470.017 218.995 474.808 218.169 479.818C217.343 484.774 216.93 488.325 216.93 490.473C216.93 492.565 217.15 493.611 217.591 493.611C217.921 493.611 219.133 493.088 221.225 492.042L222.216 491.547L223.703 494.437C223.207 494.878 222.547 495.428 221.721 496.089C220.95 496.75 219.463 497.659 217.261 498.815C215.058 499.916 213.076 500.467 211.314 500.467C207.9 500.467 205.918 498.925 205.367 495.841C201.843 498.925 198.649 500.467 195.786 500.467C192.978 500.467 190.583 499.365 188.601 497.163C186.673 494.96 185.71 491.492 185.71 486.756C185.71 479.378 187.224 473.569 190.252 469.329C193.281 465.034 196.943 462.886 201.237 462.886C204.321 462.886 207.294 463.685 210.158 465.282ZM200.742 493.446C202.063 493.446 203.55 492.923 205.202 491.877C205.587 484.113 206.881 476.432 209.084 468.833C207.432 468.117 206.028 467.76 204.872 467.76C202.889 467.76 201.182 469.714 199.751 473.624C198.374 477.478 197.686 481.745 197.686 486.426C197.686 491.106 198.705 493.446 200.742 493.446ZM226.798 454.462C231.423 451.984 237.975 447.717 246.455 441.66C247.006 442.431 247.611 443.642 248.272 445.294C248.988 446.946 249.346 448.185 249.346 449.011C249.346 450.552 248.355 451.791 246.372 452.727C242.188 454.655 236.158 456.362 228.284 457.848L226.798 454.462ZM237.865 491.381C237.865 492.868 238.113 493.611 238.609 493.611C238.939 493.611 240.205 493.088 242.408 492.042L243.399 491.547L244.803 494.437C244.308 494.878 243.647 495.428 242.821 496.089C241.995 496.75 240.453 497.659 238.196 498.815C235.938 499.916 233.846 500.467 231.918 500.467C229.991 500.467 228.477 499.889 227.376 498.732C226.275 497.521 225.724 495.924 225.724 493.942C225.724 491.904 226.412 488.325 227.789 483.205C229.165 478.029 229.854 474.67 229.854 473.128C229.854 470.815 229.138 468.641 227.706 466.603L226.963 465.612L227.045 464.538C229.964 463.712 234.699 463.299 241.252 463.299C241.967 464.125 242.325 465.722 242.325 468.09C242.325 470.458 241.609 474.395 240.178 479.901C238.746 485.352 238.003 488.573 237.948 489.564C237.893 490.5 237.865 491.106 237.865 491.381Z" fill="#F7B90A"/>
<path d="M149.474 452.913C149.474 451.743 149.708 450.718 150.176 449.837C150.658 448.942 151.319 448.254 152.158 447.772C152.998 447.29 153.962 447.049 155.049 447.049C156.426 447.049 157.561 447.38 158.456 448.04C159.365 448.687 159.977 449.616 160.294 450.828H157.754C157.548 450.263 157.217 449.823 156.763 449.506C156.309 449.19 155.738 449.031 155.049 449.031C154.086 449.031 153.315 449.376 152.737 450.064C152.172 450.738 151.89 451.688 151.89 452.913C151.89 454.138 152.172 455.095 152.737 455.783C153.315 456.472 154.086 456.816 155.049 456.816C156.412 456.816 157.314 456.217 157.754 455.019H160.294C159.964 456.176 159.344 457.098 158.436 457.786C157.527 458.461 156.398 458.798 155.049 458.798C153.962 458.798 152.998 458.557 152.158 458.075C151.319 457.58 150.658 456.892 150.176 456.011C149.708 455.116 149.474 454.083 149.474 452.913ZM171.704 447.235V458.612H169.351V457.27C168.979 457.738 168.49 458.11 167.885 458.385C167.293 458.647 166.659 458.777 165.985 458.777C165.09 458.777 164.285 458.592 163.569 458.22C162.867 457.848 162.309 457.298 161.896 456.568C161.497 455.839 161.298 454.958 161.298 453.925V447.235H163.631V453.574C163.631 454.593 163.886 455.377 164.395 455.928C164.904 456.465 165.599 456.733 166.48 456.733C167.361 456.733 168.057 456.465 168.566 455.928C169.089 455.377 169.351 454.593 169.351 453.574V447.235H171.704ZM177.701 458.798C176.806 458.798 176.001 458.64 175.285 458.323C174.583 457.993 174.026 457.552 173.613 457.002C173.2 456.437 172.979 455.811 172.952 455.123H175.388C175.43 455.605 175.657 456.011 176.07 456.341C176.497 456.658 177.027 456.816 177.66 456.816C178.321 456.816 178.83 456.692 179.188 456.444C179.559 456.183 179.745 455.852 179.745 455.453C179.745 455.026 179.539 454.71 179.126 454.503C178.727 454.297 178.087 454.07 177.206 453.822C176.352 453.588 175.657 453.361 175.12 453.14C174.583 452.92 174.115 452.583 173.716 452.129C173.33 451.674 173.138 451.076 173.138 450.332C173.138 449.727 173.317 449.176 173.675 448.68C174.033 448.171 174.542 447.772 175.203 447.483C175.877 447.194 176.648 447.049 177.515 447.049C178.809 447.049 179.849 447.38 180.633 448.04C181.432 448.687 181.858 449.575 181.913 450.704H179.559C179.518 450.195 179.312 449.789 178.94 449.486C178.568 449.183 178.066 449.031 177.433 449.031C176.813 449.031 176.338 449.148 176.008 449.382C175.678 449.616 175.512 449.926 175.512 450.312C175.512 450.614 175.622 450.869 175.843 451.076C176.063 451.282 176.331 451.447 176.648 451.571C176.965 451.681 177.433 451.826 178.052 452.005C178.878 452.225 179.553 452.452 180.076 452.686C180.613 452.906 181.074 453.237 181.459 453.677C181.845 454.118 182.044 454.703 182.058 455.432C182.058 456.079 181.879 456.658 181.521 457.167C181.163 457.676 180.654 458.075 179.993 458.365C179.346 458.654 178.582 458.798 177.701 458.798ZM186.109 449.155V455.453C186.109 455.88 186.205 456.19 186.398 456.382C186.604 456.561 186.948 456.651 187.43 456.651H188.876V458.612H187.017C185.957 458.612 185.145 458.365 184.581 457.869C184.016 457.373 183.734 456.568 183.734 455.453V449.155H182.392V447.235H183.734V444.406H186.109V447.235H188.876V449.155H186.109ZM194.741 458.798C193.668 458.798 192.697 458.557 191.83 458.075C190.963 457.58 190.281 456.892 189.786 456.011C189.29 455.116 189.042 454.083 189.042 452.913C189.042 451.757 189.297 450.731 189.806 449.837C190.316 448.942 191.011 448.254 191.892 447.772C192.773 447.29 193.757 447.049 194.844 447.049C195.932 447.049 196.916 447.29 197.797 447.772C198.678 448.254 199.373 448.942 199.883 449.837C200.392 450.731 200.647 451.757 200.647 452.913C200.647 454.07 200.385 455.095 199.862 455.99C199.339 456.885 198.623 457.58 197.715 458.075C196.82 458.557 195.829 458.798 194.741 458.798ZM194.741 456.754C195.347 456.754 195.911 456.609 196.434 456.32C196.971 456.031 197.405 455.598 197.735 455.019C198.066 454.441 198.231 453.739 198.231 452.913C198.231 452.087 198.073 451.392 197.756 450.828C197.439 450.25 197.019 449.816 196.496 449.527C195.973 449.238 195.409 449.093 194.803 449.093C194.198 449.093 193.633 449.238 193.11 449.527C192.601 449.816 192.195 450.25 191.892 450.828C191.589 451.392 191.437 452.087 191.437 452.913C191.437 454.138 191.747 455.088 192.367 455.763C193 456.424 193.791 456.754 194.741 456.754ZM215.507 447.049C216.402 447.049 217.201 447.235 217.903 447.607C218.618 447.978 219.176 448.529 219.575 449.259C219.988 449.988 220.195 450.869 220.195 451.902V458.612H217.861V452.253C217.861 451.234 217.607 450.456 217.097 449.919C216.588 449.369 215.893 449.093 215.012 449.093C214.131 449.093 213.429 449.369 212.906 449.919C212.396 450.456 212.142 451.234 212.142 452.253V458.612H209.808V452.253C209.808 451.234 209.554 450.456 209.044 449.919C208.535 449.369 207.84 449.093 206.959 449.093C206.078 449.093 205.376 449.369 204.853 449.919C204.343 450.456 204.089 451.234 204.089 452.253V458.612H201.735V447.235H204.089V448.536C204.474 448.068 204.963 447.703 205.555 447.441C206.147 447.18 206.78 447.049 207.454 447.049C208.363 447.049 209.175 447.242 209.891 447.627C210.607 448.013 211.157 448.57 211.543 449.3C211.887 448.612 212.424 448.068 213.153 447.669C213.883 447.256 214.668 447.049 215.507 447.049Z" fill="white"/>
<path d="M179.954 235.518C182.709 240.775 169.435 253.805 162.279 255.001C155.124 256.198 138.779 264.203 138.236 257.387C133.56 254.729 149.018 239.601 154.105 236.934C159.193 234.267 176.145 232.92 179.954 235.518Z" fill="#ECC289"/>
<path d="M178.639 237.171C179.598 233.868 156.394 241.622 148.041 250.346C142.507 256.126 164.462 245.555 178.639 237.171Z" fill="#E4A245"/>
<path d="M264.618 194.369C262.627 203.009 243.857 201.066 238.627 197.509C233.398 193.952 221.404 187.931 225.164 183.216C223.817 178.679 242.664 178.291 247.475 179.651C252.287 181.011 266.609 185.73 264.618 194.369Z" fill="#ECC289"/>
<path d="M262.795 194.638C265.387 193.092 246.097 184.052 235.582 184.614C228.615 184.987 248.814 191.461 262.795 194.638Z" fill="#E4A245"/>
<path d="M95.7363 184.849C96.4742 188.935 105.133 189.055 110.364 190.183C115.596 191.311 130.266 183.084 127.665 179.083C129.073 175.611 114.258 173.865 110.364 174.568C106.471 175.271 96.6994 181.782 95.7363 184.849Z" fill="#ECC289"/>
<path d="M97.1522 185.2C95.2283 183.784 111.114 178.139 119.353 179.387C124.812 180.213 108.407 183.767 97.1522 185.2Z" fill="#E4A245"/>
<path d="M50.504 269.264C48.9523 274.563 63.2006 283.948 69.8518 283.702C76.503 283.457 92.6264 287.696 91.9117 281.39C95.6503 278.098 79.0673 267.211 74.0175 265.733C68.9678 264.254 53.4733 266.189 50.504 269.264Z" fill="#ECC289"/>
<path d="M51.9792 270.524C50.5326 267.696 72.7853 270.427 81.8433 276.809C87.8453 281.039 66.2192 275.512 51.9792 270.524Z" fill="#E4A245"/>
<path d="M178.783 113.113C179.031 108.508 192.856 105.067 198.027 107.105C203.198 109.143 217.073 110.275 214.762 115.044C216.794 118.673 200.713 122.65 196.325 122.415C191.938 122.179 180.269 116.358 178.783 113.113Z" fill="#ECC289"/>
<path d="M180.295 112.53C178.371 114.357 196.656 118.376 205.561 115.861C211.461 114.194 192.894 112.55 180.295 112.53Z" fill="#E4A245"/>
<path d="M199.414 50.3363C202.253 46.7029 195.353 38.6643 192.336 32.6829C189.318 26.7014 172.412 23.0409 171.021 28.1546C167.105 29.556 176.616 43.1192 180.078 45.8243C183.541 48.5294 196.162 51.8069 199.414 50.3363Z" fill="#ECC289"/>
<path d="M198.658 48.9047C198.908 51.5452 182.482 42.5623 177.422 34.8155C174.068 29.6823 189.146 40.6418 198.658 48.9047Z" fill="#E4A245"/>
<path d="M244.051 258.129C241.541 260.962 247.636 270.945 251.833 272.736C256.029 274.527 264.79 281.866 266.189 277.746C269.469 276.797 262.365 265.201 259.666 262.808C256.966 260.416 246.791 257.09 244.051 258.129Z" fill="#ECC289"/>
<path d="M244.598 259.342C244.527 257.165 257.53 265.36 261.283 271.964C263.77 276.34 251.972 266.595 244.598 259.342Z" fill="#E4A245"/>
<path d="M97.5249 119.911C98.7138 123.35 89.6301 129.979 85.2436 130.027C80.8572 130.076 70.3764 133.376 70.6477 129.202C68.0824 127.153 78.6557 119.462 81.9334 118.329C85.2111 117.196 95.4729 117.98 97.5249 119.911Z" fill="#ECC289"/>
<path d="M96.5938 120.786C97.4568 118.879 82.8933 121.38 77.1317 125.868C73.314 128.842 87.3767 124.52 96.5938 120.786Z" fill="#E4A245"/>
<path d="M94.6718 115.455C97.582 129.747 89.23 143.513 76.0172 146.204C62.8044 148.894 49.7341 139.49 46.8239 125.199C43.9137 110.907 46.5452 101.356 67.6569 102.651C88.4348 92.3177 91.7616 101.164 94.6718 115.455Z" fill="#801212"/>
<path d="M92.4198 113.18C95.33 127.471 86.9781 141.238 73.7652 143.928C60.5524 146.619 47.4821 137.215 44.5719 122.923C41.6617 108.632 44.2933 99.0808 65.4049 100.375C86.1828 90.0423 89.5096 98.8884 92.4198 113.18Z" fill="#C61313"/>
<path d="M39.8249 63.0672C38.7259 65.8605 44.4388 60.8562 51.9401 67.7982C59.4414 74.7403 62.2213 101.906 63.2 101.98C64.1787 102.054 65.7185 102.388 67.5839 101.087C69.4494 99.7862 56.7782 68.4502 53.8191 65.8766C50.86 63.3031 40.9239 60.274 39.8249 63.0672Z" fill="#1C572D"/>
<ellipse cx="48.7066" cy="111.061" rx="1.84947" ry="4.98264" transform="rotate(8.83924 48.7066 111.061)" fill="#D9D9D9"/>
</g>
<defs>
<clipPath id="clip0_122_6235">
<rect width="333" height="686" fill="white"/>
</clipPath>
<clipPath id="clip1_122_6235">
<rect width="332" height="323" fill="white" transform="translate(-7 -4)"/>
</clipPath>
</defs>
</svg>
