<svg width="333" height="686" viewBox="0 0 333 686" fill="none" xmlns="http://www.w3.org/2000/svg">
<g clip-path="url(#clip0_122_2)">
<ellipse cx="162.5" cy="645.5" rx="141.5" ry="40.5" fill="black" fill-opacity="0.2"/>
<ellipse cx="167.033" cy="632.72" rx="98.8467" ry="27.5" fill="#89526F"/>
<path d="M15.1465 282.221H318.919L265.88 633.221H68.1862L15.1465 282.221Z" fill="#89526F"/>
<path d="M76.6652 624.5C66.5394 602.5 27.9651 317.5 27.9651 317.5C53.5206 438 67.0216 607 117.168 624.5C161.067 639.82 218.908 641 250.25 633C238.195 641 219.487 645.6 185.155 648C150.824 650.4 86.7909 646.5 76.6652 624.5Z" fill="#AE7E96"/>
<ellipse cx="166.833" cy="281.5" rx="160.566" ry="42.5" fill="#703352" stroke="#E3D9D9" stroke-width="10"/>
<path d="M169.448 320.191C60.717 321.28 33.3934 292.213 29.2956 287.213C29.2956 287.213 13.815 271.713 3.79819 234.214C-6.21862 196.715 7.34965 165.721 21.8821 144.221C45.3047 109.568 92.2735 91.2208 92.2735 91.2208C106.639 52.8703 117.062 32.8998 142.948 15.8998C168.834 -1.10009 195.174 -5.10022 222.806 6.97614C215.393 22.5626 209.718 45.1066 216.766 56.0011C223.813 66.8955 275.139 95.221 291.266 115.92C307.394 136.62 315.106 160.069 302.341 205.8C302.341 205.8 317.946 213.029 322.979 230.857C328.013 248.684 320.966 265.174 320.966 265.174C304.858 293.5 278.178 319.102 169.448 320.191Z" fill="#703352"/>
<path d="M66.0205 480.843C65.1997 480.081 65.165 478.793 65.9436 477.988L68.9335 474.895C69.7053 474.096 70.9797 474.08 71.7723 474.857L74.9744 478C75.9137 478.921 75.7221 480.484 74.5878 481.151L70.8297 483.362C70.0679 483.81 69.1022 483.705 68.4545 483.104L66.0205 480.843Z" fill="#D82B2B"/>
<path d="M92.6488 481.141C93.097 480.114 94.3009 479.656 95.3184 480.124L97.2319 481.005C98.2405 481.47 98.6776 482.667 98.2055 483.672L97.3156 485.567C96.7561 486.758 95.2184 487.094 94.2136 486.244L92.5811 484.863C91.9063 484.292 91.6862 483.346 92.0398 482.536L92.6488 481.141Z" fill="#D82B2B"/>
<path d="M139.288 449.305C140.21 449.942 140.429 451.211 139.775 452.12L137.262 455.611C136.613 456.513 135.354 456.713 134.458 456.057L130.837 453.409C129.774 452.632 129.739 451.059 130.765 450.235L134.166 447.506C134.855 446.952 135.826 446.917 136.553 447.419L139.288 449.305Z" fill="#D82B2B"/>
<path d="M163.803 467.612C164.178 466.557 163.613 465.399 162.55 465.045L160.805 464.464C159.751 464.113 158.614 464.688 158.271 465.744L157.715 467.458C157.309 468.71 158.201 470.006 159.516 470.073L161.381 470.167C162.263 470.212 163.071 469.672 163.367 468.84L163.803 467.612Z" fill="#D82B2B"/>
<path d="M279.893 441.907C280.268 440.851 279.703 439.694 278.641 439.34L276.896 438.759C275.842 438.408 274.704 438.983 274.362 440.039L273.806 441.753C273.399 443.004 274.292 444.301 275.606 444.367L277.471 444.462C278.354 444.507 279.162 443.967 279.457 443.134L279.893 441.907Z" fill="#D82B2B"/>
<path d="M207.177 470.743C206.78 471.79 205.6 472.308 204.561 471.89L197.166 468.917C196.136 468.503 195.641 467.328 196.063 466.301L199.287 458.453C199.787 457.235 201.306 456.824 202.352 457.624L208.765 462.527C209.467 463.064 209.733 463.998 209.42 464.825L207.177 470.743Z" fill="#D82B2B"/>
<path d="M237.753 442.516C238.128 441.46 237.563 440.302 236.5 439.949L232.418 438.59C231.365 438.239 230.227 438.814 229.884 439.87L228.5 444.137C228.093 445.389 228.986 446.685 230.3 446.752L234.655 446.974C235.538 447.019 236.345 446.479 236.641 445.646L237.753 442.516Z" fill="#D82B2B"/>
<path d="M254.643 470.237C254.268 471.293 254.833 472.45 255.895 472.804L266.002 476.169C267.056 476.519 268.194 475.945 268.536 474.888L272.059 464.036C272.465 462.784 271.572 461.488 270.258 461.421L259.484 460.873C258.601 460.828 257.793 461.368 257.497 462.201L254.643 470.237Z" fill="#D82B2B"/>
<path d="M132.053 491.332C131.678 492.387 132.243 493.545 133.306 493.899L140.679 496.353C141.733 496.704 142.87 496.129 143.213 495.073L145.765 487.209C146.171 485.957 145.279 484.661 143.964 484.594L136.103 484.194C135.221 484.149 134.413 484.689 134.117 485.522L132.053 491.332Z" fill="#D82B2B"/>
<path d="M58.9912 447.76C57.8721 447.711 56.9308 448.591 56.904 449.711L56.718 457.479C56.6914 458.589 57.5743 459.508 58.6846 459.526L66.9512 459.662C68.2671 459.684 69.2448 458.451 68.9236 457.174L67.0023 449.541C66.7866 448.684 66.0337 448.07 65.1507 448.031L58.9912 447.76Z" fill="#D82B2B"/>
<path d="M185.5 442.5C209.9 450.5 271.333 425.833 298.5 416L288.5 484.5C276.667 487.5 251.424 487.18 241 484.5C223.5 480 199.5 487.5 181 499.5C166.2 509.1 155.5 512 133.5 511.5C111.5 511 99.3 494.3 86.5 493.5C73.7 492.7 55.3333 497.667 48 500L37 427.5C52.6667 435.667 78 451.043 102 451.043C134.388 451.043 155 432.5 185.5 442.5Z" fill="#B7B7B7" fill-opacity="0.43"/>
<g clip-path="url(#clip1_122_2)">
<path opacity="0.4" fill-rule="evenodd" clip-rule="evenodd" d="M317.411 218.319C306.41 236.725 290.93 258.769 280.323 266.087C272.091 271.766 263.464 266.743 254.88 261.745C247.56 257.483 240.272 253.239 233.287 255.667C226.011 259.444 218.199 270.423 210.368 281.43C201.823 293.44 193.256 305.482 185.337 308.234C170.122 316.132 153.515 289.916 138.834 261.071C128.433 238.718 121.176 239.736 104.381 242.092C97.5308 243.052 89.0945 244.236 78.2115 244.147C55.5316 243.962 53.8118 224.39 52.6547 211.222C51.8952 202.578 51.3781 196.693 45.3335 200.864C31.0075 210.747 15.0836 216.003 0.752824 212.276C-0.467364 184.411 10.5537 161.1 22.1934 143.88C45.6159 109.227 92.5847 90.8798 92.5847 90.8798C106.95 52.5292 117.374 32.5587 143.259 15.5588C169.145 -1.44112 195.485 -5.44126 223.118 6.6351C215.704 22.2215 210.03 44.7656 217.077 55.66C220.199 60.487 232.014 68.7359 245.608 78.2272C262.696 90.1577 282.595 104.051 291.578 115.579C295.126 120.133 298.267 124.821 300.872 129.849L259.488 129.849C274.926 129.975 287.808 129.928 299.58 129.885C300.018 129.883 300.454 129.881 300.888 129.88C310.11 147.701 312.603 169.81 302.652 205.458C302.652 205.458 310.963 209.309 317.411 218.319ZM224.362 129.849L201.883 129.849C209.349 129.855 216.815 129.861 224.362 129.849ZM179.387 129.849L157.366 129.849C164.604 129.855 171.843 129.861 179.387 129.849ZM135.311 129.849L110.596 129.849C119.182 129.855 127.767 129.861 135.311 129.849ZM85.8381 129.849L53.0061 129.849C65.6471 129.855 78.288 129.861 85.8381 129.849Z" fill="#8C5604"/>
<path d="M66.9998 113.104C40.4995 129.604 20.3332 162.437 11 180.104C11 180.104 19.5 177.499 30.5 162.999C41.5 148.499 54 132.395 73.5 121.999C93 111.604 101.667 106.999 110.5 104.999C111.333 102.999 115.2 88.8995 120 76.4995C122.516 69.9995 125 57.6037 144.5 40.4994C164 23.3952 185.5 15.1037 185.5 15.1037C185.5 15.1037 189.3 13.1037 174.5 15.1037C156 17.6037 144 27.6037 133 36.9995C122 46.3953 108.167 80.2704 101.5 96.6037C99.3333 97.437 93.5 96.6037 66.9998 113.104Z" fill="white" fill-opacity="0.2"/>
</g>
<path d="M240.179 233.116C273.961 229.054 296.157 211.513 303.259 203C267.405 223.625 225.625 233.116 166.588 219.751C177.043 225.898 206.397 237.178 240.179 233.116Z" fill="#642B48" fill-opacity="0.6"/>
<path d="M271.997 122.008C261.235 121.574 236.173 114.958 219.434 91.7531C202.759 68.6359 212.643 38.9545 215.797 26.7765C215.809 26.7304 215.821 26.6844 215.833 26.6383C215.821 26.6841 215.809 26.7302 215.797 26.7765C204.638 70.1496 234.293 112.357 271.997 122.008Z" fill="#642B48" fill-opacity="0.6"/>
<path d="M42.0591 256C71.5988 274.496 117.176 285.819 127.461 283.5C95.718 274 29.4138 263.5 3.93579 180C5.72806 200.5 12.5194 237.504 42.0591 256Z" fill="#642B48" fill-opacity="0.6"/>
<path d="M98.5845 152.878C114.655 175.64 144.918 198.067 153.295 199.535C132.73 182.725 86.8128 155.439 94.4084 86C89.2282 101.669 82.5145 130.115 98.5845 152.878Z" fill="#642B48" fill-opacity="0.6"/>
<rect x="66.7571" y="177.232" width="18.3615" height="3.81468" rx="1.90734" transform="rotate(-0.380322 66.7571 177.232)" fill="#4F260F"/>
<rect width="18.3427" height="3.8187" rx="1.90935" transform="matrix(0.962802 0.270207 -0.277061 0.960852 85.8987 277.243)" fill="#4F260F"/>
<rect width="18.3055" height="3.8266" rx="1.9133" transform="matrix(0.881612 0.471974 -0.481825 0.876267 256.587 249.407)" fill="#4F260F"/>
<rect width="18.3055" height="3.8266" rx="1.9133" transform="matrix(0.881612 0.471974 -0.481825 0.876267 236.16 196.268)" fill="#4F260F"/>
<rect width="18.2938" height="3.82907" rx="1.91454" transform="matrix(0.854321 0.519745 -0.529893 0.848065 190.755 125.049)" fill="#4F260F"/>
<rect width="18.1214" height="3.86524" rx="1.93262" transform="matrix(0.0904693 0.995899 -0.996095 0.0882914 172.051 26.8037)" fill="#4F260F"/>
<rect width="18.3603" height="3.81495" rx="1.90748" transform="matrix(-0.996949 0.0780552 -0.0799632 -0.996798 120.739 121.551)" fill="#4F260F"/>
<rect width="18.2834" height="3.83128" rx="1.91564" transform="matrix(-0.829077 -0.559134 0.569382 -0.822073 50.3308 233.717)" fill="#4F260F"/>
<rect width="18.2974" height="3.82831" rx="1.91415" transform="matrix(-0.8561 0.516809 -0.526807 -0.849985 159.38 250.459)" fill="#4F260F"/>
<rect width="18.1422" height="3.86091" rx="1.93046" transform="matrix(0.313871 0.949466 -0.951847 0.306574 181.594 156.27)" fill="#4F260F"/>
<rect width="18.1422" height="3.86091" rx="1.93046" transform="matrix(0.313871 0.949466 -0.951847 0.306574 262.675 100)" fill="#4F260F"/>
<rect width="18.2874" height="3.83043" rx="1.91522" transform="matrix(0.838856 0.544353 -0.554579 0.832131 118.333 198.825)" fill="#4F260F"/>
<rect width="18.3538" height="3.81634" rx="1.90817" transform="matrix(0.982904 -0.184119 0.188728 0.982029 26.74 139.263)" fill="#4F260F"/>
<rect width="18.3615" height="3.81468" rx="1.90734" transform="matrix(0.999958 -0.00917867 0.00924694 0.999957 137.598 75.7178)" fill="#4F260F"/>
<rect width="18.3615" height="3.81468" rx="1.90734" transform="matrix(0.999958 -0.00917867 0.00924694 0.999957 209 232.168)" fill="#4F260F"/>
<rect width="18.3615" height="3.81468" rx="1.90734" transform="matrix(0.999958 -0.00917867 0.00924694 0.999957 275.753 165.557)" fill="#4F260F"/>
<path d="M94.1447 130.434C72.6823 133.91 60.7944 143.056 42.1001 151.343L54.4376 150.143L86.218 139.542L94.1447 130.434Z" fill="#642B48"/>
<path d="M-0.656327 19.4566C-1.66053 16.8842 -0.389292 13.9848 2.18307 12.9806L31.9921 1.34367C34.5645 0.339468 37.4639 1.61071 38.4681 4.18307L89.7434 135.529C90.7476 138.102 89.4764 141.001 86.904 142.005L57.095 153.642C54.5226 154.646 51.6232 153.375 50.619 150.803L-0.656327 19.4566Z" fill="#311907"/>
<path d="M7.85396 23.8871C6.84975 21.3147 8.121 18.4154 10.6934 17.4111L30.045 9.8566C32.6174 8.8524 35.5167 10.1236 36.5209 12.696L86.9915 141.981L58.3245 153.172L7.85396 23.8871Z" fill="#51280B"/>
<path d="M42.1001 151.343C42.1001 151.343 58.2277 149.957 71.4453 144.622C84.663 139.286 93.8929 130.218 93.8929 130.218C93.8929 130.218 97.7713 136.558 92.1555 141.107C86.5397 145.656 68.8485 152.745 58.4463 155.775C48.0442 158.805 42.1001 151.343 42.1001 151.343Z" fill="#642B48"/>
<ellipse rx="31.7239" ry="29.9669" transform="matrix(-0.904674 0.426104 -0.318636 -0.947877 65.2485 229.811)" fill="#A71C1C"/>
<path d="M34.6188 240.948C29.4417 225.547 37.8517 207.071 53.477 199.712C69.1022 192.352 85.9365 198.938 91.1136 214.338C96.2907 229.739 87.8807 248.214 72.2554 255.574C56.6302 262.934 39.7959 256.348 34.6188 240.948Z" fill="#D82B2B" stroke="#A71C1C"/>
<path d="M64.9231 200.506C65.1357 202.101 63.8899 206.278 63.2404 208.167L67.3145 208.3L66.4731 207.06C65.6317 205.82 64.6573 198.514 64.9231 200.506Z" fill="#D75959"/>
<path d="M73.4383 201.244C72.9752 203.247 69.2015 207.591 67.3726 209.512L73.0937 211.715L72.494 209.818C71.8943 207.921 74.0172 198.74 73.4383 201.244Z" fill="#D75959"/>
<path d="M83.5834 209.214C81.8175 210.266 76.0704 210.552 73.4176 210.562L75.7902 216.215L76.7436 214.469C77.6971 212.723 85.7907 207.898 83.5834 209.214Z" fill="#D75959"/>
<path d="M84.9969 217.695C83.2311 218.748 77.484 219.033 74.8312 219.044L77.2038 224.696L78.1572 222.95C79.1107 221.204 87.2043 216.379 84.9969 217.695Z" fill="#D75959"/>
<path d="M87.3357 233.658C85.3743 233.042 81.3344 228.944 79.5597 226.973L76.9228 232.507L78.8604 232.055C80.7981 231.604 89.7873 234.428 87.3357 233.658Z" fill="#D75959"/>
<path d="M78.908 244.048C77.4431 242.465 75.9892 236.545 75.4453 233.783L69.9591 237.633L71.9923 238.201C74.0256 238.769 80.739 246.028 78.908 244.048Z" fill="#D75959"/>
<path d="M69.7567 252.489C69.0646 250.445 70.1496 244.447 70.7786 241.704L64.1998 242.983L65.8249 244.33C67.45 245.678 70.6218 255.043 69.7567 252.489Z" fill="#D75959"/>
<path d="M58.4474 252.489C57.7553 250.445 58.8403 244.447 59.4693 241.704L52.8905 242.983L54.5156 244.33C56.1407 245.678 59.3125 255.043 58.4474 252.489Z" fill="#D75959"/>
<path d="M43.5423 247.552C44.9774 245.941 50.7292 243.923 53.4257 243.115L49.065 238.026L48.6956 240.104C48.326 242.183 41.7484 249.565 43.5423 247.552Z" fill="#D75959"/>
<path d="M37.8384 230.515C39.9954 230.48 45.3748 233.347 47.7948 234.785L48.5881 228.13L46.8083 229.265C45.0283 230.401 35.1422 230.558 37.8384 230.515Z" fill="#D75959"/>
<path d="M39.2525 220.619C41.4095 220.585 46.7888 223.452 49.2089 224.89L50.0021 218.235L48.2223 219.37C46.4424 220.505 36.5562 220.662 39.2525 220.619Z" fill="#D75959"/>
<path d="M46.6678 205.884C48.0655 207.528 49.2722 213.503 49.7009 216.285L55.3423 212.666L53.3345 212.014C51.3266 211.362 44.9206 203.83 46.6678 205.884Z" fill="#D75959"/>
<path d="M53.7364 204.471C55.1341 206.115 56.3408 212.089 56.7695 214.872L62.4109 211.253L60.4031 210.601C58.3952 209.949 51.9892 202.417 53.7364 204.471Z" fill="#D75959"/>
<path d="M77.918 233.888C73.1461 243.721 59.3822 249.135 54.016 244.287C48.6498 239.439 42.6228 228.909 47.3948 219.076C57.1316 204.098 62.868 204.586 71.2968 208.677C77.6294 213.993 82.5772 226.716 77.918 233.888Z" fill="#D75959"/>
<path d="M72.9494 232.581C71.9751 239.409 62.7903 242.094 57.2564 239.409C51.4773 240.146 49.7762 229.312 52.9092 222.856C57.8387 218.234 59.2522 211.166 68.4409 213.286C73.9748 215.972 76.0824 226.125 72.9494 232.581Z" fill="#DB4A4A"/>
<path d="M69.4431 229.192C67.4263 233.349 64.2002 236.612 59.3411 233.588C55.7787 231.859 54.5259 227.088 56.5427 222.932C58.5456 216.114 63.0824 216.808 66.6447 218.537C70.2071 220.266 69.4431 225.302 69.4431 229.192Z" fill="#DD5C5C"/>
<path d="M62.7863 229.544C63.3517 224.455 65.3779 225.538 66.3204 226.717L63.1397 226.363M59.959 226.01L63.1397 226.363M63.1397 226.363L64.1999 222.476M63.1397 226.363L65.6136 229.544L63.1397 226.717L59.959 228.13" stroke="#DB4A4A" stroke-linecap="round" stroke-linejoin="round"/>
<ellipse rx="26.2756" ry="24.8204" transform="matrix(-0.972509 0.232864 -0.118849 -0.992912 134.014 90.0455)" fill="#A71C1C"/>
<path d="M107.381 93.8875C105.788 80.5772 115.687 67.0585 129.557 63.7373C143.428 60.416 155.922 68.5728 157.515 81.8831C159.108 95.1934 149.209 108.712 135.338 112.033C121.468 115.355 108.974 107.198 107.381 93.8875Z" fill="#D82B2B" stroke="#A71C1C"/>
<path d="M138.695 66.2274C138.598 67.556 136.883 70.7332 136.038 72.1558L139.319 72.9508L138.846 71.8035C138.373 70.656 138.816 64.5666 138.695 66.2274Z" fill="#D75959"/>
<path d="M145.475 68.2628C144.762 69.8089 140.969 72.6945 139.161 73.9441L143.429 76.6952L143.263 75.0557C143.097 73.4162 146.367 66.3301 145.475 68.2628Z" fill="#D75959"/>
<path d="M152.357 76.4369C150.747 76.9927 146.039 76.2541 143.886 75.8154L144.856 80.7993L145.924 79.5443C146.992 78.2891 154.369 75.7423 152.357 76.4369Z" fill="#D75959"/>
<path d="M152.072 83.5532C150.463 84.1089 145.754 83.3704 143.601 82.9316L144.571 87.9156L145.639 86.6605C146.707 85.4053 154.084 82.8585 152.072 83.5532Z" fill="#D75959"/>
<path d="M151.275 96.8921C149.789 96.0614 147.204 92.0572 146.098 90.1588L143.026 94.2015L144.673 94.1623C146.32 94.1231 153.133 97.9304 151.275 96.8921Z" fill="#D75959"/>
<path d="M142.688 103.895C141.767 102.363 141.587 97.3177 141.612 94.9864L136.514 97.1823L138.067 97.9861C139.62 98.7899 143.839 105.809 142.688 103.895Z" fill="#D75959"/>
<path d="M133.843 109.195C133.626 107.422 135.518 102.741 136.491 100.622L130.941 100.549L132.031 101.916C133.122 103.283 134.113 111.412 133.843 109.195Z" fill="#D75959"/>
<path d="M124.672 107.287C124.456 105.514 126.348 100.833 127.321 98.714L121.77 98.6413L122.861 100.008C123.951 101.375 124.943 109.504 124.672 107.287Z" fill="#D75959"/>
<path d="M113.419 100.768C114.855 99.7038 119.859 99.0379 122.182 98.838L119.505 93.9753L118.855 95.5984C118.204 97.2215 111.625 102.098 113.419 100.768Z" fill="#D75959"/>
<path d="M111.669 85.9909C113.424 86.327 117.302 89.5594 119.022 91.1336L120.788 85.871L119.153 86.4913C117.518 87.1116 109.475 85.5707 111.669 85.9909Z" fill="#D75959"/>
<path d="M114.485 78.2048C116.24 78.5409 120.118 81.7733 121.838 83.3475L123.604 78.0849L121.969 78.7052C120.335 79.3255 112.291 77.7846 114.485 78.2048Z" fill="#D75959"/>
<path d="M122.984 67.5082C123.84 69.0766 123.811 74.1252 123.689 76.4535L128.874 74.4713L127.356 73.6037C125.838 72.736 121.914 65.5478 122.984 67.5082Z" fill="#D75959"/>
<path d="M128.955 67.5551C129.811 69.1234 129.781 74.1721 129.659 76.5003L134.844 74.5182L133.326 73.6506C131.808 72.7829 127.884 65.5947 128.955 67.5551Z" fill="#D75959"/>
<path d="M143.6 95.4892C138.071 102.658 125.996 104.725 122.463 99.8886C118.93 95.0518 115.819 85.4965 121.348 78.3278C131.771 67.8253 136.34 69.1894 142.485 73.9283C146.723 79.3082 148.588 90.4598 143.6 95.4892Z" fill="#D75959"/>
<path d="M139.791 93.5908C137.849 98.9629 129.948 99.5907 125.914 96.4793C121.103 96.1018 121.552 87.0301 125.182 82.3235C129.959 79.4074 132.298 73.9144 139.391 77.1844C143.425 80.2958 143.421 88.8842 139.791 93.5908Z" fill="#DB4A4A"/>
<path d="M137.52 90.2513C135.183 93.2811 132.016 95.3827 128.586 92.1107C125.989 90.1078 125.778 86.0279 128.115 82.9981C130.89 77.8071 134.451 79.1358 137.048 81.1387C139.645 83.1416 138.176 87.0969 137.52 90.2513Z" fill="#DD5C5C"/>
<path d="M132.063 89.4127C133.38 85.3814 134.84 86.6021 135.405 87.7164L132.886 86.8931M130.366 86.0699L132.886 86.8931M132.886 86.8931L134.402 83.9197M132.886 86.8931L134.355 89.8898L132.826 87.1797L130.009 87.7893" stroke="#DB4A4A" stroke-linecap="round" stroke-linejoin="round"/>
<ellipse rx="21.5809" ry="20.3857" transform="matrix(-0.691429 0.722444 -0.637646 -0.770329 210.302 263.913)" fill="#A71C1C"/>
<path d="M193.684 278.349C186.698 269.909 187.511 256.231 195.58 247.8C203.648 239.369 215.849 239.449 222.836 247.889C229.822 256.329 229.009 270.006 220.94 278.437C212.871 286.868 200.67 286.788 193.684 278.349Z" fill="#D82B2B" stroke="#A71C1C"/>
<path d="M202.939 245.386C203.463 246.346 203.692 249.303 203.741 250.661L206.36 249.751L205.523 249.169C204.686 248.587 202.283 244.186 202.939 245.386Z" fill="#D75959"/>
<path d="M208.526 243.776C208.721 245.161 207.386 248.84 206.694 250.507L210.864 250.508L210.02 249.45C209.176 248.392 208.282 242.045 208.526 243.776Z" fill="#D75959"/>
<path d="M216.913 246.358C216.049 247.458 212.47 249.042 210.788 249.697L213.675 252.706L213.854 251.365C214.033 250.023 217.993 244.983 216.913 246.358Z" fill="#D75959"/>
<path d="M219.882 251.398C219.018 252.498 215.438 254.082 213.757 254.737L216.643 257.746L216.822 256.405C217.001 255.063 220.962 250.023 219.882 251.398Z" fill="#D75959"/>
<path d="M225.265 260.963C223.869 261.05 220.303 259.435 218.695 258.617L218.372 262.774L219.492 262.014C220.612 261.255 227.01 260.853 225.265 260.963Z" fill="#D75959"/>
<path d="M222.451 269.617C221.134 268.969 218.765 265.566 217.746 263.945L215.202 267.729L216.632 267.593C218.062 267.457 224.097 270.427 222.451 269.617Z" fill="#D75959"/>
<path d="M218.702 277.211C217.763 276.083 216.988 272.009 216.717 270.114L212.852 272.532L214.213 272.991C215.574 273.45 219.875 278.621 218.702 277.211Z" fill="#D75959"/>
<path d="M211.521 279.973C210.582 278.844 209.806 274.771 209.536 272.875L205.671 275.294L207.032 275.753C208.393 276.212 212.694 281.383 211.521 279.973Z" fill="#D75959"/>
<path d="M200.851 280.477C201.369 279.104 204.528 276.418 206.043 275.247L202.032 273.08L202.305 274.49C202.578 275.9 200.204 282.194 200.851 280.477Z" fill="#D75959"/>
<path d="M193.07 271.053C194.431 270.505 198.546 271.012 200.434 271.333L199.313 266.914L198.46 268.07C197.607 269.225 191.368 271.739 193.07 271.053Z" fill="#D75959"/>
<path d="M191.551 264.424C192.912 263.876 197.028 264.383 198.915 264.705L197.794 260.285L196.941 261.441C196.088 262.596 189.849 265.11 191.551 264.424Z" fill="#D75959"/>
<path d="M192.661 253.259C193.95 253.961 196.175 257.46 197.127 259.121L199.825 255.447L198.391 255.523C196.957 255.599 191.05 252.381 192.661 253.259Z" fill="#D75959"/>
<path d="M196.804 250.635C198.093 251.337 200.318 254.836 201.27 256.497L203.968 252.822L202.534 252.899C201.1 252.975 195.193 249.757 196.804 250.635Z" fill="#D75959"/>
<path d="M219.341 263.407C218.713 270.816 211.295 277.615 206.704 275.847C202.113 274.079 195.715 268.865 196.344 261.456C198.869 249.568 202.63 248.478 208.981 249.017C214.3 250.846 220.548 257.716 219.341 263.407Z" fill="#D75959"/>
<path d="M215.867 263.792C216.916 268.365 211.74 272.312 207.571 271.959C204.081 273.838 200.356 267.375 200.768 262.51C202.77 258.372 201.941 253.539 208.293 252.642C212.463 252.995 216.28 258.927 215.867 263.792Z" fill="#DB4A4A"/>
<path d="M212.814 262.496C212.548 265.627 211.296 268.487 207.473 267.753C204.789 267.526 202.828 264.803 203.094 261.671C202.701 256.853 205.751 256.186 208.435 256.414C211.119 256.641 211.864 260.026 212.814 262.496Z" fill="#DD5C5C"/>
<path d="M208.673 264.344C207.789 260.975 209.34 261.168 210.226 261.686L208.12 262.239M206.015 262.791L208.12 262.239M208.12 262.239L207.844 259.511M208.12 262.239L210.468 263.654L208.207 262.463L206.532 264.137" stroke="#DB4A4A" stroke-linecap="round" stroke-linejoin="round"/>
<ellipse rx="26.2655" ry="24.8109" transform="matrix(0.904674 0.426104 0.318636 -0.947877 252.254 142.865)" fill="#A71C1C"/>
<path d="M277.536 152.048C281.806 139.347 274.871 124.101 261.973 118.026C249.075 111.951 235.187 117.389 230.917 130.091C226.647 142.793 233.582 158.038 246.48 164.113C259.378 170.188 273.266 164.75 277.536 152.048Z" fill="#D82B2B" stroke="#A71C1C"/>
<path d="M252.523 118.602C252.347 119.922 253.379 123.381 253.917 124.945L250.543 125.055L251.24 124.029C251.937 123.002 252.743 116.952 252.523 118.602Z" fill="#D75959"/>
<path d="M245.473 119.213C245.857 120.872 248.981 124.468 250.496 126.059L245.759 127.882L246.255 126.312C246.752 124.741 244.994 117.14 245.473 119.213Z" fill="#D75959"/>
<path d="M237.074 125.811C238.536 126.683 243.294 126.919 245.491 126.928L243.526 131.608L242.737 130.162C241.947 128.716 235.246 124.721 237.074 125.811Z" fill="#D75959"/>
<path d="M235.904 132.834C237.366 133.705 242.124 133.941 244.32 133.95L242.356 138.63L241.566 137.185C240.777 135.739 234.076 131.744 235.904 132.834Z" fill="#D75959"/>
<path d="M233.967 146.05C235.591 145.54 238.936 142.147 240.405 140.515L242.588 145.097L240.984 144.723C239.38 144.349 231.937 146.688 233.967 146.05Z" fill="#D75959"/>
<path d="M240.945 154.652C242.158 153.341 243.361 148.44 243.812 146.153L248.354 149.34L246.67 149.811C244.987 150.281 239.429 156.291 240.945 154.652Z" fill="#D75959"/>
<path d="M248.522 161.641C249.095 159.949 248.196 154.983 247.675 152.712L253.122 153.771L251.777 154.886C250.431 156.002 247.805 163.756 248.522 161.641Z" fill="#D75959"/>
<path d="M257.885 161.641C258.458 159.949 257.56 154.983 257.039 152.712L262.486 153.771L261.14 154.886C259.795 156.002 257.169 163.756 257.885 161.641Z" fill="#D75959"/>
<path d="M270.226 157.552C269.037 156.219 264.275 154.548 262.043 153.879L265.653 149.666L265.959 151.386C266.265 153.107 271.711 159.219 270.226 157.552Z" fill="#D75959"/>
<path d="M274.948 143.447C273.162 143.418 268.708 145.792 266.705 146.982L266.048 141.472L267.522 142.412C268.995 143.352 277.18 143.482 274.948 143.447Z" fill="#D75959"/>
<path d="M273.777 135.254C271.991 135.226 267.538 137.599 265.534 138.79L264.877 133.28L266.351 134.22C267.824 135.16 276.01 135.29 273.777 135.254Z" fill="#D75959"/>
<path d="M267.638 123.055C266.48 124.415 265.481 129.362 265.126 131.665L260.456 128.67L262.118 128.13C263.78 127.59 269.084 121.354 267.638 123.055Z" fill="#D75959"/>
<path d="M261.785 121.885C260.628 123.245 259.629 128.192 259.274 130.495L254.603 127.5L256.266 126.96C257.928 126.42 263.232 120.184 261.785 121.885Z" fill="#D75959"/>
<path d="M241.764 146.24C245.715 154.381 257.111 158.864 261.554 154.85C265.997 150.836 270.987 142.118 267.036 133.976C258.974 121.575 254.225 121.98 247.246 125.366C242.003 129.768 237.907 140.302 241.764 146.24Z" fill="#D75959"/>
<path d="M245.878 145.158C246.685 150.811 254.289 153.034 258.871 150.811C263.656 151.421 265.064 142.452 262.47 137.106C258.389 133.28 257.219 127.428 249.611 129.183C245.029 131.407 243.284 139.813 245.878 145.158Z" fill="#DB4A4A"/>
<path d="M248.781 142.353C250.451 145.794 253.122 148.496 257.145 145.992C260.095 144.56 261.132 140.611 259.462 137.17C257.804 131.524 254.048 132.1 251.098 133.531C248.149 134.962 248.781 139.132 248.781 142.353Z" fill="#DD5C5C"/>
<path d="M254.293 142.643C253.825 138.43 252.147 139.327 251.367 140.302L254 140.01M256.634 139.717L254 140.01M254 140.01L253.122 136.791M254 140.01L251.952 142.643L254 140.302L256.634 141.473" stroke="#DB4A4A" stroke-linecap="round" stroke-linejoin="round"/>
<ellipse rx="16.0021" ry="15.1159" transform="matrix(0.904674 0.426104 0.318636 -0.947877 300.18 232.16)" fill="#A71C1C"/>
<path d="M315.406 237.673C317.969 230.047 313.809 220.873 306.039 217.214C298.269 213.554 289.921 216.836 287.357 224.462C284.794 232.089 288.954 241.262 296.724 244.922C304.494 248.581 312.842 245.3 315.406 237.673Z" fill="#D82B2B" stroke="#A71C1C"/>
<path d="M300.344 217.38C300.237 218.184 300.865 220.291 301.193 221.244L299.138 221.311L299.562 220.686C299.987 220.06 300.478 216.374 300.344 217.38Z" fill="#D75959"/>
<path d="M296.049 217.751C296.283 218.761 298.186 220.952 299.109 221.922L296.223 223.033L296.525 222.076C296.828 221.119 295.757 216.488 296.049 217.751Z" fill="#D75959"/>
<path d="M290.932 221.771C291.822 222.302 294.721 222.445 296.059 222.451L294.863 225.302L294.382 224.421C293.901 223.541 289.818 221.107 290.932 221.771Z" fill="#D75959"/>
<path d="M290.218 226.049C291.109 226.58 294.008 226.724 295.346 226.729L294.149 229.581L293.669 228.7C293.188 227.819 289.105 225.385 290.218 226.049Z" fill="#D75959"/>
<path d="M289.039 234.101C290.028 233.791 292.066 231.724 292.961 230.729L294.291 233.521L293.314 233.293C292.337 233.065 287.802 234.49 289.039 234.101Z" fill="#D75959"/>
<path d="M293.29 239.342C294.029 238.543 294.762 235.557 295.037 234.164L297.804 236.106L296.778 236.393C295.753 236.679 292.366 240.341 293.29 239.342Z" fill="#D75959"/>
<path d="M297.906 243.6C298.255 242.569 297.708 239.544 297.39 238.16L300.709 238.805L299.889 239.485C299.069 240.164 297.469 244.888 297.906 243.6Z" fill="#D75959"/>
<path d="M303.611 243.6C303.96 242.569 303.412 239.544 303.095 238.16L306.414 238.805L305.594 239.485C304.774 240.164 303.174 244.888 303.611 243.6Z" fill="#D75959"/>
<path d="M311.129 241.109C310.405 240.297 307.504 239.279 306.144 238.872L308.343 236.304L308.53 237.353C308.716 238.401 312.034 242.125 311.129 241.109Z" fill="#D75959"/>
<path d="M314.006 232.516C312.918 232.499 310.205 233.945 308.984 234.67L308.584 231.313L309.482 231.886C310.379 232.459 315.366 232.538 314.006 232.516Z" fill="#D75959"/>
<path d="M313.293 227.524C312.205 227.507 309.491 228.953 308.271 229.678L307.87 226.321L308.768 226.894C309.666 227.466 314.653 227.546 313.293 227.524Z" fill="#D75959"/>
<path d="M309.552 220.092C308.847 220.921 308.238 223.935 308.022 225.338L305.177 223.513L306.189 223.184C307.202 222.855 310.434 219.056 309.552 220.092Z" fill="#D75959"/>
<path d="M305.987 219.379C305.282 220.208 304.673 223.222 304.457 224.625L301.611 222.8L302.624 222.471C303.637 222.142 306.868 218.343 305.987 219.379Z" fill="#D75959"/>
<path d="M293.789 234.217C296.196 239.178 303.139 241.908 305.846 239.463C308.552 237.017 311.593 231.706 309.186 226.746C304.274 219.191 301.381 219.437 297.129 221.5C293.935 224.182 291.439 230.6 293.789 234.217Z" fill="#D75959"/>
<path d="M296.296 233.558C296.787 237.002 301.42 238.356 304.211 237.002C307.126 237.373 307.985 231.909 306.404 228.652C303.918 226.321 303.205 222.756 298.57 223.825C295.778 225.18 294.715 230.301 296.296 233.558Z" fill="#DB4A4A"/>
<path d="M298.064 231.849C299.082 233.945 300.709 235.591 303.16 234.066C304.957 233.194 305.589 230.788 304.571 228.691C303.561 225.252 301.273 225.602 299.476 226.474C297.679 227.346 298.064 229.887 298.064 231.849Z" fill="#DD5C5C"/>
<path d="M301.422 232.026C301.137 229.459 300.115 230.006 299.639 230.6L301.244 230.422M302.848 230.244L301.244 230.422M301.244 230.422L300.709 228.461M301.244 230.422L299.996 232.026L301.244 230.6L302.848 231.313" stroke="#DB4A4A" stroke-linecap="round" stroke-linejoin="round"/>
<path d="M200.504 184.661C198.302 174.445 187.57 166.98 176.487 168.053C165.403 169.125 158.263 178.319 160.466 188.535C162.669 198.751 173.4 206.216 184.484 205.143C195.567 204.071 202.707 194.877 200.504 184.661Z" fill="#D82B2B" stroke="#A71C1C"/>
<path d="M170.322 172.128C170.733 173.089 172.816 175.008 173.807 175.847L171.576 177.275L171.634 176.303C171.692 175.331 169.809 170.927 170.322 172.128Z" fill="#D75959"/>
<path d="M165.812 175.369C166.736 176.333 170.286 177.505 171.946 177.971L169.483 181.101L169.188 179.843C168.892 178.584 164.657 174.163 165.812 175.369Z" fill="#D75959"/>
<path d="M162.794 183.189C164.13 183.191 167.434 181.441 168.919 180.566L169.472 184.51L168.359 183.852C167.247 183.193 161.124 183.188 162.794 183.189Z" fill="#D75959"/>
<path d="M164.822 188.395C166.158 188.397 169.462 186.647 170.947 185.772L171.5 189.716L170.387 189.058C169.275 188.399 163.153 188.394 164.822 188.395Z" fill="#D75959"/>
<path d="M168.819 198.086C169.71 197.09 170.605 193.46 170.941 191.77L174.252 193.984L173.02 194.376C171.787 194.767 167.706 199.331 168.819 198.086Z" fill="#D75959"/>
<path d="M176.977 201.088C177.268 199.717 176.114 195.928 175.5 194.205L179.843 194.533L178.896 195.525C177.949 196.518 176.612 202.802 176.977 201.088Z" fill="#D75959"/>
<path d="M184.891 202.762C184.599 201.391 182.001 198.402 180.738 197.079L184.837 195.608L184.377 196.9C183.917 198.193 185.257 204.476 184.891 202.762Z" fill="#D75959"/>
<path d="M191.206 199.005C190.914 197.634 188.316 194.645 187.053 193.322L191.152 191.851L190.692 193.143C190.232 194.436 191.572 200.719 191.206 199.005Z" fill="#D75959"/>
<path d="M197.889 191.296C196.553 190.873 192.671 191.657 190.896 192.102L191.641 187.811L192.538 188.849C193.434 189.887 199.56 191.825 197.889 191.296Z" fill="#D75959"/>
<path d="M195.415 179.888C194.199 180.585 192.148 183.973 191.274 185.58L188.62 182.127L189.991 182.17C191.362 182.212 196.935 179.016 195.415 179.888Z" fill="#D75959"/>
<path d="M191.338 174.832C190.122 175.529 188.071 178.917 187.197 180.524L184.543 177.071L185.914 177.114C187.285 177.157 192.858 173.96 191.338 174.832Z" fill="#D75959"/>
<path d="M182.303 169.067C182.068 170.449 183.379 174.186 184.064 175.882L179.712 175.736L180.616 174.705C181.521 173.673 182.596 167.34 182.303 169.067Z" fill="#D75959"/>
<path d="M177.886 170.626C177.651 172.008 178.962 175.745 179.647 177.441L175.295 177.294L176.199 176.263C177.104 175.232 178.179 168.898 177.886 170.626Z" fill="#D75959"/>
<path d="M174.155 195.086C180.086 198.992 189.57 197.443 190.956 192.953C192.342 188.463 192.21 180.581 186.279 176.675C175.866 171.546 172.825 173.724 169.477 178.808C167.707 183.881 169.17 192.629 174.155 195.086Z" fill="#D75959"/>
<path d="M176.495 192.706C179.307 196.195 185.328 194.643 187.526 191.305C190.998 189.797 188.349 183.183 184.455 180.618C180.167 179.675 177.03 176.197 172.603 180.434C170.405 183.772 172.601 190.141 176.495 192.706Z" fill="#DB4A4A"/>
<path d="M177.327 189.648C179.834 191.299 182.72 192.049 184.428 188.747C185.843 186.598 184.958 183.518 182.451 181.867C179.068 178.725 176.765 180.62 175.35 182.768C173.935 184.917 176.035 187.476 177.327 189.648Z" fill="#DD5C5C"/>
<path d="M181.161 187.633C179.155 184.979 178.383 186.258 178.248 187.228L179.907 185.975M181.566 184.721L179.907 185.975M179.907 185.975L178.024 184.156M179.907 185.975L179.582 188.572L180.024 186.172L182.27 185.905" stroke="#DB4A4A" stroke-linecap="round" stroke-linejoin="round"/>
<path fill-rule="evenodd" clip-rule="evenodd" d="M146.092 419.657C167.521 410.671 186.53 413.279 206.334 413.695C227.159 414.133 250.47 413.47 258.103 426.824C265.746 440.197 265.044 469.866 256.208 487.928C246.457 507.86 231.412 516.677 208.643 531.511C185.15 546.817 157.442 545.903 135.095 543.008C114.816 540.381 102.529 529.563 93.2469 516.562C83.015 502.23 69.2568 487.031 80.4621 466.483C91.6882 445.898 120.342 430.457 146.092 419.657Z" fill="#703352"/>
<path d="M96.1689 503.44C92.8651 503.44 90.112 502.339 87.9095 500.136C85.762 497.989 84.6883 495.484 84.6883 492.62C84.6883 489.702 85.3766 487.004 86.7532 484.526C88.1297 481.993 90.0845 479.653 92.6173 477.506C95.2053 475.358 98.5641 473.596 102.694 472.22C106.823 470.788 111.394 469.99 116.404 469.824C119.323 462.611 121.911 454.544 124.168 445.624C124.223 445.294 124.251 444.881 124.251 444.385C124.251 443.835 123.976 443.367 123.425 442.981V442.155C128.16 441.274 132.483 440.834 136.392 440.834L141.348 441.164C142.779 443.697 143.578 447.221 143.743 451.736C143.908 456.196 144.018 463.96 144.073 475.028C150.02 477.616 155.113 480.892 159.353 484.856C159.133 485.572 158.692 486.288 158.032 487.004C157.426 487.665 156.848 488.16 156.297 488.491L155.471 488.986C152.223 485.793 148.451 483.067 144.156 480.809C144.266 483.948 144.569 486.591 145.064 488.738C145.835 492.262 146.744 494.024 147.79 494.024C148.396 494.024 149.112 493.887 149.938 493.611L151.176 496.833C147.377 499.255 143.743 500.467 140.274 500.467C134.548 500.467 131.684 496.144 131.684 487.499V476.68C127.83 475.744 124.333 475.165 121.195 474.945C114.037 493.942 105.695 503.44 96.1689 503.44ZM114.34 474.863C108.117 475.358 102.942 477.533 98.8119 481.388C94.6822 485.242 92.6173 488.848 92.6173 492.207C92.6173 495.566 93.9113 497.246 96.4993 497.246C101.785 497.246 107.732 489.785 114.34 474.863ZM130.776 447.441C130.666 447.386 130.445 447.359 130.115 447.359C129.785 447.359 129.564 447.386 129.454 447.441C128.959 451.626 126.811 459.142 123.012 469.99C125.71 470.155 128.601 470.54 131.684 471.146C131.684 457.6 131.381 449.699 130.776 447.441ZM171.713 467.016C169.511 467.016 167.749 468.861 166.427 472.55C165.106 476.184 164.445 480.094 164.445 484.278C164.445 490.886 166.482 494.19 170.557 494.19C171.878 494.19 173.283 493.887 174.769 493.281C176.256 492.62 177.44 491.987 178.321 491.381L179.56 490.39L181.459 492.951C181.074 493.336 180.551 493.859 179.89 494.52C179.229 495.126 177.853 496.062 175.76 497.328C173.723 498.595 171.658 499.476 169.566 499.971C168.189 500.962 166.978 502.174 165.932 503.605C164.941 505.037 164.445 506.413 164.445 507.735C164.445 509.112 165.106 509.8 166.427 509.8C167.749 509.8 169.318 509.277 171.135 508.231L172.044 507.652L173.53 509.965C173.145 510.35 172.622 510.818 171.961 511.369C171.3 511.975 169.979 512.746 167.997 513.682C166.014 514.673 164.17 515.168 162.463 515.168C160.756 515.168 159.379 514.645 158.333 513.599C157.287 512.608 156.764 511.287 156.764 509.635C156.764 508.038 157.452 506.386 158.829 504.679C160.205 503.027 161.774 501.595 163.536 500.384C159.792 499.999 156.984 498.429 155.112 495.676C153.295 492.923 152.386 489.344 152.386 484.939C152.386 478.387 154.176 473.073 157.755 468.998C161.389 464.924 166.042 462.886 171.713 462.886C175.402 462.886 178.321 463.74 180.468 465.447C182.671 467.099 183.772 469.164 183.772 471.641C183.772 474.064 183.001 476.157 181.459 477.919C180.083 477.919 178.486 477.616 176.669 477.01C174.852 476.404 173.475 475.661 172.539 474.78L173.778 467.512C173.283 467.181 172.594 467.016 171.713 467.016ZM210.158 465.282C210.268 465.172 210.571 464.456 211.066 463.134C213.654 463.134 217.123 463.905 221.473 465.447C220.096 470.017 218.995 474.808 218.169 479.818C217.343 484.774 216.93 488.325 216.93 490.473C216.93 492.565 217.15 493.611 217.591 493.611C217.921 493.611 219.133 493.088 221.225 492.042L222.216 491.547L223.703 494.437C223.207 494.878 222.547 495.428 221.721 496.089C220.95 496.75 219.463 497.659 217.261 498.815C215.058 499.916 213.076 500.467 211.314 500.467C207.9 500.467 205.918 498.925 205.367 495.841C201.843 498.925 198.649 500.467 195.786 500.467C192.978 500.467 190.583 499.365 188.601 497.163C186.673 494.96 185.71 491.492 185.71 486.756C185.71 479.378 187.224 473.569 190.252 469.329C193.281 465.034 196.943 462.886 201.237 462.886C204.321 462.886 207.294 463.685 210.158 465.282ZM200.742 493.446C202.063 493.446 203.55 492.923 205.202 491.877C205.587 484.113 206.881 476.432 209.084 468.833C207.432 468.117 206.028 467.76 204.872 467.76C202.889 467.76 201.182 469.714 199.751 473.624C198.374 477.478 197.686 481.745 197.686 486.426C197.686 491.106 198.705 493.446 200.742 493.446ZM226.798 454.462C231.423 451.984 237.975 447.717 246.455 441.66C247.006 442.431 247.611 443.642 248.272 445.294C248.988 446.946 249.346 448.185 249.346 449.011C249.346 450.552 248.355 451.791 246.372 452.727C242.188 454.655 236.158 456.362 228.284 457.848L226.798 454.462ZM237.865 491.381C237.865 492.868 238.113 493.611 238.609 493.611C238.939 493.611 240.205 493.088 242.408 492.042L243.399 491.547L244.803 494.437C244.308 494.878 243.647 495.428 242.821 496.089C241.995 496.75 240.453 497.659 238.196 498.815C235.938 499.916 233.846 500.467 231.918 500.467C229.991 500.467 228.477 499.889 227.376 498.732C226.275 497.521 225.724 495.924 225.724 493.942C225.724 491.904 226.412 488.325 227.789 483.205C229.165 478.029 229.854 474.67 229.854 473.128C229.854 470.815 229.138 468.641 227.706 466.603L226.963 465.612L227.045 464.538C229.964 463.712 234.699 463.299 241.252 463.299C241.967 464.125 242.325 465.722 242.325 468.09C242.325 470.458 241.609 474.395 240.178 479.901C238.746 485.352 238.003 488.573 237.948 489.564C237.893 490.5 237.865 491.106 237.865 491.381Z" fill="#F7B90A"/>
<path d="M149.474 452.913C149.474 451.743 149.708 450.718 150.176 449.837C150.658 448.942 151.319 448.254 152.158 447.772C152.998 447.29 153.962 447.049 155.049 447.049C156.426 447.049 157.561 447.38 158.456 448.04C159.365 448.687 159.977 449.616 160.294 450.828H157.754C157.548 450.263 157.217 449.823 156.763 449.506C156.309 449.19 155.738 449.031 155.049 449.031C154.086 449.031 153.315 449.376 152.737 450.064C152.172 450.738 151.89 451.688 151.89 452.913C151.89 454.138 152.172 455.095 152.737 455.783C153.315 456.472 154.086 456.816 155.049 456.816C156.412 456.816 157.314 456.217 157.754 455.019H160.294C159.964 456.176 159.344 457.098 158.436 457.786C157.527 458.461 156.398 458.798 155.049 458.798C153.962 458.798 152.998 458.557 152.158 458.075C151.319 457.58 150.658 456.892 150.176 456.011C149.708 455.116 149.474 454.083 149.474 452.913ZM171.704 447.235V458.612H169.351V457.27C168.979 457.738 168.49 458.11 167.885 458.385C167.293 458.647 166.659 458.777 165.985 458.777C165.09 458.777 164.285 458.592 163.569 458.22C162.867 457.848 162.309 457.298 161.896 456.568C161.497 455.839 161.298 454.958 161.298 453.925V447.235H163.631V453.574C163.631 454.593 163.886 455.377 164.395 455.928C164.904 456.465 165.599 456.733 166.48 456.733C167.361 456.733 168.057 456.465 168.566 455.928C169.089 455.377 169.351 454.593 169.351 453.574V447.235H171.704ZM177.701 458.798C176.806 458.798 176.001 458.64 175.285 458.323C174.583 457.993 174.026 457.552 173.613 457.002C173.2 456.437 172.979 455.811 172.952 455.123H175.388C175.43 455.605 175.657 456.011 176.07 456.341C176.497 456.658 177.027 456.816 177.66 456.816C178.321 456.816 178.83 456.692 179.188 456.444C179.559 456.183 179.745 455.852 179.745 455.453C179.745 455.026 179.539 454.71 179.126 454.503C178.727 454.297 178.087 454.07 177.206 453.822C176.352 453.588 175.657 453.361 175.12 453.14C174.583 452.92 174.115 452.583 173.716 452.129C173.33 451.674 173.138 451.076 173.138 450.332C173.138 449.727 173.317 449.176 173.675 448.68C174.033 448.171 174.542 447.772 175.203 447.483C175.877 447.194 176.648 447.049 177.515 447.049C178.809 447.049 179.849 447.38 180.633 448.04C181.432 448.687 181.858 449.575 181.913 450.704H179.559C179.518 450.195 179.312 449.789 178.94 449.486C178.568 449.183 178.066 449.031 177.433 449.031C176.813 449.031 176.338 449.148 176.008 449.382C175.678 449.616 175.512 449.926 175.512 450.312C175.512 450.614 175.622 450.869 175.843 451.076C176.063 451.282 176.331 451.447 176.648 451.571C176.965 451.681 177.433 451.826 178.052 452.005C178.878 452.225 179.553 452.452 180.076 452.686C180.613 452.906 181.074 453.237 181.459 453.677C181.845 454.118 182.044 454.703 182.058 455.432C182.058 456.079 181.879 456.658 181.521 457.167C181.163 457.676 180.654 458.075 179.993 458.365C179.346 458.654 178.582 458.798 177.701 458.798ZM186.109 449.155V455.453C186.109 455.88 186.205 456.19 186.398 456.382C186.604 456.561 186.948 456.651 187.43 456.651H188.876V458.612H187.017C185.957 458.612 185.145 458.365 184.581 457.869C184.016 457.373 183.734 456.568 183.734 455.453V449.155H182.392V447.235H183.734V444.406H186.109V447.235H188.876V449.155H186.109ZM194.741 458.798C193.668 458.798 192.697 458.557 191.83 458.075C190.963 457.58 190.281 456.892 189.786 456.011C189.29 455.116 189.042 454.083 189.042 452.913C189.042 451.757 189.297 450.731 189.806 449.837C190.316 448.942 191.011 448.254 191.892 447.772C192.773 447.29 193.757 447.049 194.844 447.049C195.932 447.049 196.916 447.29 197.797 447.772C198.678 448.254 199.373 448.942 199.883 449.837C200.392 450.731 200.647 451.757 200.647 452.913C200.647 454.07 200.385 455.095 199.862 455.99C199.339 456.885 198.623 457.58 197.715 458.075C196.82 458.557 195.829 458.798 194.741 458.798ZM194.741 456.754C195.347 456.754 195.911 456.609 196.434 456.32C196.971 456.031 197.405 455.598 197.735 455.019C198.066 454.441 198.231 453.739 198.231 452.913C198.231 452.087 198.073 451.392 197.756 450.828C197.439 450.25 197.019 449.816 196.496 449.527C195.973 449.238 195.409 449.093 194.803 449.093C194.198 449.093 193.633 449.238 193.11 449.527C192.601 449.816 192.195 450.25 191.892 450.828C191.589 451.392 191.437 452.087 191.437 452.913C191.437 454.138 191.747 455.088 192.367 455.763C193 456.424 193.791 456.754 194.741 456.754ZM215.507 447.049C216.402 447.049 217.201 447.235 217.903 447.607C218.618 447.978 219.176 448.529 219.575 449.259C219.988 449.988 220.195 450.869 220.195 451.902V458.612H217.861V452.253C217.861 451.234 217.607 450.456 217.097 449.919C216.588 449.369 215.893 449.093 215.012 449.093C214.131 449.093 213.429 449.369 212.906 449.919C212.396 450.456 212.142 451.234 212.142 452.253V458.612H209.808V452.253C209.808 451.234 209.554 450.456 209.044 449.919C208.535 449.369 207.84 449.093 206.959 449.093C206.078 449.093 205.376 449.369 204.853 449.919C204.343 450.456 204.089 451.234 204.089 452.253V458.612H201.735V447.235H204.089V448.536C204.474 448.068 204.963 447.703 205.555 447.441C206.147 447.18 206.78 447.049 207.454 447.049C208.363 447.049 209.175 447.242 209.891 447.627C210.607 448.013 211.157 448.57 211.543 449.3C211.887 448.612 212.424 448.068 213.153 447.669C213.883 447.256 214.668 447.049 215.507 447.049Z" fill="white"/>
</g>
<defs>
<clipPath id="clip0_122_2">
<rect width="333" height="686" fill="white"/>
</clipPath>
<clipPath id="clip1_122_2">
<rect width="332" height="323" fill="white" transform="translate(-7 -4)"/>
</clipPath>
</defs>
</svg>
