<svg width="40" height="65" viewBox="0 0 40 65" fill="none" xmlns="http://www.w3.org/2000/svg">
<path d="M12.3075 4.10951C11.3009 2.10605 8.86074 1.29794 6.85729 2.30454L3.71339 3.88414C1.70994 4.89074 0.901829 7.33087 1.90843 9.33432L27.6516 60.5715C28.6582 62.5749 31.0983 63.383 33.1018 62.3764L36.2457 60.7968C38.2491 59.7902 39.0572 57.3501 38.0506 55.3466L12.3075 4.10951Z" fill="#311907"/>
<path d="M12.3075 4.10951C11.3009 2.10605 8.86074 1.29794 6.85729 2.30454L3.71339 3.88414C1.70994 4.89074 0.901829 7.33087 1.90843 9.33432L27.6516 60.5715C28.6582 62.5749 31.0983 63.383 33.1018 62.3764L36.2457 60.7968C38.2491 59.7902 39.0572 57.3501 38.0506 55.3466L12.3075 4.10951Z" fill="#311907"/>
<rect width="7.76531" height="58.1163" rx="2.25885" transform="matrix(-0.893556 0.448951 0.448951 0.893556 10.2754 4.69385)" fill="#311907"/>
<rect width="7.76531" height="58.1163" rx="2.25885" transform="matrix(-0.893556 0.448951 0.448951 0.893556 10.2754 4.69385)" fill="#51280B"/>
</svg>
