<svg width="34" height="60" viewBox="0 0 34 60" fill="none" xmlns="http://www.w3.org/2000/svg">
<path d="M33.2264 42.7599C32.7654 52.3583 25.1978 59.7938 16.3238 59.3676C7.44985 58.9413 0.629798 50.8147 1.09084 41.2163C1.55188 31.6179 4.78235 25.9461 18.0536 30.199C32.9987 26.9727 33.6875 33.1615 33.2264 42.7599Z" fill="#671212"/>
<path d="M32.1576 40.9411C31.6966 50.5395 24.1291 57.975 15.2551 57.5488C6.38107 57.1225 -0.438976 48.9959 0.0220636 39.3975C0.483103 29.7991 3.71357 24.1273 16.9848 28.3802C31.9299 25.1539 32.6187 31.3427 32.1576 40.9411Z" fill="#C61313"/>
<path d="M6.705 0.404673C5.54986 2.00998 10.0101 -0.258448 13.6736 5.39196C17.3371 11.0424 14.7035 28.8406 15.3164 29.0469C15.9293 29.2532 16.8584 29.7164 18.2607 29.1883C19.6631 28.6602 16.6573 6.59347 15.1854 4.46985C13.7134 2.34624 7.86014 -1.20064 6.705 0.404673Z" fill="#1C572D"/>
<path d="M5.7085 32.9719C4.99718 34.6396 3.91871 35.7776 3.29967 35.5136C2.68063 35.2495 2.75544 33.6835 3.46676 32.0158C4.17808 30.348 5.25656 29.2101 5.8756 29.4741C6.49464 29.7381 6.41983 31.3042 5.7085 32.9719Z" fill="#D9D9D9"/>
</svg>
